<svg width="44" height="44" viewBox="0 0 44 44" fill="none" xmlns="http://www.w3.org/2000/svg">
  <g clip-path="url(#clip0_159_7661)">
    <path d="M44 9.19395V31.1103C44 33.9543 41.1099 36.2671 37.5547 36.2671C35.8669 36.2671 34.3277 35.7454 33.1787 34.8937C31.9069 33.9508 31.1094 32.604 31.1094 31.1103C31.1094 29.6166 31.9069 28.2698 33.1787 27.3269C34.3277 26.4752 35.8669 25.9535 37.5547 25.9535C39.0113 25.9535 40.3416 26.3566 41.4219 27.0107V16.306L33.1787 19.8393L25.9531 22.9359V38.8455C25.9531 41.6895 23.063 44.0023 19.5078 44.0023C15.9526 44.0023 13.0625 41.6895 13.0625 38.8455C13.0625 36.0015 15.9526 33.6887 19.5078 33.6887C20.9645 33.6887 22.2948 34.0918 23.375 34.7458V16.9291C23.375 16.4126 23.6818 15.9468 24.1553 15.7448L42.2022 8.0096C42.6027 7.83513 43.0607 7.87982 43.4208 8.1179C43.7834 8.35683 44 8.76078 44 9.19395Z" fill="#3F170D"/>
    <path d="M20.625 14.1788C20.625 17.1955 17.9694 19.9544 17.66 20.238C17.1702 20.7537 16.3454 20.7537 15.8554 20.238C15.3398 19.7481 15.3398 18.923 15.8554 18.4331C16.4483 17.8143 18.0468 15.8547 18.0468 14.1788C18.0468 11.42 15.2109 7.39766 12.8905 4.63878V23.2032C12.8905 23.4094 12.8647 23.6673 12.8389 23.9251C12.5811 25.3175 11.653 26.5293 10.3124 27.3286C9.25544 27.9732 7.88894 28.36 6.44519 28.36C2.88738 28.36 -0.00012207 26.0394 -0.00012207 23.2032C-0.00012207 20.3669 2.88738 18.0464 6.44519 18.0464C7.91473 18.0464 9.22966 18.4589 10.3124 19.1035V1.28687C10.3124 0.771189 10.6218 0.307078 11.1116 0.100721C11.6014 -0.105637 12.1685 0.0234551 12.5037 0.384344C13.3547 1.20943 20.625 8.66108 20.625 14.1788Z" fill="#FFD284"/>
    <path d="M20.625 14.1788C20.625 17.1955 17.9694 19.9544 17.66 20.238C17.1702 20.7537 16.3454 20.7537 15.8554 20.238C15.3398 19.7481 15.3398 18.923 15.8554 18.4331C16.4483 17.8143 18.0468 15.8547 18.0468 14.1788C18.0468 11.42 15.2109 7.39766 12.8905 4.63878V23.2032C12.8905 23.4094 12.8647 23.6673 12.8389 23.9251C12.5811 25.3175 11.653 26.5293 10.3124 27.3286V1.28687C10.3124 0.771189 10.6218 0.307078 11.1116 0.100721C11.6014 -0.105637 12.1685 0.0234551 12.5037 0.384344C13.3547 1.20943 20.625 8.66108 20.625 14.1788Z" fill="#FFD284"/>
    <path d="M43.4208 8.11705C43.0607 7.879 42.6027 7.83431 42.2022 8.00877L33.1787 11.876V19.8372L41.4219 16.3043V27.0078C40.3416 26.3538 39.0113 25.9508 37.5547 25.9508C35.8669 25.9508 34.3277 26.4724 33.1787 27.3241C31.9069 28.2668 31.1094 29.6134 31.1094 31.107C31.1094 32.6006 31.9069 33.9473 33.1787 34.89C34.3277 35.7416 35.8669 36.2633 37.5547 36.2633C41.1099 36.2633 44 33.9507 44 31.107V9.19299C44 8.75986 43.7834 8.35596 43.4208 8.11705Z" fill="#3F170D"/>
  </g>
  <defs>
    <clipPath id="clip0_159_7661">
      <rect width="44" height="44" fill="white"/>
    </clipPath>
  </defs>
</svg>
