<svg width="46" height="46" viewBox="0 0 46 46" fill="none" xmlns="http://www.w3.org/2000/svg">
<path d="M30.3043 33.0625H24.9766V45.5508H8.17578V29.8461L3.59375 25.8031V21.6613L7.41211 19.0199C9.06523 17.8789 11.0777 17.3848 13.0633 17.6363L22.3441 18.8043C25.1113 19.1547 27.3844 21.1672 28.0492 23.8805L30.3043 33.0625Z" fill="white"/>
<path d="M23.2695 28.5703L22.7215 22.9731L19.9004 28.5703H23.2695Z" fill="#3F170D"/>
<path d="M27.6718 32.1461C27.6718 29.8191 25.7851 27.9414 23.4672 27.9414C23.0988 27.9414 22.7394 28.0043 22.389 28.1391C20.1789 28.9746 17.6992 28.6961 15.7316 27.3844C15.0488 26.9262 14.339 26.459 13.7101 26.0367C12.3265 25.1113 10.7093 24.6262 9.04724 24.6262C7.18747 24.6262 5.46248 25.2191 4.06091 26.2254L8.17576 29.8461V44.7152C8.44529 44.7332 8.65193 44.7422 8.90349 44.7422H9.02029C10.7093 44.7422 12.3355 44.248 13.7191 43.3316C14.366 42.9004 15.0937 42.4152 15.7855 41.957C17.7261 40.6633 20.1699 40.3848 22.3531 41.2113L22.398 41.2293C22.7394 41.3551 23.1078 41.427 23.4761 41.427C24.0062 41.427 24.5363 41.3281 24.9855 41.1484V33.0625H27.6808V32.1461H27.6718Z" fill="#3F170D"/>
<path d="M23.7188 27.1328H28.8398L30.3043 33.0625H24.9766L23.7188 27.1328Z" fill="#F7CEBF"/>
<path d="M23.4672 26.3242C23.0988 26.3242 22.7395 26.3871 22.3891 26.5219C20.1789 27.3574 17.6992 27.0789 15.7316 25.7672C15.0488 25.309 14.3391 24.8418 13.7102 24.4195C12.3266 23.4941 10.7094 23.009 9.04727 23.009C4.29453 23 0.449219 26.8453 0.449219 31.598V34.6797C0.449219 39.3426 4.23164 43.125 8.90352 43.125H9.02031C10.7094 43.125 12.3355 42.6308 13.7191 41.7144C14.366 41.2832 15.0938 40.798 15.7855 40.3398C17.7262 39.0461 20.1699 38.7676 22.3531 39.5941L22.398 39.6121C22.7395 39.7379 23.1078 39.8098 23.4762 39.8098C25.8031 39.8098 27.6809 37.923 27.6809 35.6051V30.5379C27.6719 28.2109 25.7852 26.3242 23.4672 26.3242Z" fill="#FFD284"/>
<path d="M3.10864 25.3809L11.0957 35.4973C11.6079 36.1531 12.5692 36.234 13.1981 35.686L15.0399 34.0598L6.40591 23.4133C5.15708 23.8176 4.03403 24.5004 3.10864 25.3809Z" fill="#3F170D"/>
<path d="M18.957 36.3867C20.7929 36.3867 22.2812 34.8984 22.2812 33.0625C22.2812 31.2266 20.7929 29.7383 18.957 29.7383C17.1211 29.7383 15.6328 31.2266 15.6328 33.0625C15.6328 34.8984 17.1211 36.3867 18.957 36.3867Z" fill="#3F170D"/>
<path d="M22.2543 31.0859H40.2051V35.0391H22.2543V31.0859Z" fill="#3F170D"/>
<path d="M24.5273 31.0859H25.4258V35.0391H24.5273V31.0859Z" fill="#FFD284"/>
<path d="M27.2227 31.0859H28.1211V35.0391H27.2227V31.0859Z" fill="#FFD284"/>
<path d="M29.8281 31.0859H30.7266V35.0391H29.8281V31.0859Z" fill="#FFD284"/>
<path d="M32.5234 31.0859H33.4219V35.0391H32.5234V31.0859Z" fill="#FFD284"/>
<path d="M35.2188 31.0859H36.1172V35.0391H35.2188V31.0859Z" fill="#FFD284"/>
<path d="M8.17578 27.8516H9.97266V38.2734H8.17578V27.8516Z" fill="#3F170D"/>
<path d="M9.07422 32.8828H38.3633V33.332H9.07422V32.8828Z" fill="white"/>
<path d="M9.07422 31.0859H38.3633V31.5352H9.07422V31.0859Z" fill="white"/>
<path d="M9.07422 34.5898H38.3633V35.0391H9.07422V34.5898Z" fill="white"/>
<path d="M38.3633 31.0859V35.0391L42.9273 36.827C44.1852 37.3211 45.5508 36.3957 45.5508 35.0391L42.1637 30.8434C41.5887 30.1336 40.5914 29.927 39.7828 30.3492L38.3633 31.0859Z" fill="#FFD284"/>
<path d="M43.125 35.3086L42.559 34.6078L43.2598 34.0418L43.8258 34.7426L43.125 35.3086ZM41.993 33.916L41.427 33.2152L42.1278 32.6492L42.6938 33.35L41.993 33.916ZM40.87 32.5145L40.304 31.8137L41.0047 31.2477L41.5708 31.9484L40.87 32.5145Z" fill="white"/>
<path d="M19.2266 18.0406H15.6328V18.9391C15.6328 19.9273 16.4414 20.7359 17.4297 20.7359C18.418 20.7359 19.2266 19.9273 19.2266 18.9391V18.0406Z" fill="#F7CEBF"/>
<path d="M13.2969 30.1156L15.7586 31.1758L14.375 32.4426L14.9051 33.7094L13.1711 35.1109C12.659 35.5242 11.8953 35.2816 11.7156 34.6527L11.0598 32.3797L3.09063 25.3539C2.20117 24.5723 2.07539 23.2246 2.81211 22.2902C3.67461 21.1941 5.31875 21.1402 6.25313 22.1824L13.2969 30.1156Z" fill="#F7CEBF"/>
<path d="M35.668 35.0391V33.0625H38.3633V34.6887C38.3633 35.8746 37.5008 36.8898 36.3328 37.0785L30.8703 37.959C29.4238 38.1926 28.0402 37.2941 27.6719 35.8746V35.0391H35.668Z" fill="#F7CEBF"/>
<path d="M14.375 32.4426L13.8899 31.2926L15.7586 31.1758L14.375 32.4426Z" fill="#F7CEBF"/>
<path d="M35.668 35.039H27.6719V35.8476C27.7887 36.2969 28.0043 36.6922 28.2828 37.0156L35.668 35.039Z" fill="#F7CEBF"/>
<path d="M17.4297 12.0211H24.5453C25.5785 12.0211 26.4141 11.1856 26.4141 10.1524C26.4141 9.11915 25.5785 8.2836 24.5453 8.2836H17.4297V12.0211Z" fill="#F7CEBF"/>
<path d="M17.4297 12.0211H10.3141C9.28086 12.0211 8.44531 11.1856 8.44531 10.1524C8.44531 9.11915 9.28086 8.2836 10.3141 8.2836H17.4297V12.0211Z" fill="#F7CEBF"/>
<path d="M17.4297 18.409C14.0426 18.409 11.2933 15.6598 11.2933 12.2727V2.7043H23.575V12.2727C23.566 15.6598 20.8168 18.409 17.4297 18.409Z" fill="#F7CEBF"/>
<path d="M11.2933 2.7043H23.575V8.27461H11.2933V2.7043Z" fill="#F7CEBF"/>
<path d="M14.0156 8.89453H15.9023V9.79297H14.0156V8.89453Z" fill="#3F170D"/>
<path d="M15.4531 10.5117H16.3516V11.9492H15.4531V10.5117Z" fill="#3F170D"/>
<path d="M18.957 8.89453H20.8438V9.79297H18.957V8.89453Z" fill="#3F170D"/>
<path d="M18.5078 10.5117H19.4062V11.9492H18.5078V10.5117Z" fill="#3F170D"/>
<path d="M17.4297 1.92266C16.8726 1.00625 15.8754 0.449219 14.8062 0.449219H14.3121C11.3203 0.449219 9.11911 3.24336 9.81091 6.1543L10.314 8.27461H12.5871C13.3058 8.27461 13.9617 7.84336 14.2402 7.17852L14.959 5.50742C15.3633 4.55508 16.4953 4.1418 17.4207 4.60898C18.3461 4.1418 19.4781 4.55508 19.8824 5.50742L20.6011 7.17852C20.8886 7.84336 21.5355 8.27461 22.2543 8.27461H24.5273L25.0304 6.1543C25.7492 3.24336 23.539 0.449219 20.5472 0.449219H20.0531C18.984 0.449219 17.9867 1.00625 17.4297 1.92266Z" fill="#3F170D"/>
<path d="M17.4297 4.60898C18.0586 4.31249 18.6875 4.37539 19.2266 4.71679V0.56601C18.5078 0.77265 17.843 1.24882 17.4297 1.92265V4.60898Z" fill="#3F170D"/>
</svg>
