<svg width="44" height="44" viewBox="0 0 44 44" fill="none" xmlns="http://www.w3.org/2000/svg">
<path d="M27.8625 34.8676H16.1366V44H27.8625V34.8676Z" fill="#3F170D"/>
<path d="M27.8634 34.8676H22V44H27.8634V34.8676Z" fill="#3F170D"/>
<path d="M13.4769 6.12465H5.89136V8.70272H13.4769V6.12465Z" fill="#FFD284"/>
<path d="M5.12501 10.6352C6.54604 10.6352 7.69801 9.48319 7.69801 8.06216V6.76581C7.69801 5.34478 6.54604 4.19281 5.12501 4.19281C3.70397 4.19281 2.552 5.34478 2.552 6.76581V8.06216C2.552 9.48319 3.70397 10.6352 5.12501 10.6352Z" fill="#FFD284"/>
<path d="M13.4769 18.2803H5.89136V20.8583H13.4769V18.2803Z" fill="#FFD284"/>
<path d="M5.12501 22.7903C6.54604 22.7903 7.69801 21.6384 7.69801 20.2173V18.921C7.69801 17.5 6.54604 16.348 5.12501 16.348C3.70397 16.348 2.552 17.5 2.552 18.921V20.2173C2.552 21.6384 3.70397 22.7903 5.12501 22.7903Z" fill="#FFD284"/>
<path d="M13.4769 30.4359H5.89136V33.014H13.4769V30.4359Z" fill="#FFD284"/>
<path d="M5.12501 34.9456C6.54604 34.9456 7.69801 33.7937 7.69801 32.3726V31.0763C7.69801 29.6553 6.54604 28.5033 5.12501 28.5033C3.70397 28.5033 2.552 29.6553 2.552 31.0763V32.3726C2.552 33.7937 3.70397 34.9456 5.12501 34.9456Z" fill="#FFD284"/>
<path d="M38.1095 6.12465H30.5239V8.70272H38.1095V6.12465Z" fill="#FFD284"/>
<path d="M38.875 10.6352C37.454 10.6352 36.302 9.48319 36.302 8.06216V6.76581C36.302 5.34478 37.454 4.19281 38.875 4.19281C40.296 4.19281 41.448 5.34478 41.448 6.76581V8.06216C41.448 9.48319 40.296 10.6352 38.875 10.6352Z" fill="#FFD284"/>
<path d="M38.1095 18.2803H30.5239V20.8583H38.1095V18.2803Z" fill="#FFD284"/>
<path d="M38.875 22.7903C37.454 22.7903 36.302 21.6384 36.302 20.2173V18.921C36.302 17.5 37.454 16.348 38.875 16.348C40.296 16.348 41.448 17.5 41.448 18.921V20.2173C41.448 21.6384 40.296 22.7903 38.875 22.7903Z" fill="#FFD284"/>
<path d="M38.1095 30.4359H30.5239V33.014H38.1095V30.4359Z" fill="#FFD284"/>
<path d="M38.875 34.9456C37.454 34.9456 36.302 33.7937 36.302 32.3726V31.0763C36.302 29.6553 37.454 28.5033 38.875 28.5033C40.296 28.5033 41.448 29.6553 41.448 31.0763V32.3726C41.448 33.7937 40.296 34.9456 38.875 34.9456Z" fill="#FFD284"/>
<path d="M22 39.1384H27.8631L32.3726 34.1514L33.797 3.6613C33.797 3.6613 28.6991 0 22 0C15.301 0 10.2031 3.6613 10.2031 3.6613L11.6275 34.1514L16.137 39.1384H22Z" fill="#3F170D"/>
<path d="M22 39.1384H27.8631L32.3725 34.1514L33.7969 3.6613C33.7969 3.6613 28.699 0 22 0C22 5.60319 22 39.1384 22 39.1384Z" fill="#3F170D"/>
<path d="M16.0636 9.22435C17.0636 9.22435 17.8743 8.41368 17.8743 7.41368C17.8743 6.41368 17.0636 5.60301 16.0636 5.60301C15.0636 5.60301 14.2529 6.41368 14.2529 7.41368C14.2529 8.41368 15.0636 9.22435 16.0636 9.22435Z" fill="white"/>
<path d="M16.6127 21.38C17.6127 21.38 18.4233 20.5693 18.4233 19.5693C18.4233 18.5693 17.6127 17.7586 16.6127 17.7586C15.6127 17.7586 14.802 18.5693 14.802 19.5693C14.802 20.5693 15.6127 21.38 16.6127 21.38Z" fill="white"/>
<path d="M17.2178 33.5347C18.2178 33.5347 19.0284 32.7241 19.0284 31.7241C19.0284 30.7241 18.2178 29.9134 17.2178 29.9134C16.2178 29.9134 15.4071 30.7241 15.4071 31.7241C15.4071 32.7241 16.2178 33.5347 17.2178 33.5347Z" fill="white"/>
<path d="M27.9365 9.22435C28.9365 9.22435 29.7472 8.41368 29.7472 7.41368C29.7472 6.41368 28.9365 5.60301 27.9365 5.60301C26.9365 5.60301 26.1259 6.41368 26.1259 7.41368C26.1259 8.41368 26.9365 9.22435 27.9365 9.22435Z" fill="white"/>
<path d="M27.3873 21.38C28.3873 21.38 29.198 20.5693 29.198 19.5693C29.198 18.5693 28.3873 17.7586 27.3873 17.7586C26.3873 17.7586 25.5767 18.5693 25.5767 19.5693C25.5767 20.5693 26.3873 21.38 27.3873 21.38Z" fill="white"/>
<path d="M26.7823 33.5347C27.7824 33.5347 28.593 32.7241 28.593 31.7241C28.593 30.7241 27.7824 29.9134 26.7823 29.9134C25.7823 29.9134 24.9717 30.7241 24.9717 31.7241C24.9717 32.7241 25.7823 33.5347 26.7823 33.5347Z" fill="white"/>
</svg>
