<svg width="44" height="44" viewBox="0 0 44 44" fill="none" xmlns="http://www.w3.org/2000/svg">
<g clip-path="url(#clip0_159_7882)">
<path d="M43.3354 7.92765C43.1655 7.92765 42.9953 7.86277 42.8655 7.733L36.2669 1.13446C36.0074 0.87493 36.0074 0.45418 36.2669 0.194648C36.5265 -0.0648828 36.9472 -0.0648828 37.2068 0.194648L43.8054 6.79319C44.065 7.05263 44.065 7.47347 43.8054 7.73291C43.6756 7.86277 43.5054 7.92765 43.3354 7.92765Z" fill="#3F170D"/>
<path d="M41.5315 9.10088C41.3615 9.10088 41.1914 9.036 41.0616 8.90623L35.0937 2.9383C34.8342 2.67877 34.8342 2.25802 35.0937 1.99857C35.3533 1.73904 35.774 1.73904 36.0335 1.99857L42.0014 7.9665C42.261 8.22604 42.261 8.64679 42.0014 8.90632C41.8717 9.036 41.7015 9.10088 41.5315 9.10088Z" fill="#3F170D"/>
<path d="M39.6488 10.1838C39.4788 10.1838 39.3087 10.1189 39.1789 9.98913L34.0108 4.82102C33.7513 4.56149 33.7513 4.14074 34.0108 3.8812C34.2705 3.62159 34.6912 3.62167 34.9507 3.8812L40.1188 9.04931C40.3784 9.30884 40.3784 9.72959 40.1188 9.98913C39.989 10.1189 39.8188 10.1838 39.6488 10.1838Z" fill="#3F170D"/>
<path d="M37.7967 9.30739L42.9993 5.98573C43.8612 5.43547 44.1893 4.33238 43.7584 3.40503C43.7521 3.39162 43.7458 3.37821 43.7394 3.36463C43.0941 2.01292 44.486 1.493 43.4965 0.503431C42.5181 -0.474968 41.987 0.90579 40.6352 0.260486C40.6218 0.25404 40.6083 0.247681 40.5949 0.241493C39.6675 -0.189397 38.5644 0.138712 38.0142 1.00058L34.6925 6.20332L37.7967 9.30739Z" fill="#3F170D"/>
<path d="M43.7585 3.40493C43.7523 3.39152 43.746 3.37811 43.7395 3.36454C43.0942 2.01283 44.4862 1.49299 43.4966 0.503333C43.1838 0.190521 42.9168 0.119365 42.654 0.14549C42.5576 0.897786 41.645 1.70087 42.1242 2.70479C42.1306 2.71829 42.1242 2.70479 42.1304 2.7182C42.5612 3.64555 42.2331 4.74865 41.3713 5.2989L36.6689 8.17953L37.7967 9.30729L42.9994 5.98563C43.8613 5.43546 44.1894 4.33228 43.7585 3.40493Z" fill="#3F170D"/>
<path d="M4.96022 39.0397C8.53058 42.61 14.6536 46.5052 20.4204 41.9015C24.283 38.8179 23.3371 35.6422 24.3883 33.1011C25.4395 30.56 27.1929 30.7752 29.759 28.316C32.9702 25.2387 33.0119 20.1749 28.4184 15.5815C23.825 10.988 18.7611 11.0297 15.6839 14.2409C13.2247 16.807 13.4399 18.5603 10.8988 19.6116C8.35776 20.6628 5.18202 19.7169 2.0985 23.5795C-2.50526 29.3463 1.38986 35.4693 4.96022 39.0397Z" fill="#FFD284"/>
<path d="M24.3883 33.1011C25.4395 30.56 27.1929 30.7752 29.7591 28.316C32.9702 25.2387 33.0119 20.175 28.4184 15.5815C28.2267 15.3898 28.0341 15.2069 27.841 15.0312C31.8743 19.4665 31.7084 24.2395 28.6313 27.1883C26.0651 29.6475 24.3118 29.4323 23.2606 31.9734C22.2094 34.5145 23.1553 37.6902 19.2927 40.7738C13.8236 45.1399 8.03451 41.862 4.40588 38.4664C4.59074 38.664 4.77593 38.8554 4.96027 39.0398C8.53063 42.6101 14.6537 46.5053 20.4204 41.9016C24.2831 38.8179 23.3371 35.6422 24.3883 33.1011Z" fill="#3F170D"/>
<path d="M21.576 28.8639C23.3558 27.0841 23.3558 24.1983 21.576 22.4185C19.7961 20.6386 16.9104 20.6386 15.1306 22.4185C13.3507 24.1983 13.3507 27.0841 15.1306 28.8639C16.9104 30.6438 19.7961 30.6438 21.576 28.8639Z" fill="#3F170D"/>
<path d="M21.5811 22.4188C21.3886 22.2263 21.1826 22.0559 20.9671 21.9051C22.2115 23.683 22.0411 26.1498 20.4534 27.7375C18.8657 29.3252 16.3989 29.4956 14.621 28.2512C14.7718 28.4667 14.9422 28.6728 15.1346 28.8652C16.9147 30.6453 19.8009 30.6453 21.581 28.8652C23.3613 27.0851 23.3613 24.1989 21.5811 22.4188Z" fill="#3F170D"/>
<path d="M14.6516 36.0688L7.93113 29.3483C7.57732 28.9945 7.57732 28.421 7.93113 28.0672L8.6848 27.3135C9.0386 26.9597 9.61215 26.9597 9.96595 27.3135L16.6864 34.034C17.0402 34.3878 17.0402 34.9613 16.6864 35.3151L15.9328 36.0687C15.579 36.4225 15.0054 36.4225 14.6516 36.0688Z" fill="#3F170D"/>
<path d="M16.6865 34.034L15.5588 32.9062C15.9126 33.2601 15.9126 33.8336 15.5588 34.1873L14.8051 34.941C14.4513 35.2948 13.8777 35.2948 13.5239 34.941L14.6517 36.0688C15.0055 36.4226 15.579 36.4226 15.9328 36.0688L16.6864 35.3151C17.0402 34.9614 17.0402 34.3878 16.6865 34.034Z" fill="#3F170D"/>
<path d="M37.7967 9.30711L35.648 11.4567L34.708 12.3967L32.5407 14.564L31.6006 15.5032L28.4933 18.6105L26.3261 20.7778L25.3869 21.7179L22.7349 24.3689C22.5285 23.6547 22.1439 22.9813 21.5813 22.4187C21.0186 21.8561 20.3452 21.4715 19.6311 21.2651L22.283 18.6141L23.2223 17.674L25.3895 15.5067L28.4968 12.3994L29.4369 11.4602L32.5442 8.35286L34.6929 6.20331L37.7967 9.30711Z" fill="#3F170D"/>
<path d="M22.7352 24.3689L37.7968 9.30738L36.6691 8.17963L21.9775 22.8711C22.3286 23.3287 22.5812 23.8374 22.7352 24.3689Z" fill="white"/>
<path d="M31.5997 9.29568L32.5397 8.3557L35.643 11.459L34.7031 12.399L31.5997 9.29568Z" fill="#3F170D"/>
<path d="M28.4869 12.3869L29.4264 11.4474L32.5298 14.5507L31.5903 15.4902L28.4869 12.3869Z" fill="#3F170D"/>
<path d="M25.385 15.508L26.3249 14.5681L29.4283 17.6714L28.4883 18.6113L25.385 15.508Z" fill="#3F170D"/>
<path d="M22.2799 18.6293L23.2194 17.6898L26.3227 20.7931L25.3832 21.7326L22.2799 18.6293Z" fill="#3F170D"/>
</g>
<defs>
<clipPath id="clip0_159_7882">
<rect width="44" height="44" fill="white"/>
</clipPath>
</defs>
</svg>
