<svg width="44" height="44" viewBox="0 0 44 44" fill="none" xmlns="http://www.w3.org/2000/svg">
<path d="M41.7999 7.33333C42.1889 7.33333 42.562 7.48786 42.837 7.76291C43.1121 8.03796 43.2666 8.41101 43.2666 8.8V37.4C43.2666 37.789 43.1121 38.162 42.837 38.4371C42.562 38.7121 42.1889 38.8667 41.7999 38.8667H25.6666V39.6C25.6666 39.989 25.5121 40.362 25.237 40.6371C24.962 40.9121 24.5889 41.0667 24.1999 41.0667H19.7999C19.411 41.0667 19.0379 40.9121 18.7629 40.6371C18.4878 40.362 18.3333 39.989 18.3333 39.6V38.8667H2.19994C1.81096 38.8667 1.43791 38.7121 1.16285 38.4371C0.8878 38.162 0.733276 37.789 0.733276 37.4V8.8C0.733276 8.41101 0.8878 8.03796 1.16285 7.76291C1.43791 7.48786 1.81096 7.33333 2.19994 7.33333H41.7999Z" fill="#3F170D"/>
<path d="M22 35.9333H5.13329C4.74467 35.9322 4.37229 35.7773 4.09748 35.5025C3.82268 35.2277 3.66779 34.8553 3.66663 34.4667V30.8C3.66779 31.1886 3.82268 31.561 4.09748 31.8358C4.37229 32.1106 4.74467 32.2655 5.13329 32.2667H18.3333C19.3058 32.2667 20.2384 32.653 20.926 33.3406C21.6137 34.0282 22 34.9609 22 35.9333Z" fill="white"/>
<path d="M40.3333 30.8V34.4667C40.3322 34.8553 40.1773 35.2277 39.9025 35.5025C39.6277 35.7773 39.2553 35.9322 38.8667 35.9333H22C22 34.9609 22.3863 34.0282 23.0739 33.3406C23.7616 32.653 24.6942 32.2667 25.6667 32.2667H38.8667C39.2553 32.2655 39.6277 32.1106 39.9025 31.8358C40.1773 31.561 40.3322 31.1886 40.3333 30.8Z" fill="white"/>
<path d="M40.3333 4.4V30.8C40.3321 31.1886 40.1772 31.561 39.9024 31.8358C39.6276 32.1106 39.2553 32.2655 38.8666 32.2667H25.6666C24.6942 32.2667 23.7615 32.653 23.0739 33.3406C22.3863 34.0282 22 34.9609 22 35.9333C22 34.9609 21.6137 34.0282 20.926 33.3406C20.2384 32.653 19.3058 32.2667 18.3333 32.2667H5.13329C4.74467 32.2655 4.37229 32.1106 4.09748 31.8358C3.82268 31.561 3.66779 31.1886 3.66663 30.8V4.4C3.66779 4.01137 3.82268 3.639 4.09748 3.36419C4.37229 3.08939 4.74467 2.9345 5.13329 2.93333H18.3333C19.3058 2.93333 20.2384 3.31964 20.926 4.00728C21.6137 4.69491 22 5.62754 22 6.6C22 5.62754 22.3863 4.69491 23.0739 4.00728C23.7615 3.31964 24.6942 2.93333 25.6666 2.93333H38.8666C39.2553 2.9345 39.6276 3.08939 39.9024 3.36419C40.1772 3.639 40.3321 4.01137 40.3333 4.4Z" fill="#FFD284"/>
<path d="M10.2667 22C11.4817 22 12.4667 21.015 12.4667 19.8C12.4667 18.585 11.4817 17.6 10.2667 17.6C9.05162 17.6 8.06665 18.585 8.06665 19.8C8.06665 21.015 9.05162 22 10.2667 22Z" fill="#3F170D"/>
<path d="M16.8666 19.8C18.0816 19.8 19.0666 18.815 19.0666 17.6C19.0666 16.385 18.0816 15.4 16.8666 15.4C15.6516 15.4 14.6666 16.385 14.6666 17.6C14.6666 18.815 15.6516 19.8 16.8666 19.8Z" fill="#3F170D"/>
<path d="M12.0809 8.052L17.2143 6.65133C17.4319 6.59202 17.6602 6.58368 17.8815 6.62698C18.1029 6.67027 18.3112 6.76402 18.4904 6.90094C18.6697 7.03787 18.8149 7.21428 18.9148 7.41646C19.0147 7.61863 19.0667 7.84114 19.0667 8.06667V10.2667L11 12.4667V9.4666C11.0001 9.1449 11.106 8.83215 11.3013 8.57653C11.4966 8.32092 11.7706 8.13661 12.0809 8.052Z" fill="#3F170D"/>
<path d="M28.6 22C29.815 22 30.8 21.015 30.8 19.8C30.8 18.585 29.815 17.6 28.6 17.6C27.385 17.6 26.4 18.585 26.4 19.8C26.4 21.015 27.385 22 28.6 22Z" fill="#3F170D"/>
<path d="M35.2 19.8C36.415 19.8 37.4 18.815 37.4 17.6C37.4 16.385 36.415 15.4 35.2 15.4C33.985 15.4 33 16.385 33 17.6C33 18.815 33.985 19.8 35.2 19.8Z" fill="#3F170D"/>
<path d="M30.4142 8.052L35.5475 6.65133C35.7651 6.59202 35.9934 6.58368 36.2148 6.62698C36.4361 6.67027 36.6445 6.76402 36.8237 6.90094C37.0029 7.03787 37.1481 7.21428 37.2481 7.41646C37.348 7.61863 37.4 7.84114 37.3999 8.06667V10.2667L29.3333 12.4667V9.4666C29.3333 9.1449 29.4392 8.83215 29.6345 8.57653C29.8299 8.32092 30.1038 8.13661 30.4142 8.052Z" fill="#3F170D"/>
<path d="M22.7334 4.4V33.7333C22.2545 34.3665 21.9969 35.1395 22.0001 35.9333C22.0032 35.1395 21.7456 34.3665 21.2667 33.7333V4.4C21.7456 5.03319 22.0032 5.80613 22.0001 6.6C21.9969 5.80613 22.2545 5.03319 22.7334 4.4Z" fill="white"/>
<path d="M18.3334 25.6667H6.60003C6.40554 25.6667 6.21901 25.5894 6.08149 25.4519C5.94396 25.3143 5.8667 25.1278 5.8667 24.9333C5.8667 24.7388 5.94396 24.5523 6.08149 24.4148C6.21901 24.2773 6.40554 24.2 6.60003 24.2H18.3334C18.5279 24.2 18.7144 24.2773 18.8519 24.4148C18.9894 24.5523 19.0667 24.7388 19.0667 24.9333C19.0667 25.1278 18.9894 25.3143 18.8519 25.4519C18.7144 25.5894 18.5279 25.6667 18.3334 25.6667Z" fill="white"/>
<path d="M18.3334 29.3333H6.60003C6.40554 29.3333 6.21901 29.2561 6.08149 29.1185C5.94396 28.981 5.8667 28.7945 5.8667 28.6C5.8667 28.4055 5.94396 28.219 6.08149 28.0815C6.21901 27.9439 6.40554 27.8667 6.60003 27.8667H18.3334C18.5279 27.8667 18.7144 27.9439 18.8519 28.0815C18.9894 28.219 19.0667 28.4055 19.0667 28.6C19.0667 28.7945 18.9894 28.981 18.8519 29.1185C18.7144 29.2561 18.5279 29.3333 18.3334 29.3333Z" fill="white"/>
<path d="M37.4 25.6667H25.6667C25.4722 25.6667 25.2857 25.5894 25.1481 25.4519C25.0106 25.3143 24.9333 25.1278 24.9333 24.9333C24.9333 24.7388 25.0106 24.5523 25.1481 24.4148C25.2857 24.2773 25.4722 24.2 25.6667 24.2H37.4C37.5945 24.2 37.781 24.2773 37.9186 24.4148C38.0561 24.5523 38.1334 24.7388 38.1334 24.9333C38.1334 25.1278 38.0561 25.3143 37.9186 25.4519C37.781 25.5894 37.5945 25.6667 37.4 25.6667Z" fill="white"/>
<path d="M37.4 29.3333H25.6667C25.4722 29.3333 25.2857 29.2561 25.1481 29.1185C25.0106 28.981 24.9333 28.7945 24.9333 28.6C24.9333 28.4055 25.0106 28.219 25.1481 28.0815C25.2857 27.9439 25.4722 27.8667 25.6667 27.8667H37.4C37.5945 27.8667 37.781 27.9439 37.9186 28.0815C38.0561 28.219 38.1334 28.4055 38.1334 28.6C38.1334 28.7945 38.0561 28.981 37.9186 29.1185C37.781 29.2561 37.5945 29.3333 37.4 29.3333Z" fill="white"/>
<path d="M11 11H12.4667V19.8H11V11Z" fill="#3F170D"/>
<path d="M17.6 10.2667H19.0666V17.6H17.6V10.2667Z" fill="#3F170D"/>
<path d="M29.3334 11H30.8V19.8H29.3334V11Z" fill="#3F170D"/>
<path d="M35.9333 10.2667H37.4V17.6H35.9333V10.2667Z" fill="#3F170D"/>
</svg>
