<svg width="44" height="44" viewBox="0 0 44 44" fill="none" xmlns="http://www.w3.org/2000/svg">
<g clip-path="url(#clip0_159_7810)">
<path d="M22.0802 44C18.0582 44 13.0249 38.8119 9.65551 33.9564C4.4912 26.5144 0.112417 15.6833 4.17196 7.58398C7.38924 1.16452 14.9444 0 22.0802 0C29.2214 0 36.7721 1.16653 39.9887 7.58398C44.0473 15.6812 39.6719 26.5107 34.5049 33.9564C31.1355 38.8119 26.1021 44 22.0802 44Z" fill="#FFD284"/>
<path d="M39.9888 7.58398C36.7721 1.16687 29.2217 0 22.0802 0V44C26.1021 44 31.1355 38.8119 34.5052 33.9564C39.6715 26.5107 44.0476 15.6809 39.9888 7.58398Z" fill="#FFD284"/>
<path d="M29 19.9985C29 21.9133 27.3262 23.6646 27.1312 23.8446C26.8225 24.1719 26.3026 24.1719 25.9938 23.8446C25.6688 23.5336 25.6688 23.0099 25.9938 22.6989C26.3675 22.3061 27.375 21.0623 27.375 19.9985C27.375 18.2474 25.5875 15.6942 24.125 13.943V25.7267C24.125 25.8576 24.1087 26.0213 24.0924 26.1849C23.93 27.0688 23.345 27.8379 22.5 28.3453C21.8338 28.7545 20.9725 29 20.0625 29C17.82 29 16 27.527 16 25.7267C16 23.9264 17.82 22.4535 20.0625 22.4535C20.9887 22.4535 21.8175 22.7153 22.5 23.1245V11.8154C22.5 11.4881 22.695 11.1935 23.0037 11.0625C23.3125 10.9315 23.6699 11.0135 23.8812 11.2425C24.4175 11.7662 29 16.4962 29 19.9985Z" fill="#3F170D"/>
</g>
<defs>
<clipPath id="clip0_159_7810">
<rect width="44" height="44" fill="white"/>
</clipPath>
</defs>
</svg>
