<svg width="56" height="56" viewBox="0 0 56 56" fill="none" xmlns="http://www.w3.org/2000/svg">
<g clip-path="url(#clip0_159_5354)">
<path d="M40.5325 15.1768C40.3114 9.96305 36.5119 3.52233 28.7211 3.55764H27.9252H27.1291C19.3383 3.52233 15.5391 9.96305 15.3177 15.1768C15.0952 20.4173 17.0031 26.461 20.8783 29.675C22.6952 31.182 25.4514 31.9064 27.9252 31.9431C30.3988 31.9064 33.155 31.182 34.9719 29.675C38.8473 26.461 40.7549 20.4173 40.5325 15.1768Z" fill="#3F170D"/>
<path d="M53.0756 56.0002C53.3074 49.7341 49.3612 47.3244 49.3612 47.3244L32.7354 37.9255H23.2638L6.63875 47.3244C6.63875 47.3244 2.69255 49.7341 2.92431 56.0002H53.0756Z" fill="#F9C5B8"/>
<path d="M22.0813 39.1413H33.9185C31.2957 37.7248 32.0026 32.2805 32.0026 32.2805H23.9972C23.9974 32.2805 24.7041 37.7248 22.0813 39.1413Z" fill="#F9C5B8"/>
<path d="M23.8333 36.3737C26.6613 36.0509 29.4293 35.1028 31.9174 33.7015C31.9272 32.8654 32.0026 32.2804 32.0026 32.2804H23.9972C23.9973 32.2805 24.2749 34.4259 23.8333 36.3737Z" fill="#F5A997"/>
<path d="M41.8298 20.4163C41.5806 22.3421 40.4909 23.7722 39.3958 23.6103C38.3007 23.4483 37.6151 21.7558 37.8641 19.83C38.1134 17.9042 39.2031 16.4742 40.298 16.6359C41.3934 16.7979 42.0789 18.4904 41.8298 20.4163Z" fill="#F5A997"/>
<path d="M39.3804 22.1805C39.2319 22.1805 39.0969 22.0796 39.0597 21.929C38.7869 20.8239 38.6628 19.5142 39.8123 18.1808C39.9317 18.0423 40.1403 18.0273 40.2785 18.1462C40.4168 18.2655 40.4324 18.4743 40.3131 18.6125C39.3151 19.77 39.4742 20.8496 39.7015 21.7705C39.7453 21.9478 39.6372 22.127 39.4598 22.1706C39.4332 22.1771 39.4066 22.1805 39.3804 22.1805Z" fill="#E9837B"/>
<path d="M40.4915 20.2611C40.471 20.2611 40.4504 20.2591 40.4295 20.2552C39.8992 20.1546 39.3523 20.2544 39.3467 20.2553C39.1668 20.288 38.9946 20.1707 38.9608 19.9915C38.9271 19.8124 39.0447 19.6396 39.2238 19.6057C39.2509 19.6005 39.8958 19.4809 40.5529 19.6057C40.7323 19.6396 40.8501 19.8128 40.816 19.9922C40.7858 20.1506 40.6472 20.2611 40.4915 20.2611Z" fill="#E9837B"/>
<path d="M14.2153 20.4163C14.4646 22.3421 15.5543 23.7722 16.6492 23.6103C17.7443 23.4483 18.4301 21.7558 18.181 19.83C17.9317 17.9042 16.8421 16.4742 15.7471 16.6359C14.6521 16.7979 13.9663 18.4904 14.2153 20.4163Z" fill="#F5A997"/>
<path d="M16.6647 22.1805C16.6386 22.1805 16.6119 22.1774 16.5853 22.1706C16.408 22.1269 16.2999 21.9477 16.3436 21.7705C16.571 20.8497 16.7301 19.7702 15.732 18.6125C15.6129 18.4742 15.6283 18.2654 15.7666 18.1462C15.9046 18.0272 16.1134 18.0423 16.2329 18.1808C17.3825 19.5142 17.2584 20.8239 16.9855 21.929C16.9484 22.0796 16.8133 22.1805 16.6647 22.1805Z" fill="#E9837B"/>
<path d="M15.5536 20.2611C15.3979 20.2611 15.2593 20.1506 15.2291 19.992C15.1951 19.8126 15.3129 19.6396 15.4923 19.6056C16.1498 19.4805 16.7942 19.6004 16.8213 19.6056C17.0007 19.6396 17.1185 19.8127 17.0844 19.992C17.0504 20.1713 16.8774 20.2887 16.6983 20.2553C16.6892 20.2535 16.1447 20.155 15.6156 20.2551C15.5949 20.2592 15.5741 20.2611 15.5536 20.2611Z" fill="#E9837B"/>
<path d="M39.1134 15.5678C38.9171 10.0737 35.5452 3.28647 28.631 3.32376H27.9246H27.218C20.3039 3.28647 16.9321 10.0737 16.7356 15.5678C16.5382 21.0901 18.2314 27.4588 21.6705 30.8458C23.283 32.4337 25.729 33.1973 27.9245 33.2356C30.1198 33.1972 32.5659 32.4337 34.1783 30.8458C37.6178 27.4588 39.3107 21.0901 39.1134 15.5678Z" fill="#F9C5B8"/>
<path d="M33.2456 31.5655C31.701 32.6437 29.7168 33.1724 27.9025 33.204C27.8291 33.2028 27.7548 33.1985 27.6809 33.1955C25.9275 33.1264 24.0405 32.5997 22.5584 31.5656C22.5583 31.5655 27.0991 29.2514 33.2456 31.5655Z" fill="#3F170D"/>
<path d="M32.7355 37.9255L49.3613 47.3244C49.3613 47.3244 53.3075 49.7341 53.0758 56.0002H2.92431C2.69255 49.7341 6.63875 47.3244 6.63875 47.3244L23.2639 37.9255C23.2638 37.9255 28.2833 41.0075 32.7355 37.9255Z" fill="#3F170D"/>
<path d="M32.7355 37.9255L49.3613 47.3244C49.3613 47.3244 53.3075 49.7341 53.0758 56.0002H2.92431C2.69255 49.7341 6.63875 47.3244 6.63875 47.3244L23.2639 37.9255C23.2638 37.9255 28.2833 41.0075 32.7355 37.9255Z" fill="#FFD284"/>
<path d="M25.6649 22.0834C25.6649 22.7557 24.4647 23.3011 22.9843 23.3011C21.5038 23.3011 20.3034 22.7557 20.3034 22.0834C20.3034 21.4105 21.5037 20.8651 22.9843 20.8651C24.4648 20.8651 25.6649 21.4105 25.6649 22.0834Z" fill="#F6AFA8"/>
<path d="M35.5468 22.0834C35.5468 22.7557 34.3466 23.3011 32.8662 23.3011C31.3857 23.3011 30.1853 22.7557 30.1853 22.0834C30.1853 21.4105 31.3856 20.8651 32.8662 20.8651C34.3467 20.8651 35.5468 21.4105 35.5468 22.0834Z" fill="#F6AFA8"/>
<path d="M25.0127 15.857C24.9801 16.1714 24.7319 16.3819 24.4579 16.3557C23.4525 16.2577 22.4528 16.4234 21.5329 16.8409C21.2822 16.9541 20.9793 16.8349 20.8468 16.5479C20.7147 16.2615 20.838 15.8954 21.133 15.7618C22.1882 15.283 23.3347 15.0928 24.4878 15.2055C24.8103 15.2367 25.0453 15.5434 25.0127 15.857Z" fill="#3F170D"/>
<path d="M30.8375 15.857C30.8701 16.1714 31.1184 16.3819 31.3923 16.3557C32.3977 16.2577 33.3972 16.4234 34.3171 16.8409C34.568 16.9541 34.8707 16.8349 35.0032 16.5479C35.1352 16.2615 35.0119 15.8954 34.717 15.7618C33.6618 15.283 32.5154 15.0928 31.3623 15.2055C31.04 15.2367 30.8049 15.5434 30.8375 15.857Z" fill="#3F170D"/>
<path d="M30.6207 27.3472C30.2427 27.9291 29.18 28.9582 27.9252 28.9582C26.6704 28.9582 25.6073 27.9292 25.2295 27.3472H30.6207Z" fill="white"/>
<path d="M27.8148 25.9517C27.7728 25.9517 27.7303 25.9437 27.6891 25.9267C26.9781 25.6342 26.591 25.3056 26.471 24.8927C26.3128 24.3477 26.6598 23.8565 27.0274 23.3365C27.2574 23.0111 27.4954 22.6745 27.6109 22.3222C27.6678 22.1488 27.8544 22.0548 28.0283 22.1113C28.2016 22.1684 28.2961 22.3552 28.2392 22.5286C28.0925 22.975 27.8134 23.3699 27.5672 23.7182C27.2943 24.1044 27.0364 24.4693 27.1059 24.7082C27.1456 24.8449 27.3226 25.0612 27.9407 25.3153C28.1095 25.3848 28.19 25.5779 28.1206 25.7468C28.0681 25.8744 27.9448 25.9517 27.8148 25.9517Z" fill="#E9837B"/>
<path d="M23.5242 20.8651C24.011 20.8651 24.4056 20.1217 24.4056 19.2046C24.4056 18.2876 24.011 17.5442 23.5242 17.5442C23.0373 17.5442 22.6427 18.2876 22.6427 19.2046C22.6427 20.1217 23.0373 20.8651 23.5242 20.8651Z" fill="#3F170D"/>
<path d="M32.3258 20.8651C32.8126 20.8651 33.2073 20.1217 33.2073 19.2046C33.2073 18.2876 32.8126 17.5442 32.3258 17.5442C31.839 17.5442 31.4443 18.2876 31.4443 19.2046C31.4443 20.1217 31.839 20.8651 32.3258 20.8651Z" fill="#3F170D"/>
<path d="M41.4087 17.1166C41.4067 17.1161 41.2047 17.1176 41.4087 17.1176C42.3354 15.0094 43.2088 13.0651 41.9216 11.0434C41.3188 10.0965 40.7314 9.76376 40.5341 8.58916C40.3435 7.45543 40.5772 6.47789 40.1117 5.44961C38.6112 2.13299 35.1272 0.661069 31.7395 0.132851C31.7395 0.132851 28.3418 -0.460067 28.0225 0.858132V4.99189C31.4032 5.03424 29.5595 8.09267 30.6206 9.93897C30.6207 9.93897 32.677 15.699 41.4087 17.1166Z" fill="#3F170D"/>
<path d="M14.6817 17.1166C14.6837 17.1161 14.8857 17.1176 14.6817 17.1176C13.755 15.0094 12.8814 13.0651 14.1688 11.0434C14.7714 10.0965 15.3588 9.76376 15.5562 8.58916C15.7468 7.45543 15.5132 6.47789 15.9786 5.44961C17.4792 2.13299 20.963 0.661069 24.3509 0.132851C24.3509 0.132851 27.7486 -0.460067 28.0679 0.858132V4.99189C24.6872 5.03424 22.187 6.06598 21.126 7.91228C19.9502 9.9586 20.8129 13.7334 19.4944 14.9664C19.4943 14.9663 18.4179 17.0949 14.6817 17.1166Z" fill="#3F170D"/>
</g>
<defs>
<clipPath id="clip0_159_5354">
<rect width="56" height="56" fill="white"/>
</clipPath>
</defs>
</svg>
