<svg width="56" height="56" viewBox="0 0 56 56" fill="none" xmlns="http://www.w3.org/2000/svg">
<g clip-path="url(#clip0_159_5471)">
<path d="M53.1364 56.0002C53.369 49.7192 49.413 47.3034 49.413 47.3034L32.7469 37.8819H23.2523L6.58714 47.3034C6.58714 47.3034 2.63118 49.7192 2.86368 56.0002H53.1364Z" fill="#F9C5B8"/>
<path d="M22.067 39.1005H33.9332C31.3041 37.6808 32.0126 32.223 32.0126 32.223H23.9876C23.9875 32.223 24.6961 37.6808 22.067 39.1005Z" fill="#F9C5B8"/>
<path d="M23.8231 36.3263C26.6581 36.0025 29.433 35.0523 31.927 33.6475C31.9365 32.8097 32.0125 32.2232 32.0125 32.2232H23.9875C23.9875 32.223 24.2658 34.3738 23.8231 36.3263Z" fill="#F5A997"/>
<path d="M41.8407 20.064C41.5909 21.9944 40.4988 23.428 39.401 23.2658C38.3032 23.1034 37.6158 21.4069 37.8652 19.4764C38.115 17.5459 39.2076 16.1124 40.3053 16.2746C41.4031 16.4369 42.0906 18.1334 41.8407 20.064Z" fill="#F5A997"/>
<path d="M39.3853 21.8324C39.2365 21.8324 39.1012 21.7313 39.0638 21.5803C38.7902 20.4723 38.6659 19.1597 39.8184 17.823C39.9378 17.6846 40.1472 17.6689 40.2858 17.7884C40.4242 17.9079 40.4398 18.1172 40.3202 18.2559C39.3197 19.4163 39.4791 20.4984 39.7071 21.4215C39.751 21.5992 39.6426 21.7788 39.4647 21.8226C39.4383 21.8292 39.4116 21.8324 39.3853 21.8324Z" fill="#E9837B"/>
<path d="M40.4992 19.9084C40.4787 19.9084 40.4578 19.9065 40.4368 19.9025C39.9051 19.8019 39.3571 19.9019 39.3514 19.9025C39.1709 19.9355 38.9987 19.8176 38.9648 19.6382C38.9309 19.4585 39.0487 19.2854 39.2283 19.2513C39.2552 19.2459 39.9016 19.126 40.5607 19.2513C40.7404 19.2854 40.8584 19.4589 40.8244 19.6387C40.7942 19.7977 40.6552 19.9084 40.4992 19.9084Z" fill="#E9837B"/>
<path d="M14.1594 20.064C14.4092 21.9944 15.5013 23.428 16.5991 23.2658C17.6969 23.1034 18.3843 21.4069 18.1348 19.4764C17.8851 17.5459 16.7924 16.1124 15.6948 16.2746C14.597 16.4369 13.9095 18.1334 14.1594 20.064Z" fill="#F5A997"/>
<path d="M16.6149 21.8324C16.5885 21.8324 16.5618 21.8293 16.5353 21.8225C16.3575 21.7787 16.2489 21.599 16.2929 21.4214C16.5208 20.4982 16.6802 19.4162 15.6797 18.2558C15.5602 18.1171 15.5757 17.9078 15.7142 17.7883C15.8529 17.6686 16.0624 17.6843 16.1815 17.8229C17.334 19.1596 17.2098 20.4722 16.9362 21.5801C16.8989 21.7313 16.7637 21.8324 16.6149 21.8324Z" fill="#E9837B"/>
<path d="M15.5009 19.9084C15.3448 19.9084 15.2059 19.7977 15.1757 19.6388C15.1417 19.4589 15.2596 19.2855 15.4394 19.2514C16.0985 19.1262 16.7447 19.2461 16.7718 19.2514C16.9516 19.2856 17.0696 19.4591 17.0356 19.6388C17.0015 19.8187 16.8263 19.9358 16.6485 19.9026C16.639 19.901 16.0933 19.8021 15.5633 19.9026C15.5423 19.9066 15.5214 19.9084 15.5009 19.9084Z" fill="#E9837B"/>
<path d="M39.1184 15.4383C38.9216 9.93083 35.5412 3.12722 28.6106 3.16451H27.9024H27.194C20.2633 3.12722 16.8833 9.93083 16.6861 15.4383C16.4885 20.9739 18.1856 27.3581 21.6332 30.7533C23.2496 32.3449 25.7013 33.1104 27.9023 33.1487C30.103 33.1104 32.5548 32.3449 34.1712 30.7533C37.6189 27.3581 39.3161 20.9739 39.1184 15.4383Z" fill="#F9C5B8"/>
<path d="M25.6367 20.9417C25.6367 21.6156 24.4337 22.1623 22.9493 22.1623C21.4654 22.1623 20.2619 21.6156 20.2619 20.9417C20.2619 20.2671 21.4654 19.7204 22.9493 19.7204C24.4337 19.7204 25.6367 20.2671 25.6367 20.9417Z" fill="#F6AFA8"/>
<path d="M35.5426 20.9417C35.5426 21.6156 34.3396 22.1623 32.8552 22.1623C31.3712 22.1623 30.1677 21.6156 30.1677 20.9417C30.1677 20.2671 31.3712 19.7204 32.8552 19.7204C34.3396 19.7204 35.5426 20.2671 35.5426 20.9417Z" fill="#F6AFA8"/>
<path d="M36.3176 1.9983C36.3176 1.9983 32.6481 -0.0635815 27.9268 0.00136539C23.2049 -0.0635815 19.5359 1.9983 19.5359 1.9983C13.7365 6.3064 15.4435 16.295 15.4435 16.295C17.0146 16.4092 16.0878 19.2045 17.141 20.9907C17.9384 19.2773 17.6079 15.3286 17.6079 15.3286C17.7627 14.3878 18.3638 13.5904 18.7574 12.7444C19.1616 11.8752 18.7747 12.7524 19.1616 11.8752C19.6307 10.8111 19.8758 8.76561 20.3108 7.68707C23.4528 7.11737 25.9487 6.88833 27.9268 6.86413C29.9048 6.88833 32.4004 7.11737 35.5427 7.68707C35.9772 8.76561 36.2227 10.8111 36.6917 11.8752C37.0788 12.7524 36.6917 11.8752 37.096 12.7444C37.4896 13.5904 38.0902 14.3878 38.2452 15.3286C38.2452 15.3286 37.915 19.2771 38.7124 20.9907C39.7657 19.2046 38.8388 16.4093 40.4099 16.295C40.4098 16.295 42.1169 6.3064 36.3176 1.9983Z" fill="#3F170D"/>
<path d="M24.3742 19.1114C24.1912 19.1114 24.0427 18.9631 24.0427 18.78C24.0427 18.1325 23.7461 17.6304 23.4907 17.6304C23.2354 17.6304 22.9384 18.1325 22.9384 18.78C22.9384 18.963 22.79 19.1114 22.607 19.1114C22.4241 19.1114 22.2755 18.9631 22.2755 18.78C22.2755 17.7637 22.8093 16.9676 23.4906 16.9676C24.1718 16.9676 24.7053 17.7637 24.7053 18.78C24.7056 18.9631 24.5572 19.1114 24.3742 19.1114Z" fill="#3F170D"/>
<path d="M33.1973 19.1114C33.0144 19.1114 32.8659 18.9631 32.8659 18.78C32.8659 18.1325 32.5691 17.6304 32.3136 17.6304C32.0584 17.6304 31.7617 18.1325 31.7617 18.78C31.7617 18.963 31.6133 19.1114 31.4302 19.1114C31.2473 19.1114 31.0988 18.9631 31.0988 18.78C31.0988 17.7637 31.6323 16.9676 32.3135 16.9676C32.9948 16.9676 33.5286 17.7637 33.5286 18.78C33.5288 18.9631 33.3804 19.1114 33.1973 19.1114Z" fill="#3F170D"/>
<path d="M37.4338 40.5314L49.4131 47.3034C49.4131 47.3034 53.369 49.7192 53.1364 56.0002H2.86356C2.63106 49.7192 6.58702 47.3034 6.58702 47.3034L18.5658 40.5314L27.1794 46.9412L37.4338 40.5314Z" fill="#FFD284"/>
<path d="M24.9826 15.4937C24.9502 15.8088 24.7013 16.0199 24.4268 15.9936C23.4189 15.8953 22.4169 16.0614 21.4948 16.4798C21.2433 16.5933 20.9396 16.4739 20.8071 16.1861C20.6746 15.899 20.7981 15.5322 21.094 15.3982C22.1516 14.9182 23.3006 14.7275 24.4566 14.8405C24.7797 14.8719 25.0154 15.1793 24.9826 15.4937Z" fill="#3F170D"/>
<path d="M30.8216 15.4937C30.8544 15.8088 31.1033 16.0199 31.3778 15.9936C32.3857 15.8953 33.3876 16.0614 34.3098 16.4798C34.5613 16.5933 34.8647 16.4739 34.9976 16.1861C35.1301 15.899 35.0062 15.5322 34.7106 15.3982C33.6531 14.9182 32.5035 14.7275 31.3476 14.8405C31.0248 14.8719 30.7892 15.1793 30.8216 15.4937Z" fill="#3F170D"/>
<path d="M27.6507 24.0955C27.6088 24.0955 27.5661 24.0875 27.5248 24.0705C26.812 23.7772 26.4238 23.4479 26.3037 23.0338C26.1452 22.4875 26.4929 21.9951 26.8614 21.474C27.0921 21.1476 27.3305 20.8102 27.4466 20.4572C27.5035 20.2834 27.6913 20.1893 27.8646 20.2458C28.0385 20.3029 28.1333 20.4902 28.0761 20.6641C27.9292 21.1116 27.6495 21.5074 27.4027 21.8565C27.129 22.2437 26.8707 22.6094 26.9402 22.849C26.9801 22.9859 27.1575 23.2027 27.7768 23.4576C27.9461 23.5272 28.0269 23.7208 27.9572 23.8901C27.9046 24.0181 27.781 24.0955 27.6507 24.0955Z" fill="#E9837B"/>
<path d="M36.9945 23.1236C36.6696 24.2943 35.9603 26.3728 34.3439 25.949C33.9093 25.835 33.54 25.4914 33.2082 25.2069C32.6355 24.7165 32.1243 24.3074 31.3699 24.152C30.5886 23.991 29.7614 24.052 28.9708 24.0897C28.6652 24.1043 28.3356 24.1394 27.9995 24.1747V24.1711H27.7014C27.3652 24.1357 27.0355 24.1006 26.7301 24.0862C25.9397 24.0484 25.1123 23.9874 24.331 24.1484C23.5768 24.304 23.0654 24.7129 22.4927 25.2033C22.1608 25.488 21.7915 25.8315 21.3571 25.9454C19.7406 26.3692 19.0313 24.2908 18.7064 23.12C18.4077 22.0449 18.1562 20.4933 16.8432 20.1125C17.4469 24.2557 19.0257 30.6144 21.5262 33.077C23.1197 34.6461 25.5245 35.4107 27.7014 35.4688V35.4724H27.9995C30.1764 35.4143 32.5811 34.6497 34.1747 33.0806C36.6752 30.618 38.254 24.2593 38.8577 20.1161C37.5447 20.4969 37.2932 22.0485 36.9945 23.1236Z" fill="#3F170D"/>
<path d="M24.3021 26.4962C24.8065 28.0022 26.2265 29.0888 27.9024 29.0888C29.5783 29.0888 30.998 28.0023 31.5024 26.4962H24.3021Z" fill="white"/>
</g>
<defs>
<clipPath id="clip0_159_5471">
<rect width="56" height="56" fill="white"/>
</clipPath>
</defs>
</svg>
