<svg width="56" height="56" viewBox="0 0 56 56" fill="none" xmlns="http://www.w3.org/2000/svg">
<g clip-path="url(#clip0_159_5529)">
<path d="M14.1876 20.6489C14.91 21.9351 14.3556 23.1012 14.4569 24.3193C14.5457 25.3856 14.9792 26.5419 15.5514 27.4675C16.6892 29.308 18.5625 30.1768 20.2449 31.4448C24.3843 34.5644 28.6061 35.1944 28.8856 28.8312C29.0444 25.2143 29.2768 19.8966 26.5747 17.2013C23.3145 13.9491 15.7912 14.9414 14.0361 19.2851" fill="#3F170D"/>
<path d="M41.3353 20.6489C40.6131 21.9351 41.1674 23.1012 41.0662 24.3193C40.9774 25.3856 40.5439 26.5419 39.9717 27.4675C38.8339 29.308 36.9606 30.1771 35.2781 31.445C31.1387 34.5645 26.9169 35.1944 26.6375 28.8312C26.4787 25.2143 26.2463 19.8966 28.9484 17.2013C32.2086 13.9491 39.7319 14.9414 41.487 19.2851" fill="#3F170D"/>
<path d="M53.8604 56.0001C54.0995 49.5379 50.0298 47.0529 50.0298 47.0529L32.8837 37.3598H23.1156L5.97016 47.0529C5.97016 47.0529 1.90048 49.5379 2.13953 56.0001H53.8604Z" fill="#F9C5B8"/>
<path d="M21.8961 38.6136H34.1037C31.3989 37.1529 32.1279 31.5381 32.1279 31.5381H23.872C23.872 31.5383 24.601 37.1529 21.8961 38.6136Z" fill="#F9C5B8"/>
<path d="M23.7029 35.7594C26.6194 35.4265 29.4741 34.4488 32.04 33.0036C32.05 32.1416 32.128 31.5383 32.128 31.5383H23.872C23.872 31.5383 24.1584 33.7508 23.7029 35.7594Z" fill="#F5A997"/>
<path d="M42.2394 19.0289C41.9823 21.0149 40.8586 22.4898 39.7292 22.3228C38.5999 22.1558 37.8926 20.4103 38.1495 18.4243C38.4065 16.4382 39.5304 14.9633 40.6597 15.1303C41.7892 15.2973 42.4962 17.0427 42.2394 19.0289Z" fill="#F5A997"/>
<path d="M39.7133 20.8483C39.5601 20.8483 39.4209 20.7444 39.3826 20.5889C39.1011 19.4492 38.9732 18.0986 40.1586 16.7234C40.2818 16.5806 40.4968 16.5649 40.6395 16.6878C40.7822 16.8107 40.7981 17.0261 40.6751 17.1687C39.646 18.3626 39.8099 19.4758 40.0444 20.4255C40.0896 20.6083 39.978 20.7931 39.7951 20.8382C39.7677 20.845 39.7403 20.8483 39.7133 20.8483Z" fill="#E9837B"/>
<path d="M40.8591 18.8689C40.8381 18.8689 40.8167 18.8669 40.7951 18.8629C40.2479 18.7593 39.6842 18.8621 39.6784 18.863C39.4928 18.8967 39.3153 18.7757 39.2805 18.591C39.2458 18.4061 39.3669 18.2281 39.5517 18.193C39.5798 18.1877 40.2445 18.0642 40.9224 18.193C41.1074 18.2281 41.2289 18.4065 41.1937 18.5916C41.1627 18.755 41.0197 18.8689 40.8591 18.8689Z" fill="#E9837B"/>
<path d="M13.7606 19.0289C14.0176 21.0149 15.1414 22.4898 16.2708 22.3228C17.4001 22.1558 18.1073 20.4103 17.8505 18.4243C17.5934 16.4382 16.4696 14.9633 15.3403 15.1303C14.211 15.2973 13.5037 17.0427 13.7606 19.0289Z" fill="#F5A997"/>
<path d="M16.2867 20.8483C16.2596 20.8483 16.2322 20.8451 16.2047 20.8382C16.0218 20.7931 15.9103 20.6084 15.9554 20.4255C16.1899 19.4758 16.354 18.3626 15.3247 17.1687C15.2017 17.0261 15.2176 16.8109 15.3604 16.6878C15.5026 16.5648 15.7179 16.5806 15.8413 16.7234C17.0268 18.0986 16.8988 19.4492 16.6173 20.5889C16.579 20.7442 16.4399 20.8483 16.2867 20.8483Z" fill="#E9837B"/>
<path d="M15.1408 18.8689C14.9802 18.8689 14.8374 18.755 14.8062 18.5915C14.771 18.4065 14.8925 18.2281 15.0775 18.1929C15.7556 18.064 16.4202 18.1876 16.4482 18.1929C16.6333 18.2281 16.7546 18.4065 16.7196 18.5915C16.6844 18.7764 16.5061 18.8975 16.3214 18.863C16.3119 18.8611 15.7501 18.7597 15.2048 18.8629C15.1833 18.867 15.1618 18.8689 15.1408 18.8689Z" fill="#E9837B"/>
<path d="M39.4384 14.2699C39.2361 8.60386 35.7586 1.60429 28.628 1.64257H27.8995H27.1708C20.0402 1.60417 16.5629 8.60373 16.3603 14.2699C16.1568 19.965 17.903 26.533 21.4496 30.0259C23.1126 31.6633 25.6351 32.4508 27.8994 32.4903C30.1634 32.4508 32.6861 31.6633 34.3489 30.0259C37.896 26.533 39.642 19.965 39.4384 14.2699Z" fill="#F9C5B8"/>
<path d="M39.4518 14.8045C38.7701 14.7634 38.4429 14.761 38.3657 16.0669C38.3657 16.0669 37.7034 24.3799 35.2536 25.5163C34.1365 25.6292 33.5337 24.9047 32.733 24.4237C31.4544 23.6559 30.0952 24.6938 28.8946 25.1051C28.5869 25.2105 28.2905 25.2656 28.0026 25.2787C27.9683 25.2795 27.9341 25.2809 27.8994 25.2806C27.8648 25.2809 27.8305 25.2796 27.7961 25.2787C27.5081 25.2656 27.2119 25.2105 26.9042 25.1051C25.7034 24.6938 24.3444 23.6559 23.0658 24.4237C22.265 24.9047 21.6622 25.6292 20.5452 25.5163C18.0953 24.3799 17.433 16.0669 17.433 16.0669C17.3559 14.761 17.0287 14.7634 16.347 14.8045C16.2673 20.3711 18.0135 26.6418 21.4496 30.026C23.057 31.6084 25.4667 32.3949 27.6707 32.4817C27.747 32.4848 27.8236 32.4894 27.8992 32.4906C30.1635 32.4511 32.6862 31.6636 34.349 30.026C37.7854 26.6418 39.5315 20.3711 39.4518 14.8045Z" fill="#3F170D"/>
<path d="M32.8837 37.3598L50.0298 47.0529C50.0298 47.0529 54.0995 49.5379 53.8604 56.0001H2.13953C1.90048 49.5379 5.97016 47.0529 5.97016 47.0529L23.1156 37.3598C23.1156 37.3598 28.2922 40.5383 32.8837 37.3598Z" fill="#9CAAD8"/>
<path d="M32.8837 37.3598L50.0298 47.0529C50.0298 47.0529 54.0995 49.5379 53.8604 56.0001H2.13953C1.90048 49.5379 5.97016 47.0529 5.97016 47.0529L23.1156 37.3598C23.1156 37.3598 28.2922 40.5383 32.8837 37.3598Z" fill="#FFD284"/>
<path d="M22.8039 22.004C24.3308 22.004 25.5686 21.4418 25.5686 20.7482C25.5686 20.0546 24.3308 19.4923 22.8039 19.4923C21.277 19.4923 20.0392 20.0546 20.0392 20.7482C20.0392 21.4418 21.277 22.004 22.8039 22.004Z" fill="#F6AFA8"/>
<path d="M32.9951 22.004C34.522 22.004 35.7598 21.4418 35.7598 20.7482C35.7598 20.0546 34.522 19.4923 32.9951 19.4923C31.4682 19.4923 30.2304 20.0546 30.2304 20.7482C30.2304 21.4418 31.4682 22.004 32.9951 22.004Z" fill="#F6AFA8"/>
<path d="M24.8959 14.3271C24.8623 14.6512 24.6062 14.8684 24.3238 14.8413C23.2869 14.7402 22.256 14.9111 21.3074 15.3417C21.0487 15.4585 20.7363 15.3356 20.5998 15.0395C20.4636 14.7442 20.5908 14.3667 20.895 14.2289C21.9833 13.735 23.1655 13.539 24.3548 13.6553C24.6871 13.6872 24.9295 14.0036 24.8959 14.3271Z" fill="#3F170D"/>
<path d="M30.9031 14.3271C30.9367 14.6512 31.1928 14.8684 31.4751 14.8413C32.512 14.7402 33.543 14.9111 34.4916 15.3417C34.7503 15.4585 35.0627 15.3356 35.1992 15.0395C35.3354 14.7442 35.2082 14.3667 34.904 14.2289C33.8157 13.735 32.6334 13.539 31.4442 13.6553C31.1118 13.6872 30.8694 14.0036 30.9031 14.3271Z" fill="#3F170D"/>
<path d="M27.7856 24.7376C27.7424 24.7376 27.6985 24.7292 27.656 24.7118C26.9228 24.4101 26.5236 24.0712 26.3998 23.6452C26.2367 23.0833 26.5946 22.5767 26.9736 22.0405C27.2109 21.7047 27.4562 21.3576 27.5755 20.9944C27.6343 20.8155 27.8268 20.7184 28.0059 20.7768C28.1847 20.8357 28.2821 21.0283 28.2235 21.2073C28.0722 21.6676 27.7844 22.0748 27.5305 22.4341C27.249 22.8324 26.9832 23.2086 27.0547 23.4551C27.0957 23.5961 27.2783 23.8191 27.9155 24.0812C28.0896 24.153 28.1727 24.3521 28.1011 24.5262C28.0469 24.658 27.9197 24.7376 27.7856 24.7376Z" fill="#E9837B"/>
<path d="M23.3608 19.4917C23.8629 19.4917 24.2699 18.725 24.2699 17.7793C24.2699 16.8335 23.8629 16.0668 23.3608 16.0668C22.8588 16.0668 22.4518 16.8335 22.4518 17.7793C22.4518 18.725 22.8588 19.4917 23.3608 19.4917Z" fill="#3F170D"/>
<path d="M32.438 19.4917C32.94 19.4917 33.347 18.725 33.347 17.7793C33.347 16.8335 32.94 16.0668 32.438 16.0668C31.936 16.0668 31.529 16.8335 31.529 17.7793C31.529 18.725 31.936 19.4917 32.438 19.4917Z" fill="#3F170D"/>
<path d="M25.4722 25.8711C25.8125 26.8864 26.7696 27.6188 27.8995 27.6188C29.0293 27.6188 29.9863 26.8864 30.3266 25.8711H25.4722Z" fill="white"/>
<path d="M28 0.91247V5.30774C24.3904 5.35281 21.7221 6.44987 20.5893 8.41297C19.3337 10.5888 20.2549 14.6024 18.8471 15.9136C17.9881 16.7136 16.738 15.201 15.7628 15.3854C13.6003 15.3969 13.7071 18.1678 13.7084 18.1998C13.7105 18.1994 13.9263 18.2009 13.7084 18.2009C12.7188 15.9593 11.7863 13.892 13.1606 11.7423C13.8042 10.7356 14.4314 10.3816 14.6422 9.13269C14.8455 7.92722 14.5963 6.88783 15.0931 5.79447C16.6955 2.26783 20.4153 0.702936 24.0326 0.141133C24.0327 0.141257 27.6591 -0.489074 28 0.91247Z" fill="#3F170D"/>
<path d="M28 0.91247V5.30774C31.6096 5.35281 34.2792 6.44987 35.4122 8.41297C36.6678 10.5888 35.7466 14.6024 37.1544 15.9136C38.0134 16.7136 39.2636 15.201 40.2387 15.3854C42.4012 15.3969 42.2944 18.1678 42.2931 18.1998C42.291 18.1994 42.0752 18.2009 42.2931 18.2009C43.2826 15.9593 44.2152 13.892 42.8408 11.7423C42.1973 10.7356 41.5701 10.3816 41.3593 9.13269C41.1559 7.92722 41.4052 6.88783 40.9084 5.79447C39.3059 2.26783 35.5862 0.702936 31.9689 0.141133C31.9688 0.141257 28.3409 -0.489074 28 0.91247Z" fill="#3F170D"/>
<path d="M22.0945 22.391C19.4037 22.391 17.2145 20.2018 17.2145 17.511C17.2145 14.8201 19.4037 12.6309 22.0945 12.6309C24.7856 12.6309 26.975 14.8201 26.975 17.511C26.975 20.2018 24.7856 22.391 22.0945 22.391ZM22.0945 13.5401C19.905 13.5401 18.1236 15.3214 18.1236 17.511C18.1236 19.7005 19.905 21.4819 22.0945 21.4819C24.2843 21.4819 26.0659 19.7005 26.0659 17.511C26.0659 15.3214 24.2843 13.5401 22.0945 13.5401Z" fill="white"/>
<path d="M33.7072 22.391C31.0163 22.391 28.8271 20.2018 28.8271 17.511C28.8271 14.8201 31.0163 12.6309 33.7072 12.6309C36.3981 12.6309 38.5873 14.8201 38.5873 17.511C38.5873 20.2018 36.3981 22.391 33.7072 22.391ZM33.7072 13.5401C31.5176 13.5401 29.7362 15.3214 29.7362 17.511C29.7362 19.7005 31.5176 21.4819 33.7072 21.4819C35.8968 21.4819 37.6781 19.7005 37.6781 17.511C37.6781 15.3214 35.8968 13.5401 33.7072 13.5401Z" fill="white"/>
<path d="M17.8141 19.1278H16.4557C16.2047 19.1278 16.0011 18.9244 16.0011 18.6732C16.0011 18.4221 16.2046 18.2186 16.4557 18.2186H17.8141C18.0651 18.2186 18.2687 18.4221 18.2687 18.6732C18.2687 18.9244 18.0651 19.1278 17.8141 19.1278Z" fill="white"/>
<path d="M39.3431 19.1278H37.9392C37.6882 19.1278 37.4846 18.9244 37.4846 18.6732C37.4846 18.4221 37.688 18.2186 37.9392 18.2186H39.3431C39.5941 18.2186 39.7977 18.4221 39.7977 18.6732C39.7977 18.9244 39.5941 19.1278 39.3431 19.1278Z" fill="white"/>
<path d="M26.5203 18.0303C26.4185 18.0303 26.3161 17.9963 26.2314 17.9266C26.0376 17.767 26.01 17.4805 26.1696 17.2866C26.2005 17.2492 26.936 16.3707 27.9632 16.3707C28.5843 16.3707 29.153 16.6789 29.6538 17.2866C29.8134 17.4803 29.7859 17.7668 29.592 17.9266C29.3984 18.0863 29.1119 18.0587 28.9521 17.8648C28.6323 17.4766 28.2995 17.2799 27.9631 17.2799C27.3697 17.2799 26.876 17.859 26.8711 17.8648C26.7814 17.974 26.6514 18.0303 26.5203 18.0303Z" fill="white"/>
</g>
<defs>
<clipPath id="clip0_159_5529">
<rect width="56" height="56" fill="white"/>
</clipPath>
</defs>
</svg>
