<svg width="44" height="44" fill="none" xmlns="http://www.w3.org/2000/svg"><g clip-path="url(#a)"><path d="M22 44c12.15 0 22-9.85 22-22S34.15 0 22 0 0 9.85 0 22s9.85 22 22 22Z" fill="#FFD284"/><path d="m42.113 13.075-.14.07-5.42 3.204a.918.918 0 0 0-.018.011l-1.201.764a.667.667 0 0 0 .715 1.125l1.192-.758 5.377-3.179a21.758 21.758 0 0 0-.505-1.237Z" fill="#3F170D"/><path d="M6.836 22c0-10.988 8.057-20.094 18.584-21.736A22.205 22.205 0 0 0 22 0C9.85 0 0 9.85 0 22s9.85 22 22 22c1.163 0 2.306-.09 3.42-.264C14.893 42.094 6.836 32.988 6.836 22Z" fill="#FFD284"/><path d="M25.117 18.353h-6.145a.667.667 0 0 1 0-1.333h6.145a.667.667 0 1 1 0 1.333ZM42.113 13.075l-.14.07-5.42 3.204a.918.918 0 0 0-.018.011l-1.201.764a.667.667 0 0 0 .715 1.125l1.192-.758 5.377-3.179a21.758 21.758 0 0 0-.505-1.237Z" fill="#3F170D"/><path d="M30.338 26.391a6.554 6.554 0 0 0 6.554-6.554v-2.914c0-.603-.489-1.092-1.092-1.092H24.877c-.603 0-1.092.489-1.092 1.092v2.914a6.554 6.554 0 0 0 6.554 6.554Z" fill="#3F170D"/><path d="M27.794 19.837v-2.914c0-.603.489-1.092 1.092-1.092h-4.01c-.603 0-1.092.489-1.092 1.092v2.914a6.554 6.554 0 0 0 8.56 6.24 6.556 6.556 0 0 1-4.55-6.24ZM22.255 35.75c-.21 0-.42-.009-.631-.028l-.534-.047a.667.667 0 1 1 .118-1.328l.534.047a5.765 5.765 0 0 0 5.651-3.185.667.667 0 0 1 1.197.587 7.034 7.034 0 0 1-2.874 3.044 7.03 7.03 0 0 1-3.461.91Z" fill="#280E07"/><path d="m8.801 17.104-1.36-.759-5.414-3.2a.666.666 0 0 0-.129-.059l-.013-.006c-.18.405-.348.815-.503 1.232l5.387 3.185.006.003.008.005 1.369.763a.664.664 0 0 0 .907-.257.666.666 0 0 0-.258-.907Z" fill="#3F170D"/><path d="M13.662 26.391a6.554 6.554 0 0 0 6.554-6.554v-2.914c0-.603-.489-1.092-1.092-1.092H8.2c-.602 0-1.091.489-1.091 1.092v2.914a6.554 6.554 0 0 0 6.554 6.554Z" fill="#3F170D"/><path d="M11.463 19.837v-2.914c0-.603.488-1.092 1.091-1.092H8.2c-.602 0-1.091.489-1.091 1.092v2.914a6.554 6.554 0 0 0 8.731 6.182 6.556 6.556 0 0 1-4.377-6.182Z" fill="#280E07"/><path d="M9.034 20.909c-.67 1.414-1.717 2.44-3.11 3.109a.164.164 0 0 0 .009.3c1.457.61 2.511 1.622 3.112 3.09a.164.164 0 0 0 .301.003c.634-1.445 1.698-2.445 3.112-3.084a.163.163 0 0 0 0-.297c-1.425-.637-2.493-1.647-3.125-3.115a.163.163 0 0 0-.299-.006Z" fill="#fff"/></g><defs><clipPath id="a"><path fill="#fff" d="M0 0h44v44H0z"/></clipPath></defs></svg>