<svg width="44" height="44" fill="none" xmlns="http://www.w3.org/2000/svg"><g clip-path="url(#a)"><path d="M22 44c12.15 0 22-9.85 22-22S34.15 0 22 0 0 9.85 0 22s9.85 22 22 22Z" fill="#FFD284"/><path d="M6.836 22c0-10.988 8.056-20.094 18.583-21.736A22.183 22.183 0 0 0 22 0C9.85 0 0 9.85 0 22s9.85 22 22 22c1.163 0 2.306-.09 3.42-.264C14.893 42.094 6.836 32.988 6.836 22Z" fill="#FFD284"/><path d="M22 32.634a9.192 9.192 0 0 1-5.327-1.687 9.234 9.234 0 0 1-3.338-4.316.667.667 0 0 1 1.248-.468A7.958 7.958 0 0 0 22 31.3a7.958 7.958 0 0 0 7.417-5.138.667.667 0 0 1 1.248.468 9.233 9.233 0 0 1-3.338 4.316A9.192 9.192 0 0 1 22 32.634ZM17.376 19.524a.667.667 0 0 1-.666-.666 2.696 2.696 0 0 0-2.693-2.693 2.696 2.696 0 0 0-2.693 2.693.667.667 0 1 1-1.333 0 4.03 4.03 0 0 1 4.026-4.026 4.03 4.03 0 0 1 4.026 4.026.667.667 0 0 1-.667.666ZM33.431 19.524a.667.667 0 0 1-.666-.666 2.696 2.696 0 0 0-2.693-2.693 2.696 2.696 0 0 0-2.693 2.693.667.667 0 0 1-1.333 0 4.03 4.03 0 0 1 4.026-4.026 4.03 4.03 0 0 1 4.026 4.026.667.667 0 0 1-.666.666Z" fill="#3F170D"/><path d="M3.794 25.597a.666.666 0 0 1-.63-.885l.983-2.841a.666.666 0 1 1 1.26.436l-.983 2.841a.667.667 0 0 1-.63.449ZM6.88 25.597a.666.666 0 0 1-.63-.885l.983-2.841a.666.666 0 1 1 1.26.436l-.983 2.841a.667.667 0 0 1-.63.449ZM36.226 25.597a.665.665 0 0 1-.63-.885l.983-2.841a.666.666 0 1 1 1.26.436l-.983 2.841a.667.667 0 0 1-.63.449ZM39.312 25.597a.666.666 0 0 1-.63-.885l.983-2.841a.666.666 0 1 1 1.26.436l-.983 2.841a.667.667 0 0 1-.63.449Z" fill="#E23C08"/></g><defs><clipPath id="a"><path fill="#fff" d="M0 0h44v44H0z"/></clipPath></defs></svg>