<svg width="44" height="44" fill="none" xmlns="http://www.w3.org/2000/svg"><g clip-path="url(#a)"><path d="M22 44c12.104 0 21.916-9.812 21.916-21.916C43.916 9.981 34.104.17 22 .17 9.896.169.085 9.981.085 22.084.085 34.188 9.896 44 22 44Z" fill="#FFD284"/><path d="M6.894 22.084C6.894 11.14 14.92 2.069 25.407.432A22.109 22.109 0 0 0 22 .17C9.896.169.084 9.98.084 22.085.084 34.188 9.896 44 22 44c1.158 0 2.297-.09 3.407-.263C14.921 42.1 6.894 33.03 6.894 22.084Z" fill="#FFD284"/><path d="M13.8 22.897a3.666 3.666 0 1 0 0-7.333 3.666 3.666 0 0 0 0 7.333Z" fill="#fff"/><path d="M14.363 19.625a1.166 1.166 0 1 0 0-2.332 1.166 1.166 0 0 0 0 2.332Z" fill="#3F170D"/><path d="M28.935 24.22a4.99 4.99 0 1 0 0-9.98 4.99 4.99 0 0 0 0 9.98Z" fill="#fff"/><path d="M29.924 18.895a1.362 1.362 0 1 0 0-2.723 1.362 1.362 0 0 0 0 2.723ZM16.766 13.703a.663.663 0 0 1-.537-.273 3.015 3.015 0 0 0-2.428-1.237c-.956 0-1.864.463-2.428 1.237a.664.664 0 0 1-1.074-.782 4.347 4.347 0 0 1 3.502-1.783c1.379 0 2.688.666 3.501 1.783a.664.664 0 0 1-.536 1.055ZM31.9 10.664a.663.663 0 0 1-.537-.273 3.015 3.015 0 0 0-2.428-1.237c-.956 0-1.863.463-2.428 1.237a.664.664 0 1 1-1.073-.782 4.347 4.347 0 0 1 3.501-1.783c1.38 0 2.688.667 3.502 1.783a.664.664 0 0 1-.536 1.055ZM26.977 30.577a.662.662 0 0 0-.445.171l-.337.304a8.373 8.373 0 0 1-8.826 1.498.664.664 0 0 0-.515 1.224 9.706 9.706 0 0 0 10.232-1.736l.336-.304a.664.664 0 0 0-.445-1.157Z" fill="#3F170D"/><path d="M38.089 11.027h-.003a1.326 1.326 0 0 1-1.327-1.326v-.68c0-1.028.735-1.918 1.748-2.119A2.144 2.144 0 1 0 36.11 3.97c-.209.499-.689.83-1.23.83a1.327 1.327 0 0 1-1.225-1.835 4.805 4.805 0 0 1 1.159-1.674A4.757 4.757 0 0 1 38.425.01a4.81 4.81 0 0 1 4.45 4.451 4.815 4.815 0 0 1-3.46 4.95v.289c0 .732-.593 1.326-1.326 1.326ZM38.087 16.56a1.328 1.328 0 0 1-1.328-1.328v-.175a1.328 1.328 0 1 1 2.656 0v.175c0 .733-.594 1.328-1.328 1.328Z" fill="#fff"/></g><defs><clipPath id="a"><path fill="#fff" d="M0 0h44v44H0z"/></clipPath></defs></svg>