<svg width="44" height="44" viewBox="0 0 44 44" fill="none" xmlns="http://www.w3.org/2000/svg">
<g clip-path="url(#clip0_159_6064)">
<path d="M22 43.9999C34.1502 43.9999 43.9999 34.1502 43.9999 22C43.9999 9.84971 34.1502 0 22 0C9.84971 0 0 9.84971 0 22C0 34.1502 9.84971 43.9999 22 43.9999Z" fill="#FFD284"/>
<path d="M42.1127 13.0745C42.0334 13.114 41.9784 13.1417 41.9726 13.1451L36.553 16.3491C36.5468 16.3528 36.5407 16.3565 36.5345 16.3604L35.3337 17.1239C35.0231 17.3215 34.9314 17.7335 35.1289 18.0442C35.256 18.244 35.4716 18.3532 35.692 18.3532C35.8143 18.3532 35.9382 18.3195 36.049 18.249L37.2408 17.4913L42.618 14.3123C42.4619 13.8934 42.2932 13.4807 42.1127 13.0745Z" fill="#3F170D"/>
<path d="M6.83558 22C6.83558 11.0123 14.8932 1.90631 25.4202 0.26423C24.3064 0.0905652 23.1626 0 22 0C9.84974 0 0 9.84974 0 22C0 34.1502 9.84974 43.9999 22 43.9999C23.1625 43.9999 24.3063 43.9093 25.4202 43.7356C14.8932 42.0936 6.83558 32.9877 6.83558 22Z" fill="#FFD284"/>
<path d="M25.1173 18.353H18.9716C18.6035 18.353 18.305 18.0546 18.305 17.6864C18.305 17.3183 18.6035 17.0199 18.9716 17.0199H25.1173C25.4854 17.0199 25.7839 17.3183 25.7839 17.6864C25.7839 18.0546 25.4854 18.353 25.1173 18.353Z" fill="#3F170D"/>
<path d="M42.1127 13.0745C42.0334 13.114 41.9784 13.1417 41.9726 13.1451L36.553 16.3491C36.5468 16.3528 36.5407 16.3565 36.5345 16.3604L35.3337 17.1239C35.0231 17.3215 34.9314 17.7335 35.1289 18.0442C35.256 18.244 35.4716 18.3532 35.692 18.3532C35.8143 18.3532 35.9382 18.3195 36.049 18.249L37.2408 17.4913L42.618 14.3123C42.4619 13.8934 42.2932 13.4807 42.1127 13.0745Z" fill="#3F170D"/>
<path d="M30.3382 26.3913C33.9578 26.3913 36.8922 23.4569 36.8922 19.8372V16.9229C36.8922 16.32 36.4035 15.8312 35.8005 15.8312H24.8758C24.2729 15.8312 23.7841 16.32 23.7841 16.9229V19.8372C23.7841 23.4569 26.7185 26.3913 30.3382 26.3913Z" fill="#3F170D"/>
<path d="M27.7941 19.8372V16.9229C27.7941 16.32 28.2828 15.8312 28.8857 15.8312H24.8758C24.2729 15.8312 23.7841 16.32 23.7841 16.9229V19.8372C23.7841 23.4569 26.7185 26.3913 30.3382 26.3913C31.0376 26.3913 31.711 26.2806 32.3431 26.0777C29.7044 25.2304 27.7941 22.7574 27.7941 19.8372Z" fill="#280E07"/>
<path d="M22.2546 35.7502C22.0449 35.7502 21.8344 35.741 21.6237 35.7222L21.0904 35.6749C20.7237 35.6424 20.4528 35.3188 20.4853 34.9521C20.5179 34.5854 20.8412 34.3139 21.2082 34.347L21.7415 34.3943C24.0854 34.6026 26.357 33.3225 27.3933 31.2094C27.5554 30.8789 27.9548 30.7424 28.2852 30.9044C28.6157 31.0665 28.7523 31.4658 28.5902 31.7964C27.959 33.0837 26.965 34.1361 25.716 34.84C24.6512 35.44 23.4659 35.7502 22.2546 35.7502Z" fill="#280E07"/>
<path d="M8.80144 17.1043L7.44039 16.3451L2.02745 13.1451C1.98568 13.1204 1.94231 13.1011 1.89805 13.0864L1.88481 13.0803C1.70519 13.4847 1.53748 13.8954 1.38194 14.3121L6.76857 17.4966C6.77061 17.4978 6.77275 17.4985 6.77479 17.4997C6.77763 17.5014 6.78021 17.5032 6.78306 17.5048L8.15202 18.2684C8.25476 18.3257 8.36621 18.353 8.47607 18.353C8.7099 18.353 8.9368 18.2297 9.05883 18.011C9.23827 17.6896 9.123 17.2836 8.80144 17.1043Z" fill="#3F170D"/>
<path d="M13.6618 26.3913C17.2815 26.3913 20.2159 23.4569 20.2159 19.8372V16.9229C20.2159 16.32 19.7271 15.8312 19.1242 15.8312H8.19948C7.59654 15.8312 7.10781 16.32 7.10781 16.9229V19.8372C7.10781 23.4569 10.0422 26.3913 13.6618 26.3913Z" fill="#3F170D"/>
<path d="M11.4625 19.8372V16.9229C11.4625 16.32 11.9512 15.8312 12.5542 15.8312H8.19948C7.59654 15.8312 7.10781 16.32 7.10781 16.9229V19.8372C7.10781 23.4569 10.0422 26.3913 13.6618 26.3913C14.4254 26.3913 15.1577 26.2594 15.8391 26.0193C13.2902 25.1215 11.4625 22.6934 11.4625 19.8372Z" fill="#280E07"/>
<path d="M9.03448 20.9089C8.36426 22.3226 7.31747 23.3482 5.92495 24.0176C5.79573 24.0798 5.80053 24.2631 5.93286 24.3184C7.39044 24.9273 8.44416 25.9403 9.04452 27.4072C9.099 27.5403 9.28867 27.5425 9.34644 27.4109C9.98048 25.9665 11.044 24.966 12.4578 24.3272C12.587 24.2689 12.5865 24.0876 12.4572 24.0297C11.0334 23.3931 9.96493 22.3832 9.33266 20.9149C9.27649 20.7845 9.09536 20.7806 9.03448 20.9089Z" fill="white"/>
</g>
<defs>
<clipPath id="clip0_159_6064">
<rect width="44" height="44" fill="white"/>
</clipPath>
</defs>
</svg>
