<svg width="44" height="44" viewBox="0 0 44 44" fill="none" xmlns="http://www.w3.org/2000/svg">
<g clip-path="url(#clip0_159_6022)">
<path d="M22 43.9999C34.1502 43.9999 43.9999 34.1502 43.9999 22C43.9999 9.84971 34.1502 0 22 0C9.84971 0 0 9.84971 0 22C0 34.1502 9.84971 43.9999 22 43.9999Z" fill="#FFD284"/>
<path d="M6.83558 22C6.83558 11.0123 14.8923 1.90622 25.4193 0.264141C24.3054 0.0903874 23.1626 0 22 0C9.84974 0 0 9.84974 0 22C0 34.1502 9.84974 43.9999 22 43.9999C23.1625 43.9999 24.306 43.9094 25.4199 43.7357C14.8929 42.0936 6.83558 32.9877 6.83558 22Z" fill="#FFD284"/>
<path d="M21.9999 32.634C20.0792 32.634 18.2372 32.0507 16.6729 30.9471C15.1439 29.8685 13.9898 28.376 13.335 26.6309C13.2057 26.2863 13.3803 25.902 13.725 25.7727C14.0695 25.6433 14.4539 25.8179 14.5832 26.1627C15.7362 29.2361 18.7168 31.301 21.9999 31.301C25.2831 31.301 28.2637 29.2361 29.4167 26.1627C29.546 25.8181 29.9303 25.6433 30.2749 25.7727C30.6195 25.9021 30.7942 26.2863 30.6649 26.6309C30.0102 28.376 28.856 29.8686 27.327 30.9471C25.7628 32.0507 23.9207 32.634 21.9999 32.634Z" fill="#3F170D"/>
<path d="M17.3762 19.5243C17.008 19.5243 16.7096 19.2258 16.7096 18.8577C16.7096 17.3729 15.5016 16.1649 14.0167 16.1649C12.5319 16.1649 11.3238 17.3729 11.3238 18.8577C11.3238 19.2258 11.0254 19.5243 10.6573 19.5243C10.2891 19.5243 9.9907 19.2258 9.9907 18.8577C9.9907 16.6378 11.7968 14.8318 14.0167 14.8318C16.2367 14.8318 18.0427 16.6378 18.0427 18.8577C18.0427 19.2258 17.7444 19.5243 17.3762 19.5243Z" fill="#3F170D"/>
<path d="M33.4315 19.5243C33.0634 19.5243 32.7649 19.2258 32.7649 18.8577C32.7649 17.3729 31.5569 16.1649 30.0721 16.1649C28.5872 16.1649 27.3792 17.3729 27.3792 18.8577C27.3792 19.2258 27.0808 19.5243 26.7126 19.5243C26.3445 19.5243 26.0461 19.2258 26.0461 18.8577C26.0461 16.6378 27.8521 14.8318 30.0721 14.8318C32.292 14.8318 34.0981 16.6378 34.0981 18.8577C34.0981 19.2258 33.7996 19.5243 33.4315 19.5243Z" fill="#3F170D"/>
<path d="M3.79423 25.597C3.72197 25.597 3.64847 25.5852 3.5763 25.5602C3.22835 25.4399 3.04393 25.0603 3.16427 24.7124L4.14707 21.871C4.26741 21.523 4.647 21.3386 4.99495 21.459C5.3429 21.5793 5.52732 21.9589 5.40698 22.3068L4.42418 25.1482C4.32873 25.4239 4.07055 25.597 3.79423 25.597Z" fill="#E23C08"/>
<path d="M6.88011 25.597C6.80785 25.597 6.73435 25.5852 6.66218 25.5602C6.31423 25.4399 6.12981 25.0603 6.25015 24.7124L7.23295 21.871C7.35329 21.523 7.73279 21.3386 8.08083 21.459C8.42878 21.5793 8.6132 21.9589 8.49286 22.3068L7.51006 25.1482C7.41461 25.4239 7.15633 25.597 6.88011 25.597Z" fill="#E23C08"/>
<path d="M36.2261 25.597C36.1538 25.597 36.0803 25.5852 36.0081 25.5602C35.6602 25.4399 35.4758 25.0603 35.5961 24.7124L36.5789 21.871C36.6992 21.523 37.0788 21.3386 37.4268 21.459C37.7747 21.5793 37.9591 21.9589 37.8388 22.3068L36.856 25.1482C36.7606 25.4239 36.5023 25.597 36.2261 25.597Z" fill="#E23C08"/>
<path d="M39.3119 25.597C39.2397 25.597 39.1662 25.5852 39.094 25.5602C38.7461 25.4399 38.5616 25.0603 38.682 24.7124L39.6648 21.871C39.7851 21.523 40.1648 21.3386 40.5126 21.459C40.8606 21.5793 41.045 21.9589 40.9247 22.3068L39.9419 25.1482C39.8464 25.4239 39.5882 25.597 39.3119 25.597Z" fill="#E23C08"/>
</g>
<defs>
<clipPath id="clip0_159_6022">
<rect width="44" height="44" fill="white"/>
</clipPath>
</defs>
</svg>
