<svg width="44" height="44" viewBox="0 0 44 44" fill="none" xmlns="http://www.w3.org/2000/svg">
<g clip-path="url(#clip0_159_6043)">
<path d="M22 44C34.1036 44 43.9155 34.1881 43.9155 22.0845C43.9155 9.98091 34.1036 0.169006 22 0.169006C9.89645 0.169006 0.084549 9.98091 0.084549 22.0845C0.084549 34.1881 9.89645 44 22 44Z" fill="#FFD284"/>
<path d="M6.89389 22.0845C6.89389 11.1391 14.9206 2.068 25.4071 0.432219C24.2975 0.259132 23.1582 0.168915 22 0.168915C9.89639 0.169003 0.084465 9.98083 0.084465 22.0845C0.084465 34.1881 9.89639 44 22 44C23.1581 44 24.2974 43.9098 25.4071 43.7367C14.9205 42.1009 6.89389 33.0299 6.89389 22.0845Z" fill="#FFD284"/>
<path d="M13.8009 22.8972C15.8258 22.8972 17.4673 21.2557 17.4673 19.2308C17.4673 17.2058 15.8258 15.5643 13.8009 15.5643C11.776 15.5643 10.1345 17.2058 10.1345 19.2308C10.1345 21.2557 11.776 22.8972 13.8009 22.8972Z" fill="white"/>
<path d="M14.3634 19.6245C15.0073 19.6245 15.5293 19.1025 15.5293 18.4586C15.5293 17.8146 15.0073 17.2926 14.3634 17.2926C13.7194 17.2926 13.1974 17.8146 13.1974 18.4586C13.1974 19.1025 13.7194 19.6245 14.3634 19.6245Z" fill="#3F170D"/>
<path d="M28.9352 24.2207C31.6911 24.2207 33.9251 21.9866 33.9251 19.2308C33.9251 16.4749 31.6911 14.2408 28.9352 14.2408C26.1793 14.2408 23.9453 16.4749 23.9453 19.2308C23.9453 21.9866 26.1793 24.2207 28.9352 24.2207Z" fill="white"/>
<path d="M29.924 18.8952C30.6761 18.8952 31.2857 18.2855 31.2857 17.5335C31.2857 16.7815 30.6761 16.1718 29.924 16.1718C29.172 16.1718 28.5624 16.7815 28.5624 17.5335C28.5624 18.2855 29.172 18.8952 29.924 18.8952Z" fill="#3F170D"/>
<path d="M16.7662 13.7032C16.5612 13.7032 16.3589 13.6086 16.229 13.4302C15.6646 12.6555 14.7569 12.1929 13.8009 12.1929C12.8449 12.1929 11.9372 12.6555 11.3728 13.4302C11.157 13.7266 10.7415 13.7918 10.4451 13.5759C10.1487 13.36 10.0835 12.9446 10.2994 12.6482C11.1129 11.5315 12.4219 10.8649 13.8009 10.8649C15.1799 10.8649 16.4888 11.5315 17.3024 12.6482C17.5183 12.9446 17.4531 13.36 17.1566 13.5759C17.0386 13.6619 16.9018 13.7032 16.7662 13.7032Z" fill="#3F170D"/>
<path d="M31.9005 10.6643C31.6954 10.6643 31.4932 10.5696 31.3633 10.3912C30.7989 9.61653 29.8912 9.15393 28.9352 9.15393C27.9792 9.15393 27.0715 9.61653 26.5071 10.3912C26.2913 10.6876 25.8759 10.753 25.5794 10.5369C25.283 10.321 25.2178 9.90568 25.4337 9.60927C26.2472 8.49257 27.5562 7.8259 28.9352 7.8259C30.3142 7.8259 31.6231 8.49257 32.4367 9.60927C32.6526 9.90568 32.5874 10.321 32.2909 10.5369C32.1729 10.6228 32.036 10.6643 31.9005 10.6643Z" fill="#3F170D"/>
<path d="M26.9767 30.577C26.8181 30.577 26.6589 30.6335 26.5319 30.7482L26.1955 31.0521C23.804 33.212 20.3395 33.8 17.3693 32.55C17.031 32.4078 16.642 32.5667 16.4997 32.9045C16.3575 33.2425 16.5162 33.6318 16.8542 33.7741C20.2973 35.2229 24.3134 34.5414 27.0856 32.0376L27.422 31.7337C27.6942 31.488 27.7155 31.068 27.4698 30.7959C27.3386 30.6509 27.158 30.577 26.9767 30.577Z" fill="#3F170D"/>
<path d="M38.089 11.0271H38.0856C37.3531 11.0271 36.7593 10.4333 36.7593 9.7008V9.02032C36.7593 7.9934 37.4944 7.10265 38.5072 6.9022C39.5611 6.6937 40.2997 5.72327 40.2254 4.64482C40.1524 3.58717 39.2998 2.73458 38.2422 2.66163C37.6386 2.62046 37.0642 2.82258 36.6254 3.23224C36.3985 3.44392 36.2244 3.69466 36.1088 3.97027C35.9 4.46881 35.4203 4.79958 34.8798 4.79958C33.9343 4.79958 33.2924 3.83853 33.654 2.96495C33.9144 2.33599 34.3075 1.76237 34.813 1.29057C35.7959 0.373076 37.0783 -0.0814645 38.4249 0.0118518C40.7983 0.175554 42.7114 2.08871 42.8751 4.46199C43.0318 6.73523 41.566 8.79482 39.4153 9.41262V9.70063C39.4153 10.4333 38.8215 11.0271 38.089 11.0271Z" fill="white"/>
<path d="M38.0873 16.5596C37.3538 16.5596 36.7592 15.965 36.7592 15.2316V15.0566C36.7592 14.3231 37.3538 13.7285 38.0873 13.7285C38.8207 13.7285 39.4153 14.3231 39.4153 15.0566V15.2316C39.4153 15.9651 38.8208 16.5596 38.0873 16.5596Z" fill="white"/>
</g>
<defs>
<clipPath id="clip0_159_6043">
<rect width="44" height="44" fill="white"/>
</clipPath>
</defs>
</svg>
