<svg width="56" height="56" viewBox="0 0 56 56" fill="none" xmlns="http://www.w3.org/2000/svg">
<g clip-path="url(#clip0_159_5416)">
<path d="M51.3307 56.0002C51.5466 50.1703 47.8747 47.9282 47.8747 47.9282L32.4059 39.1836H23.5935L8.12526 47.9282C8.12526 47.9282 4.45366 50.1703 4.6695 56.0002H51.3307Z" fill="#F9C5B8"/>
<path d="M22.4932 40.3146H33.5069C31.0666 38.9968 31.7242 33.9312 31.7242 33.9312H24.2758C24.2758 33.9312 24.9335 38.9969 22.4932 40.3146Z" fill="#F9C5B8"/>
<path d="M24.1232 37.7396C26.7545 37.439 29.33 36.5572 31.6449 35.2532C31.6538 34.4754 31.7243 33.9312 31.7243 33.9312H24.2759C24.2758 33.9312 24.5341 35.9273 24.1232 37.7396Z" fill="#F5A997"/>
<path d="M40.8464 22.6456C40.6146 24.4374 39.6008 25.7678 38.5821 25.6172C37.5632 25.4666 36.9251 23.8919 37.1566 22.1001C37.3886 20.3082 38.4027 18.9777 39.4214 19.1283C40.4401 19.279 41.0783 20.8536 40.8464 22.6456Z" fill="#F5A997"/>
<path d="M38.5673 24.2869C38.4292 24.2869 38.3035 24.1931 38.269 24.0529C38.015 23.0246 37.8996 21.8062 38.9694 20.5656C39.08 20.4373 39.2747 20.4226 39.4032 20.5334C39.5318 20.6443 39.5462 20.8387 39.4353 20.9673C38.5067 22.0444 38.6547 23.0486 38.8663 23.9056C38.907 24.0705 38.8065 24.2373 38.6413 24.2779C38.6166 24.2838 38.5918 24.2869 38.5673 24.2869Z" fill="#E9837B"/>
<path d="M39.6013 22.5012C39.5823 22.5012 39.5629 22.4994 39.5434 22.4957C39.05 22.4022 38.5412 22.4949 38.5361 22.4958C38.3686 22.5269 38.2087 22.4169 38.1773 22.2505C38.1457 22.0837 38.2552 21.923 38.4217 21.8914C38.4467 21.8866 39.0468 21.7751 39.6586 21.8914C39.8253 21.923 39.9349 22.0841 39.9031 22.251C39.8749 22.3984 39.7459 22.5012 39.6013 22.5012Z" fill="#E9837B"/>
<path d="M15.1536 22.6456C15.3856 24.4374 16.3992 25.7678 17.4181 25.6172C18.437 25.4666 19.0748 23.8919 18.8436 22.1001C18.6116 20.3082 17.5975 18.9777 16.5786 19.1283C15.5597 19.279 14.9218 20.8536 15.1536 22.6456Z" fill="#F5A997"/>
<path d="M17.4328 24.2869C17.4082 24.2869 17.3834 24.2841 17.3587 24.2779C17.1937 24.2373 17.093 24.0705 17.134 23.9056C17.3455 23.0487 17.4933 22.0444 16.5649 20.9673C16.454 20.8387 16.4684 20.6444 16.597 20.5334C16.7258 20.4223 16.9201 20.437 17.0306 20.5656C18.1004 21.8062 17.9851 23.0246 17.7312 24.0529C17.6963 24.1931 17.5709 24.2869 17.4328 24.2869Z" fill="#E9837B"/>
<path d="M16.3987 22.5012C16.254 22.5012 16.125 22.3984 16.097 22.251C16.0654 22.084 16.175 21.923 16.3418 21.8914C16.9536 21.7752 17.5534 21.8866 17.5785 21.8914C17.7454 21.9231 17.8548 22.0843 17.8232 22.251C17.7916 22.4179 17.6289 22.5266 17.4639 22.4958C17.4552 22.4942 16.9488 22.4026 16.4566 22.4957C16.4372 22.4994 16.4177 22.5012 16.3987 22.5012Z" fill="#E9837B"/>
<path d="M38.3197 18.352C38.137 13.2403 34.9994 6.92535 28.5668 6.95992H27.9095H27.2521C20.8192 6.92535 17.6819 13.2401 17.499 18.352C17.3157 23.4899 18.8909 29.4156 22.0908 32.5669C23.591 34.0441 25.8666 34.7546 27.9095 34.7901C29.9521 34.7546 32.2277 34.0441 33.7279 32.5669C36.928 29.4156 38.503 23.49 38.3197 18.352Z" fill="#F9C5B8"/>
<path d="M23.3122 24.5931C24.6898 24.5931 25.8065 24.0859 25.8065 23.4601C25.8065 22.8344 24.6898 22.3271 23.3122 22.3271C21.9347 22.3271 20.8179 22.8344 20.8179 23.4601C20.8179 24.0859 21.9347 24.5931 23.3122 24.5931Z" fill="#F6AFA8"/>
<path d="M32.5064 24.5931C33.8839 24.5931 35.0007 24.0859 35.0007 23.4601C35.0007 22.8344 33.8839 22.3271 32.5064 22.3271C31.1288 22.3271 30.0121 22.8344 30.0121 23.4601C30.0121 24.0859 31.1288 24.5931 32.5064 24.5931Z" fill="#F6AFA8"/>
<path d="M35.72 5.87757C41.1027 9.87624 39.5183 19.1473 39.5183 19.1473C38.0602 19.2533 38.9205 21.8479 37.9428 23.5057C37.2027 21.9154 37.5089 18.2503 37.5089 18.2503C37.3652 17.3771 36.8076 16.637 36.4425 15.8518C36.0672 15.045 36.4263 15.8593 36.0672 15.045C35.632 14.0574 35.4041 12.1588 35.0006 11.1578C26.7969 14.6263 20.8631 11.1578 20.8631 11.1578C20.4594 12.1588 20.2318 14.0574 19.7964 15.045C19.4371 15.8593 19.7964 15.045 19.4212 15.8518C19.0558 16.6369 18.498 17.3771 18.3543 18.2503C18.3543 18.2503 18.661 21.9154 17.9209 23.5057C16.9432 21.8479 17.8035 19.2534 16.3454 19.1473C16.3454 19.1473 14.761 9.87624 20.1436 5.87757C20.1436 5.87757 22.1865 4.10091 26.6974 4.2034C26.6974 4.2034 31.3951 3.79334 31.2507 1.12756C31.2507 1.12756 32.389 2.04249 32.0036 3.68691C32.0036 3.68691 34.2845 2.0504 34.0796 -0.00012207C34.0797 -0.00012207 36.9504 3.24574 35.72 5.87757Z" fill="#3F170D"/>
<path d="M24.6347 21.7614C24.465 21.7614 24.327 21.6239 24.327 21.4538C24.327 20.853 24.0517 20.3868 23.8149 20.3868C23.5778 20.3868 23.3022 20.8529 23.3022 21.4538C23.3022 21.6239 23.1645 21.7614 22.9948 21.7614C22.825 21.7614 22.6873 21.6239 22.6873 21.4538C22.6873 20.5106 23.1827 19.7716 23.815 19.7716C24.4473 19.7716 24.9424 20.5106 24.9424 21.4538C24.9422 21.6237 24.8045 21.7614 24.6347 21.7614Z" fill="#3F170D"/>
<path d="M32.824 21.7614C32.6542 21.7614 32.5165 21.6239 32.5165 21.4538C32.5165 20.853 32.2409 20.3868 32.0038 20.3868C31.767 20.3868 31.4917 20.8529 31.4917 21.4538C31.4917 21.6239 31.354 21.7614 31.1842 21.7614C31.0142 21.7614 30.8765 21.6239 30.8765 21.4538C30.8765 20.5106 31.3719 19.7716 32.004 19.7716C32.6363 19.7716 33.1319 20.5106 33.1319 21.4538C33.1317 21.6237 32.9937 21.7614 32.824 21.7614Z" fill="#3F170D"/>
<path d="M36.7561 41.6425L47.8747 47.9281C47.8747 47.9281 51.5466 50.1702 51.3307 56.0001H4.66937C4.45354 50.1702 8.12514 47.9281 8.12514 47.9281L19.2435 41.6425C19.2435 41.6425 20.0403 47.0599 28 46.9234C28.0001 46.9234 36.3225 46.8882 36.7561 41.6425Z" fill="#FFD284"/>
<path d="M25.1993 18.4035C25.1694 18.696 24.9381 18.892 24.6834 18.8675C23.748 18.7764 22.8181 18.9305 21.9622 19.3188C21.7284 19.4243 21.4465 19.3134 21.3236 19.0462C21.2008 18.7799 21.3154 18.4393 21.59 18.3149C22.5715 17.8694 23.6382 17.6925 24.7111 17.7973C25.0111 17.8264 25.2299 18.1118 25.1993 18.4035Z" fill="#3F170D"/>
<path d="M30.6188 18.4035C30.6491 18.696 30.8804 18.892 31.1351 18.8675C32.0706 18.7764 33.0007 18.9305 33.8566 19.3188C34.0901 19.4243 34.3715 19.3134 34.4949 19.0462C34.6179 18.7799 34.5028 18.4393 34.2285 18.3149C33.247 17.8694 32.1801 17.6925 31.1072 17.7973C30.8074 17.8264 30.5889 18.1118 30.6188 18.4035Z" fill="#3F170D"/>
<path d="M27.6757 26.3875C27.637 26.3875 27.5973 26.3799 27.5591 26.3642C26.8976 26.0921 26.5373 25.7863 26.4256 25.402C26.2785 24.895 26.6014 24.4379 26.9433 23.9542C27.1574 23.6513 27.3785 23.3382 27.4863 23.0103C27.5392 22.8491 27.7135 22.7618 27.8744 22.814C28.0358 22.8671 28.1238 23.041 28.0707 23.2025C27.9343 23.6177 27.6748 23.985 27.4456 24.3092C27.1916 24.6686 26.9519 25.0079 27.0163 25.2304C27.0534 25.3574 27.2179 25.5587 27.7928 25.7953C27.95 25.8599 28.025 26.0396 27.9601 26.1967C27.9116 26.3156 27.7967 26.3875 27.6757 26.3875Z" fill="#E9837B"/>
<path d="M23.4463 28.6844C24.0518 28.6622 24.6299 28.4928 25.1997 28.2983C26.161 27.9705 27.2648 27.4872 28.2992 27.7512C29.5064 28.0595 30.4776 28.8409 31.7916 28.6833C32.4813 28.6006 33.0967 28.3613 33.6563 28.0203C33.3512 27.8762 33.0812 27.6309 32.8342 27.4191C32.3027 26.9637 31.8281 26.5841 31.1281 26.4398C30.4026 26.2903 29.635 26.3469 28.9012 26.382C28.6178 26.3955 28.3119 26.4281 27.9997 26.4609V26.4577H27.7232C27.4111 26.4247 27.105 26.3923 26.8214 26.3787C26.0879 26.3437 25.32 26.2871 24.5948 26.4365C23.8947 26.5809 23.4201 26.9605 22.8887 27.4157C22.5833 27.6775 22.2438 27.9923 21.8455 28.101C22.2969 28.4709 22.8292 28.7071 23.4463 28.6844Z" fill="#3F170D"/>
<path d="M24.5677 28.6157C25.036 30.0135 26.354 31.0219 27.9094 31.0219C29.4651 31.0219 30.7826 30.0135 31.2509 28.6157H24.5677Z" fill="white"/>
</g>
<defs>
<clipPath id="clip0_159_5416">
<rect width="56" height="56" fill="white"/>
</clipPath>
</defs>
</svg>
