<svg width="56" height="56" viewBox="0 0 56 56" fill="none" xmlns="http://www.w3.org/2000/svg">
<g clip-path="url(#clip0_159_5297)">
<path d="M52.3589 56.0002C52.5841 49.9135 48.7506 47.5724 48.7506 47.5724L32.6002 38.4425H23.3991L7.24921 47.5724C7.24921 47.5724 3.41586 49.9135 3.64108 56.0002H52.3589Z" fill="#F9C5B8"/>
<path d="M22.2505 39.6234H33.7494C31.2016 38.2475 31.8882 32.9586 31.8882 32.9586H24.1118C24.1117 32.9586 24.7983 38.2475 22.2505 39.6234Z" fill="#F9C5B8"/>
<path d="M23.9524 36.9349C26.6997 36.6211 29.3887 35.7003 31.8054 34.339C31.8148 33.527 31.8883 32.9587 31.8883 32.9587H24.1118C24.1117 32.9586 24.3813 35.0428 23.9524 36.9349Z" fill="#F5A997"/>
<path d="M40.7683 12.041H28.0388H15.3093C14.312 19.995 16.6853 29.7428 24.3848 32.4007C25.4835 32.7797 26.9012 33.2709 28.0388 32.9935C29.1764 33.2709 30.5942 32.7799 31.6929 32.4007C39.3925 29.7428 41.7655 19.995 40.7683 12.041Z" fill="#3F170D"/>
<path d="M41.4125 21.1756C41.1705 23.0464 40.1118 24.4356 39.0481 24.2782C37.9842 24.1209 37.3182 22.4769 37.5601 20.606C37.8022 18.7353 38.8608 17.3461 39.9245 17.5033C40.9886 17.6607 41.6545 19.3047 41.4125 21.1756Z" fill="#F5A997"/>
<path d="M39.033 22.8893C38.8888 22.8893 38.7576 22.7914 38.7215 22.645C38.4564 21.5715 38.3359 20.2992 39.4525 19.004C39.5685 18.8695 39.771 18.8548 39.9054 18.9704C40.0397 19.0862 40.0548 19.2891 39.939 19.4233C38.9694 20.5478 39.1239 21.5964 39.3448 22.4911C39.3874 22.6634 39.2823 22.8373 39.1101 22.8797C39.0844 22.8862 39.0585 22.8893 39.033 22.8893Z" fill="#E9837B"/>
<path d="M40.1125 21.025C40.0926 21.025 40.0725 21.0231 40.0522 21.0193C39.5367 20.9218 39.0058 21.0187 39.0003 21.0193C38.8255 21.051 38.6583 20.9371 38.6255 20.7631C38.5927 20.589 38.7068 20.4213 38.8809 20.3882C38.9072 20.3832 39.5336 20.2669 40.172 20.3882C40.3463 20.4213 40.4607 20.5894 40.4276 20.7636C40.3984 20.9176 40.2637 21.025 40.1125 21.025Z" fill="#E9837B"/>
<path d="M14.5873 21.1756C14.8295 23.0464 15.888 24.4356 16.9517 24.2782C18.0156 24.1209 18.6816 22.4769 18.4397 20.606C18.1976 18.7353 17.139 17.3461 16.0753 17.5033C15.0116 17.6607 14.3454 19.3047 14.5873 21.1756Z" fill="#F5A997"/>
<path d="M16.9667 22.8893C16.9412 22.8893 16.9154 22.8863 16.8896 22.8798C16.7172 22.8373 16.6121 22.6633 16.6547 22.4912C16.8756 21.5965 17.0302 20.548 16.0606 19.4234C15.9448 19.2891 15.9598 19.0863 16.0942 18.9705C16.2281 18.8548 16.4311 18.8695 16.5471 19.0041C17.6637 20.2995 17.5431 21.5716 17.278 22.6451C17.2422 22.7914 17.1111 22.8893 16.9667 22.8893Z" fill="#E9837B"/>
<path d="M17.0594 21.025C17.0397 21.025 17.0197 21.0231 16.9996 21.0193C16.9903 21.0177 16.4615 20.9219 15.9477 21.0193C15.774 21.0525 15.6055 20.9379 15.5724 20.7637C15.5392 20.5895 15.6536 20.4214 15.828 20.3884C16.4661 20.2667 17.0928 20.3833 17.119 20.3884C17.2932 20.4214 17.4077 20.5895 17.3746 20.7637C17.3453 20.9176 17.2106 21.025 17.0594 21.025Z" fill="#E9837B"/>
<path d="M38.7742 16.6931C38.5836 11.3559 35.308 4.76271 28.5915 4.79888H27.9053H27.219C20.5024 4.76271 17.227 11.3558 17.0363 16.6931C16.8445 22.0573 18.4893 28.2441 21.8301 31.5343C23.3964 33.0766 25.7725 33.8184 27.9053 33.8555C30.0379 33.8184 32.4141 33.0766 33.9804 31.5343C37.3214 28.2441 38.966 22.0573 38.7742 16.6931Z" fill="#F9C5B8"/>
<path d="M17.3815 22.4332C17.3815 22.4332 17.7951 22.2603 17.7914 16.3099C18.7432 13.9158 20.846 14.9499 23.0318 14.4926C25.0717 14.0659 25.8434 12.2059 26.8038 10.5977C28.1028 8.42221 31.2786 9.86364 32.9121 8.26676C32.9121 10.9584 33.9762 12.8598 36.1532 14.594C38.639 16.5742 38.1322 19.4429 38.276 22.4162C39.3772 21.6366 38.5033 17.9083 40.026 17.8038C40.026 17.8038 43.563 8.73596 35.7576 3.86136C34.7603 -0.613427 28.2758 -1.50577 25.8358 2.81468C18.4893 -0.579719 16.4736 7.8472 16.4736 7.8472C13.8193 9.91747 14.5223 15.878 16.1294 17.6117C17.0592 18.6144 16.7647 20.1099 17.3815 22.4332Z" fill="#3F170D"/>
<path d="M32.6002 38.4424L48.7506 47.5723C48.7506 47.5723 52.584 49.9134 52.3589 56.0001H3.64121C3.41587 49.9134 7.24934 47.5723 7.24934 47.5723L23.3993 38.4424C23.3991 38.4424 28.2753 41.4362 32.6002 38.4424Z" fill="#FFD284"/>
<path d="M27.8236 29.0063C26.3306 29.0063 25.3847 28.1745 25.3707 28.1617C25.2391 28.0428 25.2289 27.8397 25.3478 27.7081C25.4664 27.5768 25.669 27.5663 25.8007 27.6846C25.8744 27.75 27.5765 29.2184 30.0527 27.6522C30.2024 27.5575 30.4008 27.6019 30.4957 27.7519C30.5906 27.9017 30.5459 28.1001 30.396 28.1949C29.4356 28.8027 28.5626 29.0063 27.8236 29.0063Z" fill="#E9837B"/>
<path d="M23.1055 23.9781C24.5438 23.9781 25.7097 23.4485 25.7097 22.7951C25.7097 22.1418 24.5438 21.6121 23.1055 21.6121C21.6673 21.6121 20.5013 22.1418 20.5013 22.7951C20.5013 23.4485 21.6673 23.9781 23.1055 23.9781Z" fill="#F6AFA8"/>
<path d="M32.7049 23.9781C34.1432 23.9781 35.3091 23.4485 35.3091 22.7951C35.3091 22.1418 34.1432 21.6121 32.7049 21.6121C31.2667 21.6121 30.1008 22.1418 30.1008 22.7951C30.1008 23.4485 31.2667 23.9781 32.7049 23.9781Z" fill="#F6AFA8"/>
<path d="M25.076 16.7468C25.0444 17.0521 24.8032 17.2567 24.5372 17.2312C23.5605 17.136 22.5894 17.297 21.6958 17.7025C21.4521 17.8125 21.1579 17.6968 21.0293 17.4177C20.901 17.1395 21.0208 16.7841 21.3074 16.6542C22.3324 16.1889 23.446 16.0042 24.5663 16.1137C24.8794 16.1441 25.1077 16.442 25.076 16.7468Z" fill="#3F170D"/>
<path d="M30.7344 16.7468C30.7661 17.0521 31.0072 17.2567 31.2733 17.2312C32.25 17.136 33.221 17.297 34.1146 17.7025C34.3583 17.8125 34.6524 17.6968 34.7811 17.4177C34.9094 17.1395 34.7895 16.7841 34.503 16.6542C33.4779 16.1889 32.3643 16.0042 31.2441 16.1137C30.9311 16.1441 30.7028 16.442 30.7344 16.7468Z" fill="#3F170D"/>
<path d="M27.7981 26.5529C27.7574 26.5529 27.716 26.5451 27.676 26.5287C26.9853 26.2446 26.6093 25.9253 26.4927 25.5241C26.339 24.9948 26.6762 24.5177 27.0332 24.0126C27.2567 23.6963 27.4878 23.3694 27.6 23.0272C27.6554 22.8587 27.8367 22.7676 28.0055 22.8223C28.174 22.8777 28.2657 23.0591 28.2104 23.2276C28.0679 23.6613 27.7969 24.0448 27.5576 24.3832C27.2925 24.7585 27.0421 25.1128 27.1095 25.345C27.1481 25.4777 27.32 25.6878 27.9203 25.9348C28.0844 26.0023 28.1626 26.1899 28.0952 26.354C28.0442 26.4778 27.9244 26.5529 27.7981 26.5529Z" fill="#E9837B"/>
<path d="M23.6303 21.6116C24.1032 21.6116 24.4866 20.8894 24.4866 19.9986C24.4866 19.1077 24.1032 18.3855 23.6303 18.3855C23.1574 18.3855 22.774 19.1077 22.774 19.9986C22.774 20.8894 23.1574 21.6116 23.6303 21.6116Z" fill="#3F170D"/>
<path d="M32.1803 21.6116C32.6532 21.6116 33.0366 20.8894 33.0366 19.9986C33.0366 19.1077 32.6532 18.3855 32.1803 18.3855C31.7073 18.3855 31.324 19.1077 31.324 19.9986C31.324 20.8894 31.7073 21.6116 32.1803 21.6116Z" fill="#3F170D"/>
</g>
<defs>
<clipPath id="clip0_159_5297">
<rect width="56" height="56" fill="white"/>
</clipPath>
</defs>
</svg>
