<svg width="312" height="381" viewBox="0 0 312 381" fill="none" xmlns="http://www.w3.org/2000/svg">
<g clip-path="url(#clip0_159_6436)">
<path d="M65.0262 358.269C58.2229 356.138 50.0476 361.081 43.4927 358.269" stroke="#3F170D" stroke-width="3" stroke-miterlimit="10"/>
<path d="M208.062 230.579C255.658 182.97 255.658 105.78 208.062 58.1705C160.465 10.5611 83.2959 10.5611 35.6993 58.1705C-11.8972 105.78 -11.8972 182.97 35.6994 230.579C83.2959 278.189 160.465 278.189 208.062 230.579Z" fill="#E23C08"/>
<path d="M240.001 69.2313C287.012 116.255 287.012 192.495 240.001 239.518C192.99 286.542 116.771 286.542 69.7599 239.518C22.749 192.495 22.749 116.255 69.7599 69.2313C116.771 22.2078 192.99 22.2078 240.001 69.2313Z" stroke="#3F170D" stroke-width="3"/>
<path d="M177.83 340.194C180.777 344.47 196.992 336.573 202.439 337.718C207.325 338.736 210.637 341.558 216.141 340.365C220.308 339.459 224.429 336.417 228.763 335.122C233.017 333.847 238.564 333.409 242.911 334.796C246.654 335.989 250.137 340.461 254.125 340.876C258.642 341.34 261.755 336.508 265.352 335.427C270.109 334.002 272.393 337.927 276.886 338.349" stroke="#3F170D" stroke-width="3" stroke-miterlimit="10"/>
<path d="M311.845 351.703C306.79 349.786 303.336 353.097 298.601 354.539C292.494 356.4 290.165 352.682 284.685 352.617C280.705 352.57 276.4 356.382 272.192 356.341C269.725 356.317 268.214 354.509 265.442 354.675C263.438 354.806 261.24 356.553 259.194 356.832" stroke="#3F170D" stroke-width="3" stroke-miterlimit="10"/>
<path d="M106.996 345.665C101.976 343.657 98.4623 346.907 93.7029 348.261C87.5531 350.013 85.3016 346.254 79.8236 346.089C75.8438 345.971 71.4773 349.703 67.2654 349.585C64.7982 349.516 63.3203 347.671 60.5477 347.799C58.5425 347.893 56.3114 349.601 54.2615 349.835" stroke="#3F170D" stroke-width="3" stroke-miterlimit="10"/>
<path d="M47.4297 375.692C55.2935 373.148 59.6275 373.403 67.7316 374.61C75.1496 375.718 80.306 371.788 87.4208 371.519C94.7309 371.244 100.856 375.237 108.337 374.492C116.315 373.696 121.854 375.168 129.871 376.306" stroke="#3F170D" stroke-width="3" stroke-miterlimit="10"/>
<path d="M179.291 380.613C184.942 377.734 192.151 378.935 198.366 379.245C204.988 379.577 210.439 378.155 216.833 378.137C222.881 378.123 228.687 378.436 234.664 377.526C240.592 376.632 249.301 379.053 254.349 376.304" stroke="#3F170D" stroke-width="3" stroke-miterlimit="10"/>
<path d="M251.509 359.302C251.509 366.868 213.261 373.004 166.08 373.004C118.899 373.004 80.6481 366.868 80.6481 359.302C80.6481 351.735 118.899 345.6 166.08 345.6C213.261 345.6 251.509 351.739 251.509 359.302Z" fill="white"/>
<path d="M115.196 131.492C115.65 132.439 114.815 133.787 113.329 134.504C111.843 135.22 110.275 135.037 109.809 134.096C109.343 133.156 110.188 131.801 111.676 131.083C113.164 130.364 114.738 130.547 115.196 131.492Z" fill="#3F170D"/>
<path d="M114.888 131.767V121.242" stroke="#3F170D" stroke-width="0.094547" stroke-miterlimit="10"/>
<path d="M121.915 129.344C122.374 130.289 121.537 131.636 120.051 132.355C118.565 133.074 116.997 132.887 116.533 131.948C116.069 131.009 116.912 129.653 118.4 128.936C119.888 128.22 121.459 128.397 121.915 129.344Z" fill="#3F170D"/>
<path d="M121.61 129.619V119.091" stroke="#3F170D" stroke-width="0.094547" stroke-miterlimit="10"/>
<path d="M121.879 121.072L114.607 124.357V120.995L121.879 117.713V121.072Z" fill="#3F170D"/>
<path d="M121.879 122.714L114.607 125.996V125.135L121.879 121.85V122.714Z" fill="#3F170D"/>
<path d="M247.922 131.162C248.378 132.109 247.544 133.457 246.056 134.174C244.568 134.89 243.002 134.707 242.538 133.766C242.074 132.826 242.917 131.472 244.405 130.755C245.893 130.038 247.466 130.217 247.922 131.162Z" fill="#3F170D"/>
<path d="M247.615 131.437V120.912" stroke="#3F170D" stroke-width="0.094547" stroke-miterlimit="10"/>
<path d="M254.644 129.012C255.1 129.959 254.266 131.307 252.78 132.023C251.294 132.74 249.726 132.557 249.262 131.616C248.798 130.675 249.641 129.321 251.127 128.603C252.613 127.884 254.188 128.067 254.644 129.012Z" fill="#3F170D"/>
<path d="M254.339 129.287V118.761" stroke="#3F170D" stroke-width="0.094547" stroke-miterlimit="10"/>
<path d="M254.608 120.743L247.336 124.025V120.665L254.608 117.381V120.743Z" fill="#3F170D"/>
<path d="M254.608 122.382L247.336 125.666V124.803L254.608 121.52V122.382Z" fill="#3F170D"/>
<path d="M187.727 15.2351C188.613 15.7971 188.613 17.3833 187.727 18.7761C186.842 20.1689 185.406 20.8449 184.519 20.2809C183.631 19.7169 183.631 18.1327 184.519 16.7399C185.406 15.3471 186.842 14.6711 187.727 15.2351Z" fill="#3F170D"/>
<path d="M187.611 15.6301L182.064 6.68497" stroke="#3F170D" stroke-width="0.094547" stroke-miterlimit="10"/>
<path d="M192.307 9.85537C193.191 10.4174 193.193 12.0056 192.307 13.3964C191.422 14.7871 189.987 15.4652 189.099 14.9032C188.212 14.3412 188.214 12.7529 189.099 11.3602C189.985 9.96737 191.42 9.29948 192.307 9.85537Z" fill="#3F170D"/>
<path d="M192.191 10.2565L186.644 1.3154" stroke="#3F170D" stroke-width="0.094547" stroke-miterlimit="10"/>
<path d="M187.916 2.85277L183.466 9.47867L181.695 6.62387L186.143 0L187.916 2.85277Z" fill="#3F170D"/>
<path d="M188.782 4.24962L184.332 10.8735L183.876 10.1404L188.326 3.51657L188.782 4.24962Z" fill="#3F170D"/>
<path d="M95.1462 76.7864C95.6021 77.7333 94.7655 79.0813 93.2794 79.8C91.7934 80.5188 90.2259 80.3315 89.7618 79.3928C89.2976 78.4541 90.1404 77.098 91.6285 76.3812C93.1166 75.6645 94.6881 75.8416 95.1462 76.7864Z" fill="#3F170D"/>
<path d="M94.8387 77.0613V66.536" stroke="#3F170D" stroke-width="0.094547" stroke-miterlimit="10"/>
<path d="M266.856 74.2635C267.901 74.3592 268.625 75.7724 268.485 77.4136C268.344 79.0548 267.363 80.3132 266.319 80.2175C265.275 80.1218 264.548 78.7107 264.69 77.0674C264.833 75.4242 265.81 74.1678 266.856 74.2635Z" fill="#3F170D"/>
<path d="M266.934 74.6667L257.911 69.2483" stroke="#3F170D" stroke-width="0.094547" stroke-miterlimit="10"/>
<path d="M89.033 182.428C89.1165 183.475 87.8503 184.43 86.2054 184.562C84.5606 184.695 83.1519 183.951 83.0745 182.905C82.9972 181.858 84.2573 180.903 85.9041 180.771C87.551 180.638 88.9495 181.382 89.033 182.428Z" fill="#3F170D"/>
<path d="M88.6482 182.573L92.4529 172.76" stroke="#3F170D" stroke-width="0.094547" stroke-miterlimit="10"/>
<path d="M128.126 26.3489C128.58 27.2937 127.746 28.6437 126.26 29.3605C124.774 30.0773 123.206 29.892 122.742 28.9533C122.278 28.0145 123.121 26.6584 124.609 25.9417C126.097 25.2249 127.67 25.3939 128.126 26.3489Z" fill="#3F170D"/>
<path d="M127.819 26.6156V16.0903" stroke="#3F170D" stroke-width="0.094547" stroke-miterlimit="10"/>
<path d="M130.148 20.79C128.886 20.79 129.13 19.2017 128.682 19.2017H127.583V15.844H128.99C129.6 15.844 129.091 19.6191 130.148 19.6191C131.204 19.6191 131.404 20.79 130.148 20.79Z" fill="#3F170D"/>
<path d="M234.271 36.7642C235.226 37.2 235.446 38.7699 234.762 40.2727C234.078 41.7754 232.748 42.6408 231.792 42.2051C230.835 41.7693 230.617 40.1994 231.301 38.6966C231.985 37.1939 233.314 36.3264 234.271 36.7642Z" fill="#3F170D"/>
<path d="M234.212 37.1715L227.482 29.0795" stroke="#3F170D" stroke-width="0.094547" stroke-miterlimit="10"/>
<path d="M232.276 31.2053C231.307 32.0198 230.475 30.6392 230.135 30.9202L229.29 31.6227L227.142 29.0428L228.223 28.1428C228.693 27.7519 230.715 30.9793 231.527 30.3033C232.339 29.6272 233.245 30.399 232.276 31.2053Z" fill="#3F170D"/>
<path d="M230.802 360.796C230.599 366.551 223.51 368.371 222.985 360.796L215.168 248.115H230.802C230.802 248.115 231.01 355.044 230.802 360.796Z" fill="#3F170D"/>
<path d="M206.038 353.491C205.863 358.355 199.874 359.892 199.43 353.491C198.987 347.089 192.823 258.243 192.823 258.243H206.038C206.038 258.243 206.213 348.626 206.038 353.491Z" fill="#3F170D"/>
<path d="M147.551 353.491C147.726 358.355 153.713 359.892 154.159 353.491C154.604 347.089 160.766 258.243 160.766 258.243H147.551C147.551 258.243 147.376 348.626 147.551 353.491Z" fill="#3F170D"/>
<path d="M126.652 360.798C126.856 366.551 133.944 368.371 134.47 360.798C134.995 353.226 142.289 248.115 142.289 248.115H126.652C126.652 248.115 126.445 355.044 126.652 360.798Z" fill="#3F170D"/>
<path d="M187.627 250.158C187.627 250.158 143.848 240.213 148.542 229.744C153.236 219.276 178.963 215.008 188.604 216.102C194.178 216.729 208.819 210.779 216.817 211.406C222.651 211.864 239.037 229.024 239.482 231.734C240.547 238.152 187.627 250.158 187.627 250.158Z" fill="#3F170D"/>
<path d="M153.768 215.088C159.185 224.58 215.618 222.106 219.443 211.948C221.125 207.48 218.264 178.116 216.695 163.791C215.125 149.466 216.579 130.743 213.185 126.528C204.267 115.479 192.625 115.479 192.625 115.479H177.561C177.561 115.479 166.499 118.375 160.013 125.202C148.155 137.686 155.085 150.437 156.294 166.597C159.449 208.7 148.504 205.859 153.768 215.088Z" fill="white" stroke="#3F170D" stroke-width="0.136176" stroke-miterlimit="10"/>
<path d="M215.917 159.732C221.45 163.897 221.68 177.651 223.449 186.295C225.607 196.843 243.287 195.821 241.276 173.123C237.88 134.842 209.54 121.498 204.634 119.179" fill="white"/>
<path d="M215.917 159.732C221.45 163.897 221.68 177.651 223.449 186.295C225.607 196.843 243.287 195.821 241.276 173.123C237.88 134.842 209.54 121.498 204.634 119.179" stroke="#3F170D" stroke-width="3" stroke-linecap="round" stroke-linejoin="round"/>
<path d="M230.281 173.713C232.341 169.584 240.289 162.718 240.289 162.718L248.684 160.227C248.684 160.227 249.592 187.254 233.75 192.324" fill="white"/>
<path d="M230.281 173.713C232.341 169.584 240.289 162.718 240.289 162.718L248.684 160.227C248.684 160.227 249.592 187.254 233.75 192.324" stroke="#3F170D" stroke-width="3" stroke-linecap="round" stroke-linejoin="round"/>
<path d="M103.78 363.405C104.724 367.39 117.647 366.612 119.196 359.789C120.214 355.297 123.357 341.055 123.104 342.684L120.928 331.971L108.604 329.263C108.604 329.263 102.255 356.942 103.78 363.405Z" fill="#3F170D"/>
<path d="M141.02 239.805C138.742 252.239 126.363 284.169 125.712 331.275C125.643 336.461 107.894 332.477 107.894 332.477C107.894 332.477 97.5442 253.151 109.667 222.402C113.331 213.108 120.615 205.334 130.431 206.376C142.042 207.612 144.064 223.186 141.02 239.805Z" fill="white" stroke="#3F170D" stroke-width="3" stroke-miterlimit="10"/>
<path d="M85.2649 256.582C81.3483 255.383 82.9524 242.532 89.8595 241.424C94.4052 240.691 108.826 238.468 107.181 238.614L117.732 241.465L119.635 253.939C119.635 253.939 91.6142 258.516 85.2649 256.582Z" fill="#3F170D"/>
<path d="M210.961 227.309C198.41 228.785 165.768 239.119 118.722 236.739C113.545 236.478 116.385 254.454 116.385 254.454C116.385 254.454 194.866 269.856 226.312 259.722C235.818 256.667 244.042 249.883 243.627 240.025C243.145 228.343 227.735 225.334 210.961 227.309Z" fill="white" stroke="#3F170D" stroke-width="3" stroke-miterlimit="10"/>
<path d="M192.808 106.945L192.625 115.497C192.625 115.497 191.913 121.777 185.231 121.777C178.55 121.777 177.569 115.497 177.569 115.497L177.722 107.792C177.722 107.792 173.127 106.145 170.711 100.869C168.579 96.1917 165.964 82.773 165.807 74.1169C165.581 63.2149 181.123 63.8339 181.123 63.8339C181.123 63.8339 197.79 62.2945 200.34 71.5187C202.117 77.943 201.134 95.3671 199.284 100.861C197.767 105.355 192.808 106.945 192.808 106.945Z" fill="#F7CEBF" stroke="#3F170D" stroke-width="3" stroke-miterlimit="10"/>
<path d="M168.934 93.1109C168.934 93.1109 168.411 94.8784 166.287 94.3042C165.176 94.0048 163.641 91.5471 163.641 88.5661C163.627 83.5956 167.696 81.989 168.934 85.7561" fill="#F7CEBF"/>
<path d="M168.934 93.1109C168.934 93.1109 168.411 94.8784 166.287 94.3042C165.176 94.0048 163.641 91.5471 163.641 88.5661C163.627 83.5956 167.696 81.989 168.934 85.7561" stroke="#3F170D" stroke-width="0.136176" stroke-miterlimit="10" stroke-linecap="round"/>
<path d="M200.135 93.1109C200.135 93.1109 201.266 94.7399 202.781 94.2655C203.878 93.9173 205.427 91.5471 205.427 88.564C205.442 83.5936 201.372 81.987 200.135 85.754" fill="#F7CEBF"/>
<path d="M200.135 93.1109C200.135 93.1109 201.266 94.7399 202.781 94.2655C203.878 93.9173 205.427 91.5471 205.427 88.564C205.442 83.5936 201.372 81.987 200.135 85.754" stroke="#3F170D" stroke-width="0.136176" stroke-miterlimit="10" stroke-linecap="round"/>
<path d="M194.115 106.373C190.514 107.373 181.14 107.218 181.14 107.218C181.14 107.218 185.461 110.68 187.403 110.822C189.346 110.965 194.115 106.373 194.115 106.373Z" fill="#3F170D"/>
<path d="M171.421 53.7892C166.302 54.3675 162.983 62.3271 160.823 67.3974C157.831 74.4285 166.782 85.021 166.782 85.021C166.782 85.021 168.164 88.5823 169.32 88.566C170.477 88.5498 169.131 76.8455 172.075 75.0536C180.708 79.2014 192.482 77.4075 195.033 69.5558C197.584 61.704 198.087 56.5972 192.747 54.0458C185.917 50.7837 176.23 53.2476 171.421 53.7892Z" fill="#3F170D"/>
<path d="M195.813 56.5992C199.939 54.5731 207.378 60.0893 207.398 68.051C207.412 74.3328 204.064 80.9261 201.902 85.7662C200.749 88.3441 199.913 89.5903 199.276 89.6229C197.444 89.7206 200.723 73.6975 192.354 70.4823C183.986 67.267 191.687 58.6232 195.813 56.5992Z" fill="#3F170D"/>
<path d="M169.893 170.738C178.825 167.002 199.522 157.142 199.522 157.142C199.522 157.142 208.072 161.59 214.293 176.454C220.514 191.319 220.825 206.849 209.238 211.695C202.445 214.546 195.972 213.676 188.362 216.633C180.753 219.59 180.983 235.47 163.482 242.788C145.348 250.371 126.781 237.166 118.534 217.431C110.288 197.696 116.268 176.977 131.654 170.545C147.577 163.886 159.022 175.283 169.893 170.738Z" fill="#3F170D"/>
<path d="M165.622 166.658C174.556 162.919 175.678 156.625 182.471 153.785C194.058 148.938 204.347 158.79 210.564 173.656C216.781 188.523 216.561 202.774 204.972 207.613C198.178 210.463 189.907 206.566 182.308 209.527C174.709 212.487 174.756 230.608 157.255 237.924C141.871 244.358 124.71 232.742 116.46 213.009C108.209 193.275 112.002 172.895 127.387 166.464C143.306 159.804 154.753 171.199 165.622 166.658Z" fill="#FFD284" stroke="#3F170D" stroke-width="3" stroke-linecap="round" stroke-linejoin="round"/>
<path d="M168.425 176.684C165.969 177.711 163.872 179.443 162.4 181.662C160.928 183.881 160.147 186.487 160.155 189.15C160.164 191.813 160.962 194.413 162.448 196.623C163.934 198.832 166.042 200.551 168.505 201.562C170.968 202.573 173.675 202.831 176.284 202.303C178.894 201.775 181.288 200.484 183.164 198.595C185.041 196.706 186.315 194.303 186.825 191.689C187.336 189.076 187.061 186.37 186.034 183.913C184.657 180.619 182.028 178.007 178.726 176.651C175.424 175.295 171.718 175.307 168.425 176.684Z" fill="white" stroke="#3F170D" stroke-width="2" stroke-linecap="round" stroke-linejoin="round"/>
<path d="M170.257 181.068C168.668 181.733 167.313 182.854 166.361 184.29C165.409 185.725 164.904 187.41 164.91 189.133C164.916 190.855 165.432 192.537 166.393 193.966C167.354 195.395 168.717 196.507 170.31 197.162C171.903 197.816 173.654 197.983 175.342 197.643C177.03 197.302 178.579 196.468 179.793 195.247C181.008 194.026 181.833 192.472 182.164 190.782C182.496 189.092 182.319 187.341 181.657 185.751C181.216 184.695 180.572 183.735 179.761 182.927C178.949 182.12 177.987 181.48 176.928 181.045C175.869 180.61 174.735 180.388 173.59 180.392C172.445 180.396 171.313 180.626 170.257 181.068Z" fill="#3F170D"/>
<path d="M151.604 186.287L145.823 188.705L154.375 209.165L160.156 206.748L151.604 186.287Z" fill="white" stroke="#3F170D" stroke-width="2" stroke-linecap="round" stroke-linejoin="round"/>
<path d="M157.167 204.049L157.279 204.312C157.425 204.661 157.426 205.053 157.283 205.403C157.139 205.753 156.863 206.031 156.514 206.177C156.165 206.323 155.773 206.324 155.423 206.18C155.073 206.037 154.795 205.76 154.649 205.411L154.541 205.147C154.458 204.972 154.41 204.783 154.402 204.589C154.394 204.396 154.425 204.203 154.494 204.022C154.562 203.841 154.667 203.677 154.802 203.538C154.936 203.399 155.098 203.288 155.276 203.214C155.455 203.139 155.646 203.102 155.84 203.104C156.033 203.106 156.224 203.147 156.401 203.225C156.578 203.303 156.737 203.417 156.869 203.558C157.001 203.7 157.102 203.867 157.167 204.049Z" fill="#3F170D"/>
<path d="M155.563 199.472C155.708 199.82 155.709 200.211 155.566 200.56C155.423 200.909 155.147 201.187 154.8 201.333L154.537 201.443C154.191 201.576 153.807 201.568 153.466 201.423C153.126 201.277 152.855 201.004 152.712 200.662C152.569 200.32 152.565 199.936 152.7 199.591C152.836 199.246 153.101 198.967 153.438 198.814L153.701 198.704C154.05 198.562 154.441 198.562 154.789 198.706C155.138 198.85 155.416 199.125 155.563 199.472Z" fill="#3F170D"/>
<path d="M153.324 194.847C154.032 196.544 151.404 197.641 150.696 195.947C149.988 194.253 152.616 193.153 153.324 194.847Z" fill="#3F170D"/>
<path d="M151.455 190.38C152.166 192.074 149.536 193.174 148.829 191.477C148.123 189.781 150.743 188.684 151.455 190.38Z" fill="#3F170D"/>
<path d="M255.845 146.267L259.583 155.202L179.271 193.41L174.058 180.928L255.845 146.267Z" fill="#3F170D"/>
<path d="M259.803 141.626L255.845 146.267L259.583 155.202L266.007 156.466C266.007 156.466 270.822 152.355 276.473 149.993C282.124 147.631 288.341 147.126 288.341 147.126L293.2 141.268L289.721 132.944L282.14 132.284C278.822 134.617 275.264 136.588 271.526 138.163C267.75 139.725 263.821 140.886 259.803 141.626Z" fill="#3F170D"/>
<path d="M276.218 132.64C275.201 133.066 274.504 133.703 274.655 134.066C274.806 134.428 275.752 134.377 276.768 133.952C277.784 133.526 278.486 132.889 278.334 132.526C278.181 132.164 277.236 132.233 276.218 132.64Z" fill="#3F170D"/>
<path d="M277.284 132.961L275.795 133.584L277.095 136.693L278.584 136.071L277.284 132.961Z" fill="#3F170D"/>
<path d="M264.538 137.434C263.52 137.859 262.82 138.497 262.97 138.859C263.121 139.221 264.07 139.171 265.085 138.747C266.101 138.324 266.804 137.684 266.651 137.322C266.498 136.959 265.556 137.008 264.538 137.434Z" fill="#3F170D"/>
<path d="M265.407 141.494L264.108 138.385L265.596 137.762L266.897 140.871L265.407 141.494Z" fill="#3F170D"/>
<path d="M269.965 135.161C268.947 135.589 268.249 136.226 268.401 136.587C268.554 136.947 269.499 136.898 270.514 136.473C271.53 136.047 272.23 135.41 272.078 135.047C271.925 134.685 270.981 134.738 269.965 135.161Z" fill="#3F170D"/>
<path d="M270.84 139.224L269.537 136.114L271.027 135.489L272.326 138.6L270.84 139.224Z" fill="#3F170D"/>
<path d="M283.946 151.127C282.928 151.555 281.982 151.602 281.831 151.241C281.68 150.881 282.378 150.24 283.394 149.816C284.41 149.392 285.357 149.342 285.509 149.704C285.662 150.066 284.962 150.704 283.946 151.127Z" fill="#3F170D"/>
<path d="M281.668 147.656L282.969 150.765L284.457 150.142L283.158 147.03L281.668 147.656Z" fill="#3F170D"/>
<path d="M272.33 156.088C271.312 156.511 270.366 156.56 270.215 156.2C270.065 155.839 270.765 155.196 271.781 154.774C272.796 154.353 273.743 154.3 273.896 154.66C274.048 155.021 273.346 155.662 272.33 156.088Z" fill="#3F170D"/>
<path d="M271.537 152.018L270.048 152.641L271.347 155.752L272.837 155.13L271.537 152.018Z" fill="#3F170D"/>
<path d="M277.77 153.817C276.752 154.245 275.809 154.294 275.657 153.929C275.504 153.565 276.204 152.929 277.222 152.504C278.24 152.078 279.185 152.027 279.335 152.392C279.486 152.756 278.775 153.39 277.77 153.817Z" fill="#3F170D"/>
<path d="M276.971 149.738L275.482 150.361L276.782 153.47L278.272 152.847L276.971 149.738Z" fill="#3F170D"/>
<path d="M244.629 152.504C236.268 157.002 236.842 161.109 240.093 165.568C241.304 167.234 244.855 164.088 249.71 161.936C252.03 160.905 252.47 158.27 251.762 156.33C250.579 153.092 249.307 149.987 244.629 152.504Z" fill="white" stroke="#3F170D" stroke-width="3" stroke-miterlimit="10" stroke-linecap="round"/>
<path d="M160.589 174.898C160.199 178.373 160.085 181.872 160.249 185.365C169.003 186.081 175.314 186.151 175.314 186.151L175.786 180.653C175.786 180.653 169.042 178.507 160.589 174.898Z" fill="white" stroke="#3F170D" stroke-width="2" stroke-miterlimit="10"/>
<path d="M174.481 186.136C174.481 186.136 186.516 192.06 189.032 191.677C191.548 191.294 194.048 187.177 192.145 186.14C190.241 185.104 182.042 180.59 180.832 180.197C179.033 179.606 175.385 180.231 173.667 179.944" fill="white"/>
<path d="M174.481 186.136C174.481 186.136 186.516 192.06 189.032 191.677C191.548 191.294 194.048 187.177 192.145 186.14C190.241 185.104 182.042 180.59 180.832 180.197C179.033 179.606 175.385 180.231 173.667 179.944" stroke="#3F170D" stroke-width="2" stroke-miterlimit="10" stroke-linecap="round"/>
<path d="M160.152 154.416C160.152 154.416 153.709 161.604 154.721 166.037C156.225 172.642 164.899 176.277 164.899 176.277L162.818 186.295C162.818 186.295 136.08 191.589 131.65 170.545C125.612 141.865 162.818 115.805 176.486 115.805" fill="white"/>
<path d="M160.152 154.416C160.152 154.416 153.709 161.604 154.721 166.037C156.225 172.642 164.899 176.277 164.899 176.277L162.818 186.295C162.818 186.295 136.08 191.589 131.65 170.545C125.612 141.865 162.818 115.805 176.486 115.805" stroke="#3F170D" stroke-width="3" stroke-linecap="round" stroke-linejoin="round"/>
</g>
<defs>
<clipPath id="clip0_159_6436">
<rect width="312" height="381" fill="white"/>
</clipPath>
</defs>
</svg>
