<svg width="266" height="331" viewBox="0 0 266 331" fill="none" xmlns="http://www.w3.org/2000/svg">
<path fill-rule="evenodd" clip-rule="evenodd" d="M160.135 218.679C154.63 222.513 149.191 226.969 144.308 234.572C128.68 258.913 124.6 298.752 98.7923 317.574C74.9007 335.001 36.7652 332.138 16.0514 309.579C7.95649 300.764 2.71434 288.715 0.846587 277.99C-1.02117 267.265 0.485477 257.902 2.61604 250.595C4.7466 243.289 7.49907 238.045 12.8054 229.53C18.1118 221.016 25.978 209.208 31.2201 199.574C41.6402 180.425 41.56 168.779 37.3149 147.997C35.4131 138.691 32.8572 128.927 33.0197 119.128C33.6276 82.8587 67.7326 70.0653 101.272 68.1253C95.5362 72.4145 92.9362 76.1881 87.8706 83.9741C83.6416 90.4521 77.613 99.8891 74.4673 106.313C71.3216 112.737 71.0568 116.143 71.3538 118.829C72.2365 126.87 76.7704 124.001 78.7265 130.987C81.5592 141.136 78.5479 152.475 87.995 164.314C107.254 188.416 131.561 179.655 116.344 211.501C112.805 218.908 108.52 226.05 100.142 236.733C91.7646 247.416 79.3183 261.637 72.3207 269.124C65.3232 276.611 63.7824 277.37 63.0442 278.038C62.3059 278.706 62.3721 279.3 63.9289 282.74C65.4857 286.181 68.5431 292.472 71.1872 296.784C76.0582 304.694 80.8751 306.614 89.1606 306.794C92.7416 306.873 97.2014 306.514 97.6487 303.633C98.1222 300.597 86.5225 294.003 85.5415 280.513C85.409 278.708 85.6719 277.827 88.1294 275.205C90.587 272.583 95.2393 268.226 99.9759 263.656C109.204 254.742 122.563 241.186 130.779 231.216C139.57 220.543 142.32 213.826 145.492 200.722C146.983 194.561 148.457 187.385 149.21 183.83C149.962 180.275 149.996 180.339 153.009 179.488C156.023 178.638 162.023 176.86 165.313 176.096C168.603 175.332 169.197 175.556 170.704 176.423C177.457 180.313 185.592 192.874 190.898 200.363C180.065 206.967 168.657 212.743 160.135 218.679ZM161.877 74.0556C185.808 79.715 203.752 88.2754 216.065 107.005C232.55 132.056 233.186 164.849 210.029 186.426C208.625 183.117 203.477 173.787 200.016 168.412C196.128 162.382 191.915 157.041 188.236 154.273C184.556 151.504 181.453 151.308 177.471 151.289C158.39 151.211 164.631 153.548 167.739 145.114C169.167 141.23 169.087 135.75 169.917 134.006C170.244 133.318 170.704 133.218 172.407 132.989C178.185 132.213 179.461 132.05 185.046 133.416C187.453 134.006 190.96 134.791 193.598 135.611C198.245 137.054 200.401 138.947 203.543 136.921C207.188 134.574 211.63 128.896 209.64 124.535C207.686 120.26 201.489 115.778 196.6 115.908C193.201 115.995 186.97 117.347 184.015 116.498C181.393 115.744 176.459 109.226 174.267 105.464C167.861 94.5086 166.715 83.4746 161.877 74.0556Z" fill="white"/>
<path fill-rule="evenodd" clip-rule="evenodd" d="M71.143 283.76C72.5193 286.725 75.3059 292.23 77.4023 295.556C80.6122 300.642 83.4209 301.763 89.1345 301.552C91.3613 301.47 93.524 301.077 94.3606 300.652C95.1971 300.226 94.7036 299.767 93.8028 298.768C88.1434 292.49 90.7936 296.047 85.3007 295.195C81.9162 294.671 79.7977 292.101 80.1067 289.281C80.4337 286.289 86.705 288.302 85.9888 285.364C85.0258 281.416 82.0627 284.341 75.7974 282.726C70.9605 281.483 68.535 278.146 71.143 283.76ZM223.067 219.728C209.467 230.261 213.437 224.649 213.205 232.433C213.118 235.264 212.278 235.204 215.49 235.932C226.724 238.48 242.774 238.729 253.838 234.367C256.476 233.328 257.525 232.476 257.95 231.876C258.376 231.276 258.181 230.935 257.164 230.116C253.437 227.107 248.558 225.61 243.492 224.93C235.331 223.833 237.76 226.108 233.981 229.344C230.536 232.301 225.535 229.773 225.755 226.134C226.02 221.933 229.838 222.204 224.863 219.221C224.289 218.876 224.076 218.926 223.057 219.712L223.067 219.728Z" fill="#E23C08"/>
<path fill-rule="evenodd" clip-rule="evenodd" d="M137.261 183.784C135 194.288 131.684 211.039 125.791 220.551C118.214 232.788 80.2511 269.227 76.0181 276.122C73.4201 280.355 75.3561 281.043 72.5113 281.434C70.3185 281.739 61.5796 270.348 60.6327 268.081C60.2074 267.066 60.402 266.877 63.642 262.937L97.9878 220.394C104.845 211.655 101.358 215.612 102.018 209.679C102.365 206.574 104.245 206.578 105.048 202.339C105.798 198.407 106.051 188.855 106.44 185.118C106.701 182.696 107.463 184.424 116.254 183.529C139.155 181.202 139.325 174.178 137.259 183.776L137.261 183.784Z" fill="#3F170D"/>
<path fill-rule="evenodd" clip-rule="evenodd" d="M94.2142 184.472C99.34 189.421 107.938 195.181 116.693 196.653L117.265 188.075C117.524 185.653 118.288 187.381 127.079 186.486C149.98 184.159 150.15 177.135 148.084 186.733C147.771 188.179 147.37 190.029 146.909 192.093C169.177 185.186 164.362 183.017 171.089 191.67C174.738 196.37 200.349 229.466 203.071 231.934C203.988 232.766 206.053 231.852 207.232 231.196C210.735 229.25 213.728 227.245 216.573 224.417C217.392 223.6 217.424 223.44 215.606 219.251C209.293 204.71 194.078 171.391 181.902 161.206C179.609 159.288 178.528 159.096 176.971 158.935C172.379 158.464 164.593 158.734 159.919 159.079C154.831 159.455 156.608 161.306 151.186 162.406C142.85 164.095 137.006 160.223 128.821 167.622C123.344 172.571 120.05 177.827 112.224 181.149C98.8746 186.817 88.8978 179.344 94.2182 184.476L94.2142 184.472Z" fill="#3F170D"/>
<path fill-rule="evenodd" clip-rule="evenodd" d="M240.529 110.971C238.98 112.003 236.228 113.981 234.891 115.156C233.555 116.332 233.64 116.689 233.951 118.105C235.233 123.945 234.859 124.339 237.361 124.726C248.596 126.427 243.462 125.484 255.776 123.586C258.807 123.119 261.576 122.84 263.108 122.529C264.641 122.218 264.936 121.875 265.213 120.563C266.146 116.181 265.227 108.05 261.838 106.359C261.315 106.096 261.036 106.195 257.898 106.825C254.761 107.455 248.764 108.618 245.594 109.232C242.425 109.846 242.08 109.936 240.531 110.969L240.529 110.971Z" fill="#FFD284"/>
<path fill-rule="evenodd" clip-rule="evenodd" d="M193.167 118.798C188.069 118.95 191.321 127.805 191.427 127.97C192.073 128.959 186.657 136.879 195.077 141.971C199.833 144.848 206.498 140.147 208.396 135.076C208.728 134.155 208.843 133.171 208.734 132.198C208.624 131.226 208.292 130.292 207.764 129.468C204.887 124.828 199.264 118.613 193.171 118.798H193.167Z" fill="#F7CEBF"/>
<path fill-rule="evenodd" clip-rule="evenodd" d="M134.338 125.235C134.978 124.633 136.107 123.564 137.59 122.892C139.112 122.209 140.795 121.965 142.449 122.188C143.99 122.435 145.233 123.203 145.897 123.993C146.561 124.784 146.644 125.584 147.003 128.082C147.362 130.58 148.006 134.775 148.289 136.945C148.572 139.116 148.511 139.264 147.978 139.862C147.444 140.46 146.447 141.509 145.209 142.069C143.971 142.629 142.499 142.715 141.524 142.627C140.549 142.538 140.073 142.274 139.901 141.963C139.728 141.652 139.859 141.291 140.089 140.749C140.321 140.18 140.589 139.627 140.892 139.094C141.137 138.693 141.293 138.636 141.729 138.398C142.274 138.097 142.799 137.762 143.301 137.395C143.759 137.044 143.99 136.749 143.538 135.806C143.087 134.863 141.957 133.274 140.425 131.611C138.977 130.044 137.405 128.597 135.722 127.285C135.113 126.817 134.451 126.424 133.748 126.114C133.547 125.983 133.7 125.835 134.338 125.229V125.235Z" fill="white"/>
<path fill-rule="evenodd" clip-rule="evenodd" d="M147.625 124.118C145.235 124.595 145.779 123.797 146.331 126.609L148.421 138.095C148.451 138.283 170.449 133.858 192.192 129.402C191.855 126.806 192.332 123.727 191.943 123.261C191.817 123.111 187.297 119.604 192.254 118.805C194.429 118.454 196.822 118.986 197.671 118.495C198.987 117.724 199.99 116.607 203.378 118.747C205.405 120.027 209.275 123.343 209.854 125.769C223.645 122.914 234.33 120.661 234.462 120.553L232.334 110.672C231.874 108.738 231.874 108.738 219.257 111.017L147.637 124.124L147.625 124.118Z" fill="white"/>
<path fill-rule="evenodd" clip-rule="evenodd" d="M74.2928 128.423C70.9625 139.792 71.9195 155.23 77.1917 166.256C82.153 176.632 91.7004 186.43 103.735 186.163C109.634 186.033 116.318 183.607 121.56 179.904C131.343 172.996 133.397 164.687 142.958 164.456C149.876 164.288 157.03 166.747 162.44 158.901C166.663 152.774 166.36 143.596 164.575 135.005L148.427 138.095C148.527 139.2 148.397 139.393 147.98 139.86C144.525 143.74 140.356 142.783 139.903 141.967C139.598 141.417 140.657 139.409 140.992 138.958C137.082 144.037 138.545 139.744 136.685 143.592C135.772 145.486 132.923 143.465 132.516 144.28C132.281 144.749 132.428 147.891 130.016 146.934C127.017 145.73 126.233 140.528 123.48 137.922C122.172 136.687 114.334 132.53 112.38 132.409C109.973 132.261 110.364 132.933 110.603 135.419C110.831 137.81 111.307 142.348 111.421 144.709C111.558 147.532 111.477 147.504 108.996 147.436C105.204 147.333 105.673 147.321 105.302 144.069C104.997 141.415 104.408 136.386 104.113 133.862C103.669 130.05 104.486 131.904 93.9393 130.391C88.7032 129.639 79.3423 128.078 75.3882 125.322C74.966 126.338 74.6003 127.377 74.2928 128.433V128.423ZM145.679 113.842C140.206 114.137 134.406 117.086 130.522 118.545C126.638 120.003 124.674 119.969 121.119 118.529C112.382 114.986 104.558 109.28 93.3395 111.09L123.609 122.808C129.541 125.015 134.504 126.525 138.856 130.012C133.64 124.977 132.827 126.674 134.342 125.235C136.46 123.229 139.108 121.654 142.453 122.188C144.084 122.449 145.57 123.356 146.184 124.383L159.826 121.799C156.241 115.885 151.119 113.549 145.675 113.842H145.679ZM143.676 136.135C143.765 137.818 142.005 137.682 141.056 138.867C141.761 138.039 144.236 137.664 143.676 136.135Z" fill="#FFD284"/>
<path fill-rule="evenodd" clip-rule="evenodd" d="M114.214 127.243C113.369 128.965 111.847 132.289 111.182 134.064C110.518 135.84 110.715 136.071 111.453 136.703C117.165 141.59 122.224 140.534 124.642 146.533C125.384 148.374 126.086 151.903 128.387 152.03C130.319 152.134 130.35 149.562 130.46 149.203C130.723 148.332 132.639 149.424 133.9 148.425C134.571 147.891 134.833 146.762 135.227 146.246C135.792 145.504 137.319 145.963 138.396 144.009C139.399 142.175 138.17 142.563 140.429 141.969C141.931 141.568 141.588 139.393 140.228 137.587C135.712 131.569 123.747 127.261 116.79 125.741C115.217 125.396 115.054 125.51 114.21 127.231L114.214 127.243Z" fill="#F7CEBF"/>
<path fill-rule="evenodd" clip-rule="evenodd" d="M147.641 67.4573C144.764 67.056 144.593 65.5614 144.668 68.1454C144.752 71.1125 144.878 77.3197 141.257 78.7782C137.02 80.4794 132.275 73.2571 130.624 69.0963C127.146 60.2892 129.128 52.7159 125.184 53.3659C119.105 54.369 105.144 57.1335 99.1033 60.4036C95.9335 62.1068 87.9369 68.9639 82.8251 76.3687C77.7134 83.7735 69.488 96.0634 64.8839 103.468C60.2797 110.873 61.7542 117.134 61.8846 119.411C62.5567 131.097 81.4228 134.694 91.8188 135.926C97.2094 136.564 105.828 135.976 108.793 135.976C111.758 135.976 110.743 135.288 111.628 133.535C113.913 129.009 114.723 125.444 114.003 125.041C108.988 122.244 91.2952 116.972 84.9878 114.348C80.8912 112.644 80.7608 112.315 80.6444 111.629C80.1709 108.746 81.8983 107.045 84.5845 103.928C86.7311 101.438 90.565 97.1768 92.7276 94.9319C94.2543 93.339 106.173 82.2488 110.264 76.2423C110.508 75.8832 111.6 83.4867 109.04 87.1018C104.259 93.8586 94.1761 101.289 94.4148 103.468C94.5272 104.537 101.838 100.716 106.687 102.519C110.952 104.1 128.638 112.009 131.316 111.198C136.671 109.581 148.271 102.112 157.445 107.501C162.41 110.416 163.805 114.332 167.193 120.081C168.13 121.67 172.644 119.552 173.661 118.826C175.402 117.58 166.607 114.729 159.77 97.1126C158.067 92.7211 156.761 88.1992 155.708 84.251C153.12 74.507 148.241 67.5375 147.647 67.4573H147.641ZM190.073 130.357C188.256 130.708 184.857 131.348 183.309 131.773C181.76 132.199 182.029 132.413 184.135 133.027C186.242 133.641 190.174 134.658 192.09 135.033C194.006 135.409 193.909 135.15 193.622 134.183C193.335 133.216 192.86 131.545 192.499 130.742C192.138 129.94 191.897 130.004 190.073 130.357Z" fill="#E23C08"/>
<path fill-rule="evenodd" clip-rule="evenodd" d="M135.832 29.2295C124.532 33.3602 132.422 43.0421 131.074 46.8337C129.762 50.5271 128.283 50.2683 125.569 52.9205C124.479 53.9858 124.528 53.8393 124.682 55.3279C124.808 56.5577 124.985 57.8095 125.232 59.0594C128.067 58.5879 128.173 58.3432 128.514 60.3614C128.624 61.0154 130.201 69.969 131.784 71.3613C135.738 74.8039 139.664 74.186 140.411 68.4603C141.095 63.2724 139.407 59.5389 140.721 60.3835C143.626 62.2372 146.022 62.3515 149.95 60.0224C157.481 55.5526 157.317 49.2512 161.108 46.7675C163.875 44.962 165.751 43.6459 167.35 40.4922C168.72 37.7919 168.216 37.4348 166.794 35.3484C159.509 24.6594 157.726 23.9533 144.684 26.8201C141.365 27.5483 138.204 28.3508 135.828 29.2275L135.832 29.2295Z" fill="#F7CEBF"/>
<path d="M79.3524 330.305C56.183 328.6 35.5374 314.813 25.4363 293.823C16.4607 275.165 18.1098 254.927 28.4456 234.895C31.489 228.997 34.2394 224.623 42.8139 212.037C54.538 194.83 60.5364 184.638 60.2315 168.673C59.9386 153.33 53.242 137.389 52.941 121.508C52.596 103.334 59.8142 89.0358 75.336 78.7361C86.5004 71.3353 96.8222 69.7965 96.9727 69.7163C97.8815 69.2228 100.804 63.9646 110.853 60.8791C115.45 59.4868 120.136 58.407 124.879 57.6471L128.219 57.0914C128.881 56.7925 135.132 50.8722 135.132 48.3104C135.132 47.4958 135.132 47.4738 134.54 46.9682C131.371 44.2278 131.75 38.5423 134.998 35.4106C135.965 34.4777 135.728 34.9552 135.921 33.4044C136.394 29.5767 137.768 26.453 139.797 23.4377C138.623 21.1387 138.793 20.1637 139.997 17.7262C138.005 16.3218 134.895 13.4931 133.349 11.5752C131.194 8.89896 131.635 7.5147 133.634 5.54062C136.843 2.36685 140.272 0.473008 144.056 3.34786C145.739 4.6258 149.647 11.0275 149.673 10.9954C149.874 10.7948 148.038 6.55775 147.231 5.34401C146.425 4.13028 146.409 5.00096 150.658 1.93351C151.661 1.20527 152.664 0.673629 153.312 0.529184C156.466 -0.148905 159.188 6.49155 156.085 13.2644L155.649 14.2133C158.799 16.6709 157.716 17.1584 159.303 17.6539C164.266 19.2047 169.976 24.4127 172.67 29.6549C174.147 32.4711 175.109 35.5283 175.511 38.6827C175.793 40.9176 175.711 47.2511 174.923 48.0395C174.355 48.6093 172.782 46.0995 172.515 46.1597C172.461 46.1738 172.245 46.579 172.03 47.0625C171.067 49.2593 169.703 50.808 167.416 52.2986C162.91 55.2277 164.144 55.8295 161.564 59.872C160.418 61.6775 158.185 64.0849 156.548 65.2987C154.568 66.7812 156.406 64.9877 161.838 69.5458C166.756 69.0422 172.899 69.3652 180.58 70.6572C202.612 74.3546 224.239 85.3304 237.303 102.632C238.749 104.546 238.507 104.383 239.124 103.992C239.526 103.739 239.56 103.665 239.622 102.814C239.845 99.7468 242.748 97.8891 245.32 99.175L246.134 99.5763C248.162 97.6242 249.436 97.3494 252.139 98.4468C253.142 97.5721 253.643 97.1568 255.465 97.1568C258.111 97.1568 258.735 98.0736 259.349 99.5642C260.593 99.3837 260.843 99.2412 261.991 100.335C265.235 103.428 266.792 109.856 265.602 114.645C264.436 119.299 263.317 118.404 263.13 120.176C262.789 123.428 260.035 125.253 257.337 124.022L256.514 123.652C254.598 125.568 253.045 126.461 250.11 124.511L249.107 125.677C250.512 130.716 251.376 134.243 251.806 139.644C252.006 142.252 251.902 148.86 251.605 151.261C247.304 186.602 216.87 197.741 217.44 199.057C218.732 202.036 216.437 202.7 215.321 201.853C214.972 201.588 214.707 201.161 214.28 200.184C207.345 184.307 201.521 172.657 192.718 161.036C188.828 155.908 187.036 154.425 183.985 153.793C181.326 153.25 176.229 153.171 168.15 153.555L165.072 153.703C164.932 153.761 162.589 156.568 157.575 157.569C155.001 158.084 146.174 157.278 143.767 157.936C134.225 160.544 129.172 176.612 110.631 178.722C108.877 178.923 104.949 178.818 103.388 178.521C101.928 178.253 101.946 178.247 102.329 178.662C103.419 179.833 106.474 181.892 108.777 182.991C116.021 186.456 125.354 186.073 133.922 184.333C142.491 182.594 158.462 176.983 166.802 173.917C167.203 169.554 168.748 165.957 172.479 163.447C173.322 162.879 178.153 160.325 176.291 162.273C173.524 165.174 170.174 168.97 170.162 172.489C170.162 174.756 171.203 175.741 173.43 175.562C174.67 175.462 175.001 175.637 175.695 176.73L185.495 190.101C196.329 204.836 205.082 215.842 212.817 224.407C215.789 222.802 218.742 221.036 221.055 219.169C227.414 214.031 221.524 220.669 241.097 222.647C248.937 223.438 255.517 224.411 259.79 229.809C261.373 231.816 262.372 234.391 262.176 235.97C261.487 241.495 246.989 244.561 240.81 245.235C232.751 246.112 220.373 245.004 212.711 243.321C206.438 241.941 212.123 233.778 210.304 228.052C209.915 226.826 209.686 226.505 206.313 222.617L196.128 210.456C196.042 210.456 194.86 211.122 193.506 211.938C178.143 221.181 169.013 230.911 161.903 245.61C151.15 267.853 148.028 293.156 128.704 312.522C115.576 325.671 97.739 331.679 79.3524 330.305ZM89.6 326.563C113.614 324.357 129.493 310.887 140.097 289.85C153.049 264.171 153.924 239.449 177.555 218.771C181.395 215.411 186.697 211.631 191.881 208.562C192.93 207.942 193.785 207.398 193.791 207.346C193.797 207.294 191.702 204.463 189.143 201.051C183.457 193.471 181.242 190.418 177.124 184.536C172.876 178.463 173.312 178.977 172.385 178.977C169.438 178.977 168.226 177.107 167.799 177.099L150.871 182.799C138.703 187.04 130.586 188.617 118.85 188.617C118.393 195.68 117.526 208.53 116.928 210.083C116.25 211.844 113.74 212.765 114.966 216.266C115.863 218.832 114.577 219.925 111.343 223.646C100.853 235.728 94.2703 243.831 79.5269 262.809C74.8004 268.894 73.2837 270.786 71.3778 273C69.0406 275.709 68.9283 275.865 69.0206 276.238C69.1409 276.71 70.7058 278.351 71.9014 279.248C74.5657 281.254 76.0663 281.882 79.6874 281.884C84.8232 281.884 81.7518 282.002 83.5714 277.982C84.6808 275.534 88.3862 272.188 94.9545 265.945C105.565 255.904 123.753 237.11 129.19 230.596C135.868 222.595 138.673 217.395 141.488 207.778C143.281 201.665 143.412 201.304 143.981 201.009C144.744 200.607 145.956 200.82 145.805 202.529C145.56 205.38 142.852 214.556 141.064 218.617C138.306 224.876 134.177 230.397 124.887 240.25C111.834 254.092 106.743 259.222 92.7617 272.669C89.6983 275.618 87.3129 277.544 86.9057 280.592C86.7251 281.946 86.6549 281.452 87.2347 282.732C88.3461 285.194 88.8757 287.788 90.4767 290.98C93.827 297.66 99.5045 298.988 99.7452 303.157C99.9659 306.845 95.5322 307.86 89.1827 308.048C83.9385 308.205 79.1999 307.398 76.1425 305.842C74.5376 305.023 73.0329 303.518 71.753 301.452C70.9646 300.188 68.182 294.699 64.2198 286.594C58.2735 274.441 62.7773 277.823 67.6102 272.539C69.5382 270.426 78.7766 258.646 80.9734 255.503C85.084 249.604 89.2689 244.294 96.0358 236.374L111.18 217.814C110.035 214.805 110.225 212.528 112.478 209.413C113.365 208.193 113.303 208.409 113.841 204.231L115.113 188.195C110.047 187.148 106.616 185.956 102.06 182.52C100.177 181.099 98.0801 178.792 97.0028 176.957C96.3126 175.775 89.3291 173.993 82.9796 164.384C81.7237 162.484 74.7001 149.795 77.6772 148.248C79.0936 147.514 79.7918 148.804 80.2853 150.555C81.832 156.078 85.8123 163.419 89.3311 167.231C92.212 170.36 96.6096 173.265 100.273 174.453C103.936 175.641 109.008 175.956 112.498 175.237C127.274 172.2 131.748 160.077 140.29 155.797C147.528 152.172 155.441 156.801 161.608 152.132C167.965 147.317 168.212 135.579 167.863 135.579C167.747 135.579 150.774 138.931 150.522 139.002C149.946 139.166 147.101 145.893 139.889 143.817C137.835 143.215 138.218 142.924 137.883 143.817C137.156 145.726 135.437 146.102 133.686 145.897C132.825 150.353 128.841 148.886 127.509 147.438C125.703 145.478 125.489 142.093 124.098 140.242C123.781 139.82 112.801 142.2 112.793 142.208C112.523 142.474 113.776 147.022 112.619 148.493C111.628 149.759 106.34 150.086 105.491 149.733C105.183 149.579 104.91 149.363 104.688 149.1C104.466 148.837 104.301 148.531 104.201 148.202C103.659 146.276 102.869 133.114 102.454 132.895C100.162 131.691 66.6653 133.451 69.151 114.288C70.455 104.126 75.5567 106.73 73.8795 109.98C72.4572 112.757 71.6607 117.289 73.1493 120.326C74.1303 122.332 76.9951 124.507 80.4297 125.863C85.2165 127.745 93.7447 129.031 107.202 129.9C109.8 130.07 110.428 130.074 110.524 129.938C110.873 129.416 114.788 121.486 114.751 121.377C114.697 121.207 113.506 120.679 108.753 118.721C103.501 116.557 101.256 115.712 95.8974 113.92L91.2831 112.37L84.749 112.663C82.3195 113.341 79.8178 114.767 79.8178 114.713C79.8178 113.957 83.8302 109.625 88.6109 109.38L89.9811 109.312C85.9547 105.922 79.4607 109.854 81.9986 107.884C84.0308 106.315 87.7763 104.859 91.0043 105.607L106.835 87.5512C108.938 85.1779 108.978 82.8487 109.158 78.8745C109.415 73.2431 109.459 72.7195 109.698 72.6754C110.701 72.4868 112.486 81.0291 111.267 85.5149C109.624 91.5596 106.947 89.8663 105.866 100.268C105.75 101.38 105.511 101.125 107.862 101.574C116.489 103.223 125.667 110.745 131.182 109.884C136.238 109.096 141.686 103.721 150.642 103.721L152.554 96.9C154.221 89.4771 156.548 81.3401 157.242 80.5256C158.298 79.2757 158.093 83.9862 157.511 87.3787C153.778 109.168 151.669 102.112 158.374 106.068C166.768 111.017 167.353 118.719 168.092 118.719C168.419 118.719 180.456 116.569 180.53 116.496C180.56 116.466 179.928 115.764 179.116 114.936C166.104 101.617 164.248 76.12 159.776 71.6121C158.424 70.2479 156.861 69.3712 153.826 68.2859C152.343 67.7562 152.905 67.7623 151.517 68.2478C146.357 70.0533 145.984 67.1664 146.1 69.7343C146.714 84.3794 133.509 84.8268 128.446 66.7672C126.283 59.0735 128.941 59.884 123.41 60.9834C116.916 62.2754 108.5 64.0689 103.974 67.4834C99.6309 70.7334 94.6696 78.1763 91.8068 82.8247C89.1807 87.0617 87.8586 85.525 87.8586 84.0986C87.8586 81.974 93.8771 74.1178 93.502 74.1178C93.3014 74.1178 90.2921 75.1711 88.7253 75.793C70.5232 83.0193 58.1671 96.7676 56.6384 116.089C55.5431 129.932 60.392 142.932 62.8115 157.404C66.9542 182.195 59.1823 195.052 44.8802 215.812C39.628 223.436 36.5586 228.164 34.2254 232.209C20.1822 256.568 19.0687 280.995 34.7932 302.194C47.412 319.207 68.4749 328.505 89.5959 326.563H89.6ZM92.2822 304.61C95.47 304.209 97.3177 303.735 96.1762 302.586C95.6686 302.084 95.0327 302.07 93.0145 302.529C90.1416 303.179 85.4231 303.31 83.106 302.804C78.1467 301.719 76.4655 297.867 71.6567 288.4C68.9845 283.138 66.0514 277.819 65.8247 277.819C65.6703 277.819 64.4204 278.57 64.3763 278.692C64.2017 279.131 65.3352 281.501 68.4388 287.196C70.0136 290.077 70.8763 291.826 74.0019 298.405C75.5547 301.679 76.8487 302.848 79.8921 303.733C83.4871 304.782 88.318 305.093 92.2822 304.61ZM91.0043 299.853C93.4117 299.496 93.4779 300.088 89.6662 296.286C86.8896 297.117 84.6507 297.315 82.464 296.22C80.2772 295.125 77.2479 290.93 78.6141 288.269C79.7978 285.956 84.2314 286.759 84.5925 285.792C84.6708 285.591 84.2996 284.65 84.1472 284.654C84.087 284.654 83.6456 284.747 83.1702 284.855C77.6792 286.091 72.72 283.39 72.72 283.531C72.72 283.784 78.5941 295.383 79.1558 296.234C80.9132 298.91 82.0808 299.735 84.5524 300.046C85.8183 300.206 89.3171 300.102 91.0043 299.845V299.853ZM87.0541 294.236C88.6952 294.035 87.5637 293.766 86.1654 290.085C85.2365 287.637 85.8504 288.785 82.6606 289.224C80.8911 289.463 80.9814 289.425 81.0556 290.055C81.2302 291.582 82.8311 293.939 85.0058 294.288C86.1413 294.473 86.2316 294.236 87.0541 294.236ZM239.997 242.061C244.692 241.594 249.039 240.671 252.6 239.379C254.484 238.699 257.692 237.038 258.394 236.39C259.154 235.681 259.13 235.282 258.542 233.908C252.592 237.541 242.76 239.654 231.29 239.654C212.378 239.654 213.478 235.559 213.478 239.778C214.555 240.414 214.631 240.462 216.974 240.857C220.842 241.505 224.285 241.903 229.08 242.262C230.354 242.358 238.593 242.22 239.997 242.079V242.061ZM235.784 236.428C242.352 236.008 246.965 235.212 251.751 233.673C254.093 232.919 256.669 231.667 256.669 231.284C256.669 230.965 255.144 229.645 253.996 228.973C250.359 226.838 245.251 226.289 238.878 225.687C236.599 228.419 235.65 231.864 231.603 232.568C226.532 233.451 220.519 228.283 225.039 222.738C225.998 221.564 225.918 222.064 224.188 220.745C221.439 223.088 218.485 225.178 215.361 226.993C212.607 228.554 215.056 227.193 214.422 233.011C214.222 234.923 213.373 234.817 218.373 235.683C223.589 236.578 230.454 236.757 235.79 236.42L235.784 236.428ZM232.059 229.316C233.373 228.702 235.295 225.267 235.269 225.251L228.43 223.245C223.043 229.187 230.215 230.16 232.041 229.306L232.059 229.316ZM217.945 194.113C232.332 185.36 242.421 174.653 246.549 158.251C249.308 147.271 248.66 137.359 245.36 126.252C241.482 124.341 242.336 123.444 241.402 122.358C241.339 122.274 236.587 121.522 236.115 121.522C235.313 121.522 235.77 121.779 235.01 122.124L211.285 126.939L211.124 127.897C210.418 132.135 206.911 136.795 203.061 138.631C199.765 140.201 196.842 138.153 194.87 137.738C194.513 137.66 193.279 137.323 192.128 136.991C189.165 136.133 186.876 135.569 182.809 134.706C177.681 133.619 179.182 133.322 174.839 134.167C170.425 135.027 171.081 134.367 171.137 136.957C171.255 142.214 170.036 146.162 167.666 150.351L180.668 150.162C187.979 150.623 190.059 152.016 196.664 160.891C203.862 170.559 209.545 181.34 215.024 193.53C216.055 195.825 215.426 195.638 217.945 194.107V194.113ZM109.002 146.366L109.72 146.276L109.381 142.866C108.604 142.948 108.031 143.12 107.82 142.725C107.587 142.29 107.85 141.923 108.464 141.824C109.391 141.676 109.267 141.6 109.11 140.402C106.965 140.743 107.154 139.545 108.508 139.291C109.148 139.17 109.399 138.488 108.364 138.633C107.202 138.787 106.819 137.752 108.482 137.429C108.883 137.351 109.156 136.606 108.043 136.614C107.24 136.614 106.155 135.984 108.54 135.385C108.458 132.789 109.06 133.308 105.649 133.144L107.14 146.415L108.998 146.356L109.002 146.366ZM130.899 145.965C131.062 145.544 130.973 144.214 130.711 143.116C129.507 138.101 125.759 135.017 125.759 134.305C125.759 133.635 131.1 135.415 133.014 141.271C133.924 144.057 135.594 143.449 135.146 141.361C134.699 139.273 132.203 135.068 130.39 133.336C128.03 131.067 135.543 133.721 137.566 139.252C137.897 140.157 138.154 140.242 138.769 139.636C140.988 137.417 132.998 130.879 132.998 130.762C132.998 129.697 139.032 132.167 141.036 135.591C142.154 137.493 142.597 136.516 141.777 135.154C138.551 129.789 133.03 127.268 126.329 125.031C123.177 123.979 118.557 122.623 118.146 122.623C117.985 122.623 115.44 127.639 114.882 129.043C114.302 130.508 114.302 130.518 114.916 131.288C117.592 134.646 122.423 134.528 125.571 137.908C128.008 140.526 128.089 143.684 129.053 145.151C129.617 146.001 130.711 146.489 130.907 145.973L130.899 145.965ZM144.724 140.827C148.016 139.178 147.227 138.251 146.612 135.714C144.983 135.93 145.041 135.784 145.041 136.624C145.041 137.946 144.13 138.964 142.718 139.353C141.955 139.553 141.915 139.587 141.68 140.221C141.48 140.735 140.94 141.182 143.115 141.21C143.676 141.24 144.233 141.107 144.72 140.827H144.724ZM117.729 140.015C120.415 139.501 122.672 139.056 122.744 139.034C122.915 138.974 121.625 138.141 121.362 138.141C121.187 138.141 113.52 139.527 112.799 139.688C112.29 139.802 112.494 140.952 112.673 140.952C112.769 140.952 115.046 140.534 117.731 140.015H117.729ZM116.112 137.87C119.446 137.268 119.546 137.339 118.762 137.012C117.847 136.63 112.326 137.999 112.314 138.015C112.244 138.081 112.113 138.617 112.733 138.494L116.112 137.876V137.87ZM201.184 136.48C205.044 135.114 209.074 129.304 208.394 126.048C207.993 124.114 203.33 117.812 199.478 118.779C198.556 119.012 201.852 119.74 203.788 123.741C204.919 126.08 203.87 126.098 200.961 123.466C198.515 121.259 197.843 120.842 195.799 120.318C194.71 120.035 192.431 119.839 191.881 119.975C190.878 120.228 191.117 122.222 193.721 122.537C194.788 122.663 196.078 123.139 197.992 124.116C199.858 125.063 200.277 125.398 201.083 126.614C202.056 128.078 202.927 130.267 202.688 130.652C202.383 131.141 198.61 126.804 197.771 126.317C196.828 125.773 194.13 124.748 193.624 124.748C192.22 124.748 193.117 127.294 193.977 127.294C194.981 127.294 197.91 129.649 198.852 131.218C199.454 132.207 199.856 133.725 199.541 133.725C198.245 133.725 196.148 129.998 193.321 129.771C193.337 131.928 196.341 138.171 201.182 136.484L201.184 136.48ZM114.878 136.247C116.595 135.924 116.533 135.872 115.853 135.523C115.267 135.222 113.323 135.706 112.103 135.924C112.103 136.853 111.702 136.829 114.878 136.247ZM169.753 131.962L191.064 127.619C191.239 127.083 191.083 127.109 170.361 131.093C159.07 133.264 149.805 135.072 149.775 135.106C149.745 135.14 149.575 135.944 150.377 135.802C150.648 135.754 159.363 134.026 169.749 131.966L169.753 131.962ZM114.027 134.385C114.027 134.385 113.985 133.635 112.767 133.784C111.728 133.91 111.826 133.952 111.987 134.751L114.027 134.385ZM145.996 134.572C146.698 134.436 146.186 133.613 146.182 133.609L144.391 133.88C144.878 134.901 144.635 134.835 145.996 134.572ZM192.29 134.151C190.114 129.898 193.129 130.784 184.56 132.257L192.29 134.151ZM170 129.96C181.134 127.819 190.346 126.042 190.477 126.002C190.721 125.927 190.808 125.414 190.577 125.414C190.346 125.414 149.555 132.925 149.45 132.981C149.32 133.065 149.468 133.85 149.619 133.85C149.689 133.85 158.859 132.1 169.992 129.96H170ZM145.277 132.498C146.341 132.287 146.385 131.649 144.876 131.928C143.229 132.233 143.283 132.211 143.472 132.52C143.66 132.829 143.685 132.813 145.277 132.494V132.498ZM190.246 124.184C190.286 124.144 190.176 124.018 190.001 123.905C189.458 123.55 149.813 131.003 149.362 131.107C149.091 131.168 148.947 131.547 149.125 131.725C149.2 131.799 190.136 124.292 190.252 124.184H190.246ZM144.349 130.822C145.721 130.588 145.731 130.584 145.643 130.245C145.478 129.603 145.332 129.819 141.803 130.528C142.591 131.36 142.278 131.18 144.349 130.822ZM169.382 126.224C180.083 124.258 188.868 122.613 188.912 122.567C188.956 122.521 188.866 121.887 188.398 121.995L148.842 129.218C148.818 129.218 148.377 130.05 149.38 129.882C149.685 129.827 158.683 128.18 169.382 126.214V126.224ZM143.237 129.049C145.211 128.688 145.243 128.674 145.285 128.321C145.308 128.12 145.263 127.96 145.181 127.96C144.946 127.96 140.294 128.792 140.232 128.844C140.108 128.959 140.687 129.428 140.944 129.424C141.101 129.424 142.13 129.256 143.237 129.049ZM168.613 124.407C179.33 122.453 188.174 120.828 188.274 120.796V120.194C188.274 120.194 148.381 127.107 148.381 127.633C148.381 128.002 148.493 128.098 148.84 128.02C148.993 127.986 157.888 126.359 168.605 124.409L168.613 124.407ZM142.011 127.308C145.538 126.676 145.067 127.063 144.858 125.703C144.68 124.547 144.513 124.365 143.267 123.959C140.178 122.956 138.051 124.022 136.035 125.895C139.522 128.277 138.216 127.988 142.011 127.3V127.308ZM168.748 122.477C188.81 118.866 189.102 118.797 189.102 118.318L148.826 125.426C147.751 125.641 148.048 126.24 148.425 126.15C148.592 126.11 157.736 124.455 168.748 122.467V122.477ZM134.548 123.556C137.243 120.862 142.29 119.865 145.731 122.088L146.533 122.607L164.832 119.327C165.032 119.155 162.312 111.102 155.437 107.932C153.4 106.989 152.738 106.863 150 106.873C145.572 106.889 143.644 107.904 138.747 110.283C130.488 114.296 129.256 113.932 118.994 109.268C111.02 105.641 108.827 104.871 105.003 104.313C101.148 103.749 97.0349 104.07 94.3707 106.576C93.183 107.691 93.6083 107.214 93.6203 110.081C99.2176 111.627 103.049 112.947 111.241 116.32C117.594 118.938 122.156 120.683 129.041 122.916C134.538 124.7 132.933 125.173 134.548 123.556ZM210.446 123.446C210.344 123.548 210.518 123.805 210.687 123.805C210.687 123.805 232.494 119.742 232.494 119.307C232.494 118.872 210.454 123.44 210.446 123.446ZM253.693 122.218C253.758 122.146 254.749 120.334 253.826 120.505L251.113 120.95C251.113 121.638 252.891 123.157 253.693 122.218ZM209.69 121.877C209.042 122.011 209.652 122.346 209.921 122.278L221.181 120.114C248.796 114.809 217.155 120.328 209.69 121.873V121.877ZM248.032 121.59C248.032 120.766 247.35 122.192 247.91 121.857C247.949 121.824 247.98 121.784 248.001 121.737C248.022 121.691 248.033 121.641 248.032 121.59ZM259.784 121.089C261.223 119.548 259.584 119.937 258.887 119.987C257.349 120.095 257.252 120.188 257.999 120.936C258.564 121.504 259.331 121.574 259.784 121.089ZM208.426 120.252C207.623 120.404 208.382 120.854 208.5 120.854L231.928 116.52C231.972 116.476 231.954 116.32 231.886 116.193C231.686 115.78 209.602 120.027 208.426 120.252ZM206.677 118.681C206.055 118.834 206.941 119.263 207.078 119.263L231.13 114.889C231.856 114.759 231.493 114.169 231.425 114.169C231.264 114.169 207.15 118.569 206.681 118.681H206.677ZM235.493 118.117C246.08 119.742 239.919 119.215 249.705 117.871L261.943 116.667C265.371 109.043 260.998 102.656 260.294 102.656C260.143 102.656 258.877 102.957 257.485 103.332L240.551 106.784L234.362 111.653L235.491 118.117H235.493ZM196.279 117.516C197.199 117.357 197.282 117.178 197.745 116.687C195.815 117.114 193.456 117.195 194.888 117.528L196.279 117.516ZM204.704 117.215C204.149 117.381 205.106 117.658 205.288 117.658L231.276 112.863C231.276 112.402 231.024 112.44 218.013 114.785C210.835 116.075 204.849 117.17 204.704 117.215ZM201.294 116.067C201.049 116.103 201.952 116.296 202.415 116.302C202.879 116.308 230.767 111.449 230.847 111.054C230.875 110.933 230.835 110.827 230.765 110.827L201.31 116.053L201.294 116.067ZM208.165 111.607C223.412 108.883 231.664 107.465 231.995 107.509C233.61 107.725 232.757 108.869 234.484 107.687C235.947 106.684 235.961 106.971 234.55 105.093C225.976 93.6681 212.819 84.3754 197.26 78.7401C189.574 75.9595 181.866 74.2583 172.363 73.2472L164.224 73.0465C168.437 86.193 169.757 93.2327 173.761 101.506C176.556 107.282 179.1 111.024 182.085 113.744C182.958 114.546 184.55 115.75 184.731 115.762C184.797 115.762 195.342 113.888 208.167 111.599L208.165 111.607ZM243.909 103.001C245.352 102.776 245.426 102.872 244.712 102.124C243.273 100.625 242.407 102.632 242.407 103.045C242.407 103.215 242.483 103.215 243.911 103.001H243.909ZM250.678 101.829C252.658 101.428 249.799 99.7568 248.564 100.87C248.202 101.193 247.823 102.12 247.984 102.275C248.04 102.331 249.017 102.166 250.678 101.821V101.829ZM101.045 100.948L102.676 100.864L103.479 96.1517C103.547 95.913 103.531 95.9049 103.326 96.0775C103.059 96.3002 99.2055 100.744 99.037 101.027L101.043 100.948H101.045ZM255.677 100.686C258.863 99.8411 254.979 99.4418 254.321 100.038C254.038 100.292 253.956 101.041 254.213 101.041C254.301 101.041 254.959 100.884 255.677 100.688V100.686ZM140.639 77.4461C144.19 76.2223 143.121 67.2025 143.014 66.9698C142.792 66.4783 139.253 64.2474 136.795 56.5758C135.281 51.8452 136.817 53.9116 131.796 58.582L130.287 59.9863C130.63 65.8524 132.532 73.5421 137.146 76.7359C138.24 77.4942 139.662 77.7811 140.639 77.4461ZM150.124 65.744C154.042 64.8232 158.111 60.6383 160.248 56.5357L161.132 54.8365C159.71 53.0028 161.636 50.9966 162.811 51.8272C163.303 52.1743 163.542 51.4982 164.607 50.8642C166.32 49.8431 162.525 48.2963 162.48 48.1579C162.37 47.8168 164.87 46.7335 166.826 49.3335C166.882 49.4178 168.748 47.7286 168.748 47.6002C168.748 47.536 170.489 44.3 170.489 43.5437L167.249 38.4339L167.61 47.8108C164.059 44.4465 160.615 39.8001 159.036 35.1197C158.518 33.587 158.765 33.7154 157.567 34.7727C154.048 37.8481 148.816 39.9325 144.413 40.0148C142.661 40.0469 142.978 40.2335 141.646 38.3758C140.603 36.9333 140.146 36.5882 139.161 36.52C134.249 36.167 133.543 47.3755 138.96 45.1205C140.027 44.6772 139.983 44.6731 140.11 45.1205C140.35 45.9691 139.57 47.3394 138.619 47.7286C136.944 48.4187 140.398 57.7835 141.558 59.9903C143.564 63.8021 146.172 66.6629 150.132 65.732L150.124 65.744ZM150.708 62.7849C147.621 61.6896 148.329 57.7554 148.722 58.9732C148.875 59.4446 150.126 60.4738 151.172 60.9653C153.415 62.0326 156.035 61.0937 154.51 62.2573C153.555 62.9855 151.92 63.2122 150.708 62.7849ZM156.171 57.9099C154.229 56.3732 157.044 57.926 157.409 56.2368C158.757 50.0076 160.314 50.1881 160.121 50.8522C159.81 51.9275 159.501 56.9871 159.022 57.7233C158.542 58.4596 157.345 58.8468 156.171 57.9099ZM152.606 51.9596C151.667 51.0227 152.758 48.6715 154.131 48.6715C156.687 48.6715 154.189 53.5645 152.606 51.9596ZM157.29 46.0875C155.96 44.2819 155.007 44.3762 152.536 44.2117C155.16 41.393 158.809 43.1986 158.835 45.5539C158.835 45.8167 158.29 47.2029 158.189 47.1949C157.86 46.8523 157.562 46.4817 157.296 46.0875H157.29ZM137.596 44.1957C135.467 43.5417 138.557 43.973 137.678 42.4784C136.167 39.9105 138.713 39.8483 138.663 38.0046C138.605 35.8279 141.793 39.1903 139.885 40.7731C139.411 41.1744 140.085 42.5566 139.626 43.4313C139.239 44.1856 138.489 44.4685 137.596 44.1957ZM171.099 34.0424C170.798 31.4344 169.047 28.2566 166.485 25.6626C163.676 22.8279 161.048 21.4296 157.495 20.8939C156.091 20.6752 152.564 20.4525 152.68 20.5829C153.386 21.3212 163.644 21.3192 170.303 33.4406C171.306 35.2642 171.215 35.1899 171.095 34.0424H171.099ZM143.219 20.1777C146.748 17.7402 149.504 17.2667 154.219 16.5826C151.565 15.5996 149.685 15.3007 146.455 16.5826C141.965 18.3561 141.121 21.6843 141.945 21.0765C142.082 20.9762 142.655 20.5769 143.219 20.1837V20.1777Z" fill="#3F170D"/>
</svg>
