<svg width="268" height="310" viewBox="0 0 268 310" fill="none" xmlns="http://www.w3.org/2000/svg">
<g clip-path="url(#clip0_159_5189)">
<path fill-rule="evenodd" clip-rule="evenodd" d="M43.6643 61.4279C41.2776 62.758 39.0232 64.3127 36.9316 66.071C32.1101 70.0893 28.2945 74.6602 25.4815 79.51C22.6685 84.3598 20.8631 89.4767 20.4181 95.1026C20.1862 98.1916 20.3238 101.297 20.8279 104.354C21.3317 103.273 21.8355 102.274 22.3393 101.352C24.3227 97.7097 26.1297 95.2487 28.2894 93.5672C30.4491 91.8856 32.9598 90.9802 34.253 90.4779C35.5461 89.9756 35.62 89.8748 35.3698 89.4985C35.1195 89.1222 34.5402 88.4688 34.4646 87.9043C34.389 87.3399 34.8173 86.8611 35.9592 85.2921C37.1012 83.7231 38.9519 81.0605 40.4029 79.5285C41.8539 77.9964 42.9119 77.5949 44.7694 77.2187C46.6268 76.8424 49.3037 76.4963 50.6473 76.1251C51.9908 75.7538 52.0529 75.3842 51.927 74.2772C51.801 73.1702 51.5004 71.3391 50.9747 70.0204C50.4491 68.7017 49.6934 67.8987 48.2625 66.6187C46.8317 65.3386 44.7358 63.5949 43.6593 61.4262L43.6643 61.4279ZM25.5772 221.301C23.8793 224.79 22.2856 228.132 20.9622 231.276C16.7939 241.171 15.2875 249.106 16.3422 257.65C17.3969 266.194 21.0126 275.331 29.4986 284.12C37.9846 292.909 51.3408 301.349 65.4511 305.869C79.5615 310.39 94.4241 310.993 106.776 308.725C119.128 306.457 128.971 301.334 136.553 294.11C144.136 286.887 149.458 277.535 152.721 266.787C155.984 256.039 157.19 243.884 157.742 232.331C157.949 228.021 158.065 223.794 158.614 219.677C152.577 219.22 146.974 218.721 143.526 218.43C138.631 218.015 138.078 218.015 137.84 218.141C137.601 218.267 137.672 218.518 137.764 220.187C137.857 221.857 137.952 224.946 137.596 227.411C137.24 229.875 136.441 231.706 135.148 232.798C133.855 233.89 132.078 234.236 128.068 234.533C124.057 234.831 117.798 235.086 114.51 235.187C111.221 235.288 110.892 235.237 110.629 235.325C110.365 235.412 110.163 235.639 109.498 236.58C108.833 237.52 107.703 239.18 107.176 240.185C106.648 241.189 106.724 241.54 107.302 243.544C107.879 245.548 108.958 249.184 110.728 252.799C112.498 256.414 114.96 260.007 116.203 262.342C117.445 264.677 117.469 265.759 117.093 266.663C116.716 267.566 115.939 268.294 114.671 268.679C113.403 269.063 111.648 269.119 109.26 268.479C106.872 267.839 103.862 266.506 100.811 264.472C97.6779 262.36 94.8337 259.848 92.3501 257C90.0275 254.301 88.4707 251.64 87.9198 249.982C87.369 248.324 87.8123 247.675 89.8075 245.533C91.8026 243.391 95.3495 239.781 97.7661 237.171C100.183 234.56 101.494 232.951 101.194 231.896C100.893 230.841 98.9837 230.339 89.2432 230.036C79.5027 229.734 61.9261 229.633 53.1899 229.734C44.4536 229.835 44.5527 230.136 45.4059 232.346C46.259 234.557 47.8662 238.674 48.7327 240.773C49.5993 242.871 49.7236 242.945 50.4524 243.899C51.602 245.387 52.6223 246.971 53.5022 248.633C54.4471 250.47 55.0955 252.445 55.4235 254.485C55.6989 256.333 55.5998 257.963 54.7198 259.596C53.8398 261.228 52.1839 262.861 50.125 264.467C48.066 266.073 45.6091 267.666 42.9321 268.506C40.4364 269.289 37.7975 269.508 35.2069 269.146C33.0354 268.81 31.5777 268.003 30.6994 267.13C29.821 266.256 29.5238 265.297 30.1855 263.212C30.8472 261.128 32.4829 257.912 33.9641 255.137C35.4453 252.362 36.7754 250.027 37.4909 248.408C38.2063 246.788 38.307 245.888 37.9309 244.389C37.5547 242.891 36.6999 240.811 34.955 237.369C33.2101 233.927 30.5751 229.138 27.3742 224.071C26.7897 223.149 26.1885 222.223 25.5839 221.294L25.5772 221.301ZM165.987 201.726C166.48 201.131 167.004 200.54 167.559 199.953C168.363 199.113 169.238 198.273 170.172 197.434C158.135 197.308 145.92 196.857 136.115 196.182C135.732 196.723 135.425 197.148 135.21 197.472C134.595 198.403 134.746 198.502 135.097 198.878C135.448 199.255 136.001 199.908 136.679 200.236C137.358 200.563 138.161 200.561 143.061 200.788C147.852 201.008 156.562 201.447 165.992 201.724L165.987 201.726ZM221.476 160.025C226.219 154.744 230.188 148.816 233.263 142.418C235.337 138.094 236.684 134.218 237.416 130.432C227.844 139.31 217.49 151.015 211.05 162.368C209.594 164.938 210.622 163.309 218.99 160.747C219.761 160.51 220.592 160.268 221.467 160.025H221.476ZM237.66 129.036C238.192 125.607 238.228 122.214 237.858 118.584C237.186 112.066 235.211 104.785 230.637 96.9521C220.434 109.697 212.654 119.819 205.32 136.647C203.66 140.43 202.245 144.315 201.083 148.279C199.61 153.318 202.482 147.775 211.414 141.223C220.483 134.569 228.593 131.571 237.655 129.036H237.66ZM228.89 94.1165C228.241 93.1209 227.549 92.1191 226.816 91.1112C219.454 81.0404 207.604 70.1901 197.511 63.0086C195.999 61.9352 194.533 60.9441 193.089 60.0201C192.901 60.0521 192.702 60.0789 192.498 60.1025C191.053 60.2704 189.139 60.215 188.103 60.2536C187.066 60.2923 186.885 60.4216 185.179 62.3384C183.473 64.2551 180.233 67.976 178.293 69.8222C176.354 71.6684 175.739 71.6415 174.587 71.492C173.435 71.3425 171.75 71.0653 170.77 70.988C169.789 70.9107 169.515 71.0384 166.489 73.2861C163.462 75.5337 157.69 79.9031 154.815 82.1256C151.94 84.348 151.96 84.4236 152.231 85.1275C152.501 85.8314 152.996 87.1618 152.902 88.8064C152.808 90.451 152.137 92.4097 151.848 93.6024C151.559 94.7951 151.66 95.2218 151.545 96.7539C151.395 98.7237 151.126 100.683 150.739 102.62C150.362 104.315 149.935 105.069 149.772 105.684C149.609 106.299 149.71 106.776 149.772 107.969C149.834 109.161 149.859 111.071 147.925 114.587C145.99 118.103 142.101 123.225 139.338 126.918L139.304 126.965L139.691 127.037C147.683 128.535 157.386 134.008 164.569 139.678C169.75 143.767 172.392 148.161 172.422 147.982C172.447 147.832 172.546 147.531 173.245 144.215C173.944 140.899 175.238 134.566 178.056 127.134C181.558 117.895 190.061 100.98 195.88 95.7409C197.126 94.6204 197.076 95.2672 195.83 99.5811C191.581 114.277 188.746 124.398 186.511 140.101C185.913 144.291 186.007 144.637 187.559 142.196C189.11 139.755 192.093 134.516 195.908 128.831C203.64 117.294 214.152 105.121 224.892 96.9135C226.376 95.7795 227.713 94.859 228.89 94.1165ZM138.874 127.546C136.394 130.867 134.844 132.942 133.232 134.113C131.512 135.356 129.705 135.582 127.545 135.33C125.386 135.078 122.875 134.351 121.163 134.564C119.452 134.778 118.552 135.934 116.594 137.014C114.636 138.094 111.623 139.097 109.475 139.869C107.327 140.642 106.049 141.2 105.433 141.628C104.816 142.057 104.868 142.356 105.785 143.644C106.702 144.933 108.484 147.184 110.254 149.408C112.024 151.632 113.781 153.814 114.71 155.36C115.638 156.905 115.739 157.807 115.576 158.587C115.413 159.366 114.987 160.018 114.61 160.658C114.234 161.298 113.907 161.926 113.92 162.178C113.934 162.43 114.283 162.302 115.791 161.644C117.299 160.985 119.958 159.796 122.601 159.075C125.136 158.36 127.783 158.137 130.402 158.417C132.938 158.711 135.386 159.541 137.576 160.527C139.766 161.513 141.701 162.655 143.221 164.407C144.891 166.338 145.871 168.77 146.009 171.32C146.055 172.257 146.015 173.196 145.888 174.125C146.314 174.396 146.92 174.898 147.824 175.612C154.125 180.591 156.921 184.366 152.694 176.759C145.804 164.354 139.487 158.064 131.426 148.047C130.454 146.838 130.454 146.812 131.801 147.137C142.248 149.656 146.722 152.374 155.48 158.545C157.126 159.704 157.178 159.677 156.705 157.768C154.573 149.166 150.288 141.85 144.564 134.218C142.816 131.866 140.908 129.636 138.854 127.546H138.874ZM172.216 49.8317C170.854 49.3126 169.456 48.7936 168.017 48.2661C156.945 44.2226 143.137 39.6517 123.578 40.7067C106.591 41.6239 85.2664 46.7828 69.7538 51.4478C69.8165 52.6709 69.8036 53.8967 69.7151 55.1183C69.5472 57.4533 69.0434 59.8639 68.3851 61.5975C67.7267 63.3312 66.929 64.3844 66.5512 64.9875C66.1733 65.5906 66.2253 65.7418 66.8283 67.2234C67.4312 68.7051 68.5782 71.5172 69.2886 72.9232C69.999 74.3293 70.2425 74.3293 71.3979 74.0991C72.5533 73.869 74.6106 73.4272 76.594 73.4709C78.5773 73.5145 80.4868 74.0739 81.8001 74.803C82.7446 75.3296 83.5522 76.0707 84.158 76.9667C84.5224 77.4942 84.5459 77.6386 87.4345 78.0838C90.323 78.529 96.0699 79.2513 99.6487 80.0996C103.228 80.948 104.632 81.8954 106.465 83.8424C108.299 85.7894 110.556 88.7275 111.762 90.2595C112.968 91.7915 113.118 91.9158 114.197 91.5144C115.277 91.1129 117.286 90.1839 121.729 87.5347C126.173 84.8856 133.054 80.5146 136.328 78.2165C139.603 75.9184 139.279 75.6967 138.952 75.0903C138.624 74.4838 138.3 73.5078 138.337 72.893C138.374 72.2782 138.777 72.0262 139.694 72.1522C140.611 72.2782 142.045 72.7788 143.083 73.0559C144.121 73.3331 144.778 73.3818 145.982 72.5033C147.186 71.6247 148.944 69.8155 151.317 68.2582C153.69 66.701 156.679 65.4024 158.287 64.6179C159.894 63.8334 160.119 63.5882 160.596 62.508C161.073 61.4279 161.802 59.5195 162.028 58.1135C162.255 56.7074 161.978 55.802 162.216 55.0746C162.455 54.3472 163.207 53.7929 164.037 53.3947C164.866 52.9966 165.768 52.7413 166.472 52.7228C166.786 52.7113 167.098 52.7651 167.39 52.8808C167.681 52.9964 167.946 53.1715 168.166 53.3947C168.657 53.8466 169.132 54.5253 169.535 54.7638C169.938 55.0024 170.262 54.8008 170.513 54.5757C170.781 54.3565 170.952 54.0412 170.991 53.6971C171.042 53.2939 170.966 52.7413 171.28 51.7384C171.489 51.0603 171.805 50.42 172.216 49.8418V49.8317Z" fill="white"/>
<path fill-rule="evenodd" clip-rule="evenodd" d="M140.428 199.307C142.317 195.735 145.061 191.109 146.776 187.102C151.203 176.754 148.165 174.992 152.763 178.626C159.11 183.64 161.926 187.443 157.672 179.781C150.739 167.285 144.368 160.952 136.258 150.863C135.279 149.645 135.279 149.619 136.634 149.947C147.157 152.48 151.661 155.222 160.482 161.436C162.139 162.603 162.191 162.576 161.714 160.654C159.568 151.991 155.252 144.622 149.487 136.935C143.886 129.466 141.65 129.155 144.566 129.711C152.617 131.223 162.389 136.733 169.624 142.443C174.84 146.56 177.502 150.987 177.533 150.805C177.558 150.654 177.658 150.354 178.36 147.014C179.062 143.674 180.376 137.294 183.207 129.81C186.734 120.507 195.299 103.468 201.158 98.1918C202.413 97.0613 202.362 97.7147 201.108 102.056C196.836 116.852 193.981 127.045 191.717 142.861C191.114 147.079 191.213 147.432 192.77 144.97C194.326 142.507 197.339 137.242 201.182 131.51C208.976 119.889 219.563 107.631 230.38 99.3644C234.849 95.9475 238.013 94.4424 239.418 93.9636C240.824 93.4848 240.473 94.0392 238.747 96.1995C227.179 110.62 218.661 121.048 210.679 139.382C209.006 143.192 207.58 147.105 206.41 151.098C204.927 156.174 207.819 150.594 216.822 143.99C226.563 136.839 235.218 133.879 245.106 131.206C234.911 140.331 223.405 153.016 216.454 165.286C214.986 167.876 216.023 166.233 224.452 163.653C229.982 161.961 238.659 159.937 243.721 159.699C245.051 159.636 244.925 159.811 241.46 162.575C234.521 168.108 224.272 176.148 217.924 182.251C216.631 183.494 216.631 183.492 218.199 182.815C229.115 178.097 242.203 174.016 254.718 173.02C259.136 172.669 263.38 172.694 265.815 172.731C268.25 172.768 268.878 172.818 266.517 173.873C264.156 174.928 258.81 176.988 252.168 180.089C238.795 186.336 230.168 191.406 220.874 200.555C220.109 200.002 218.978 199.737 217.319 199.648C213.566 199.446 207.113 200.152 196.392 200.452C178.643 200.956 156.281 200.422 140.428 199.307Z" fill="#E23C08"/>
<path fill-rule="evenodd" clip-rule="evenodd" d="M139.807 207.484C155.726 208.674 178.968 209.253 197.296 208.739C208.017 208.437 214.469 207.731 218.223 207.934C221.976 208.138 223.031 209.241 223.244 212.531C223.457 215.82 222.829 221.296 222.391 224.033C221.953 226.769 221.701 226.771 217.996 227.135C192.946 229.598 166.59 228.209 142.269 225.427C138.206 224.963 138.193 224.963 137.902 222.025C137.612 219.087 137.03 213.209 136.742 210.246C136.453 207.283 136.453 207.232 139.812 207.484H139.807Z" fill="#3F170D"/>
<path fill-rule="evenodd" clip-rule="evenodd" d="M10.4492 195.431C8.51953 203.338 6.11295 215.561 6.58654 222.539C6.81662 225.889 7.67815 227.725 9.989 229.291C14.6913 232.482 26.0575 234.119 34.1219 235.019C28.2726 224.165 17.1348 207.973 10.4424 195.431H10.4492ZM47.6327 238.98C54.7298 242.714 76.0061 241.565 84.2033 241.176C92.654 240.771 90.3851 240.269 95.776 241.147C105.501 242.733 115.773 244.485 126.173 243.667C130.259 243.343 133.813 242.696 135.893 241.345C137.974 239.995 138.58 237.942 138.508 231.975C138.401 223.544 137.264 209.344 134.548 199.752L121.486 219.584C116.627 226.667 112.133 232.744 109.76 236.008C107.387 239.272 107.137 239.726 105.204 239.751C103.271 239.776 99.6621 239.375 97.7728 239.148C94.7264 238.782 95.8734 239.131 100.233 231.451C106.86 219.778 112.143 204.133 116.333 191.196C107.937 191.255 95.6769 191.425 80.6245 191.028C63.3519 190.571 42.3963 189.37 29.3373 188.824C35.9424 201.813 36.0667 205.561 40.3542 218.857C42.3695 225.086 45.1741 232.368 46.6301 236.185C47.1121 237.45 47.4463 238.333 47.6377 238.982L47.6327 238.98Z" fill="#E23C08"/>
<path fill-rule="evenodd" clip-rule="evenodd" d="M37.7915 245.103C35.8485 254.109 30.2729 257.148 31 260.837C32.1101 266.468 39.6808 264.642 44.4067 261.942C47.3859 260.241 54.5486 255.233 54.9516 252.713C55.2489 250.865 52.2646 246.052 50.8472 244.275C49.554 242.642 48.3734 241.938 47.5958 241.576C46.8183 241.213 46.4404 241.186 44.9474 241.562C43.4544 241.938 40.8413 242.718 39.486 243.232C38.1308 243.746 38.03 243.998 37.7915 245.103ZM96.7804 236.704C96.2766 237.314 95.4251 238.669 94.1941 240.139C90.701 244.31 89.1559 244.364 90.3785 246.392C93.6466 251.777 104.653 262.182 111.035 263.694C113.107 264.183 114.99 264.009 115.831 263.681C116.673 263.353 116.471 262.878 115.242 260.956C112.177 256.17 108.524 251.021 107.043 245.236C105.162 237.925 108.664 240.801 98.8595 236.81C97.4404 236.232 97.2892 236.094 96.7871 236.702L96.7804 236.704Z" fill="#3F170D"/>
<path fill-rule="evenodd" clip-rule="evenodd" d="M37.1332 247.556C36.8881 248.319 36.616 249.032 36.3288 249.703C39.3148 248.908 41.0311 248.91 45.0365 249.935C46.2507 250.247 46.7444 248.423 45.5403 248.075C42.0791 247.067 39.7833 247.015 37.1332 247.556ZM109.284 251.109C108.969 250.475 108.671 249.834 108.395 249.184C106.333 249.258 104.375 249.788 101.746 250.598C100.537 250.971 101.103 252.809 102.312 252.436C105.433 251.475 107.141 250.995 109.284 251.109ZM107.282 246.121C107.194 245.829 107.114 245.535 107.036 245.241C106.937 244.855 106.855 244.499 106.781 244.168C104.442 244.129 102.344 244.685 99.412 245.587C98.2029 245.96 98.7688 247.798 99.9763 247.427C103.258 246.419 104.978 245.935 107.282 246.121ZM35.1398 252.123C34.6813 252.952 34.2128 253.704 33.7627 254.4C36.8931 253.541 38.5994 253.516 42.7005 254.568C43.9163 254.88 44.4101 253.056 43.2043 252.71C39.8908 251.749 37.6471 251.655 35.1432 252.123H35.1398Z" fill="white"/>
<path fill-rule="evenodd" clip-rule="evenodd" d="M43.4376 242.3C41.9883 239.2 39.5952 234.26 35.1716 226.586C28.7815 215.499 16.9283 198.495 13.3395 188.816C11.7205 184.448 10.8422 180.052 10.9799 176.889C11.1176 173.726 12.273 171.79 14.9836 170.522C17.5632 169.316 21.55 168.711 24.8282 169.066C25.8794 170.062 26.8671 171.123 27.7856 172.242C31.2603 176.539 32.5719 180.966 32.2797 186.32C31.9959 191.527 30.4441 190.491 31.838 194.104C32.666 196.251 34.5251 200.118 35.929 204.086C37.333 208.054 38.2903 212.122 39.4944 216.141C41.4963 222.818 45.2631 232.288 47.2532 238.191C48.5783 242.125 48.5968 240.811 43.4376 242.3ZM101.671 238.152C110.068 226.497 130.113 197.345 133.457 186.066C134.537 182.426 134.738 178.91 134.362 176.422C133.522 170.922 127.083 167.218 122.618 166.937C118.695 173.035 117.464 177.109 117.316 184.072C117.277 185.829 117.353 186.281 116.839 188.755C115.009 197.549 113.374 201.657 109.406 210.641C105.711 219.022 102.353 227.29 97.7947 234.048C96.7988 235.525 96.342 234.953 101.671 238.152Z" fill="#F7CEBF"/>
<path fill-rule="evenodd" clip-rule="evenodd" d="M49.2265 174.735C48.9712 175.53 48.7882 176.098 48.5665 176.025C41.5046 173.736 33.5493 171.026 27.6664 170.01C21.7835 168.993 30.2376 168.212 32.4812 186.629C33.4889 194.902 30.7145 197.044 33.4099 197.786C38.4112 199.166 50.2493 199.397 56.1322 199.13C62.5374 198.836 63.5971 197.746 66.8652 198.059C71.7455 198.524 74.2881 198.611 79.192 197.746C82.0251 197.242 80.1241 198.981 86.0456 199.475C94.6827 200.195 105.559 197.133 113.438 194.321C118.345 192.569 116.688 193.602 117.543 183.193C119.093 164.318 126.43 166.05 123.405 165.486C123.328 165.471 93.3443 177.245 91.2685 178.142C79.8486 183.059 60.4096 180.413 49.2265 174.739V174.735Z" fill="#3F170D"/>
<path fill-rule="evenodd" clip-rule="evenodd" d="M103.908 171.933C106.417 169.205 107.967 166.714 108.795 164.807C109.634 162.874 109.737 161.541 108.43 159.509C107.124 157.476 104.413 154.736 102.48 152.477C97.3329 146.458 99.1214 146.273 96.342 147.152C85.1841 150.688 85.7988 159.673 82.8917 168.073C80.9806 173.581 77.6621 177.312 73.2671 181.332C84.8667 181.332 94.6425 178.579 103.914 171.925L103.908 171.933Z" fill="white"/>
<path fill-rule="evenodd" clip-rule="evenodd" d="M162.831 70.0674L167.575 77.7948L172.489 74.9844C174.884 73.8421 176.323 74.929 179.156 75.3204C180.122 75.4497 180.45 75.2935 182.169 73.1785C183.889 71.0636 187.001 66.9882 188.746 64.9371C191.779 61.359 191.381 63.7293 195.579 63.3933C202.559 62.8406 205.437 45.6942 182.084 54.4077C177.465 56.1329 171.671 58.8476 168.464 60.5073C163.919 62.8591 164.193 63.3043 162.525 67.2268C162.149 68.1154 161.973 68.4027 162.828 70.0607L162.831 70.0674Z" fill="#FFD284"/>
<path fill-rule="evenodd" clip-rule="evenodd" d="M124.507 116.086C123.77 116.005 127.957 121.517 121.733 133.063C119.254 137.662 120.258 139.858 121.13 140.61C123.153 142.347 127.527 143.019 130.608 142.381C132.892 141.904 134.777 140.61 137.512 137.434C140.703 133.726 147.708 124.89 151.341 118.209C153.532 114.177 155.678 104.992 151.223 101.79C150.314 101.138 148.84 109.761 144.169 107.033C141.454 105.447 143.498 104.36 142.085 106.682C140.342 109.538 136.004 118.312 129.406 117.601C127.528 117.399 125.288 116.168 124.51 116.081L124.507 116.086Z" fill="white"/>
<path fill-rule="evenodd" clip-rule="evenodd" d="M142.611 99.0956C142.838 100.853 143.283 102.059 144.406 103.188C146.346 105.15 150.383 107.219 152.741 104.469C155.008 101.829 155.247 95.6653 155.655 91.9998C156.254 86.5957 156.573 82.396 152.491 77.2455C150.413 74.6249 143.914 69.1452 142.473 71.282C141.33 72.9786 146.773 77.7444 146.917 78.3257L143.904 79.1421C142.596 79.6612 143.464 80.1886 141.996 79.7452C139.383 78.9539 137.47 79.6292 138.181 82.4699C138.374 83.246 137.024 82.5791 136.197 83.3098C134.644 84.6857 139.65 89.1894 140.9 90.5669C143.113 93.0044 142.006 94.4306 142.606 99.0939L142.611 99.0956Z" fill="#F7CEBF"/>
<path fill-rule="evenodd" clip-rule="evenodd" d="M106.627 100.799C104.329 102.217 104.229 102.267 105.619 104.29L113.465 115.051L138.443 97.8659C138.275 94.481 138.717 93.4983 136.913 91.511C135.64 90.11 131.85 86.6393 131.898 84.9427L106.627 100.799ZM152.066 88.4906L167.853 77.6302L161.375 68.779C160.169 67.1831 160.095 67.2335 153.04 71.6784L146.353 75.8781C150.122 79.4058 152.167 83.6626 152.063 88.4939L152.066 88.4906Z" fill="#E23C08"/>
<path fill-rule="evenodd" clip-rule="evenodd" d="M83.2865 180.563C85.5766 179.191 87.5656 177.37 89.1341 175.209C95.1229 166.914 93.6903 156.426 101.585 150.649C109.969 144.514 122.9 144.086 127.262 135.515C124.729 135.411 122.317 134.811 120.829 133.528C119.956 132.775 122.398 131.734 124.143 126.808C127.354 117.747 123.471 108.921 124.205 109.002C124.403 109.025 124.813 109.17 125.491 109.447L121.488 103.685L110.908 110.908L103.664 100.9C102.27 98.884 102.371 98.8268 104.672 97.409C105.701 96.7724 107.173 95.8602 109.317 94.5247C104.934 92.8028 100.121 92.3644 94.9986 93.5907C90.3248 94.7078 86.0827 97.1184 82.8062 100.823C79.5297 104.527 77.2205 109.524 75.311 112.387C73.4015 115.249 71.8968 115.973 68.6455 115.866C65.3942 115.758 60.398 114.797 55.6856 114.629C43.1002 114.194 32.3621 119.588 28.9714 133.091C36.218 135.547 45.9199 140.819 50.0109 142.015C55.7729 143.695 65.9383 146.108 66.1919 153.567C66.2355 154.829 65.8258 155.059 65.4765 156.631C65.2145 157.807 64.6804 158.613 63.394 158.514C62.7222 158.464 63.6022 159.124 64.5981 161.98C65.5184 164.621 64.4184 165.748 62.9422 165.34C61.0613 164.826 60.4685 162.806 60.2166 164.347C59.5096 168.699 55.5764 165.274 53.5259 162.677C50.4542 158.783 47.48 153.819 42.8818 151.664C41.676 151.099 41.2746 151.299 38.4247 151.262C36.2499 151.234 32.6526 151.094 28.8706 150.814C30.9917 159.2 36.9317 166.269 42.116 171.565L44.358 172.771C48.3886 174.943 53.7156 177.781 59.1888 179.414C64.6619 181.046 70.2795 181.488 75.7661 181.287C78.2855 181.202 80.7972 180.96 83.2865 180.563Z" fill="#FFD284"/>
<path fill-rule="evenodd" clip-rule="evenodd" d="M65.2244 121.73C54.9347 128.51 62.314 143.568 73.6096 141.989C84.5072 140.478 85.2327 127.559 79.1634 122.167C74.9061 118.381 69.6261 118.831 65.2244 121.734V121.73Z" fill="white"/>
<path fill-rule="evenodd" clip-rule="evenodd" d="M26.7427 137.84C31.3241 139.46 37.8267 142.473 41.2678 144.094C44.7089 145.715 45.0834 145.942 47.1457 146.542C52.9077 148.222 63.0731 150.636 63.3267 158.094C63.3703 159.356 62.9606 159.584 62.6113 161.158C62.3476 162.334 61.8152 163.141 60.5271 163.042C59.8554 162.991 60.737 163.651 61.7329 166.507C62.6532 169.148 61.5516 170.275 60.0754 169.867C58.1944 169.353 57.6016 167.334 57.3514 168.874C56.6427 173.227 52.7112 169.801 50.6607 167.204C47.5874 163.31 44.6148 158.346 40.0149 156.191C38.8108 155.627 38.4078 155.827 35.5578 155.79C30.486 155.722 17.6706 155.05 12.8238 153.416C4.57797 150.637 7.09371 138.154 17.1298 136.402C19.5028 135.987 22.168 136.214 26.746 137.833L26.7427 137.84Z" fill="#F7CEBF"/>
<path fill-rule="evenodd" clip-rule="evenodd" d="M32.928 86.6579C31.4753 86.1942 30.8791 86.0313 29.7623 86.3219C17.6337 89.5136 5.07516 124.557 1.01942 133.805C-1.02609 138.484 -0.371121 149.922 6.47914 150.81C7.79747 150.978 1.06141 145.376 10.8456 140.634C11.7592 134.692 17.8084 131.092 24.0977 132.021C26.0206 129.563 28.5347 126.877 29.3173 124.843C30.4777 121.829 33.4167 113.541 35.0558 112.889C41.9783 110.134 42.9321 108.651 51.2116 109.449C58.8092 110.179 68.894 113.364 71.8782 106.761C78.5471 92.025 84.5711 89.1642 95.0187 87.0342C95.41 86.9552 94.2495 86.8124 93.8582 86.7099C89.3893 85.5424 84.3612 85.1225 80.3424 84.8621C77.8233 84.6941 79.5564 85.781 74.9297 91.2036C70.9898 95.8148 67.0651 98.5866 64.2051 103.698C64.0724 103.934 63.9985 104.569 63.8289 104.384C61.6608 102.03 52.4829 95.0555 45.2447 92.7407C41.3502 91.4959 34.3773 87.1232 32.928 86.6579ZM31.4787 161.204L31.7289 166.502L39.1367 169.642C40.6482 170.257 40.7439 170.282 39.2375 168.399C37.7311 166.516 34.6175 162.722 33.0489 161.091C31.4803 159.46 31.4535 159.986 31.4787 161.204Z" fill="white"/>
<path fill-rule="evenodd" clip-rule="evenodd" d="M48.3414 80.7346C40.5137 83.7584 39.894 80.9026 37.0676 84.9343C35.9231 86.5923 34.8626 88.3069 33.8901 90.0714C34.2495 89.9605 34.5619 89.8681 34.8356 89.7908C35.9407 89.47 36.0901 89.433 37.5344 89.8983C38.9787 90.3637 41.7144 91.3296 45.441 92.9675C49.1676 94.6053 53.8901 96.9168 57.5814 99.1393C60.2627 100.772 62.8338 102.58 65.2781 104.55C65.8558 105.004 66.1883 105.257 66.4016 105.323C66.6591 104.611 66.9334 103.926 67.2245 103.268C67.559 102.015 67.9678 100.783 68.4488 99.5778C69.5117 96.93 71.0015 94.4744 72.8589 92.309C75.1311 89.6094 78.4009 86.6192 80.5169 84.1213C81.1249 83.404 81.6388 82.7286 82.0771 82.1054C82.0116 79.7771 80.6093 78.5323 77.6032 78.1762C74.4896 77.8049 73.7204 78.0653 71.1627 78.8918C70.7361 79.0312 70.7361 78.9809 71.0871 79.6209C71.4381 80.2609 69.5051 83.2158 69.3808 83.9365C68.526 88.9274 67.4411 90.2981 65.7281 95.0623C62.4332 104.271 65.9985 102.358 58.6596 94.2845C56.4008 91.7983 53.3627 89.1861 51.8227 87.78C49.1458 85.3408 50.5951 85.4282 49.6765 81.2369C49.4766 80.3214 49.2247 80.397 48.3464 80.733L48.3414 80.7346Z" fill="#3F170D"/>
<path fill-rule="evenodd" clip-rule="evenodd" d="M40.5104 29.6027C32.4929 31.8302 27.7268 35.8334 25.7216 43.2886C24.5208 47.7537 24.6099 53.677 28.3583 55.9465C29.7891 56.8116 31.4702 56.6621 32.3368 56.6621C33.2033 56.6621 33.2537 56.8116 33.9574 58.2815C38.7302 68.2599 42.5374 68.4951 44.7156 71.4668C45.1187 72.0178 45.7921 75.3977 46.0373 77.1784C46.1532 77.1582 46.2674 77.1364 46.3833 77.1128C47.9888 76.7853 49.4952 76.1839 50.3752 75.8445C51.2552 75.5052 51.5037 75.4296 51.7053 76.3485C51.9068 77.2674 52.0563 79.174 52.157 80.229C52.2578 81.284 52.3082 81.4839 53.8515 82.8899C55.3949 84.296 58.4346 86.9082 60.6934 89.3944C61.0427 89.7785 61.373 90.1582 61.6842 90.5333C61.8365 90.0854 62.0045 89.6094 62.1881 89.1054C65.7148 79.4831 66.5881 81.5292 64.2033 76.5064C57.6335 62.7147 61.7262 66.2928 62.9354 58.8006C63.2982 56.2728 63.4242 53.7167 63.3116 51.1656C63.0865 47.3825 61.9815 41.0242 59.0577 31.6152C58.5455 29.9706 56.4076 27.7599 53.1563 27.2576C49.9049 26.7553 44.808 28.4134 40.5154 29.6094L40.5104 29.6027Z" fill="#F7CEBF"/>
<path d="M79.1383 304.735C56.401 303.727 32.3738 294.797 17.3365 277.256C3.38069 260.97 2.60481 244.411 9.61126 225.768C10.5752 223.204 10.6978 223.621 9.47691 222.826C5.54544 220.265 5.55047 216.458 5.98544 211.195C6.5346 204.548 7.41293 199.417 8.59522 195.656C5.06849 189.355 -1.3972 175.488 2.82481 169.18C4.52604 166.633 8.46087 164.802 13.1699 164.362C16.5505 164.058 19.6473 162.669 23.7132 163.267C25.4885 163.555 27.2395 163.977 28.9512 164.53C29.334 164.669 29.7271 164.779 30.1268 164.857C30.1889 164.789 29.9135 159.951 29.8094 159.277C29.628 158.123 26.0593 153.5 26.0593 152.314C26.0593 151.014 14.369 152.89 10.6726 146.676C9.62133 144.909 7.64972 145.274 5.57231 141.16C4.71413 139.463 4.43703 138.621 4.43535 136.58C4.43535 134.956 4.4555 134.771 4.76115 134.002C6.3146 130.091 11.069 127.502 16.1811 127.005C19.8623 126.652 23.9063 126.802 25.4429 127.351C26.2524 127.637 26.6286 127.598 26.8284 127.205C27.3457 126.209 28.8051 122.555 32.2109 113.734C33.7224 109.825 35.039 107.166 35.4706 107.166L35.1918 111.281C42.8348 107.418 51.9858 107.021 61.5584 108.703C68.805 109.978 68.5732 109.237 72.6693 101.743C74.5166 98.3598 76.3791 95.7224 78.4901 93.4983C81.4469 90.3705 85.175 88.0769 89.2995 86.8481C93.4239 85.6192 97.799 85.4986 101.985 86.4982C104.524 87.1013 107.05 88.0672 108.612 89.0281C108.901 89.2226 109.207 89.3912 109.525 89.5321C109.599 89.4531 105.303 84.5882 104.361 83.6895C103.056 82.4397 101.782 81.7929 99.4507 81.1999C96.6629 80.4742 89.9453 79.305 87.3456 79.0816C84.1849 78.8128 86.2724 78.6801 83.7634 82.3758C80.7405 86.8241 73.687 91.4287 70.4105 98.2842C66.5227 106.403 69.2635 110.211 64.447 105.726C60.5323 102.079 55.0574 98.726 50.4928 96.6547C47.3893 95.2453 37.8571 91.306 36.6529 90.9331C36.1004 90.7651 31.3343 92.875 29.3794 94.1584C22.2185 98.8386 19.3803 113.2 16.831 110.262C15.8234 109.096 18.1241 105.099 19.2157 102.833C21.6139 97.8491 24.9257 92.7205 29.5491 90.4023C33.5175 88.4234 33.6653 89.3809 33.2202 88.4872C32.0782 86.1908 36.0584 82.6698 37.407 80.4322C41.3317 73.916 44.8282 76.7533 49.2031 75.0314L50.0696 74.6955L49.1443 70.1128C44.3026 67.3074 41.2511 64.2584 38.3558 57.89C37.1148 55.1687 38.4415 57.8279 33.8215 56.3782C24.4017 62.4761 17.0392 70.8133 13.5327 81.4905C8.63889 96.3708 16.1693 110.47 16.1643 111.258L14.6276 114.88C14.5285 114.88 12.661 110.08 11.9641 108.048C9.094 99.6785 8.32652 92.7054 9.5021 85.7087C11.0555 76.4694 16.8696 66.5582 24.919 59.4624C26.5446 58.0295 29.5675 55.6945 30.8237 54.9066C31.739 54.3304 31.7356 54.5353 31.2755 53.8617C29.4399 51.1823 28.575 46.3107 30.1839 43.2601C30.8254 42.0438 29.9924 41.943 29.5491 37.7921C28.8991 31.7328 30.8792 24.5413 34.1859 21.2722C36.7554 18.7339 38.6145 18.8146 38.7555 17.6034C38.8529 16.7635 39.1485 16.8391 37.8151 16.3872C34.3521 15.2113 31.1848 13.2525 28.8622 10.3296C27.9016 9.12005 27.873 8.79079 28.6338 7.75767C30.3921 5.38066 34.5117 1.86805 37.6774 3.05403C43.478 5.23787 46.4556 14.2604 44.7963 9.28971C43.436 5.21267 40.4148 2.46104 40.5878 1.92012C41.1268 0.240252 52.2058 -0.619842 53.3176 0.492232C53.7962 0.970995 53.9608 1.96716 53.9574 4.3341C53.9574 9.96166 51.7322 13.4474 51.7322 14.0068L52.6274 15.396C52.7751 15.8714 61.1755 15.9 65.4596 22.1054C66.7058 23.9113 68.1265 27.1367 68.9226 29.9773C69.8563 33.3051 69.6682 32.8969 70.4139 33.1691C72.7768 34.0527 73.6786 37.3687 74.3285 41.051C85.0481 36.979 95.4873 34.4995 107.532 33.4916C110.051 33.2799 121.219 33.2749 123.859 33.4916C134.742 34.3668 142.717 35.8972 153.248 39.1192C160.771 41.4223 166.339 43.5439 172.429 46.4417C175.096 47.7083 175.489 47.873 176.323 48.0964C177.64 48.4509 178.114 49.8737 178.211 49.9997L179.723 49.2858C179.583 48.8641 179.499 47.4211 179.867 46.6215C181.256 43.5977 186.417 43.5977 187.611 46.7105L187.804 47.2145C191.373 46.7105 194.456 46.9558 197.208 49.5377C200.903 52.9781 198.792 58.0177 195.244 60.5762C206.511 69.6475 216.908 80.9664 223.373 93.5134C224.759 96.2012 224.022 95.9945 226.45 94.1853C231.32 90.5518 236.458 87.444 237.967 87.2172C239.311 87.0123 240.22 88.2134 239.689 89.485L227.656 103.912C229.967 112.311 230.343 120.163 227.824 127.872C227.075 130.168 225.936 132.706 225.597 132.848C225.345 132.947 222.07 133.928 221.98 133.928C221.889 133.928 225.599 128.72 226.628 120.605C226.878 118.627 226.811 113.863 226.506 111.595C226.264 109.806 225.71 106.949 225.58 106.82C225.498 106.737 225.521 106.702 223.521 109.457C212.483 124.635 205.605 139.377 201.827 155.954L199.674 165.445C199.281 167.71 199.19 166.752 199.351 161.933C199.486 157.809 199.645 155.969 200.09 153.461C202.164 141.734 207.671 129.456 214.499 118.157C218.295 111.878 222.32 106.353 226.662 100.594L233.344 92.6348C232.068 93.3891 228.106 96.2012 226.433 97.5064C224.784 98.8738 223.12 100.223 221.513 101.637C205.656 115.6 193.022 133.365 187.386 152.907L186.736 155.168C186.017 151.077 185.852 149.875 186.104 145.557C186.932 131.314 190.135 115.938 195.072 101.142C195.766 99.0586 196.32 97.3317 196.295 97.3082C196.186 97.199 193.322 101.432 191.478 104.434C182.603 118.873 175.104 137.902 174.429 154.713C174.359 156.505 174.305 156.996 174.152 157.145C173.841 157.456 173.492 157.177 173.351 156.498C171.767 148.986 175.079 134.907 177.968 126.755C180.655 119.173 184.249 111.636 188.8 104.031C192.326 98.1515 196.139 92.8666 197.627 91.8184C198.555 91.1666 199.682 91.3228 200.062 92.1544C200.411 92.9137 200.27 93.4882 198.285 99.487C194.74 110.215 193.396 115.159 191.717 123.618C190.526 129.602 188.984 139.05 189.021 140.619C190.56 137.135 195.235 128.692 197.895 124.546C204.059 114.93 213.01 105.227 222.292 97.4544L221.383 95.6468C215.714 84.3329 205.735 72.4646 193.927 62.9969C190.755 60.4519 192.632 61.6882 189.057 60.682C187.676 60.2939 187.406 60.6232 184.588 64.072C182.431 66.7127 180.497 68.915 179.12 70.2875C177.052 72.3521 176.048 72.6141 173.158 71.8498C169.901 70.9897 169.25 72.3386 166.049 74.467C164.223 75.6799 153.213 83.9448 153.213 84.3631C153.213 85.4483 154.694 86.7351 153.272 92.996C151.999 98.6034 152.666 100.809 150.573 104.962C152.588 110.21 149.23 113.63 143.872 112.051C141.913 111.471 140.12 110.435 138.639 109.027C135.877 106.432 136.968 105.192 135.91 106.831C134.449 109.086 132.459 111.656 130.155 112.236C127.733 112.844 125.32 109.78 125.809 111.654C127.607 118.542 127.065 126.53 123.271 132.055C122.801 132.742 122.65 133.044 122.767 133.103C123.023 133.249 125.255 133.672 126.518 133.813C134.955 134.768 136.359 126.573 138.765 126.573C141.676 126.573 135.887 133.55 133.348 135.188C129.465 137.691 124.826 136.572 120.614 135.156C117.319 137.82 115.472 138.819 108.65 141.155C105.614 142.194 105.839 141.766 107.082 143.632C108.266 145.405 109.478 146.868 113.428 151.287C115.825 153.962 117.477 156.21 116.367 159.389C116.043 160.32 115.917 160.211 117.324 159.61C120.683 158.175 125.251 156.724 128.795 156.868C132.904 157.036 134.009 158.044 137.539 159.119C139.035 159.557 140.455 160.223 141.748 161.093C143.223 162.082 143.216 162.197 141.096 159.563C139.425 157.488 138.389 156.258 134.107 151.287C131.042 147.728 130.548 147.005 130.548 146.056C130.548 145.057 131.4 144.544 132.773 144.699C135.133 144.978 141.219 147.105 145.072 148.999C154.8 153.785 166.821 164.923 163.908 163.446C154.307 158.595 153.495 154.595 137.825 148.931L134.019 147.535L136.327 150.152C143.862 158.444 153.662 172.452 158.196 181.424C161.316 187.584 159.875 186.361 154.651 181.592C152.34 179.484 149.028 176.553 147.809 175.53C147.028 174.875 147.236 174.777 146.816 176.832C145.701 182.328 142.554 187.952 138.881 194.255C136.238 198.791 136.271 198.231 137.267 198.242L143.627 198.791C146.558 199.051 162.163 199.898 168.329 200.135C179.704 200.568 204.329 200.241 213.038 199.253C227.275 197.637 224.524 203.285 223.516 217.899C223.4 219.672 222.873 220.559 221.756 220.861C215.023 222.679 179.855 222.541 173.151 222.302C162.715 221.921 155.685 221.521 150.933 221.026C149.977 220.928 149.174 220.869 149.142 220.9L148.746 234.404C147.497 258.861 140.626 279.905 121.741 293.32C109.445 302.056 94.4578 305.427 79.1383 304.744V304.735ZM87.4043 301.965C109.814 300.699 128.615 289.613 138.048 269.792C142.776 259.869 145.192 249.046 145.968 234.347C146.098 231.948 146.38 220.604 146.314 220.54C146.249 220.476 139.273 219.638 138.964 219.638C138.796 219.638 138.77 220.125 138.708 223.465C138.518 233.505 137.853 234.423 128.983 235.672C124.934 236.24 117.528 236.586 113.601 236.395C110.434 236.227 111.374 235.951 109.517 238.38C108.702 239.447 108.039 240.431 107.992 240.652C107.792 241.574 108.234 244.32 108.906 246.333C111.497 254.094 116.775 258.819 117.897 263.325C119.241 268.7 115.22 270.54 110.545 269.733C104.074 268.615 97.9107 264.85 93.4451 260.37C89.6094 256.513 86.0373 251.421 85.8694 249.54C85.5788 246.331 93.2066 239.857 95.2774 236.309C97.3111 232.827 98.3624 235.397 101.723 236.947L106.266 238.322C115.269 226.492 119.291 220.696 127.68 207.279C131.418 201.299 137.539 191.1 139.457 187.655C143.74 179.96 147.955 169.245 140.611 163.671C138.735 162.25 135.825 161.046 134.251 161.051C126.492 161.061 120.109 171.233 118.618 180.015C118.297 181.912 118.161 182.244 119.054 180.509C121.768 175.236 125.727 170.283 129.433 167.525C130.677 166.601 132.374 165.486 132.83 166.042C132.988 166.233 132.211 167.176 129.356 170.228C122.381 177.697 119.783 183.796 116.147 196.37C113.998 203.802 110.486 212.925 109.231 214.358C108.541 215.146 107.443 215.084 107.089 214.236C106.85 213.668 106.936 213.369 107.957 211.195C110.007 206.819 111.542 202.527 113.835 194.742C115.662 188.56 115.895 189.29 114.515 189.859C109.326 192.004 100.621 193.583 95.1514 194.028C93.8364 194.136 94.0228 193.825 94.6996 195.895C97.5546 204.644 98.8881 217.397 98.4934 227.594C98.3439 231.458 98.2297 231.901 97.3077 232.18C96.7552 232.348 96.3085 232.18 95.939 231.676C95.6535 231.291 95.6485 231.185 95.8265 227.587C96.3471 216.986 94.928 204.758 91.4399 194.378C88.234 194.29 88.7025 194.01 89.2567 195.623C91.9723 203.442 93.6685 219.117 93.6685 227.107C93.6685 235.096 93.2604 233.447 83.8491 234.162C72.2461 235.046 56.888 234.513 47.5741 232C46.165 231.621 46.3229 231.402 46.9308 232.954C47.8612 235.306 49.4499 240.252 49.4499 240.791C49.4499 240.88 49.7119 241.144 50.0344 241.382C54.4663 244.651 57.4506 252.179 57.1231 257.302C56.9652 259.77 55.882 261.458 52.8474 263.961C49.2165 266.958 44.7863 269.196 40.45 270.217C35.8317 271.309 30.3888 270.486 28.5834 265.959C28.1199 264.795 28.2072 262.189 28.6506 260.86C30.3501 255.764 35.0323 251.703 36.4917 245.91C36.8629 244.446 36.8931 244.918 36.4917 243.882C34.3505 238.471 31.6013 233.467 27.8176 227.287C23.473 227.179 18.7942 226.49 14.3925 225C13.6972 224.763 13.0943 224.616 13.049 224.664C12.829 224.904 10.9816 230.208 10.2948 232.58C6.92086 244.186 7.27186 253.793 11.3864 263.026C17.4742 276.661 31.0353 288.634 48.1652 295.469C60.1141 300.242 74.8223 302.674 87.4228 301.96L87.4043 301.965ZM39.5768 267.724C43.9012 266.866 53.7945 261.794 54.117 257.329L54.1808 256.462L53.0825 257.506C47.8931 262.438 36.1676 269.161 31.2621 264.334L30.733 263.815C31.5727 267.889 35.6537 268.492 39.5768 267.724ZM114.421 266.747C114.975 266.438 115.044 266.174 115.217 265.739C113.008 265.739 112.575 265.907 110.515 265.218C103.689 262.928 94.9079 255.127 90.2324 248.537C89.779 247.893 89.3541 247.4 89.292 247.438C89.0989 247.556 88.4842 248.969 88.4842 249.286C88.4842 249.849 90.3198 252.646 92.372 255.213C97.3699 261.465 106.543 267.692 113.029 267.098C113.507 267.07 113.975 266.947 114.406 266.737L114.421 266.747ZM37.716 263.086C42.7391 262.046 48.7228 257.754 52.4947 254.015C53.8382 252.684 53.7845 252.926 53.1581 251.04C52.3049 248.478 48.9831 242.604 46.9443 242.851C44.7611 243.121 42.1143 243.885 40.5491 244.707C37.8621 246.12 39.6994 246.469 36.7436 251.695L32.4393 258.539C32.09 259.547 32.226 261.623 33.3462 262.478C34.3118 263.216 35.9593 263.444 37.7126 263.083L37.716 263.086ZM114.622 263.086L114.893 263.031C113.484 260.225 109.29 254.428 107.713 251.129C106.442 248.503 105.7 245.652 105.53 242.74C105.431 240.668 105.757 241.019 103.777 240.457C96.1826 238.296 98.1071 236.482 96.7435 238.565C95.9693 239.741 94.829 241.098 92.7347 243.324C91.7926 244.315 91.0251 245.174 91.0201 245.229C90.9663 246.346 106.638 264.716 114.614 263.083L114.622 263.086ZM39.8992 241.831C41.6004 240.977 44.002 240.252 45.7553 240.064C46.1953 240.017 46.553 239.926 46.553 239.864C46.553 239.397 45.0617 235.305 42.2218 227.97C40.9236 224.61 39.6792 220.864 38.3458 216.262C33.6754 200.135 28.1787 186.343 19.3467 174.572C17.5363 172.16 15.474 169.365 19.0108 172.43C23.3773 176.22 26.4607 180.391 29.8967 187.176C30.9043 189.152 30.9043 189.639 31.0857 186.363C31.4468 180.007 28.4659 173.26 23.2832 169.816C21.7986 168.83 19.4811 167.633 17.7513 167.36C16.2029 167.125 12.881 167.093 11.5375 167.305C7.6027 167.925 5.59413 169.223 4.71917 171.716C2.76435 177.285 8.78499 189.945 13.5847 198.477C15.7679 202.372 15.7243 202.263 15.6571 202.875C15.511 204.219 14.1204 204.029 13.7543 203.832C13.1985 203.535 11.1613 199.999 10.3401 198.485C9.03522 205.001 7.96545 215.035 8.62713 217.563C8.99492 218.968 9.74057 219.895 11.205 220.755C15.5463 223.3 26.2423 224.973 26.0139 224.389C25.4715 223.008 20.9338 216.855 22.0237 215.653C22.6753 214.939 23.6158 215.779 25.8091 219.032C29.6162 224.686 36.3422 236.418 38.3626 241.302C38.8932 242.582 38.6884 242.439 39.8925 241.832L39.8992 241.831ZM119.929 233.856C125.772 233.63 129.949 233.127 133.079 232.271C135.178 231.698 135.536 231.239 135.934 228.622C136.461 225.094 136.332 215.64 135.669 209.206C135.501 207.486 134.674 201.647 134.6 201.581C134.582 201.561 134.008 202.456 133.326 203.567C127.651 212.806 117.885 227.271 112.973 233.804L119.936 233.863L119.929 233.856ZM80.8379 231.694C84.6115 231.478 87.0517 231.29 87.0517 231.214C87.0517 230.808 75.2438 224.038 75.2438 223.129L79.1232 224.525C83.2462 225.933 85.5167 226.957 87.6562 228.37C88.3851 228.854 88.9813 229.195 88.9813 229.131C88.9813 228.775 87.5807 226.369 85.4126 222.991C81.0142 216.151 79.8991 213.71 79.0309 209.025C78.695 207.189 78.527 204.956 78.695 204.637C78.784 204.477 79.0544 205.097 79.9226 207.42C83.4158 216.807 87.144 220.283 90.3349 226.235C90.6053 226.739 90.8521 227.075 90.8807 227.001C90.9512 226.784 90.6876 221.335 90.476 218.61C89.7639 209.574 88.1147 200.247 86.2506 194.388C83.7668 194.106 83.6962 194.17 80.2954 193.183C78.4481 192.648 79.1551 192.703 77.2826 192.928C70.9832 193.689 68.0459 192.693 64.5091 193.326L55.8081 194.232C52.713 198.398 50.8002 201.959 49.3357 207.761C48.4618 211.354 47.8339 215.002 47.4565 218.681L47.2886 229.114C53.4167 230.653 58.3155 231.479 66.1902 231.802C69.1123 231.925 77.9191 231.857 80.8396 231.689L80.8379 231.694ZM44.7308 218.489C45.6092 209.06 47.8797 200.639 52.7214 194.322H50.2157C45.3623 200.654 42.2151 210.953 42.2117 218.859C42.2117 221.508 42.9557 222.7 44.3227 226.317L44.7376 218.489H44.7308ZM204.175 218.847C213.463 218.65 217.217 218.439 219.38 217.987C220.446 217.768 220.317 218.019 220.619 215.534C221.306 209.823 221.576 205.255 221.303 203.978C220.992 202.535 220.675 202.241 219.13 201.962C217.774 201.719 216.229 201.754 213.287 202.092C194.369 204.259 158.327 203.558 138.858 201.736C137.897 201.645 137.096 201.581 137.081 201.598C137.066 201.615 137.266 203.11 137.528 204.932L138.614 216.344C150.232 218.16 159.891 218.477 173.324 218.958C174.909 219.013 200.698 218.917 204.175 218.843V218.847ZM41.2545 207.106C45.3472 192.76 49.5809 194.339 45.0163 194.153C41.9766 194.023 38.6027 193.756 35.6117 193.409C32.2059 193.01 32.535 192.643 33.5746 195.008C35.9006 200.299 37.9813 206.263 39.9563 212.814L41.2578 207.103L41.2545 207.106ZM91.5038 191.483C101.547 190.865 105.597 189.904 115.606 186.805C115.606 175.901 119.279 165.356 128.921 159.578C124.857 159.831 121.4 160.834 115.088 163.705C113.922 164.236 113.895 164.258 113.072 165.33C106.479 173.998 95.2874 179.556 84.0187 181.826C81.2863 182.379 72.6727 183.699 70.8001 182.876C68.6455 181.925 69.2064 180.586 72.9733 180.579C74.0598 180.579 79.355 180.035 81.3182 179.721C91.1628 178.152 101.15 173.65 107.962 166.897C111.962 162.934 114.538 158.306 113.793 156.443C112.81 154.002 106.494 148.548 104.084 143.78C103.604 142.829 104.207 142.453 100.012 144.558C89.5859 149.792 93.6399 157.97 87.322 168.889C86.8451 169.712 85.3068 171.782 84.2773 171.782C84.0079 171.794 83.7431 171.709 83.5308 171.543C83.3186 171.376 83.1729 171.139 83.1202 170.875C83.0261 170.381 83.2445 169.984 84.5175 168.355C89.7454 161.615 87.9569 151.869 93.8415 145.754C102.709 136.542 120.787 140.499 123.859 123.56C124.623 119.36 124.003 114.219 122.658 110.121C122.154 108.552 120.952 105.842 120.779 105.842C120.265 105.842 112.496 112.108 110.897 112.108C110.177 112.108 108.592 110.114 108.168 109.553L84.7123 125.224C83.2881 126.182 83.4813 125.93 83.8927 127.477C87.0382 139.286 72.9833 148.213 63.5451 140.382C62.2873 139.339 63.0648 139.937 59.5935 141.868C59.4424 141.954 60.6213 144.523 62.4115 145.868C65.1103 147.896 67.2012 150.908 67.2129 154.18C67.2129 156.868 66.5109 156.356 66.2053 157.73C65.6796 160.035 63.7651 158.738 64.6435 159.974C65.8627 161.683 66.7461 165.274 64.6435 166.358C62.5845 167.411 61.5953 165.036 61.3283 166.087C60.9471 167.614 58.8479 168.158 56.8947 167.238C52.1403 164.994 49.4382 157.355 43.2328 153.631C41.2427 152.437 42.074 152.778 38.549 152.697L29.0184 152.282C28.6926 152.353 30.9413 155.874 33.1262 158.709C37.983 165.015 43.0867 169.909 48.5548 173.507C49.6884 174.25 49.853 174.45 49.8648 175.091C49.9101 177.147 47.5858 176.171 45.8678 174.97C45.0768 174.418 40.7221 172.188 37.5934 170.735C31.1562 167.745 25.9854 166.127 22.0405 165.864C37.8621 174.9 33.0489 189.842 33.6921 190.242C33.9306 190.397 39.6103 191.023 42.8197 191.25C48.4206 191.65 54.0443 191.61 59.6388 191.129C56.2649 189.859 51.6617 187.695 49.151 185.948C44.7846 182.913 47.2516 183.966 51.6264 185.624C66.0693 191.095 73.1664 192.564 88.7227 187.766C91.5776 186.886 93.0404 186.491 93.4569 186.491C94.6711 186.491 89.1895 189.775 85.9097 190.968L84.4654 191.493H91.5189L91.5038 191.483ZM152.825 176.617C152.083 175.389 146.976 166.994 146.753 167.223C146.783 167.509 146.845 167.79 146.937 168.063L147.419 172.363L153.065 177.075C153.006 176.912 152.926 176.758 152.825 176.617ZM36.4732 166.685C32.1706 162.252 32.9331 161.387 32.9331 165.951L37.5632 167.913C37.6219 167.913 37.1316 167.364 36.4732 166.685ZM59.0561 164.735C58.9654 163.949 58.3743 162.796 57.5312 161.772C56.4614 160.47 53.3025 156.335 53.3025 155.85C53.3025 155.188 57.501 157.743 59.1518 159.41C60.2989 160.565 64.0691 165.793 63.7013 163.228C63.2428 160.036 54.1472 152.106 58.4566 154.116C60.3039 154.975 63.6761 158.454 63.8827 156.989C64.0624 155.712 60.5021 151.38 61.5315 151.185C61.8674 151.123 63.2109 152.072 64.0825 152.986C64.9877 153.947 65.0549 153.869 64.5612 152.389C62.9893 147.686 57.8033 145.472 52.8188 144.4C49.7203 143.728 46.1701 142.482 45.6528 141.865C44.9811 141.076 45.5134 139.681 47.1643 140.308C48.496 140.812 47.7034 140.676 45.7032 136.651C44.5629 134.348 44.8534 133.805 48.3483 131.71C51.697 129.694 51.9052 129.79 53.19 131.878C54.2866 133.659 53.3025 133.847 59.0494 130.104C59.664 123.171 64.5914 118.123 71.623 118.09C73.9473 118.078 74.164 118.258 76.0986 118.762L98.2516 104.517C102.731 101.765 102.578 102.106 102.008 101.358C100.965 99.9742 100.609 99.0922 101.738 98.1918C102.049 97.9449 107.599 94.3281 108.948 93.4983C109.678 93.0481 109.698 93.0229 109.493 92.7994C109.126 92.3963 107.532 91.3917 106.398 90.8508C97.9476 86.8073 87.6915 88.0286 80.9118 94.738C72.629 102.934 73.6098 112.278 65.2312 111.827C61.7163 111.639 58.1778 110.601 52.8776 110.462C45.3035 110.26 35.1096 112.051 33.9004 116.207L28.1753 130.756C26.0374 135.245 24.175 130.519 16.5959 134.788C13.6301 136.456 11.2957 139.957 11.9742 143.244C12.1421 144.037 12.9113 145.667 13.4017 146.253C14.772 147.891 18.062 148.784 25.1003 149.424L40.1645 150.473C39.8119 149.524 39.7783 147.807 40.0571 146.802C42.2168 150.988 44.5008 151.306 47.4918 153.742C50.6608 156.32 55.84 165.252 58.7706 165.277C59.1065 165.277 59.1166 165.277 59.0561 164.748V164.735ZM55.7964 142.285C56.181 142.047 56.5101 141.835 56.5336 141.815C56.5891 141.771 55.3295 139.715 55.2002 139.631C55.1078 139.574 52.1605 141.311 52.0463 141.496C51.6785 142.102 54.7333 142.646 55.0171 142.705C55.2936 142.596 55.5554 142.454 55.7964 142.28V142.285ZM9.61294 139.71C10.943 133.852 17.7345 130.657 23.829 130.113C26.7596 129.852 19.2527 129.164 15.8721 129.763C9.13263 130.959 3.66787 135.307 9.24347 141.418L9.61294 139.71ZM73.7559 140.849C76.0906 140.378 78.1903 139.113 79.6979 137.269C81.2055 135.425 82.0279 133.115 82.0252 130.733C82.0252 129.469 81.6994 127.359 81.508 127.445L64.8702 138.532C64.8601 138.734 68.8319 141.855 73.771 140.85L73.7559 140.849ZM60.1528 139.527L61.7146 138.495L60.2787 136.219L57.155 138.299C58.9117 141.188 58.1425 140.84 60.1528 139.527ZM54.2883 138.134L52.9112 135.846C48.5095 138.247 49.0049 137.499 50.162 139.115L51.0017 140.291L54.29 138.131L54.2883 138.134ZM68.8503 133.834C73.855 130.548 80.3122 126.209 80.6296 125.91C81.0831 125.485 79.2005 123.558 79.1938 123.558C79.0762 123.558 62.6164 134.569 62.3444 134.831C61.9749 135.188 63.5502 137.183 63.6509 137.183C63.703 137.183 66.0407 135.671 68.8571 133.837L68.8503 133.834ZM58.2701 135.705C59.9646 134.571 59.7917 135.179 59.0158 132.137C54.1976 135.181 54.6275 134.321 55.7829 136.128C56.3959 137.086 56.144 137.136 58.2701 135.705ZM50.2477 135.435C51.1932 134.915 51.9657 134.448 51.9657 134.398C51.9657 134.289 51.1142 132.841 51.0471 132.841L47.6278 135.041C48.6237 136.859 48.0493 136.637 50.2477 135.435ZM65.2212 131.032C67.1088 129.755 70.7296 127.304 73.2638 125.572C78.7739 121.816 78.3692 122.491 75.7544 121.107L61.2276 130.717L61.7179 133.405C61.7616 133.375 63.3419 132.31 65.2329 131.04L65.2212 131.032ZM68.3751 123.906C73.514 120.475 73.5376 120.455 73.0875 120.378C68.7496 119.662 64.2891 122.204 62.299 126.147C62.0505 126.634 61.4862 128.245 61.4862 128.453C61.4862 128.508 61.5181 128.485 68.3717 123.902L68.3751 123.906ZM96.4781 115.279C103.558 110.567 107.026 108.19 106.971 108.096C106.88 107.938 105.868 106.584 105.711 106.396C105.555 106.208 93.0992 114.102 84.4536 119.923C79.8303 123.03 81.0948 121.372 82.7037 124.514L96.4748 115.274L96.4781 115.279ZM81.7162 119.8C86.4353 116.539 97.6705 109.198 103.459 105.592C104.774 104.774 104.684 104.967 104.017 104.08C103.673 103.621 103.456 103.436 103.33 103.487L78.087 119.58C78.0165 119.644 79.6791 120.966 79.9025 121.021C79.9193 121.021 80.7304 120.475 81.7112 119.8H81.7162ZM147.795 109.553C148.692 108.94 148.691 108.059 148.791 106.998C145.777 109.518 141.558 106.883 139.101 103.828L138.386 102.936C138.386 108.33 146.099 110.683 147.79 109.553H147.795ZM130.553 109.034C132.09 108.253 133.035 106.628 134.794 103.913C136.824 100.777 136.231 100.759 137.096 99.3224C137.696 98.3262 137.506 98.6588 137.432 96.5909C137.338 93.8561 137.858 93.9905 134.921 96.0029L122.905 104.249L124.44 107.377C124.868 108.468 125.152 107.255 127.463 108.854C128.657 109.672 129.198 109.704 130.54 109.022L130.553 109.034ZM113.356 107.858L128.988 96.989L135.813 92.4366L135.276 91.7109L110.42 108.054C111.747 109.398 111.27 109.343 113.364 107.858H113.356ZM111.04 105.59L134.281 90.6996L132.77 89.2045C129.46 91.605 124.119 94.9463 111.777 102.511C109.645 103.818 107.895 104.918 107.895 104.948C107.895 105.054 109.238 106.684 109.331 106.684C109.383 106.684 110.147 106.18 111.037 105.58L111.04 105.59ZM146.979 105.802C148.635 105.093 149.687 102.019 150.083 96.7488C150.462 91.7092 152.159 88.966 150.553 84.4522C149.561 81.6535 148.173 79.4881 145.807 77.0607C142.934 74.1025 141.111 72.8106 139.823 72.8106C137.602 72.8106 142.41 76.2493 143.506 78.0182C144.25 79.221 145.055 78.1358 146.648 79.4898C148.328 80.9143 150.029 87.5146 149.221 87.5146C149.045 87.5146 147.913 86.2127 147.661 85.7171C146.383 83.1973 146.432 80.7279 144.166 80.4473C143.558 80.3734 141.096 80.5498 140.455 80.7178C139.867 80.874 142.091 81.756 143.715 84.4857C145.78 87.9564 145.369 90.4846 142.153 85.9204C140.87 84.0927 136.666 80.024 135.417 81.9139C134.866 82.7538 136.972 83.9196 137.817 84.6285C141.679 87.8724 142.374 91.0121 141.646 91.0121C140.599 91.0104 136.129 84.7025 133.541 84.8956C131.935 85.0116 133.744 87.1097 135.919 89.3288C139.496 92.9876 139.484 92.9557 139.531 96.8059C139.566 99.8683 139.708 100.755 140.32 101.827C141.869 104.54 145.236 106.547 146.973 105.798L146.979 105.802ZM65.4109 102.198C65.1725 101.001 64.6317 98.973 64.1329 97.4023C62.7642 93.127 57.4842 86.846 52.1084 83.1116C49.7673 81.4855 50.9681 80.2374 50.4072 77.5227C46.1751 79.4041 43.9667 77.6588 41.9061 79.4697C37.5245 83.3182 50.9748 89.9067 50.4374 90.2057C49.4164 90.7819 41.2242 87.6389 39.3719 84.0019C39.2039 83.666 39.0192 83.4375 38.9638 83.498L36.3154 87.7514L42.0253 90.1032C49.3441 92.8918 60.2535 97.9986 64.9222 102.818C65.7132 103.631 65.6645 103.49 65.4042 102.198H65.4109ZM114.679 98.5832L131.614 87.9194L131.059 86.9199C130.973 86.683 130.874 86.7267 129.403 87.6439L105.732 102.008L106.907 103.374C107.001 103.339 110.501 101.19 114.686 98.5866L114.679 98.5832ZM107.493 98.8654L123.439 89.1222C130.352 84.9427 130.701 84.7193 130.829 84.3144C131.48 82.2532 132.918 83.419 133.092 82.0315C133.19 81.2486 133.26 81.2755 132.649 81.6955C131.01 82.8025 104.17 99.3526 104.158 99.7255C104.158 99.8196 104.65 100.534 104.716 100.534C104.731 100.534 105.984 99.7843 107.493 98.8654ZM68.3885 96.7992C72.231 88.4351 87.6999 78.7137 81.6608 75.4884C79.9512 74.5745 77.3766 74.1646 74.651 74.3729C71.3039 74.6283 71.5609 74.3578 72.4275 76.0528C73.2672 77.6924 73.1479 77.0439 72.9598 78.66C72.3385 84.0053 69.1795 88.0672 67.8393 94.1349C67.5303 95.5359 67.1575 98.3699 67.1676 99.2602C67.1676 100.213 67.8226 98.0406 68.3919 96.7891L68.3885 96.7992ZM65.2312 93.085C65.2464 91.2943 69.5792 83.0999 69.7656 79.6192C69.853 78.0216 69.9873 78.7104 68.9612 76.8171C67.5891 74.2973 66.0844 70.4672 65.5906 68.0818C65.201 66.1953 65.3841 68.7756 59.1417 70.5815C55.4252 71.6566 52.4745 70.899 52.6307 71.4214C53.5779 74.6132 53.8063 77.8637 53.9356 81.2755C58.1341 84.7646 61.6608 87.874 64.4738 92.4618C65.023 93.3571 65.2262 93.5251 65.2262 93.085H65.2312ZM118.367 87.612L137.825 75.4632C137.959 75.3305 135.751 72.6191 137.993 71.0837C139.239 70.2253 141.464 70.4118 142.967 71.5037C143.698 72.0312 143.427 71.9086 146.395 70.0406C149.88 67.8466 157.326 62.8406 158.183 62.7801L158.686 62.7449C159.59 60.1696 159.677 59.5128 161.226 57.7053C160.515 56.2824 160.06 54.9536 161.469 53.2822C163.011 51.4528 168.057 50.0904 169.157 53.5442C169.258 53.8634 170.152 53.5442 169.997 52.9764C169.71 51.9215 169.811 50.2769 170.875 49.2438L171.319 48.8171C161.746 44.2814 149.253 40.0817 138.201 37.9752C120.097 34.518 102.322 35.2286 85.5133 40.0817C81.8338 41.1518 74.7988 43.5708 74.4579 43.8866C73.9708 44.3436 74.567 48.2627 70.8807 48.854C71.4047 55.7264 71.2418 59.454 67.7621 64.8615L70.523 72.2378C70.6523 72.3823 82.6147 70.1749 85.2497 75.6715L85.6107 76.4241C88.815 76.4241 93.027 76.965 98.4195 78.0569C102.618 78.9086 104.586 79.8661 106.751 82.1104C108.022 83.4291 111.549 87.5566 112.84 89.2398C114.061 90.8323 113.176 90.8441 118.367 87.612ZM154.231 79.5016L163.07 73.1013L162.574 72.347C160.455 73.8757 151.075 80.2021 151.243 80.4457L151.757 81.247L154.224 79.5016H154.231ZM138.503 79.5637C138.503 79.0917 141.159 78.7473 141.229 78.6768L139.991 77.3833C137.247 79.0161 136.742 79.0782 137.775 79.4579C138.446 79.7048 138.503 79.7132 138.503 79.5637ZM152.061 77.7864L161.751 71.1829L161.071 70.358L149.829 78.3072C149.829 78.4752 150.249 78.959 150.362 78.917C150.437 78.8884 151.201 78.3794 152.061 77.7864ZM150.699 75.5488L160.104 68.9973L159.44 68.1373C159.246 68.2011 147.916 75.7655 147.908 75.8361C147.891 75.9906 148.684 76.8927 148.801 76.844C148.869 76.8222 149.723 76.2326 150.696 75.5371L150.699 75.5488ZM151.309 71.3492L158.384 66.5296C157.64 65.5217 158.421 65.389 154.196 68.2095L145.701 73.6943C146.808 74.6854 145.908 74.9021 151.312 71.3424L151.309 71.3492ZM166.8 70.9376C172.399 66.9462 174.056 70.4857 176.167 69.4845C178.172 68.532 184.818 59.4154 186.791 58.4259C189.618 57.0098 192.053 60.6282 195.087 57.5474C197.867 54.7252 197.203 51.2394 193.515 50.2063C190.185 49.274 184.193 50.4415 180.645 51.6745C177.03 52.9277 168.529 56.5613 165.014 58.3537C163.264 59.2457 162.865 59.5817 162.336 60.5997C161.907 61.4194 160.616 64.8363 160.7 64.9186L164.202 62.7214C164.521 62.5366 164.653 62.3703 164.653 62.1754C164.653 60.4233 168.378 57.5725 170.597 60.1595C171.376 61.07 171.436 62.2426 171.045 63.2875L175.485 60.9827C174.552 60.1343 173.997 59.711 173.997 58.2848C173.997 54.3203 180.762 53.6114 180.73 57.922C180.718 59.3868 179.953 60.5291 178.56 61.1641L163.575 69.204C164.378 70.4202 164.092 70.3564 165.402 69.5147C165.953 69.162 169.087 67.2772 172.365 65.3352C179.346 61.1943 178.411 61.7689 182.166 59.3045C185.108 57.3693 185.152 57.3374 184.818 57.1979C182.119 56.059 182.821 52.0827 185.464 51.1823C188.015 50.3121 190.526 52.6018 189.663 55.1922C189.317 56.227 188.556 56.9174 185.59 58.8879C182.472 60.9608 181.185 61.7437 175.375 65.1504L165.154 71.3038C165.11 71.3424 165.407 71.8464 165.475 71.8464C165.501 71.8464 166.094 71.4332 166.796 70.9309L166.8 70.9376ZM56.3808 68.0969C59.0679 67.7257 62.0908 66.3213 63.9918 64.5692C70.6423 58.4058 67.6613 46.1612 65.3354 36.7086C65.1674 36.0232 63.9919 33.3488 63.3688 32.2603C61.8758 29.6229 59.8001 28.2723 57.862 28.6838C55.2775 29.2315 54.8559 31.1549 45.8308 31.8269C41.4745 32.1511 38.2618 32.8079 36.9569 36.811C36.27 38.9142 36.5807 44.1655 36.9854 46.1394C37.2071 47.238 38.8076 51.7148 39.7968 54.0095C43.0128 61.4715 48.2576 69.2359 56.3825 68.1003L56.3808 68.0969ZM54.5654 61.8562L52.7802 61.0314C55.3564 60.9256 56.2028 61.0818 58.4532 59.9092C59.0645 59.5917 59.5666 59.3902 59.5666 59.4691C59.5666 60.2402 57.2256 62.7936 54.5654 61.8562ZM53.7878 59.6606C50.9177 59.0911 47.3876 54.9385 47.4061 54.9167C47.4246 54.8948 47.9586 54.9637 48.5481 55.1099C52.844 56.1648 57.763 54.5001 61.2511 52.2642C62.2856 51.6023 62.514 51.3117 61.948 52.328C60.9807 54.0667 60.6834 56.3597 59.0309 58.0396C58.3614 58.7264 57.5302 59.234 56.6135 59.5158C55.6968 59.7976 54.724 59.8445 53.7845 59.6522L53.7878 59.6606ZM56.9535 57.7624C58.1207 57.1862 58.6329 56.358 59.2207 55.1888C56.4077 56.7545 55.1901 56.9762 51.9136 57.2047C53.5309 58.1639 55.1045 58.6729 56.9518 57.7657L56.9535 57.7624ZM53.0909 52.4254C52.1622 51.9618 50.9345 49.7376 52.7416 50.6985C54.0011 51.3705 54.5117 51.4074 55.1129 50.754C55.7443 50.0669 55.8417 49.3177 56.0181 49.274C56.1944 49.2303 57.0257 51.2898 55.3631 52.4053C54.8223 52.7715 53.8097 52.7782 53.0909 52.4254ZM44.5259 48.3937C43.9314 47.9754 42.7928 45.3801 44.2522 44.3956C46.1147 43.1357 47.4431 47.1422 45.9064 48.3702C45.5823 48.6289 44.8837 48.6407 44.5259 48.3937ZM59.1367 44.1756C58.1291 43.1156 58.1475 40.9838 59.1602 40.5252C61.3686 39.5173 62.1428 44.6023 60.0184 44.6023C59.6271 44.6023 59.4659 44.525 59.1367 44.1756ZM38.5288 41.5382C38.8647 38.4472 42.9339 36.2735 45.673 37.6375C46.2389 37.9164 46.8486 38.548 46.956 38.9529C47.1777 39.8029 43.2815 37.7484 38.9184 41.817L38.4516 42.2521L38.5288 41.5382ZM53.7929 37.7635C53.0254 34.985 55.9324 31.7378 59.1669 32.3006C61.2511 32.6651 62.1898 33.7721 62.6097 35.447L59.57 34.518C55.8888 34.13 54.3555 38.2137 54.0733 38.2137C53.9877 38.2137 53.8617 38.0105 53.7912 37.7635H53.7929ZM163.995 67.3292L166.989 65.5402L165.046 64.2332L161.763 66.5851C161.763 66.8085 162.771 68.0969 162.897 68.0247C162.967 67.981 163.461 67.6669 163.99 67.3259L163.995 67.3292ZM168.417 63.0993C169.781 62.4039 169.035 60.6501 167.428 61.6664C166.333 62.3602 166.858 63.8872 168.417 63.0993ZM178.016 58.8996C178.747 58.2831 178.577 57.2752 177.749 57.2752C175.002 57.2752 176.636 60.0621 178.016 58.8996ZM163.725 56.1531C164.497 55.76 166.862 54.9184 166.915 54.443C167.083 53.0621 162.455 53.9827 162.986 56.0237C163.117 56.5277 163.075 56.489 163.72 56.1531H163.725ZM186.952 55.1451C187.905 54.6513 187.693 53.2771 186.665 53.2771C186.161 53.2771 185.261 53.8987 185.261 54.2346C185.261 55.1418 186.101 55.5886 186.952 55.1451ZM36.6261 54.2699L34.4915 46.8886C33.8601 44.5368 33.7728 44.3436 33.1783 44.1034C31.6063 43.4633 31.3141 50.3189 34.0751 53.1948C34.8845 54.0347 36.1558 54.5723 36.6261 54.2699ZM174.234 51.6443C176.129 50.8699 176.219 50.9287 175.885 50.507C175.4 49.8955 172.123 49.9779 172.123 51.7468C172.123 52.7228 172.137 52.5161 174.234 51.6443ZM183.904 48.0863C185.681 47.5958 185.584 47.6546 184.939 47.1708C184.223 46.6265 182.705 46.6315 182.138 47.6344C181.946 47.9704 182.048 48.634 182.284 48.5483C182.361 48.5164 183.091 48.3097 183.904 48.0863ZM71.2166 45.8336C72.4258 44.0328 71.4635 36.6649 69.638 35.6855C69.0569 35.3747 68.4154 36.1088 68.2945 37.2243C68.1971 38.0273 70.0427 44.3587 70.2963 45.6052C70.4794 46.5224 70.8001 46.4333 71.2183 45.8336H71.2166ZM32.5669 33.7553C33.3277 28.4503 34.8291 25.104 38.2198 21.9643C39.7581 20.5398 35.909 22.6934 35.8116 22.7606C33.5007 24.3766 31.7239 28.9476 31.8851 32.8482C31.9993 35.5494 32.268 35.7947 32.5669 33.7553ZM65.1271 25.8482C62.2369 20.0476 59.7379 19.2782 55.0507 19.2967C59.8555 21.2034 61.4811 22.008 64.6703 26.2144C66.1616 28.1832 66.0659 27.7397 65.1288 25.8499L65.1271 25.8482ZM42.818 16.6257L50.3299 15.6346C48.5666 14.1042 45.0751 14.4587 42.8533 15.5086C42.0807 15.8731 40.9975 17.2187 41.7029 16.9415C41.8171 16.8945 42.3192 16.7517 42.818 16.6257ZM51.2402 8.79751C51.6953 7.37298 51.8548 6.46417 51.8515 5.37225C51.8515 4.61967 51.608 3.08595 51.4719 2.95157L49.6985 12.2362C49.722 12.5033 50.8993 9.87263 51.2402 8.79751ZM210.383 181.839C215.945 174.91 220.124 171.08 233.846 160.337C236.004 158.645 237.757 157.244 237.741 157.224C237.643 157.107 232.521 158.12 229.008 158.948C221.644 160.681 215.316 162.942 210.42 165.59C208.511 166.623 208.126 166.737 207.874 166.337C207.575 165.862 210.6 160.528 213.327 156.718C216.663 152.052 221.892 146.013 226.259 140.968C231.515 134.904 236.011 130.632 239.4 128.473C241.954 126.849 241.583 127.275 240.125 128.794C230.729 138.556 221.956 150.3 214.389 160.591C221.051 157.715 228.664 156.11 237.534 154.296C240.275 153.737 244.2 152.82 244.2 155.015C244.2 156.082 243.886 156.381 239.437 159.551C232.689 164.345 229.174 167.068 218.691 175.595C215.5 178.189 211.764 181.112 210.157 182.266C210.022 182.365 210.128 182.172 210.392 181.846L210.383 181.839Z" fill="#3F170D"/>
</g>
<defs>
<clipPath id="clip0_159_5189">
<rect width="268" height="310" fill="white"/>
</clipPath>
</defs>
</svg>
