<svg width="360" height="800" viewBox="0 0 360 800" fill="none" xmlns="http://www.w3.org/2000/svg">
<path d="M95.7322 739.614C105.959 742.509 115.367 727.689 106.305 720.734C83.4286 703.05 92.7428 662.521 98.8789 637.883C100.735 630.425 103.19 624.478 111.466 622.149C121.787 619.286 131.101 621.772 132.611 632.659C132.759 633.902 132.843 635.152 132.863 636.404C130.267 635.385 127.489 634.909 124.702 635.007C121.914 635.104 119.176 635.772 116.658 636.97C101.27 644.144 102.718 663.024 113.291 673.818C116.489 676.957 120.321 679.377 124.53 680.915C128.739 682.454 133.228 683.076 137.697 682.739C142.165 682.402 146.511 681.115 150.442 678.963C154.373 676.811 157.799 673.845 160.491 670.262C166.62 661.891 169.767 651.708 169.43 641.338C169.094 630.969 165.293 621.011 158.634 613.055C129.937 580.896 76.4431 596.598 54.259 627.876C23.3587 671.174 46.235 725.517 95.7322 739.614ZM125.972 664.661C127.042 666.328 127.797 667.398 126.318 668.909C124.325 668.041 122.59 666.672 121.283 664.935C119.976 663.198 119.141 661.152 118.86 658.997C118.577 656.864 118.802 654.694 119.519 652.664C120.235 650.635 121.422 648.805 122.982 647.323C123.895 646.442 125.626 645.844 126.129 646.976C124.43 652.766 122.668 659.5 126.035 664.629L125.972 664.661ZM55.6751 680.174C54.2386 673.188 54.1211 665.995 55.3288 658.965C55.8367 654.727 56.9825 650.589 58.7273 646.693C60.6782 642.634 66.4681 634.106 71.5658 635.176C63.6676 649.777 58.7273 664.378 62.1257 681.244C62.6292 683.73 63.2901 686.215 63.9509 688.701C64.0593 688.944 64.1153 689.207 64.1153 689.472C64.1153 689.738 64.0593 690.001 63.9509 690.243C63.4474 691.03 62.22 690.715 61.4334 690.243C58.347 687.7 56.3169 684.1 55.7379 680.142L55.6751 680.174Z" fill="#29E23C08"/>
<path d="M39.7842 611.765C39.6074 608.07 38.046 604.576 35.4105 601.979C25.2152 592.539 12.125 606.259 22.0056 616.485C23.2015 617.701 24.6523 618.636 26.2535 619.223C32.3581 621.551 40.4765 619.695 39.7842 611.765ZM22.8238 615.982L22.5405 615.699L22.8238 615.982Z" fill="#29E23C08"/>
<path d="M5.10813 640.148C5.37433 637.704 6.35062 635.391 7.9164 633.495C9.48217 631.6 11.5688 630.204 13.9188 629.481C16.0635 628.924 18.3144 628.92 20.4608 629.471C22.6072 630.021 24.5789 631.107 26.1909 632.628C26.7427 633.163 27.2382 633.753 27.6697 634.39C29.185 635.765 30.2766 637.545 30.8164 639.519C31.2623 641.031 31.403 642.617 31.2305 644.184C31.0579 645.751 30.5756 647.269 29.8114 648.648C29.0472 650.027 28.0164 651.24 26.779 652.217C25.5416 653.195 24.1223 653.916 22.6036 654.34C20.7276 654.848 18.764 654.945 16.8469 654.625C14.9298 654.305 13.1045 653.574 11.4958 652.483L11.9679 652.861L11.4015 652.577C9.54089 651.507 7.97351 649.994 6.83876 648.172C5.33819 645.783 4.7256 642.943 5.10813 640.148Z" fill="#29E23C08"/>
<path d="M66.3793 260.399C72.8465 262.23 78.7963 252.857 73.0654 248.46C58.5988 237.276 64.4889 211.647 68.3692 196.066C69.5433 191.35 71.0954 187.589 76.3288 186.116C82.8557 184.305 88.7458 185.877 89.7009 192.762C89.7942 193.548 89.8474 194.339 89.8601 195.13C88.2183 194.486 86.4618 194.185 84.6991 194.247C82.9364 194.309 81.2051 194.731 79.6122 195.489C69.8816 200.025 70.797 211.965 77.483 218.79C79.5055 220.775 81.9286 222.306 84.5904 223.279C87.2521 224.252 90.0909 224.645 92.9169 224.432C95.7429 224.219 98.4908 223.405 100.977 222.044C103.463 220.683 105.629 218.807 107.332 216.542C111.207 211.248 113.198 204.808 112.985 198.251C112.772 191.694 110.368 185.397 106.157 180.365C88.0095 160.029 54.1813 169.958 40.1525 189.738C20.6117 217.119 35.0782 251.484 66.3793 260.399ZM85.5022 213C86.1788 214.054 86.6564 214.731 85.7211 215.686C84.4607 215.137 83.3638 214.272 82.5373 213.173C81.7108 212.075 81.183 210.781 81.0051 209.418C80.8257 208.069 80.9684 206.697 81.4215 205.413C81.8746 204.13 82.6252 202.973 83.6118 202.035C84.1889 201.478 85.2833 201.1 85.6017 201.816C84.5272 205.478 83.4129 209.736 85.5421 212.98L85.5022 213ZM41.048 222.81C40.1396 218.392 40.0652 213.843 40.829 209.398C41.1502 206.718 41.8748 204.101 42.9781 201.637C44.2119 199.07 47.8733 193.678 51.0969 194.354C46.1023 203.587 42.9782 212.821 45.1272 223.486C45.4456 225.058 45.8635 226.63 46.2814 228.202C46.35 228.356 46.3854 228.522 46.3854 228.69C46.3854 228.858 46.35 229.024 46.2814 229.177C45.963 229.675 45.1869 229.476 44.6894 229.177C42.7376 227.569 41.4538 225.292 41.0877 222.79L41.048 222.81Z" fill="#29E23C08"/>
<path d="M30.9988 179.549C30.887 177.212 29.8996 175.003 28.2329 173.361C21.7857 167.391 13.5077 176.067 19.756 182.534C20.5122 183.303 21.4297 183.894 22.4423 184.266C26.3027 185.738 31.4366 184.564 30.9988 179.549ZM20.2734 182.216L20.0942 182.037L20.2734 182.216Z" fill="#29E23C08"/>
<path d="M9.07023 197.498C9.23857 195.953 9.85596 194.49 10.8461 193.291C11.8363 192.092 13.1558 191.21 14.6419 190.753C15.9982 190.4 17.4217 190.398 18.779 190.746C20.1363 191.094 21.3832 191.781 22.4026 192.742C22.7515 193.081 23.0649 193.454 23.3378 193.857C24.296 194.727 24.9863 195.852 25.3277 197.1C25.6096 198.057 25.6986 199.06 25.5895 200.051C25.4804 201.042 25.1754 202.001 24.6921 202.873C24.2088 203.745 23.557 204.513 22.7745 205.131C21.992 205.749 21.0945 206.205 20.1341 206.473C18.9477 206.794 17.7059 206.856 16.4936 206.653C15.2813 206.451 14.127 205.989 13.1097 205.299L13.4082 205.537L13.05 205.358C11.8734 204.682 10.8822 203.725 10.1647 202.573C9.21572 201.062 8.82833 199.266 9.07023 197.498Z" fill="#29E23C08"/>
<path d="M351.368 579.732C345.767 564.88 340.155 550.017 334.533 535.144C329.373 521.424 324.191 507.705 318.988 493.985C317.933 490.035 315.746 486.481 312.695 483.759C307.66 480.171 300.643 481.682 295.105 484.388C271.348 495.873 244.444 500.121 219.963 510.946C212.253 514.344 210.303 520.858 212.317 528.662C215.715 541.972 220.435 554.936 223.896 568.247C227.357 581.557 231.322 594.71 235.381 607.863C236.137 610.318 237.395 613.433 238.528 616.643C236.697 614.803 234.42 613.469 231.92 612.772C213.04 607.14 204.638 631.338 213.26 644.679C224.242 661.64 251.02 664.094 259.988 643.861C268.642 624.289 254.797 599.808 248.031 581.746C243.689 570.135 238.591 558.901 233.934 547.384C231.952 542.255 230.19 537.032 228.364 531.871C227.227 529.369 226.291 526.781 225.564 524.13C227.672 519.662 242.713 522.305 246.646 521.959C256.03 521.209 265.253 519.088 274.023 515.666C282.865 512.204 291.109 507.422 299.794 503.551C301.808 502.639 304.325 501.852 306.087 503.236C306.904 504.051 307.481 505.074 307.755 506.194C309.832 512.488 314.048 519.41 308.007 524.162C302.689 528.315 289.536 527.749 282.833 529.511C273.802 531.934 276.76 546.818 285.98 545.717C296.292 544.613 306.16 540.934 314.678 535.018C315.684 537.755 316.691 540.493 317.824 543.136C322.387 555.314 326.289 568.31 331.292 580.519C324.59 581.966 317.604 581.715 313.073 588.417C311.773 590.357 310.894 592.547 310.493 594.847C310.092 597.147 310.177 599.506 310.743 601.771C311.31 604.036 312.344 606.157 313.781 607.998C315.217 609.839 317.023 611.358 319.083 612.458C333.652 620.796 354.987 610.16 354.672 592.665C354.326 588.195 353.208 583.82 351.368 579.732ZM229.434 629.481C227.549 630.691 226.001 632.359 224.934 634.329C223.866 636.298 223.315 638.506 223.33 640.746C221.61 639.201 220.42 637.154 219.929 634.895C219.438 632.636 219.67 630.279 220.592 628.159C222.48 624.006 236.766 616.548 238.182 623.188C238.217 623.543 238.217 623.902 238.182 624.258C238.308 628.096 231.731 628.002 229.434 629.481ZM267.194 502.922C272.229 500.751 304.955 483.318 307.094 491.562C308.982 498.674 272.544 500.656 267.194 502.953V502.922ZM329.624 589.361C328.586 589.644 327.484 589.833 326.478 590.148C324.065 590.774 321.82 591.923 319.901 593.515C318.894 594.427 317.824 595.623 316.44 595.434C316.286 594.743 316.294 594.025 316.463 593.337C316.632 592.649 316.958 592.01 317.415 591.469C318.352 590.407 319.499 589.55 320.782 588.952C322.243 588.049 323.874 587.455 325.573 587.206C327.272 586.957 329.004 587.059 330.663 587.504C331.19 587.66 331.726 587.786 332.268 587.882C331.526 588.399 330.748 588.861 329.939 589.267L329.624 589.361Z" fill="#29E23C08"/>
<path d="M419.497 117.085C413.896 102.233 408.285 87.3697 402.663 72.4965C397.502 58.777 392.321 45.0575 387.118 31.338C386.063 27.3882 383.875 23.8334 380.825 21.1113C375.79 17.5241 368.773 19.0345 363.235 21.7407C339.478 33.226 312.573 37.474 288.092 48.2985C280.383 51.6969 278.432 58.2106 280.446 66.0143C283.845 79.3248 288.564 92.2891 292.026 105.6C295.487 118.91 299.452 132.063 303.511 145.216C304.266 147.671 305.525 150.786 306.658 153.995C304.827 152.156 302.55 150.822 300.05 150.125C281.17 144.492 272.768 168.69 281.39 182.032C292.372 198.993 319.15 201.447 328.118 181.214C336.771 161.642 322.926 137.161 316.161 119.099C311.818 107.487 306.721 96.2539 302.064 84.7371C300.081 79.608 298.319 74.3845 296.494 69.224C295.357 66.722 294.421 64.1335 293.694 61.4831C295.802 57.0148 310.843 59.658 314.776 59.3119C324.16 58.5614 333.383 56.4411 342.152 53.0185C350.995 49.5572 359.239 44.7743 367.923 40.9039C369.937 39.9914 372.455 39.2047 374.217 40.5892C375.033 41.4038 375.61 42.427 375.885 43.5471C377.961 49.8405 382.178 56.7631 376.136 61.5146C370.818 65.6682 357.665 65.1018 350.963 66.864C341.932 69.2869 344.89 84.1707 354.11 83.0693C364.421 81.9661 374.29 78.2871 382.807 72.3707C383.814 75.1083 384.821 77.8458 385.954 80.489C390.517 92.6667 394.418 105.662 399.422 117.872C392.719 119.319 385.734 119.067 381.202 125.77C379.903 127.709 379.024 129.9 378.623 132.2C378.221 134.5 378.307 136.859 378.873 139.124C379.439 141.389 380.474 143.51 381.91 145.351C383.347 147.191 385.153 148.711 387.213 149.81C401.782 158.149 423.116 147.513 422.802 130.018C422.456 125.548 421.338 121.173 419.497 117.085ZM297.564 166.834C295.679 168.044 294.131 169.712 293.063 171.681C291.996 173.651 291.444 175.859 291.46 178.099C289.74 176.554 288.55 174.507 288.059 172.248C287.567 169.988 287.799 167.632 288.722 165.512C290.61 161.359 304.896 153.901 306.312 160.54C306.347 160.896 306.347 161.255 306.312 161.61C306.438 165.449 299.861 165.355 297.564 166.834ZM335.324 40.2745C340.359 38.1033 373.084 20.6708 375.224 28.9151C377.112 36.0266 340.673 38.009 335.324 40.306V40.2745ZM397.754 126.714C396.715 126.997 395.614 127.186 394.607 127.5C392.195 128.127 389.949 129.276 388.031 130.867C387.024 131.78 385.954 132.976 384.569 132.787C384.415 132.095 384.423 131.378 384.593 130.69C384.762 130.002 385.088 129.363 385.545 128.822C386.482 127.76 387.628 126.903 388.912 126.305C390.373 125.402 392.003 124.808 393.703 124.559C395.402 124.31 397.134 124.412 398.793 124.857C399.32 125.013 399.856 125.139 400.397 125.235C399.655 125.751 398.877 126.214 398.069 126.619L397.754 126.714Z" fill="#29E23C08"/>
<path d="M182.297 468.151C197.842 452.451 208.939 432.905 214.456 411.511C220.277 387.691 210.523 364.562 195.576 346.249C199.046 344.615 202.086 342.19 204.45 339.169C205.601 337.643 206.197 335.769 206.14 333.859C206.082 331.948 205.375 330.114 204.135 328.659C199.446 324.222 192.052 329.099 187.615 333.788C163.637 359.213 139.125 383.915 115.241 409.308C105.518 419.629 95.9523 430.108 86.0717 440.271C81.79 445.171 76.9895 449.592 71.7544 453.456C66.2477 440.303 51.9303 432.531 35.8507 440.869C11.7787 453.456 25.0263 485.678 45.9831 492.947C75.8136 503.268 98.2494 459.655 114.801 441.31L152.561 399.239L159.578 391.435C160.263 394.524 161.124 397.571 162.158 400.56C166.532 412.958 174.43 417.93 181.479 427.874C189.346 438.981 184.217 454.085 177.609 464.029C177.18 464.663 176.997 465.432 177.094 466.192C177.191 466.951 177.562 467.649 178.138 468.155C178.713 468.66 179.452 468.939 180.218 468.938C180.984 468.938 181.723 468.658 182.297 468.151ZM66.8141 466.924C65.5869 467.522 63.0067 466.924 62.755 465.697C60.2129 463.161 57.0057 461.396 53.5035 460.606C50.0014 459.815 46.347 460.031 42.9623 461.228C41.9239 461.637 40.5079 462.015 39.8156 461.228C39.6604 460.942 39.5638 460.627 39.5313 460.303C39.4989 459.979 39.5314 459.652 39.6268 459.34C40.3347 456.767 41.8584 454.492 43.969 452.858C46.0797 451.224 48.6635 450.318 51.3325 450.278C54.0053 450.336 56.6145 451.104 58.8927 452.503C61.1709 453.902 63.0361 455.881 64.2968 458.239C65.902 460.855 66.7717 463.855 66.8141 466.924ZM196.709 389.988C195.041 382.908 185.821 369.66 186.514 363.146C186.633 362.354 187.002 361.621 187.569 361.055C188.135 360.489 188.868 360.119 189.66 360C190.458 359.923 191.258 360.123 191.926 360.566C198.219 364.342 202.971 385.74 203.6 390.648C205.205 403.235 200.076 412.235 198.88 423.909C200.075 412.56 199.341 401.091 196.709 389.988Z" fill="#29E23C08"/>
<path opacity="0.16" d="M131.157 696.848C101.333 712.163 -2.6646 812.779 148.945 937.272C205.733 977.808 264.83 984.14 328.639 928.891C392.448 873.643 368.963 824.293 434.212 790.788C518.722 747.392 519.871 656.919 466.356 592.172C411.975 526.375 279.403 591.496 248.58 636.551C217.757 681.606 181.577 670.957 131.157 696.848Z" fill="white"/>
<path opacity="0.16" d="M383.723 -50.5699C375.192 -72.9391 311.93 -154.643 211.68 -56.7946C178.456 -19.6662 169.328 21.7835 203.54 71.4057C237.751 121.028 274.62 108.228 293.285 157.168C317.461 220.553 381.587 228.463 431.739 195.556C482.704 162.115 446.876 62.9127 417.314 37.5027C387.751 12.0926 398.147 -12.7528 383.723 -50.5699Z" fill="white"/>
<path opacity="0.16" d="M128.86 299.101C129.511 272.475 98.8476 161.682 -45.6253 220.129C-95.488 244.338 -122.367 283.159 -108.078 348.672C-93.7882 414.186 -50.4345 416.56 -51.8608 474.813C-53.708 550.262 8.97086 585.451 74.4796 572.728C141.05 559.799 146.009 442.563 126.293 403.936C106.577 365.308 127.757 344.116 128.86 299.101Z" fill="white"/>
</svg>
