<svg width="44" height="44" viewBox="0 0 44 44" fill="none" xmlns="http://www.w3.org/2000/svg">
<g clip-path="url(#clip0_159_7622)">
<path d="M38.009 3.96829H5.99098C3.16586 3.96829 0.875549 6.25861 0.875549 9.08373V38.8846C0.875549 41.7097 3.16586 44 5.99098 44H38.009C40.8341 44 43.1245 41.7097 43.1245 38.8846V9.08373C43.1245 6.25846 40.8341 3.96829 38.009 3.96829Z" fill="#FFD284"/>
<path d="M43.1245 13.5796V7.38148C43.1245 4.55637 40.8341 2.26605 38.009 2.26605H5.99098C3.16586 2.26605 0.875549 4.55637 0.875549 7.38148V13.5796H43.1245Z" fill="#3F170D"/>
<path d="M43.1245 14.736V9.08372C43.1245 6.25861 40.8341 3.96829 38.009 3.96829H5.99098C3.16586 3.96829 0.875549 6.25861 0.875549 9.08372V14.736H43.1245Z" fill="#3F170D"/>
<path d="M9.25452 6.71558C8.26848 6.71558 7.46915 7.51491 7.46915 8.50095C7.46915 9.48699 8.26848 10.2862 9.25452 10.2862C10.2406 10.2862 11.0398 9.48684 11.0398 8.50095C11.0399 7.51491 10.2406 6.71558 9.25452 6.71558Z" fill="#3F170D"/>
<path d="M9.25452 0C8.72707 0 8.29938 0.427696 8.29938 0.955143V8.39693C8.29938 8.92453 8.72707 9.35208 9.25452 9.35208C9.78197 9.35208 10.2097 8.92453 10.2097 8.39693V0.955143C10.2097 0.427696 9.78212 0 9.25452 0V0Z" fill="#FFD284"/>
<path d="M17.7515 6.71558C16.7655 6.71558 15.9661 7.51491 15.9661 8.50095C15.9661 9.48699 16.7655 10.2862 17.7515 10.2862C18.7375 10.2862 19.5367 9.48684 19.5367 8.50095C19.5369 7.51491 18.7375 6.71558 17.7515 6.71558Z" fill="#3F170D"/>
<path d="M17.7515 0C17.2241 0 16.7964 0.427696 16.7964 0.955143V8.39693C16.7964 8.92453 17.2241 9.35208 17.7515 9.35208C18.2789 9.35208 18.7066 8.92453 18.7066 8.39693V0.955143C18.7066 0.427696 18.2789 0 17.7515 0V0Z" fill="#FFD284"/>
<path d="M26.2485 6.71558C25.2624 6.71558 24.4631 7.51491 24.4631 8.50095C24.4631 9.48699 25.2624 10.2862 26.2485 10.2862C27.2345 10.2862 28.0337 9.48684 28.0337 8.50095C28.0337 7.51491 27.2345 6.71558 26.2485 6.71558Z" fill="#3F170D"/>
<path d="M26.2485 0C25.721 0 25.2933 0.427696 25.2933 0.955143V8.39693C25.2933 8.92453 25.721 9.35208 26.2485 9.35208C26.7759 9.35208 27.2036 8.92453 27.2036 8.39693V0.955143C27.2036 0.427696 26.7759 0 26.2485 0V0Z" fill="#FFD284"/>
<path d="M34.7455 6.71558C33.7594 6.71558 32.9601 7.51491 32.9601 8.50095C32.9601 9.48699 33.7594 10.2862 34.7455 10.2862C35.7315 10.2862 36.5307 9.48684 36.5307 8.50095C36.5307 7.51491 35.7314 6.71558 34.7455 6.71558Z" fill="#3F170D"/>
<path d="M34.7453 0C34.2179 0 33.7902 0.427696 33.7902 0.955143V8.39693C33.7902 8.92453 34.2179 9.35208 34.7453 9.35208C35.2728 9.35208 35.7005 8.92453 35.7005 8.39693V0.955143C35.7005 0.427696 35.2729 0 34.7453 0V0Z" fill="#FFD284"/>
<path d="M19 28C19 26.8954 19.8954 26 21 26H23C24.1046 26 25 26.8954 25 28V30C25 31.1046 24.1046 32 23 32H21C19.8954 32 19 31.1046 19 30V28Z" fill="#E23C08"/>
</g>
<defs>
<clipPath id="clip0_159_7622">
<rect width="44" height="44" fill="white"/>
</clipPath>
</defs>
</svg>
