<svg width="22" height="22" viewBox="0 0 22 22" fill="currentColor" xmlns="http://www.w3.org/2000/svg">
<path d="M21.0375 21.0375C20.2126 21.8625 18.8375 21.8625 18.0125 21.0375L11.0001 14.0251L3.98758 21.0375C3.16261 21.8625 1.78754 21.8625 0.962568 21.0375C0.137599 20.2126 0.137599 18.8375 0.962568 18.0125L7.97504 11.0001L0.962568 3.98758C0.137599 3.16261 0.137599 1.78754 0.962568 0.962568C1.78754 0.137599 3.16261 0.137599 3.98758 0.962568L11.0001 7.97504L18.0125 0.962568C18.8375 0.137599 20.2126 0.137599 21.0375 0.962568C21.8625 1.78754 21.8625 3.16261 21.0375 3.98758L14.0251 11.0001L21.0375 18.0125C21.8625 18.8375 21.8625 20.2125 21.0375 21.0375Z" />
</svg>
