<svg width="230" height="278" viewBox="0 0 230 278" fill="none" xmlns="http://www.w3.org/2000/svg">
  <path fill-rule="evenodd" clip-rule="evenodd" d="M49.4141 256.464C56.9723 258.404 63.7641 260.175 75.1464 260.426C100.528 260.984 126.823 254.931 150.81 243.893L148.589 211.04C147.82 200.426 147.975 198.015 144.061 195.265C141.325 193.342 141.041 192.955 137.137 193.628C134.807 194.029 131.077 194.831 125.616 195.566C120.155 196.301 112.965 196.971 106.34 197.305C99.7143 197.639 93.653 197.632 89.3594 195.265C85.0658 192.898 82.5334 188.146 79.7694 185.373C77.0053 182.6 74.0163 181.792 69.1487 180.155C64.2811 178.518 57.561 176.044 53.2332 173.07C48.9053 170.096 46.9746 166.619 45.4417 162.676C43.9089 158.732 42.7788 154.319 43.2452 149.374C43.7116 144.429 45.776 138.945 48.0737 135.503C51.94 129.71 56.4424 129.484 61.1567 128.418C62.489 128.117 62.9504 127.783 64.9529 123.907C66.9554 120.031 70.4793 112.612 73.3102 107.53C78.9801 97.353 83.1481 95.6752 91.9212 89.9836C94.651 88.2059 95.7175 87.2762 96.616 85.0041C100.389 75.4625 93.6416 69.496 93.3204 61.3818C93.0693 55.0322 97.7689 43.3479 102.778 40.773C109.29 37.4272 124.695 40.773 125.293 53.4657C125.456 56.9687 124.605 59.0312 125.628 59.9577C127.911 62.0529 127.345 67.2665 126.151 68.5056C124.644 70.0689 124.656 68.5466 123.772 71.3457C122.562 75.1744 121.204 79.0474 117.901 81.7908C114.784 84.3706 113.746 82.9825 113.989 86.8456C114.268 91.2653 112.098 88.4171 119.824 92.1689C125.644 94.9942 127.183 97.3497 130.696 103.449C134.12 109.399 138.197 116.813 140.584 122.699C141.486 124.928 141.039 124.094 140.118 125.942C139.373 127.433 144.77 135.817 146.559 137.79C147.758 139.109 148.69 139.644 150.688 140.347C152.686 141.049 155.743 141.916 157.431 142.368C159.119 142.82 159.411 142.859 162.424 142.602C164.277 142.448 167.153 142.186 169.845 141.969C159.29 131.82 153.623 124.824 148.58 110.964C145.289 101.923 142.59 90.8937 139.687 77.5709C136.785 64.248 133.68 48.645 128.635 37.9166C117.272 13.7574 90.015 1.839 66.8625 19.7387C58.8639 25.9213 52.6543 35.7477 48.2335 46.0079C40.3948 64.2022 36.1044 91.686 29.6436 111.247C21.3173 136.413 11.0309 140.741 4.32718 162.686C0.345041 175.719 -1.81399 193.967 1.96431 209.441C5.74262 224.915 15.4648 237.614 24.4906 245.022C33.5165 252.431 41.8542 254.531 49.4141 256.469V256.464ZM188.349 219.532C197.945 210.176 204.646 198.968 202.963 186.794C201.107 173.371 189.917 161.234 178.843 150.541C174.441 152.309 158.033 153.324 151.104 154.38C145.628 155.215 134.94 157.02 129.613 157.94C124.286 158.86 124.318 158.893 124.385 159.741C124.652 163.178 125.332 165.563 127.348 168.598C128.048 169.651 128.447 169.95 131.56 170.386C139.128 171.441 152.046 172.379 160.309 174.044C169.782 175.954 171.801 177.907 175.791 186.648C180.218 196.341 184.887 208.629 188.347 219.527L188.349 219.532Z" fill="white"/>
  <path fill-rule="evenodd" clip-rule="evenodd" d="M146.021 254.737L144.04 263.994C143.94 264.855 143.991 264.955 145.396 265.515C155.181 269.409 169.531 272.647 180.13 270.98C182.943 270.537 184.194 271.255 184.734 270.863C185.273 270.47 185.327 269.807 183.894 269.226C172.512 264.606 168.402 262.287 162.669 255.287C160.629 252.799 161.004 253.254 158.581 253.75C153.539 254.785 151.834 255.291 147.361 253.809C146.554 253.542 146.37 253.659 146.021 254.737Z" fill="#E23C08"/>
  <path fill-rule="evenodd" clip-rule="evenodd" d="M175.685 245.898L174.995 252.497C175.06 253.222 180.502 253.926 183.393 254.297C190.821 255.242 197.464 255.844 204.993 255.558C207.399 255.468 207.829 254.13 205.251 253.52C196.85 251.529 189.223 247.64 186.431 245.481C183.78 243.432 186.883 243.427 177.607 244.612C176.168 244.795 175.934 244.826 175.685 245.902V245.898Z" fill="#E23C08"/>
  <path fill-rule="evenodd" clip-rule="evenodd" d="M133.162 129.697L130.602 131.137C130.006 131.389 128.987 134.902 127.42 135.258C125.356 135.724 124.393 137.415 125.129 139.252C125.944 141.268 126.859 145.012 128.599 146.389C129.119 146.799 129.529 146.925 133.002 146.682C134.796 146.555 150.044 145.293 150.669 144.807C150.922 144.609 145.058 143.558 142.631 142.11C138.391 139.576 136.087 134.424 134.898 130.348C134.476 128.896 134.386 128.937 133.165 129.694L133.162 129.697Z" fill="#F7CEBF"/>
  <path fill-rule="evenodd" clip-rule="evenodd" d="M165.949 219.933C168.722 226.029 171.026 232.177 173.356 239.347C175.686 246.517 174.685 246.004 177.385 245.84C180.086 245.677 186.206 245.5 188.148 243.483C188.58 243.033 188.614 242.799 186.017 234.878C183.419 226.957 178.189 211.349 174.181 200.755C170.173 190.161 167.371 184.579 164.841 181.253C161.656 177.065 158.571 176.26 154.208 175.45C161.323 178.85 162.295 183.834 163.658 195.153C164.5 202.158 165.402 212.695 165.958 219.926L165.949 219.933Z" fill="#3F170D"/>
  <path fill-rule="evenodd" clip-rule="evenodd" d="M85.9988 203.309C85.0937 203.014 83.1222 202.693 82.1373 202.587C81.1524 202.481 81.1589 202.587 80.0321 210.341C78.9053 218.095 74.3899 250.734 72.6809 257.05C71.8966 259.938 70.2659 263.028 72.7608 264.858C75.0161 266.51 78.4797 265.631 79.3668 262.424C79.7663 260.981 79.5005 259.27 79.3928 258.067C79.1336 255.147 84.6746 217.944 85.4655 212.561C86.744 203.872 86.9038 203.605 85.9988 203.31V203.309ZM125.894 199.498L122.844 200.943L132.99 239.761C135.029 247.663 135.055 248.11 134.882 248.928C134.709 249.746 134.336 250.919 134.681 252.23C136.128 257.702 143.21 256.22 142.447 251.495C142.103 249.367 140.147 246.757 139.348 245.111L128.612 206.735C126.564 199.334 126.518 199.267 125.894 199.498ZM115.672 202.531C114.58 202.721 113.5 202.976 112.437 203.292C111.645 203.533 111.658 203.62 112.543 211.944C113.241 218.499 117.14 252.287 116.465 256.862C116.153 258.979 115.831 260.981 117.305 262.811C119.717 265.803 122.639 263.957 123.457 261.794C124.119 260.048 122.741 256.505 122.246 254.441C121.584 251.69 116.957 203.165 116.659 202.652C116.612 202.572 116.519 202.412 115.672 202.531ZM102.25 203.468L98.6806 203.762L94.6528 240.603C93.4119 252.272 94.1408 247.05 92.4677 251.806C90.5468 257.27 99.5237 260.57 99.7667 253.651C99.8189 252.127 99.3932 250.308 99.1813 249.211C98.9693 248.114 98.9676 247.738 99.633 240.336C100.298 232.934 101.631 218.494 102.296 211.138C102.961 203.782 102.963 203.518 102.25 203.464V203.468Z" fill="white"/>
  <path fill-rule="evenodd" clip-rule="evenodd" d="M83.0535 193.216C80.9336 193.466 76.3987 193.906 75.916 196.584C75.4839 198.997 78.1843 201.153 81.3299 202.058C90.01 204.558 114.492 203.489 123.467 200.634C126.402 199.701 128.755 198.085 127.881 196.483C127.689 196.129 127.392 196.023 123.92 196.403C116.985 197.164 102.064 199.419 94.9999 198.241C89.7491 197.365 87.8249 195.103 85.1783 193.428C84.6059 193.068 84.2994 193.068 83.0584 193.216H83.0535Z" fill="#E23C08"/>
  <path fill-rule="evenodd" clip-rule="evenodd" d="M144.056 244.151C144.219 250.087 144.136 247.869 144.188 249.632C144.25 251.699 144.527 252.514 147.092 253.888C151.51 256.245 161.998 258.635 161.848 253.807C161.243 234.382 159.076 211.279 155.428 191.911C153.659 182.525 150.822 180.808 142.19 178.832C135.214 177.236 127.791 176.617 120.716 176.257C118.291 176.134 121.838 174.085 120.869 176.191C118.912 180.447 111.367 180.521 106.519 179.909C99.4337 179.014 100.451 177.858 94.615 178.051C89.4277 178.215 81.62 185.957 77.8189 188.558C72.9529 191.896 72.2827 191.141 73.3981 192.95C74.1436 194.178 74.9989 195.334 75.9534 196.406C76.5926 193.882 80.9857 193.459 83.0534 193.21C85.4244 192.931 84.8961 193.399 88.0808 195.483C93.7882 199.221 99.8821 198.907 108.244 198.149C113.789 197.648 120.443 196.779 123.92 196.398C127.397 196.016 127.689 196.124 127.881 196.478C128.605 197.805 126.989 199.213 125.109 200.023C128.641 199.467 131.516 199.025 133.29 198.786C137.266 198.252 135.8 198.604 137.099 200.377C137.791 201.32 139.35 202.038 140.198 201.901C140.524 201.848 140.524 201.608 140.984 204.775C142.823 217.656 143.677 230.432 144.046 244.146L144.056 244.151Z" fill="#3F170D"/>
  <path fill-rule="evenodd" clip-rule="evenodd" d="M105.467 153.093C104.107 153.203 104.401 152.71 104.748 155.259L106.128 165.365L109.831 164.874C109.785 164.618 109.76 164.358 109.758 164.098C109.745 162.676 110.423 161.271 110.899 160.589C111.375 159.906 111.638 159.949 113.743 159.734C115.848 159.52 119.79 159.052 121.861 158.811C123.932 158.57 124.13 158.557 124.184 158.832C124.238 159.107 124.145 159.667 124.277 160.903C124.35 161.575 124.465 162.242 124.62 162.9L182.043 155.234C197.184 153.203 197.184 153.203 197.171 153.203L195.905 143.845L186.134 144.843C186.225 145.105 186.31 145.39 186.389 145.698C186.795 147.31 187.007 149.556 186.868 150.946C186.729 152.335 186.235 152.871 185.436 153.285C184.637 153.699 183.532 153.993 182.206 154.247C180.904 154.497 179.591 154.68 178.271 154.796C177.204 154.876 176.619 154.822 175.954 154.943C175.288 155.064 174.542 155.357 173.317 155.504C172.092 155.652 170.382 155.652 169.002 155.27C167.907 154.949 166.887 154.409 166.005 153.682C165.459 153.242 165.433 153.121 166.091 153.028C166.75 152.934 168.095 152.848 168.901 152.659C169.707 152.471 169.974 152.178 170.113 150.615C170.209 149.554 170.245 147.909 170.3 146.465L105.467 153.093Z" fill="#3F170D"/>
  <path fill-rule="evenodd" clip-rule="evenodd" d="M111.511 148.056C112.147 146.147 113.828 145.164 115.819 144.506C115.131 139.087 119.103 137.56 123.61 136.616C123.917 136.535 124.233 136.491 124.55 136.485C122.332 133.574 116.908 131.107 110.027 132.674C102.095 134.475 95.3685 139.767 89.7882 141.215C85.7947 142.253 80.9173 141.425 75.7317 140.209L85.9773 150.917C88.3744 153.43 88.5342 153.536 89.8127 153.864C93.8894 154.888 97.5487 156.047 100.249 159.906C101.262 161.349 101.607 162.633 101.594 163.328C101.55 165.599 95.644 160.999 95.1614 162.754C94.4487 165.35 101.41 168.146 102.499 168.729C103.478 169.256 103.069 170.757 102.78 171.603C102.222 173.24 97.8879 171.037 96.8132 170.909C95.8348 170.791 95.3766 171.808 92.231 170.012C83.2231 164.87 88.1249 162.607 85.0674 160.775C84.2406 160.284 82.7486 159.691 79.2997 157.992C72.5372 154.664 57.0571 147.175 57.5577 138.658C57.5989 138.005 57.7044 137.358 57.8724 136.725C46.8799 136.247 39.5875 142.466 38.1753 154.404C36.9474 164.782 39.1847 182.742 45.7743 191.184C52.0296 199.195 60.8093 199.532 69.8384 195.276C73.4634 193.569 77.3771 191.091 80.7559 189.136C78.2413 185.535 78.8985 186.92 84.2178 183.273C88.0108 180.672 90.783 178.149 95.9702 177.979C100.477 177.83 109.065 180.527 115.023 180.031C112.075 176.921 104.99 176.988 104.601 172.441C104.208 167.835 109.383 163.454 112 160.143C105.966 160.947 105.922 160.94 105.891 160.921L104.226 148.762L111.516 148.064L111.511 148.056ZM195.847 146.3C195.933 147.75 196.186 150.518 196.313 151.865C196.44 153.212 196.439 153.15 197.618 154.005C198.796 154.859 201.153 156.638 202.373 157.575C203.592 158.511 203.677 158.603 206.027 157.774C208.377 156.946 213.021 155.195 215.423 154.345C219.598 152.872 217.835 154.307 221.47 155.789C224.405 156.985 228.304 155.267 228.654 150.863C228.938 147.306 225.855 146.352 222.169 145.389C215.465 143.64 207.274 142.224 200.558 142.175C198.121 142.16 198.126 142.417 196.243 144.303C195.837 144.71 195.754 144.844 195.843 146.295L195.847 146.3ZM124.982 141.133C125.797 140.101 125.826 138.811 125.184 137.503L124.982 141.133Z" fill="#FFD284"/>
  <path fill-rule="evenodd" clip-rule="evenodd" d="M94.3999 87.5346C94.1031 86.8798 94.0738 86.906 92.3436 87.7343C83.9635 91.7431 76.9515 95.1119 72.2454 100.047C66.1009 106.488 61.341 115.845 56.9495 125.527C55.1965 129.397 59.8652 124.796 61.5057 125.247C67.5702 126.914 70.5919 128.883 74.1875 133.712C74.6767 134.367 73.8614 132.147 76.1444 132.55L82.9101 133.753C94.3803 135.789 94.726 133.278 105.312 128.801C113.662 125.27 125.251 122.116 129.334 130.687C129.551 131.14 129.605 131.194 131.324 130.286C133.191 129.304 134.538 129.697 135.425 127.945C135.627 127.544 135.627 127.331 134.112 124.095C131.615 118.769 125.641 106.613 121.701 102.252C119.222 99.507 116.594 96.9158 113.885 95.5522C113.549 95.3885 112.978 97.2153 109.631 98.0943C104.778 99.3679 99.2528 94.9662 96.2589 90.8739C95.5214 89.8312 94.8981 88.7116 94.3999 87.5346ZM110.896 160.585C110.423 161.268 109.745 162.672 109.754 164.095C109.764 165.517 110.474 166.963 111.346 167.973C112.102 168.817 113.034 169.483 114.076 169.924C114.891 170.292 115.494 170.453 117.885 170.559C120.276 170.665 124.458 170.723 126.661 170.747C128.865 170.772 129.093 170.773 128.506 169.971C127.919 169.169 126.521 167.565 125.642 165.807C124.763 164.049 124.405 162.137 124.271 160.896C124.137 159.655 124.232 159.096 124.178 158.826C124.124 158.555 123.925 158.564 121.854 158.804C119.783 159.045 115.843 159.516 113.74 159.739C111.636 159.962 111.369 159.912 110.896 160.593V160.585ZM123.615 136.616C122.404 136.87 120.354 137.338 118.834 138.173C117.314 139.007 116.331 140.212 115.951 141.61C115.571 143.008 115.798 144.597 115.99 145.46C116.183 146.323 116.344 146.455 116.643 146.59C116.941 146.724 117.381 146.856 118.679 146.83C120.207 146.782 121.731 146.652 123.245 146.442C124.351 146.269 124.405 146.115 124.618 144.417C124.832 142.72 125.204 139.507 125.204 137.912C125.204 136.318 124.83 136.362 123.619 136.616H123.615Z" fill="#E23C08"/>
  <path fill-rule="evenodd" clip-rule="evenodd" d="M53.3065 143.056C55.6319 150.158 74.4859 160.926 80.901 163.832C84.9566 165.668 81.9072 164.943 83.9994 168.742C85.3985 171.302 88.3615 173.635 91.2967 174.223C93.6954 174.714 94.0852 174.399 97.2096 175.12C99.473 175.64 100.378 174.596 98.7816 172.992C96.9878 171.191 91.794 168.428 92.0566 166.482C92.3305 164.442 97.1574 168.873 97.9825 167.217C98.7131 165.743 96.753 163.059 95.1451 161.669C91.7631 158.757 89.0186 158.369 85.6284 157.361C84.5505 157.033 84.0972 156.718 81.687 154.112C79.2769 151.506 73.0688 145.087 70.8593 142.588C67.8653 139.203 70.326 134.431 71.8181 131.092C72.0643 130.542 72.1019 129.974 71.5066 129.324C69.9233 127.595 63.1445 125.037 61.9117 125.037C61.8758 125.037 61.8725 125.037 63.182 122.851C60.0592 121.511 59.6646 121.532 58.5133 123.527C56.4391 127.129 51.8846 138.716 53.3065 143.059V143.056ZM170.4 144.627C170.268 146.212 170.253 149.047 170.113 150.61C169.973 152.173 169.707 152.468 168.901 152.655C168.096 152.841 166.75 152.923 166.091 153.023C165.433 153.123 165.459 153.244 166.005 153.678C166.888 154.403 167.907 154.942 169.002 155.262C170.39 155.647 172.091 155.647 173.325 155.503C174.56 155.359 175.295 155.061 175.962 154.941C176.629 154.822 177.213 154.874 178.279 154.794C179.599 154.679 180.913 154.496 182.214 154.246C183.54 153.992 184.645 153.697 185.445 153.283C186.244 152.869 186.736 152.334 186.876 150.944C187.016 149.554 186.803 147.309 186.397 145.696C185.991 144.084 185.391 143.11 184.738 142.516C184.086 141.921 183.38 141.707 181.948 141.627C180.105 141.558 178.259 141.598 176.42 141.746C174.483 141.894 172.766 142.134 171.779 142.422C170.793 142.71 170.542 143.043 170.408 144.627H170.4Z" fill="#F7CEBF"/>
  <path fill-rule="evenodd" clip-rule="evenodd" d="M90.385 57.595C81.6951 75.146 92.8669 75.8646 94.8482 78.2872C96.1674 79.8996 92.6892 87.0857 91.9961 88.5114C91.5575 89.4117 92.1413 90.1483 92.9745 91.5446C99.4712 88.2806 96.5979 89.0008 99.6816 93.2797C100.66 94.6302 102.038 95.9938 103.476 96.863C104.085 97.2307 104.734 97.5268 105.41 97.7452C106.901 97.4686 108.124 96.7402 108.417 95.208C108.76 93.4172 107.519 86.7288 107.871 84.1376C108.106 82.4106 113.787 82.2338 116.487 75.9825C119.839 68.2349 119.892 65.8941 119.498 57.7096C119.297 53.5518 118.638 49.525 114.443 46.5867C110.025 43.4962 108.257 44.2247 103.429 44.8221C91.2477 46.3297 93.9709 50.3549 90.3834 57.5901L90.385 57.595Z" fill="#F7CEBF"/>
  <path d="M170.17 277.795C161.318 277.05 151.867 274.829 150.73 273.225C149.175 271.033 151.52 259.491 152.317 255.485C148.956 253.113 149.37 251.809 149.261 246.482C149.199 243.421 149.129 242.063 149.033 242.063L140.91 244.845C140.402 245.191 145.111 249.592 143.673 253.706C142.159 258.032 135.971 258.289 133.714 253.902C132.361 251.274 133.168 247.723 132.768 247.324L123.147 249.316C123.035 249.427 123.658 254.349 123.883 255.151C124.489 257.314 125.676 260.062 124.987 262.225C123.356 267.266 116.111 267.463 114.632 261.756C114.103 259.723 114.947 257.594 114.602 253.305L114.386 250.627L101.503 251.814C101.844 253.534 101.85 254.718 100.75 256.43C97.2291 261.9 90.1633 258.363 90.8939 252.118L80.9972 251.617C80.9728 251.689 80.8048 252.801 80.6271 254.083C79.9128 259.181 81.4865 259.802 80.7477 262.634C79.1497 268.757 69.7259 268.363 69.7602 262.015C69.7732 259.691 71.3207 256.556 71.9078 254.187C72.1573 253.192 72.5601 250.422 72.4785 250.336C72.079 249.935 48.7944 247.409 32.5625 231.221C20.0176 218.712 13.5357 200.621 13.5308 182.386C13.5308 174.422 14.3934 167.583 16.435 159.412C19.2822 148.015 23.1991 139.145 32.4011 123.254C42.725 105.423 43.8029 101.077 49.1156 77.5379C53.8919 56.3841 58.7742 36.7967 68.6007 21.832C78.6197 6.57927 93.6351 -2.37629 110.774 0.552149C115.892 1.42462 122.294 4.1861 127.116 7.60725C144.338 19.8301 148.527 39.771 154.377 67.8457C158.152 85.9648 160.736 95.7109 163.795 103.419C169.873 118.713 178.677 126.68 191.38 138.891L195.025 138.508C195.116 138.466 196.753 136.652 198.092 136.053C198.62 135.814 198.692 135.738 198.692 135.375C198.692 133.723 201.301 131.042 204.16 132.321C205.409 132.88 206.361 134.309 206.361 135.63C206.361 136.234 206.687 136.185 206.79 135.563C207.222 132.839 212.589 132.126 213.639 136.274C214.422 139.376 214.043 133.139 218.676 134.719C221.448 135.661 220.806 138.636 221.396 138.721C221.987 138.806 221.687 136.989 223.828 136.365C225.724 135.814 227.702 136.665 228.206 138.344C228.777 140.248 227.74 140.764 228.547 141.767C230.844 144.619 230.683 149.659 226.129 151.856C220.803 154.427 218.091 149.611 217.119 149.85L205.45 154.147C213.101 163.559 216.538 169.862 216.524 180.713C216.524 183.947 216.486 184.561 216.229 186.02C213.66 200.498 201.665 211.516 190.343 220.355L195.84 238.98C196.786 242.418 197.11 242.717 195.201 244.115C202.681 247.515 213.544 248.028 216.842 253.593C218.102 255.721 218.472 257.6 217.864 258.803C217.489 259.551 217.103 259.786 215.472 260.232C206.912 262.599 192.43 262.061 184.225 260.224C180.921 259.484 180.755 258.497 180.755 254.831C180.774 251.918 181.066 249.013 181.629 246.155C181.754 245.528 180.906 245.76 180.487 245.114C180.293 244.813 175.921 230.607 175.293 229.948L167.836 233.842L167.753 230.568L174.004 227.322C174.258 227.105 174.253 227.085 173.263 224.665L166.546 209.725C166.471 209.807 168.674 227.291 168.448 228.108C167.89 230.12 166.362 229.606 165.879 228.676C165.734 228.396 165.53 226.825 165.185 223.39C164.681 218.39 162.431 199.861 161.734 195.016C160.603 187.115 159.895 184.083 158.533 181.284C155.557 175.165 145.651 173.954 134.888 172.823C130.176 172.332 121.208 171.796 121.208 172.004C121.208 172.089 124.09 175.571 120.538 179.077C114.187 185.345 101.276 178.359 94.0444 179.732C91.9245 180.138 89.7116 181.153 86.9444 183.006C85.5469 183.942 81.0462 186.99 80.9597 187.062C80.7037 187.269 84.0303 192.852 91.7712 195.514C99.5985 198.205 107.137 197.228 117.567 195.465C123.764 194.415 140.782 191.839 142.525 192.027C144.561 192.255 143.503 194.319 145.987 195.019C147.029 195.314 147.736 195.758 147.973 196.268C148.265 196.877 148.751 199.781 149.277 203.993C151.06 218.427 151.741 228.574 152.138 246.538C152.224 250.485 152.275 251.285 152.454 251.673C153.235 253.31 158.38 254.675 162.238 254.254C165.054 253.948 166.411 253.331 168.815 252.29C172.218 253.927 167.207 255.053 183.093 260.663C188.399 262.536 193.117 264.331 194.796 268.813C195.744 271.344 195.736 274.077 194.77 274.934C194.191 275.448 189.585 276.734 186.327 277.286C181.955 278.031 174.912 278.184 170.17 277.787V277.795ZM180.174 275.163C182.747 274.988 191.1 273.876 192.368 272.94C192.6 272.776 192.531 270.344 191.923 270.676C191.036 271.152 186.579 271.933 183.096 272.221C174.454 272.94 160.637 271.327 154.085 269.08C152.956 268.692 152.78 268.034 153.085 271.699C159.52 274.241 171.122 275.791 180.174 275.166V275.163ZM182.917 269.522C186.102 269.276 190.668 268.654 191.054 268.415C191.237 268.299 190.172 267.27 189.206 266.615C184.199 263.264 171.848 261.262 168.334 255.778C164.529 257.32 159.97 257.813 155.614 256.626C155.383 256.552 155.147 256.498 154.907 256.463C154.799 256.698 153.308 265.225 153.308 265.605C153.308 265.985 154.613 266.453 158.279 267.333C164.073 268.73 166.781 269.113 173.511 269.507C176.086 269.656 181.051 269.661 182.92 269.507L182.917 269.522ZM76.053 264.068C79.2932 263.097 77.2336 259.736 77.2336 257.407L84.8701 204.325L82.6116 203.867L78.5822 230.637C74.3114 259.178 74.5984 257.568 73.333 260.052C71.7431 263.172 73.8222 264.732 76.0611 264.068H76.053ZM121.233 262.968C122.875 262.13 122.855 260.224 121.968 258.126C120.571 254.821 120.691 255.494 119.622 245.012L115.415 203.862C115.384 203.837 113.49 204.08 113.466 204.107C113.27 204.407 118.291 254.228 117.565 257.471C116.501 262.218 118.691 264.282 121.233 262.976V262.968ZM208.662 258.435L215.372 257.333C215.588 257.333 215.143 255.816 214.781 255.336C214.71 255.24 214.177 255.286 213.046 255.482C206.291 256.659 198.803 256.811 191.018 255.921L183.599 254.737C183.599 255.458 183.497 256.887 183.819 257.057C186.707 258.571 204.173 259.075 208.656 258.435H208.662ZM97.0856 256.389C97.552 256.192 98.2793 255.418 98.475 254.916C99.0098 253.523 97.8895 251.549 97.671 249.66C97.4362 247.61 99.9051 223.366 101.397 204.98H99.7453L95.2707 247.867C95.0277 250.033 93.2943 251.85 93.4981 253.659C93.6954 255.407 95.5674 257.039 97.0856 256.395V256.389ZM139.79 254.174C142.156 252.971 141.258 250.552 139.643 248.609C138.203 246.888 137.833 245.865 135.47 237.113L128.183 210.166C126.942 205.582 125.9 201.727 125.867 201.61C125.76 201.241 124.638 201.731 124.726 201.999C124.763 202.115 127.302 212.377 130.37 224.796C136.421 249.321 136.051 247.599 135.914 250.66C135.788 253.639 138.277 254.932 139.788 254.173L139.79 254.174ZM207.319 253.862C208.979 253.714 212.101 253.267 212.517 253.118C212.716 253.041 212.429 252.853 211.131 252.231C205.887 249.712 196.187 248.273 192.748 245.597C191.406 244.552 191.427 245.433 186.367 245.772C185.319 245.844 184.455 245.914 184.442 245.936L183.696 252.177C189.167 253.65 201.197 254.382 207.319 253.862ZM92.0452 248.951L96.6649 205.001L88.0222 204.743L81.4995 248.568C81.6022 248.671 85.5403 248.988 88.0744 249.098C92.2115 249.273 91.9196 249.281 92.0403 248.951H92.0452ZM103.121 248.851C106.111 248.633 111.669 248.049 113.573 247.753C114.024 247.685 114.053 247.653 114.053 247.222L110.412 204.481C110.341 204.41 104.66 204.869 104.572 204.952L100.627 248.509C100.627 249.077 100.464 249.052 103.121 248.856V248.851ZM73.0688 246.968C73.2319 245.911 79.6601 202.988 79.6601 202.917C79.6601 202.847 73.7896 200.287 74.6783 196.288C75.4594 192.77 80.4803 192.482 80.7967 192.196C77.8141 188.018 78.7469 188.401 76.883 189.287C71.9681 191.615 66.5053 192.958 61.1974 192.019C53.4777 190.652 55.6156 187.894 56.9169 187.894C58.6454 187.894 64.4425 192.063 75.7937 186.607C81.312 183.954 87.0797 178.662 92.5898 177.182C100.632 175.024 110.827 180.962 117.05 178.094C118.355 177.496 119.411 176.223 119.411 175.262C119.411 172.063 111.397 172.865 108.748 167.441C106.353 162.53 110.147 161.528 107.261 161.921C104.774 162.261 104.724 161.579 104.295 158.483L100.766 158.935C102.046 160.634 104.438 163.749 102.126 165.281C99.8138 166.814 95.088 162.052 96.9568 164.232C98.4994 166.033 104.194 167.45 104.194 170.479C104.194 172.595 102.064 173.753 99.38 172.68C97.6352 171.98 97.7036 173.121 94.907 172.417C93.0953 171.958 89.3871 169.986 87.5216 168.087C85.4947 166.028 85.3251 164.573 84.9631 161.805C82.9214 161.111 83.0584 161.116 80.7005 161.369C80.7967 163.699 81.1782 165.483 79.9389 166.182C79.4155 166.48 75.8622 167.234 75.011 167.234C74.0195 167.234 73.1748 166.529 72.8911 165.452C72.7867 165.059 71.4805 156.256 71.4805 155.938C71.4805 155.725 59.8439 149.737 56.8419 142.929C54.5948 137.834 58.7139 131.021 58.3861 130.693C58.1301 130.436 52.1145 132.33 49.0521 136.943C42.4543 146.873 46.2799 163.134 45.851 165.383C45.5901 166.787 44.0573 166.963 43.4832 165.655C42.6679 163.767 41.9178 152.167 42.3255 147.717C43.2615 137.555 49.4353 128.662 59.3205 127.819C60.4033 127.726 60.6479 124.643 62.2476 124.11C63.3499 123.746 65.7585 124.406 68.8568 125.91C71.898 127.392 73.5466 129.012 76.0318 131.98C79.5606 127.045 81.6805 123.399 86.5481 117.87C89.7377 114.247 87.8608 118.796 85.8273 122.105C84.787 123.797 85.1115 123.327 84.8245 126.161L84.5212 132.695C86.884 133.173 91.8103 133.633 94.4961 132.934C103.661 130.548 113.901 119.873 125.898 125.225C126.311 125.41 128.419 110.381 128.92 110.546C129.246 110.653 129.435 112.458 129.44 115.457C129.44 119.279 129.07 122.358 128.494 126.979C131.346 129.993 129.934 130.145 131.545 129.328C134.392 127.885 138.205 125.439 139.748 124.056C135.213 114.418 132.008 108.006 128.124 101.342C127.209 99.7705 126.771 99.2041 127.146 98.4839C127.562 97.6654 128.693 97.7014 129.38 98.5379C131.697 101.347 141.853 122.01 142.308 123.727C142.616 124.894 142.075 125.439 141.375 126.346C147.513 137.046 145.331 137.149 157.307 141.119L160.094 142.042L187.555 139.259C187.584 139.259 184.983 136.64 181.782 133.448C170.437 122.134 165.367 116.059 160.162 101.772C157.631 94.8254 154.931 84.2967 151.846 69.3812C146.383 42.9433 142.044 17.9493 120.766 7.04907C103.062 -2.01945 85.4082 3.95694 73.1389 20.3556C61.835 35.4659 56.7489 56.8064 51.5356 80.2274C46.3174 103.673 44.4682 108.61 34.5878 125.531C24.6325 142.579 18.7245 155.205 16.8133 174.172C16.5378 176.887 16.422 185.041 16.6209 187.645C17.7999 203.152 24.0487 218.72 34.7216 229.275C42.4885 236.969 53.1125 242.647 65.7275 245.868C67.4707 246.312 72.4312 247.402 72.9025 247.445L73.0656 246.968H73.0688ZM71.8605 110.168C71.0827 109.864 70.812 109.042 71.2082 108.156C71.6974 107.056 74.9702 102.658 77.0102 100.373C80.8228 96.0973 87.6814 93.0313 96.2197 88.5789C96.7872 88.2859 96.916 88.132 97.3351 87.289C98.2581 85.4033 99.6181 81.658 99.8105 80.486C99.9833 79.4138 97.2846 77.1123 96.4953 73.9383C96.0501 72.1541 95.3783 74.4965 92.6371 73.187C90.4993 72.1639 89.3154 69.4483 89.3154 66.492C89.3154 62.3588 90.2547 65.6555 89.6317 61.8546C89.286 59.7577 89.1654 56.5903 89.3578 54.9272C89.9057 50.2522 92.1789 46.5347 95.1337 45.4822C96.8051 44.8847 96.8312 41.4046 102.937 39.3749C111.374 36.5692 124.755 41.5029 126.526 51.7319C126.862 53.6733 126.732 57.0797 126.435 59.2143C127.787 60.6171 128.281 61.321 128.277 64.31C128.277 71.4224 124.931 69.8641 124.716 70.8233C123.472 76.3266 120.825 81.9543 116.002 84.3606L114.947 84.886C114.947 87.6311 114.917 90.7789 115.387 92.8398C116.139 96.1464 115.243 98.258 112.083 99.2532C110.728 99.6788 107.457 99.6477 106.082 99.2532C101.831 98.0206 98.1602 95.0726 96.722 91.2995C96.7057 91.2618 90.6281 94.462 89.1849 95.2723C81.5403 99.5544 79.4986 100.838 74.3766 108.291C73.6901 109.288 72.8438 110.568 71.8589 110.173L71.8605 110.168ZM111.927 96.5998C113.484 95.8386 113.231 94.9334 112.905 93.249L112.393 85.4229C109.257 85.5866 105.29 84.539 102.69 82.5321C101.402 81.5369 102.791 81.4747 99.062 89.9932C101.019 94.6388 104.58 97.0892 109.583 96.9959C111.051 96.9714 111.248 96.9321 111.927 96.6031V96.5998ZM113.221 83.1116C119.744 81.717 124.281 71.8169 122.95 65.4673C122.192 61.8399 123.182 61.6255 123.426 56.4495C123.49 55.1727 123.568 55.2808 122.04 54.4361C118.625 52.5455 114.58 49.2897 111.698 46.5364C113.748 49.2356 114.022 49.6596 117.125 52.827C119.742 55.5001 121.301 56.6852 118.066 56.4283C113.534 56.078 108.394 53.9942 104.678 50.9937C104.189 50.6057 103.78 50.3176 103.75 50.3389C103.612 50.4764 105.58 53.2035 106.829 54.608C108.699 56.7114 109.357 57.3367 106.933 56.9226C103.409 56.3202 100.049 54.5965 97.7232 52.4931C97.3498 58.1601 95.8952 59.2683 95.8952 64.1709C90.0704 61.154 90.9852 70.8544 94.3673 71.4339C95.8528 71.6876 97.3384 69.4237 97.4656 69.5743C98.0265 70.2291 98.7864 78.25 106.108 81.9494C108.443 83.1313 111.085 83.5618 113.213 83.1116H113.221ZM112.584 79.7641C112.063 79.5726 111.653 79.2583 111.768 79.1421C111.843 79.0668 115.119 78.8294 115.193 78.89C115.266 78.9506 114.196 80.3403 112.584 79.7641ZM111.24 78.1272C109.891 77.7294 108.031 76.4756 108.334 76.1662C108.612 76.2067 108.885 76.2758 109.149 76.3724C113.841 77.8375 117.882 75.3068 117.882 75.7275C117.882 77.037 113.795 78.8785 111.237 78.1223L111.24 78.1272ZM113.733 72.7909C113.27 72.6092 113.619 72.9447 114.616 71.8775C114.076 70.8167 113.428 69.7266 113.337 68.7395C113.269 68.0012 113.544 64.495 114.125 66.9962C114.692 69.4516 117.143 70.9886 115.664 72.4733C115.085 73.0544 114.196 72.9644 113.733 72.7909ZM95.0929 70.0883C95.3587 69.0898 94.0525 68.7002 93.6253 68.1666C92.8735 67.2155 94.545 66.4298 93.6546 65.5933C92.4006 64.418 96.2246 65.2267 95.4598 67.0469C95.2853 67.4725 95.2967 67.5118 95.5805 67.7835C97.0856 69.1946 94.8662 70.951 95.0913 70.0883H95.0929ZM105.073 68.2877C104.257 67.8114 104.277 65.7898 105.097 65.3511C106.728 64.4721 107.659 67.3023 106.341 68.2337C106.15 68.3436 105.934 68.4059 105.714 68.4153C105.493 68.4247 105.273 68.381 105.073 68.2877ZM117.774 67.7966C116.307 67.4185 116.905 63.9106 118.844 64.6603C119.959 65.0925 119.403 68.2239 117.774 67.7966ZM101.086 63.688C100.673 63.0332 102.744 60.239 105.355 60.6351C107.423 60.9478 108.474 63.2133 107.778 63.0496C103.843 62.128 101.378 64.1774 101.092 63.688H101.086ZM120.359 62.5192C117.934 60.7186 115.084 62.8237 114.837 62.5765C114.816 62.5569 114.986 60.7055 116.631 60.0164C119.795 58.6937 122.723 64.2625 120.356 62.5192H120.359ZM125.546 67.7983C126.371 66.1794 126.477 60.5287 124.959 61.3619C123.615 62.0985 124.887 65.4657 125.01 67.2139C125.094 68.4187 125.147 68.5774 125.546 67.7983ZM120.445 45.3938C120.445 45.3693 119.956 44.9256 119.346 44.4117C116.427 41.9465 113.927 40.8104 110.023 40.7859C106.516 40.7613 104.805 41.277 101.87 43.2265C97.9857 45.8145 102.778 42.7273 109.063 42.4081C115.565 42.0807 120.44 45.5182 120.44 45.3905L120.445 45.3938ZM125.432 245.841C129.365 245.043 131.955 244.367 131.955 244.155C131.955 243.942 121.854 202.878 121.779 202.8C121.704 202.721 118.697 203.323 118.534 203.428L122.746 246.053C122.746 246.381 122.816 246.371 125.43 245.839L125.432 245.841ZM188.257 242.508C189.164 242.385 190.664 242.136 191.582 241.946C193.193 241.619 193.255 241.596 193.244 241.292C193.228 240.917 191.56 234.461 190.56 230.907C187.625 220.473 181.888 205.972 176.226 192.079C170.478 177.969 169.139 176.661 156.312 174.799C159.441 177.002 160.978 178.585 162.496 183.237C164.043 187.984 164.418 196.368 165.968 200.554C168.203 206.597 174.168 218.578 176.51 224.35C178.956 230.385 181.187 237.024 182.894 242.866L188.257 242.506V242.508ZM142.375 241.241L149.116 238.82L147.668 216.067L145.504 197.75C145.504 197.715 142.732 197.172 141.975 195.122C141.664 194.278 142.049 194.348 139.981 194.759L129.631 196.635C130.014 198.187 129.399 198.927 128.532 199.909L139.947 242.066L142.373 241.247L142.375 241.241ZM191.109 216.111C200.957 208.242 210.994 197.463 212.925 187.452C214.361 180.01 213.685 173.122 210.348 166.547C208.065 162.039 203.1 155.339 200.06 152.666C198.247 151.065 196.51 149.87 196.019 149.883C195.646 149.896 188.937 150.782 188.504 150.878C187.866 151.021 188.298 152.766 186.788 154.065C185.115 155.504 182.123 154.815 180.342 155.29L175.805 155.841C173.162 155.853 171.633 157.655 166.303 155.561C165.131 155.102 164.702 154.881 164.02 154.383C163.66 154.119 125.877 159.43 125.877 159.43C125.747 159.498 126.27 165.393 129.381 168.683C130.658 170.032 129.905 169.711 132.666 169.829C140.601 170.156 159.636 171.777 165.307 173.646C170.909 175.493 173.655 178.506 177.312 186.812C180.422 193.87 185.831 207.601 188.6 215.458C189.498 218.007 189.009 217.784 191.106 216.113L191.109 216.111ZM103.25 202.016C109.795 201.698 115.806 201.071 119.31 200.341C122.045 199.771 128.266 197.997 126.414 197.206C126.001 197.043 125.711 197.065 122.281 197.655C109.187 199.897 105.094 200.365 91.9326 199.773C84.6793 199.446 80.5504 198.928 78.274 198.059C77.3249 197.697 77.5027 197.915 78.2577 198.673C82.155 202.588 96.8687 202.33 103.25 202.016ZM87.0764 196.823C87.0764 196.823 83.926 194.833 83.2264 194.834L78.9572 195.569C81.6903 196.388 83.303 196.501 86.1192 196.802C86.7943 196.88 87.0764 196.889 87.0764 196.823ZM101.772 170.706C102.813 170.051 97.5438 167.678 96.3697 166.863C93.0709 164.571 93.9237 161.515 95.375 161.269C97.2568 160.942 99.4844 163.915 100.352 163.307C101.888 162.234 96.2637 156.462 91.1548 155.614C88.4446 155.167 88.3533 155.141 87.608 154.64C86.1893 153.687 72.6057 139.099 69.5792 135.274C65.7519 130.448 73.0493 136.665 73.2971 136.68C73.4308 136.68 74.2919 134.943 74.2919 134.679C74.2919 134.563 73.9755 133.99 73.5874 133.406C72.3644 131.554 69.8221 129.377 67.5359 128.22C66.4972 127.695 64.2109 126.93 63.6875 126.93C62.8999 126.93 61.747 130.271 61.336 131.24C58.0975 138.86 58.0486 140.87 61.0099 144.429C69.5906 154.751 88.7756 159.664 88.4658 161.864C88.3386 162.767 87.034 161.289 87.6798 163.401C88.6093 166.445 90.5824 167.82 93.5226 169.312C92.218 167.861 91.2885 166.743 90.7928 164.607C90.059 161.451 90.5498 164.83 97.1394 168.802C99.8937 170.479 101.26 171.034 101.772 170.706ZM126.381 169.189C124.76 166.733 123.27 163.132 123.255 160.579C123.255 159.703 123.552 159.706 117.619 160.505C111.772 161.292 112.09 161.045 111.26 162.417C109.979 164.517 111.074 167.031 113.836 168.462L115.004 169.068L126.614 169.56L126.381 169.204V169.189ZM77.426 164.362L78.3196 164.213L78.1125 161.718H76.2764C75.7872 161.314 76.2894 160.692 77.0917 160.692C78.0473 160.692 77.868 160.379 77.7049 158.924L74.1989 157.284L75.3208 164.583C75.3208 164.689 75.7383 164.646 77.4325 164.362H77.426ZM109.259 159.212L168.52 151.165C168.64 151.142 169.033 150.585 168.26 150.664C166 150.9 106.858 158.054 106.793 158.429C106.734 158.739 106.884 159.541 107 159.541C107.051 159.541 108.07 159.392 109.265 159.213L109.259 159.212ZM101.816 157.673C104.182 157.398 104.081 157.432 104.081 156.914C104.081 156.671 104.036 156.445 103.982 156.413C103.882 156.349 99.0799 156.851 98.974 156.935C98.868 157.018 99.7779 157.87 99.9524 157.87C100.044 157.87 100.885 157.783 101.811 157.673H101.816ZM137.804 153.245C154.489 151.202 168.223 149.528 168.327 149.528L168.49 149.019C168.115 149.03 106.475 156.069 106.443 156.103C106.443 156.103 106.221 157.148 107.012 157.031C107.266 156.994 121.124 155.288 137.809 153.245H137.804ZM100.818 155.56C103.851 155.232 103.824 155.242 103.824 154.882C103.824 154.206 103.848 154.206 100.287 154.583C95.9702 155.034 96.2197 154.962 97.0595 155.493C98.0526 156.12 98.294 155.828 100.818 155.56ZM137.064 151.453C153.907 149.549 167.874 147.953 168.107 147.919C168.596 147.837 168.524 147.727 168.524 147.066L106.371 153.892C105.903 153.892 106.208 154.92 106.371 154.92C106.416 154.92 120.232 153.363 137.072 151.453H137.064ZM172.422 154.206C174.602 153.641 175.091 152.831 174.595 150.449C174.062 147.914 172.368 144.516 171.631 144.516C171.024 144.516 170.741 147.753 171.124 150.359C171.567 153.396 171.243 153.252 169.059 153.515C167.438 153.71 167.372 153.751 168.676 154.121C169.818 154.439 171.378 154.471 172.427 154.2L172.422 154.206ZM99.1501 153.571C103.798 153.062 103.623 153.348 103.494 152.64C103.467 152.465 103.428 152.292 103.378 152.122L92.2653 153.384C95.3848 154.216 94.1928 154.116 99.1501 153.571ZM177.912 152.983C178.623 152.275 177.501 145.097 175.792 143.545C175.347 143.141 173.692 142.417 175.155 145.287C176.618 148.156 177.389 151.309 176.666 153.654L177.919 152.983H177.912ZM130.097 150.163L168.596 145.935L168.637 145.257L106.304 151.787C105.417 151.916 105.815 152.844 106.337 152.777C106.537 152.753 117.23 151.574 130.097 150.158V150.163ZM181.254 152.589C182.058 152.209 182.323 151.733 182.323 150.683C182.323 148.438 180.856 141.271 179.181 143.127C178.263 144.142 180.443 147.886 180.463 151.617C180.471 153.157 180.428 152.972 181.254 152.589ZM185.519 151.641C186.335 150.027 185.666 142.602 183.439 142.602C182.786 142.602 182.777 142.681 183.16 143.558C184.22 145.976 184.817 150.405 184.358 152.615C184.932 152.386 185.161 152.36 185.519 151.633V151.641ZM95.4957 151.78C104.138 150.877 103.344 151.003 103.266 150.58C103.173 150.089 102.824 148.069 103.354 147.868L115.16 146.536C115.294 146.4 112.388 140.662 117.761 137.459C120.762 135.668 125.357 135.555 127.288 133.858C130.963 130.61 123.589 123.606 112.174 127.492C108.076 128.89 99.4452 134.039 96.6388 134.936C90.5172 136.901 84.451 135.501 78.1338 134.381C76.7444 135.732 76.4215 136.31 75.5132 138.867L88.6973 152.474C88.73 152.474 91.7957 152.157 95.4892 151.774L95.4957 151.78ZM204.819 151.838C204.819 151.838 215.943 147.472 217.375 147.48C219.57 147.495 220.243 150.354 223.285 150.137C228.477 149.765 228.274 144.195 226.336 142.934C225.254 142.227 218.914 140.479 214.288 139.6C208.398 138.488 200.328 137.799 199.134 138.29C198.496 138.557 196.608 140.479 196.688 140.769L197.622 147.267C197.701 147.835 197.759 147.922 198.284 148.228C199.234 148.788 200.731 149.932 202.122 151.175C203.765 152.638 203.276 152.507 204.824 151.829L204.819 151.838ZM222.352 145.671C221.403 144.707 222.216 142.825 223.849 143.645C225.719 144.584 223.78 147.1 222.352 145.671ZM216.25 143.892C214.489 142.818 216.653 140.618 218.135 141.741C219.496 142.774 217.791 144.833 216.25 143.892ZM209.332 143.237C208.307 142.828 208.137 140.548 210.073 140.548C212.667 140.548 211.452 144.097 209.332 143.237ZM201.259 142.294C200.846 142.063 200.618 141.612 200.607 141.014C200.594 139.611 202.846 139.06 203.491 140.314C204.223 141.731 202.5 142.957 201.256 142.294H201.259ZM129.101 148.244L168.869 144.005C170.087 143.502 167.928 143.677 163.813 144.088L105.657 149.981C105.493 150.032 105.577 150.687 105.748 150.687C105.807 150.687 116.315 149.588 129.094 148.248L129.101 148.244ZM191.946 147.973C193.686 147.739 195.108 147.501 195.108 147.442L188.08 148.398L191.946 147.973ZM191.816 146.627C193.489 146.428 194.854 146.218 194.854 146.164L187.951 146.982L191.816 146.627ZM121.083 145.989C123.91 145.717 123.349 146.247 123.517 143.936L124.095 137.88C124.085 137.87 114.671 138.926 117.572 145.855C117.879 146.585 118.17 146.272 121.089 145.986L121.083 145.989ZM191.276 145.293C194.482 144.922 195.052 145.11 194.614 144.417C194.403 144.09 187.708 144.994 187.667 145.031C187.533 145.147 187.7 145.686 187.871 145.686C187.951 145.686 189.482 145.522 191.276 145.3V145.293ZM129.134 145.17C132.351 144.835 132.242 145.077 131.713 144.473C129.851 142.345 128.162 136.701 128.064 136.616C128.064 136.616 126.898 136.798 126.777 137.572L126.024 145.429L129.134 145.17ZM145.114 143.558C149.646 143.098 153.375 142.7 153.397 142.681C153.682 142.388 146.419 141.163 143.647 136.495L139.048 128.225C139.019 128.225 138.517 128.534 137.934 128.911C136.186 130.039 133.505 131.571 132.261 132.152C130.515 132.97 131.609 132.417 130.164 135.18C131.24 137.912 132.545 141.676 133.835 143.01C134.433 143.632 135.852 144.388 136.426 144.393C136.672 144.393 140.581 144.018 145.113 143.558H145.114ZM191.336 143.429C193.021 143.249 194.418 143.082 194.434 143.06C194.573 142.921 194.26 142.602 193.981 142.602C193.536 142.602 187.414 143.239 187.206 143.311C187.025 143.373 187.062 143.939 187.796 143.83C188.054 143.79 189.645 143.607 191.331 143.429H191.336ZM190.894 141.752C200.607 140.731 186.093 141.32 186.379 142.045C186.509 142.373 188.903 141.96 190.894 141.752ZM225.791 139.61C225.791 137.809 222.753 139.153 224.863 139.881C225.788 140.201 225.791 140.337 225.791 139.61ZM218.505 137.791C218.505 137.472 217.595 136.629 216.874 137.161C215.871 137.906 218.505 138.109 218.505 137.791ZM211.217 136.526C211.217 135.83 209.174 135.267 209.174 136.175C209.174 136.552 211.217 136.843 211.217 136.526ZM204.008 135.38C203.829 134.481 202.756 133.998 201.914 134.432C201.45 134.673 200.908 135.38 201.07 135.544L203.592 135.77C204.082 135.794 204.082 135.794 204.008 135.38ZM81.7066 132.091L82.0441 127.999C81.9773 127.934 79.8998 131.273 79.8215 131.563C79.7432 131.852 81.7066 132.347 81.7066 132.085V132.091Z" fill="#3F170D"/>
</svg>
