<svg width="242" height="278" viewBox="0 0 242 278" fill="none" xmlns="http://www.w3.org/2000/svg">
<path fill-rule="evenodd" clip-rule="evenodd" d="M3.78928 59.9764C0.343789 69.7555 -0.433691 82.4902 3.30391 95.0441C9.94921 117.356 33.2122 142.847 45.1965 163.498C50.173 172.071 53.4627 180.059 55.0686 189.403C59.0834 177.493 63.0007 165.583 65.2118 158.708C68.0746 149.804 68.0746 149.342 67.8783 147.313C67.6821 145.284 67.2911 141.684 67.0724 139.771C66.8537 137.857 66.8027 137.626 65.4081 137.511C60.2563 137.088 56.6431 136.973 51.9003 132.69C50.164 131.123 49.1349 129.554 48.8667 126.994C48.0698 119.409 52.5954 113.319 51.5947 106.314C50.3633 97.6877 43.1862 88.2969 41.9173 84.2638C39.6119 76.9094 48.5716 74.1374 48.9162 71.772C49.406 68.4168 48.7888 68.3942 53.1496 64.46C58.4047 59.7166 67.381 52.3311 72.9567 48.555C74.4368 47.5524 74.7783 47.3914 76.0516 47.0214C80.7105 45.67 83.6047 45.4186 88.2367 45.0148C89.5579 44.899 89.6074 44.8538 89.8156 43.9189C90.9301 38.9129 91.0335 39.4749 88.9467 35.5873C86.6982 31.4102 84.2684 34.4562 83.9538 29.9529C83.789 27.5833 83.9178 23.9357 85.2915 21.2569C73.9559 22.0477 62.1963 23.4457 52.7437 25.3182C37.8172 28.2738 28.6432 32.4128 20.9972 37.8947C13.3513 43.3767 7.23476 50.1973 3.78778 59.9764H3.78928ZM111.088 85.1521C109.396 85.7296 114.138 86.2281 113.351 88.8886C112.631 91.3231 109.906 92.4543 108.108 93.6758C107.325 94.2053 107.374 94.4129 107.668 95.9239C107.961 97.4349 108.501 100.248 108.769 101.748C109.037 103.247 109.038 103.432 112.096 103.593C119.379 103.977 132.319 103.911 139.489 103.662C142.145 103.571 142.731 103.521 139.906 102.071C135.155 99.6293 123.876 94.8154 119.805 91.357C117.131 89.0948 117.06 86.3058 114.831 85.193C113.534 84.5463 111.798 84.9106 111.086 85.1577L111.088 85.1521ZM57.4385 226.181L58.4587 232.832C58.6834 233.224 66.4208 238.481 64.9901 244.014C64.8074 244.72 63.567 244.878 62.1439 245.193C64.9557 252.033 68.9524 258.216 74.221 263.288C82.9591 271.703 95.1936 277.071 108.346 277.89C121.499 278.709 135.579 274.978 145.821 266.2C156.063 257.422 162.472 243.594 164.268 228.496C166.064 213.397 163.249 197.022 165.822 182.194C168.394 167.367 176.356 154.084 184.656 143.67C194.308 131.559 202.586 125.171 209.796 116.911C206.7 117.153 206.351 116.263 203.797 114.631C203.037 114.146 202.793 114.146 194.449 114.157L111.458 114.711C113.846 122.054 117.688 132.868 119.098 140.637C120.247 146.946 120.1 152.274 118.717 166.102L112.165 225.251C112.709 229.613 122.778 231.641 127.383 234.062C129.93 235.401 130.932 236.808 131.555 238.031C133.367 241.576 131.639 242.143 127.201 242.725C118.409 243.875 106.597 244.067 97.9485 242.908C94.0611 242.387 93.2656 242.078 94.7427 237.269C95.5501 234.639 97.189 230.373 97.9485 228.112C98.708 225.851 98.5836 225.597 98.5716 223.717C98.5597 221.838 98.657 218.331 98.7065 211.457C98.7949 199.043 98.5417 174.556 98.9506 162.604C99.5963 143.756 101.631 154.24 96.1373 142.767C94.9868 140.367 94.0086 137.739 93.4948 136.355C92.8267 134.557 92.9435 134.679 90.7788 133.772C90.3384 133.587 90.289 133.587 90.0928 136.032C89.2868 146.1 88.6786 152.942 84.4167 164.472C81.9689 171.092 78.2508 179.534 74.2165 188.662C70.1823 197.79 65.8275 207.627 62.7011 214.489C60.1425 220.118 58.4152 223.752 57.437 226.181H57.4385ZM220.125 98.3584C221.11 93.8636 221.024 89.1371 219.559 84.0831C214.68 67.167 195.89 49.1905 178.273 39.2137C166.987 32.8223 154.026 28.2738 142.206 25.1812C132.674 22.6874 123.884 21.1397 112.616 20.6694C112.264 22.83 111.071 24.2337 110.793 26.3773C110.327 29.9613 110.312 32.8732 107.539 36.5377C103.863 41.3969 102.089 39.8463 102.852 44.0813C102.961 44.6914 103.133 44.9286 105.335 46.2716C107.537 47.6145 111.777 50.0844 114.324 51.6575C116.87 53.2306 117.76 53.8957 119.791 57.7127C121.14 60.2617 128.206 74.8406 128.062 76.4773C127.978 77.4248 129.951 80.0458 131.121 81.4198C135.973 87.074 156.534 99.2594 163.622 103.086C166.169 104.459 166.632 104.528 172.701 104.609C178.769 104.689 190.44 104.781 196.37 104.805C202.299 104.829 202.5 104.781 203.65 104.078C205.063 103.213 209.122 100.294 210.489 99.9951C214.611 99.0899 214.758 100.173 215.896 98.2426C216.544 97.144 219.355 98.011 220.125 98.3612V98.3584Z" fill="white"/>
<path fill-rule="evenodd" clip-rule="evenodd" d="M219.735 156.029C219.681 156.334 197.426 157.82 197.318 158.406C197.288 158.572 197.276 158.873 195.899 171.248L189.158 232.984L223.366 229.27C223.641 229.01 219.73 156.022 219.729 156.029H219.735Z" fill="#3F170D"/>
<path fill-rule="evenodd" clip-rule="evenodd" d="M157.244 152.403L197.611 158.185L218.434 155.937C218.883 155.903 214.285 154.906 206.334 153.745L172.946 149.386L153.115 150.897C149.151 151.197 149.211 151.232 157.244 152.403Z" fill="#FFD284"/>
<path fill-rule="evenodd" clip-rule="evenodd" d="M142.063 151.077C141.426 151.077 141.525 151.146 139.837 162.46L131.247 218.891C131.949 218.891 186.375 233.191 189.165 233.191C189.435 233.191 189.386 233.236 190.682 220.736L197.216 157.674C197.165 157.579 145.487 151.077 142.063 151.077Z" fill="#E23C08"/>
<path fill-rule="evenodd" clip-rule="evenodd" d="M166.831 171.022C175.388 171.719 181.584 181.486 180.67 192.838C179.757 204.19 172.078 212.825 163.522 212.129C154.967 211.433 148.77 201.664 149.683 190.313C150.597 178.962 158.275 170.324 166.831 171.022Z" fill="#FFD284"/>
<path fill-rule="evenodd" clip-rule="evenodd" d="M180.264 195.816C179.977 197.322 179.555 198.802 179.003 200.241C176.664 206.014 172.112 209.703 167.468 208.984C161.551 208.075 157.741 200.37 158.959 191.756C160.177 183.142 165.96 176.914 171.877 177.824C177.794 178.733 181.603 186.438 180.386 195.052C180.35 195.309 180.309 195.563 180.264 195.814V195.816Z" fill="#3F170D"/>
<path fill-rule="evenodd" clip-rule="evenodd" d="M176.633 187.181C179.604 188.004 181.027 192.193 179.828 196.524C178.63 200.855 175.229 203.706 172.259 202.878C169.288 202.051 167.861 197.872 169.071 193.535C170.281 189.199 173.668 186.352 176.639 187.181H176.633Z" fill="white"/>
<path fill-rule="evenodd" clip-rule="evenodd" d="M91.7586 225.364C90.8373 229.648 89.8396 231.495 88.4629 235.137C88.0704 236.171 88.1813 236.223 90.0404 236.583C97.8452 238.097 114.446 240.537 122.015 238.984C123.306 238.72 123.411 238.403 122.663 237.693C119.457 234.642 113.904 233.383 109.359 230.915C103.941 227.971 106.264 225.105 102.434 225.186C97.8077 225.282 96.7651 225.269 92.6589 224.004C92.0223 223.809 91.9728 224.363 91.7601 225.361L91.7586 225.364Z" fill="#E23C08"/>
<path fill-rule="evenodd" clip-rule="evenodd" d="M38.3985 226.66C37.9206 227.507 37.1386 229.034 36.1709 230.543C34.8227 232.662 32.625 235.188 32.7344 237.302C32.7584 237.778 32.9052 237.841 34.0302 238.334C38.8883 240.464 44.8161 241.757 50.5341 241.941C53.5302 242.037 55.4402 241.644 56.3465 241.246C57.2528 240.848 57.1539 240.444 56.5907 239.639C54.9997 237.36 51.5483 234.164 50.1925 232.224C48.0818 229.2 50.7708 228.253 47.574 227.023C45.9591 226.401 42.6065 225.951 40.9916 225.457C39.3767 224.963 38.8749 225.806 38.3985 226.66Z" fill="#E23C08"/>
<path fill-rule="evenodd" clip-rule="evenodd" d="M106.306 118.137C107.536 122.023 109.934 129.636 111.377 135.77C112.819 141.905 113.315 146.566 112.992 155.1C112.356 172.154 108.947 199.026 106.724 215.013C105.867 221.184 105.573 223.329 105.206 224.436C104.839 225.543 104.399 225.612 103.224 225.648C100.477 225.728 95.4736 225.495 92.8131 224.597C91.6506 224.204 91.4544 223.767 91.4544 217.99C91.4544 205.746 92.2229 172.832 92.7876 160.336C93.0872 153.578 93.3868 151.502 93.4363 150.325C93.4857 149.149 93.2865 148.874 92.5374 147.709C89.3916 142.871 88.4927 140.405 86.5782 135.16C85.9161 133.34 86.03 133.305 82.9575 132.935C82.3822 132.866 82.3822 132.912 82.5081 135.033C82.917 142.215 83.3545 147.308 80.9741 155.053C76.7796 168.711 57.8429 210.744 51.5256 224.875C50.083 228.103 50.083 228.103 48.7857 227.92C46.2316 227.555 40.4731 226.71 38.2141 225.336C37.4561 224.874 37.6029 224.552 40.3188 217.171C43.0348 209.789 48.3213 195.352 51.7459 184.426C55.1704 173.5 56.7373 166.068 57.6556 162.213C58.8705 157.115 59.1776 158.154 59.1537 156.724C59.0443 151.562 61.7393 154.124 60.8015 144.897C60.5558 142.481 59.9806 139.401 59.7184 137.81C59.4563 136.218 59.5042 136.115 60.8749 135.676C65.2567 134.275 71.896 132.789 76.9878 132.498C84.2293 132.086 96.4848 135.831 102.472 134.523C106.253 133.699 109.281 133.087 109.049 130.043C108.722 125.756 105.803 123.571 102.889 122.541C97.3611 120.588 98.2989 114.868 100.888 114.837C102.79 114.814 102.792 113.891 103.905 113.99C105.018 114.088 105.078 114.254 106.301 118.14L106.306 118.137Z" fill="#3F170D"/>
<path fill-rule="evenodd" clip-rule="evenodd" d="M118.368 78.1974C114.557 80.8014 112.641 82.0751 107.981 83.3531C106.932 83.6355 106.2 84.415 107.429 84.7017C111.134 85.5659 112.312 87.0134 113.652 88.6557C113.84 88.8845 111.608 91.874 111.801 92.0858C114.571 95.1162 118.142 96.5538 124.631 99.6238C128.093 101.262 131.813 103.13 133.746 104.065C135.678 105 135.826 104.998 139.386 104.965C140.734 104.95 157.223 104.939 156.979 104.434C156.489 103.417 126.783 88.8873 121.325 80.0035C119.706 77.367 120.25 76.9053 118.365 78.1931L118.368 78.1974Z" fill="#F7CEBF"/>
<path fill-rule="evenodd" clip-rule="evenodd" d="M209.379 104.549C207.512 105.538 204.466 107.453 202.894 108.769C201.321 110.085 201.225 110.799 201.267 112.322C201.309 113.844 201.493 116.173 201.756 117.455C202.02 118.737 202.356 118.97 203.304 119.432C207.458 121.498 207.362 121.481 213.471 120.539C218.437 119.772 227.785 118.238 232.661 117.326C237.537 116.414 237.94 116.12 238.387 115.49C240.252 112.875 238.935 112.243 236.159 111.131C231.087 109.106 219.893 105.504 214.547 104.166C211.93 103.511 211.251 103.558 209.379 104.541V104.549Z" fill="#FFD284"/>
<path fill-rule="evenodd" clip-rule="evenodd" d="M160.135 106.158C158.213 108.588 155.741 116.538 161.23 118.112C164.825 119.144 168.936 117.623 170.518 114.19C172.518 109.865 171.117 103.124 168.768 103.869C167.558 104.253 167.934 105.271 166.439 104.619C163.269 103.233 164.118 105.586 162.112 105.316C161.642 105.253 160.914 105.161 160.131 106.163L160.135 106.158Z" fill="#F7CEBF"/>
<path fill-rule="evenodd" clip-rule="evenodd" d="M92.8582 106.381L159.293 107.573C158.767 108.684 158.369 109.845 158.107 111.037C157.722 112.83 157.807 114.328 158.301 115.54C158.535 116.159 158.924 116.715 159.434 117.163C159.944 117.61 160.56 117.936 161.232 118.112C162.761 118.549 164.915 118.504 166.659 117.84C168.403 117.177 169.734 115.897 170.524 114.19C171.313 112.483 171.558 110.35 171.46 108.597C171.445 108.314 171.42 108.049 171.388 107.789L202.383 108.345L202.309 118.873H112.941L112.839 118.552C111.609 114.666 111.549 114.506 110.442 114.402C109.335 114.297 107.163 114.252 105.26 114.276C103.358 114.3 101.719 114.391 100.525 115.054C99.3312 115.718 98.5867 116.952 98.3664 117.979C98.2978 118.272 98.2836 118.575 98.3245 118.873H92.8582V106.381Z" fill="#E23C08"/>
<path fill-rule="evenodd" clip-rule="evenodd" d="M107.945 90.8473C109.483 91.6663 110.009 92.9655 109.71 94.1348C109.51 94.91 108.872 95.6599 107.976 96.3942C107.919 96.1118 107.864 95.8505 107.813 95.6316C107.501 94.2887 107.329 94.3692 106.191 95.0258C105.052 95.6825 102.949 96.9181 101.846 97.8685C100.744 98.8188 100.648 99.4896 100.66 100.152C100.662 100.382 100.684 100.612 100.724 100.84C99.7743 101.393 98.8784 102.025 98.0473 102.728C97.8526 102.9 97.6695 103.083 97.499 103.277L92.6423 103.198V114.2H100.013C99.9743 114.685 99.8793 115.164 99.7296 115.629C99.0414 116.271 98.5658 117.087 98.3604 117.979C98.3469 118.041 98.3349 118.104 98.3259 118.165C97.2638 119.512 95.9485 120.566 95.1276 121.554C91.2761 126.154 101.361 129.371 103.517 131.363C104.429 132.203 104.959 133.138 105.118 134.072L104.968 134.107C102.961 134.545 100.195 134.464 97.6638 134.221C95.1321 133.978 92.8311 133.576 90.6095 133.271C88.3879 132.966 86.2487 132.757 83.5208 132.912C80.7929 133.067 77.4747 133.589 74.4711 134.227C71.4676 134.865 68.7786 135.646 67.4064 136.084C66.0342 136.522 65.9862 136.626 66.2499 138.218C66.3218 138.65 66.4162 139.192 66.5195 139.802C60.2862 141.497 55.3262 143.572 48.5835 141.8C35.3064 138.311 28.8469 127.908 28.4798 115.876C28.2357 107.922 29.2453 97.9066 34.472 91.0337C36.6876 88.1205 39.6193 85.8088 42.7861 84.8401C45.5785 91.3656 56.2969 108.485 58.2384 113.536C59.2735 116.228 59.2001 117.672 57.5253 118.95C56.9261 119.411 54.9951 119.021 54.4079 119.822C52.0425 123.05 54.5023 127.203 56.607 128.124C57.9553 128.714 59.4084 129.668 61.2719 130.242C64.9826 131.383 65.9638 130.351 68.8205 130.351C70.6377 130.351 72.6885 131.209 73.066 127.917C73.7311 122.118 68.7486 114.96 66.4357 109.65C65.1144 106.617 63.7182 102.575 62.0824 98.1707C60.824 94.79 59.4218 91.1919 58.4451 88.5596C63.6613 91.552 68.2558 94.8451 75.5797 95.4382C87.8291 96.4267 101.013 87.1602 107.945 90.8473Z" fill="#FFD284"/>
<path fill-rule="evenodd" clip-rule="evenodd" d="M57.9569 73.3396C60.2968 74.5823 62.3012 76.4929 64.0119 78.5405L57.888 82.9436C56.7375 83.9236 56.7869 84.2244 57.9254 87.1178C59.0639 90.0113 61.29 95.5031 62.9288 100.11C66.4987 110.127 65.871 110.461 70.6737 119.254C72.4039 122.423 73.7042 125.635 73.2204 128.964C72.7964 131.876 70.6947 130.639 69.4034 130.235C68.4221 129.927 67.778 131.03 65.5864 131.112L60.8226 130.277C59.4025 127.266 67.1578 123.112 64.6995 116.721C62.9288 112.124 52.6283 95.3196 49.7102 89.0595C47.0901 83.435 47.7882 81.9339 51.8149 77.6763C53.2216 76.1879 54.8365 74.6656 55.7547 73.8126C56.673 72.9597 56.8918 72.7747 57.9569 73.3396Z" fill="#F7CEBF"/>
<path fill-rule="evenodd" clip-rule="evenodd" d="M88.2531 52.6065C85.2166 52.3057 77.0627 54.1218 73.8255 55.6186C70.1388 57.3217 61.8412 65.4641 58.0961 68.6965C56.634 69.9589 55.3187 71.1635 54.2012 72.2268C54.9338 72.8114 55.6267 73.4386 56.276 74.105C58.0137 75.8928 59.5716 78.1536 60.3746 79.3059C61.1775 80.4582 61.194 80.5062 60.5334 81.0485C60.3836 81.177 60.1813 81.3309 59.9641 81.506C60.1229 81.5837 60.2817 81.6614 60.4375 81.7404C63.7572 83.4082 66.5465 85.4346 69.7403 87.0882C72.9341 88.7418 76.5309 90.0057 80.2985 90.3164C84.0661 90.627 88.0059 89.9831 92.2274 88.8068C98.1851 87.1447 107.223 83.1554 111.949 85.7269C114.019 86.8566 114.288 88.8506 112.857 90.459L117.721 88.6684C116.639 86.8962 115.856 84.9968 115.431 84.0083C114.553 81.9678 115.54 83.555 121.217 80.7209C121.902 80.3791 122.578 79.9922 123.216 79.601C121.328 74.571 118.422 65.1181 115.816 62.1131C112.987 58.851 106.283 55.6921 102.75 53.9495C101.989 53.5753 101.469 53.2434 101.301 53.4129C99.7371 55.0566 95.4347 55.733 88.2531 52.6037V52.6065ZM106.191 95.0244C103.99 96.2954 100.621 97.9575 100.661 100.151C100.696 101.986 101.696 102.692 103.957 102.959C105.326 103.105 106.707 103.121 108.08 103.006C109.01 102.901 109.022 102.705 108.802 101.224C108.581 99.7424 108.129 96.9732 107.817 95.6303C107.506 94.2873 107.334 94.3678 106.195 95.0244H106.191Z" fill="white"/>
<path fill-rule="evenodd" clip-rule="evenodd" d="M88.8105 14.8458C84.0752 17.1631 83.8865 18.4623 82.6191 19.7007C79.256 22.9882 77.2547 26.6682 79.4508 33.1486C80.7361 36.943 86.58 33.7304 84.9351 45.0826C86.2654 44.9287 87.4099 44.8708 88.1274 44.9414C89.3498 45.0628 89.3259 45.5585 89.5341 46.2222C89.7423 46.8859 90.1827 47.7162 91.3317 48.4025C92.4807 49.0888 94.3593 49.6297 96.097 49.6819C96.1899 49.6819 96.2813 49.6819 96.3741 49.6819C96.5464 49.5746 96.7112 49.463 96.8655 49.3487C97.5861 48.8064 97.5142 48.483 97.4767 47.3872C97.2115 39.4976 98.2737 43.6747 102.101 39.0146C105.565 34.7994 105.397 30.2494 106.212 26.3279C107.197 21.6241 109.358 17.8268 106.469 14.9574C104.879 13.3772 101.306 15.614 98.0639 14.4264C94.8222 13.2388 91.3228 13.6073 88.8031 14.8416L88.8105 14.8458Z" fill="#F7CEBF"/>
<path d="M125.372 274.427C113.259 273.7 100.777 269.154 92.0853 262.311C85.3845 257.032 81.8147 251.913 78.1955 244.632C73.7373 244.604 71.4947 244.765 67.3721 243.833C65.8831 243.497 66.1138 243.398 66.0149 244.003C65.8082 245.21 63.3184 246.341 59.2318 247.087C54.1594 248.01 46.7981 247.369 40.8164 245.487C37.1732 244.341 37.3395 244.029 37.3559 241.894C37.3844 238.385 38.5349 235.579 40.6052 232.546C30.5114 225.245 25.1829 217.703 27.8314 205.256C31.5226 187.919 44.9435 173.66 41.913 155.142C40.1153 144.103 32.1188 135.581 33.6318 128.687C34.0183 126.925 34.8917 125.902 36.147 124.637L34.2924 121.624C19.5038 99.7537 10.9515 78.5532 16.6635 56.7229C24.4354 27.0467 51.1648 15.3641 81.8312 13.9802C82.6491 10.5586 83.7337 7.47585 85.9808 5.93097C88.7401 4.03446 89.1042 5.64854 90.6441 3.87347C93.9908 0.0352728 100.283 -0.577597 105.548 0.430672C111.495 1.57168 114.265 5.17829 114.944 10.4032C117.564 10.0318 125.141 9.89626 129.306 10.1575C153.385 11.6713 175.987 18.8987 196.839 31.4004C211.6 40.2531 222.424 49.6551 229.577 59.8395C238.826 73.0077 242.499 86.5148 235.175 100.827C234.077 102.972 234.062 102.795 234.628 102.521C235.666 102.016 242.306 102.673 239.871 107.066C240.959 108.177 241.655 109.233 240.754 111.127C239.513 113.737 235.088 114.234 228.543 115.116C223.899 115.746 224.398 115.328 222.919 116.866C213.158 127.004 203.797 134.368 196.543 146.128C195.129 148.423 193.801 150.903 193.937 150.982L220.024 154.363C220.603 154.543 220.891 154.968 220.953 155.751L223.968 218.573C230.73 221.076 235.889 224.475 235.889 228.991C235.889 233.121 231.157 235.77 226.901 237.137C216.873 240.365 206.528 241.514 194.843 241.497C188.748 241.485 185.483 241.043 180.23 240.06C177.653 239.577 178.333 239.213 177.455 241.455C168.975 263.082 150.197 275.932 125.372 274.427ZM133.358 271.898C151.719 270.614 165.705 260.429 173.34 244.179C174.079 242.612 175.187 239.923 175.352 239.314C175.418 239.064 175.382 239.018 175.092 238.953C168.837 237.57 146.209 229.842 143.669 232.009C141.929 233.492 151.126 240.417 151.915 244.337C152.027 244.882 151.976 245.445 151.768 245.963C151.561 246.482 151.204 246.936 150.738 247.274C146.579 250.229 134.964 246.245 130.195 244.5C128.266 243.794 128.109 243.754 127.436 243.812C118.984 244.539 108.83 245.031 100.221 244.219C92.0433 243.446 91.88 242.619 92.9496 238.687C93.3137 237.353 94.578 233.818 95.3465 231.994C95.706 231.146 95.9772 230.43 95.9457 230.404C95.5248 229.998 82.7944 226.08 81.3713 228.912C80.9399 229.774 81.2904 231.899 82.6102 236.359C84.0723 241.301 83.2184 242.3 80.7451 243.861L81.4791 245.344C90.6427 263.843 112.551 273.334 133.349 271.892L133.358 271.898ZM147.982 245.826C149.48 245.528 149.748 245.055 149.107 243.849C147.309 240.46 138.217 233.893 141.766 230.449C144.746 227.561 153.8 230.459 165.245 233.762L176.221 236.788L177.613 231.765L131.024 220.171C130.513 219.914 130.275 219.492 130.282 218.851L140.819 150.688C141.056 150.202 141.592 150.003 142.667 150.003C143.137 150.003 150.374 149.676 158.754 149.276L173.986 148.546L191.086 150.643C191.106 150.626 191.598 149.714 192.183 148.618C197.692 138.291 205.286 130.684 215.321 120.889C217.846 118.424 219.895 116.394 219.875 116.37C219.856 116.346 218.812 116.489 217.558 116.673C209.425 117.874 207.338 118.597 203.087 115.866L202.049 115.198L171.589 115.349C169.865 117.541 168.219 118.867 164.689 119.223C159.034 119.788 153.228 115.523 152.987 115.454L113.089 115.623C118.162 130.218 122.838 144.331 121.08 158.514C120.872 160.209 120.29 161.5 119.107 161.031C118.229 160.685 118.058 159.989 118.281 157.773C119.751 143.555 115.173 130.809 110.325 115.568H102.056C101.466 115.719 99.0227 117.366 99.8091 119.162C100.636 121.039 104.822 122.564 107.088 124.082C113.23 128.191 110.638 134.652 104.164 135.683C102.768 135.906 97.5411 135.94 95.8334 135.738C94.193 135.543 94.3039 134.608 97.4617 141.912C99.3493 146.277 99.3837 147.161 102.011 149.44C103.888 151.069 107.854 155.029 107.726 155.149C107.599 155.269 103.027 153.031 101.563 152.138C101.319 151.987 101.309 151.997 101.238 152.514C100.462 158.28 100.374 169.992 100.229 181.604L99.6593 224.298C100.635 224.874 104.535 225.105 107.022 225.112C111.298 225.122 110.3 225.907 111.095 220.411L116.273 180.472C116.765 179.359 118.322 179.499 118.699 180.692C119.164 182.165 113.828 223.735 113.377 225.324C112.915 226.95 117.721 228.996 121.67 230.374C127.094 232.255 128.032 232.669 129.634 233.894C132.33 235.953 134.727 240.814 132.983 242.623C132.708 242.905 132.409 242.778 135.762 243.846C141.39 245.629 145.55 246.304 147.982 245.823V245.826ZM57.6394 244.731C59.3233 244.472 60.988 244.112 62.6233 243.654C63.6825 243.332 63.7094 243.318 63.7319 242.969C63.8607 240.851 64.0749 242.01 57.121 242.791C51.9603 243.371 44.4476 242.877 40.4269 241.393C40.1048 241.274 40.2202 242.353 40.2202 242.972C42.7668 243.895 45.9232 244.57 49.7926 244.929C50.9746 245.036 56.5338 244.899 57.6394 244.731ZM77.1139 242.283C77.1438 242.254 76.8427 241.294 76.4398 240.153C72.2917 228.36 72.2288 215.418 70.9315 199.677C68.2709 205.293 64.7685 214.02 62.1754 219.588C57.9929 228.579 57.4686 229.065 57.8895 230.443C58.4977 232.42 63.8817 234.647 65.7737 240.21C66.0733 241.112 66.0868 241.122 66.5692 241.245C68.5049 241.717 70.4738 242.059 72.461 242.268C73.0182 242.333 77.0539 242.348 77.1184 242.285L77.1139 242.283ZM115.736 242C117.493 241.924 130.404 241.054 130.717 240.76C130.762 240.717 130.441 239.33 130.372 239.261C129.925 239.295 129.481 239.357 129.042 239.446C125.273 240.082 121.687 240.284 114.036 240.284C104.549 240.284 103.77 239.917 95.5967 239.067L95.2102 241.067C95.4424 241.287 97.974 241.684 100.528 241.898C104.23 242.209 110.063 242.249 115.738 242H115.736ZM80.7032 240.925C81.7668 239.396 77.5468 231.207 79.1347 227.966C81.8866 222.357 96.5779 228.302 96.8116 228.107C96.8116 228.107 97.643 226.066 97.3584 225.656C96.9494 225.073 96.9299 224.488 97.0588 217.317L97.4872 178.231C97.6175 163.204 97.9186 157.249 98.9688 150.217C97.3374 148.538 97.2505 148.262 94.2484 141.2C92.8762 137.97 91.7018 135.3 91.6404 135.269C91.4905 135.176 86.5665 134.538 84.8003 134.382C80.0755 133.966 75.9784 134.672 70.2903 136.455C66.9377 137.507 67.4575 136.772 68.0972 139.986C71.4078 156.649 63.666 146.22 73.8856 158.528C72.7531 158.528 68.9855 155.974 68.1841 155.242C67.7631 154.86 67.4126 154.543 67.3946 154.543C67.2718 154.543 67.1145 155.584 67.1714 156.009C67.4066 157.704 68.8747 160.22 70.2843 162.197C68.6574 161.901 67.3257 161.034 66.0898 159.963C64.7416 165.499 60.1156 185.664 58.9621 188.275C58.3809 189.588 57.0761 189.546 56.787 188.525C56.6372 187.989 56.6072 188.133 57.563 184.525L62.4226 164.742L61.8234 163.499C59.4835 158.615 55.9631 152.612 51.9363 146.628C48.5897 141.666 41.3901 131.65 40.5333 130.763C36.7777 126.868 37.7784 126.128 36.902 127.333C34.5786 130.527 36.9215 135.407 39.1491 140.042C43.0964 148.264 44.8581 153.198 44.8536 160.635C44.8416 177.273 33.2992 190.855 30.3226 206.166C28.2509 216.813 32.3525 223.576 41.9909 230.504L43.9982 227.033C43.3825 226.68 42.9361 226.451 42.9361 225.642C42.9361 224.903 45.73 216.902 46.4565 215.558C47.1291 214.311 48.5133 214.39 48.6541 215.683C48.8384 217.365 45.8079 224.755 46.1884 225.036C47.1876 225.77 55.626 227.427 55.9256 227.144L64.1304 208.919C64.4719 207.172 75.9649 180.472 76.9835 178.205C80.8784 169.591 87.4533 154.173 88.2098 144.857C88.4226 142.222 90.0075 143.022 90.3356 143.678C91.2119 145.451 89.0472 154.656 87.8039 158.526C86.4017 162.903 77.1004 185.459 74.5447 191.52C73.0047 195.171 73.2355 194.288 73.565 197.95C75.2758 216.933 74.4414 227.61 79.8208 241.674L80.7077 240.931L80.7032 240.925ZM56.8918 240.556C58.9097 240.379 62.508 239.734 62.7537 239.505C63.0952 239.179 60.3313 236.267 59.4954 235.524C56.0275 232.443 55.3773 231.679 55.0013 230.274C54.8216 229.602 54.7811 229.541 54.4695 229.511C52.8756 229.36 50.0203 228.816 47.8782 228.25C45.6011 227.65 47.4287 227.372 43.7226 232.669C42.7788 234.02 40.2771 237.932 40.6067 238.724C40.7025 238.954 43.3286 239.727 45.1248 240.05C48.75 240.709 53.0284 240.897 56.8933 240.556H56.8918ZM202.002 238.912C210.956 238.185 230.077 236.157 232.937 230.377C235.28 225.645 224.29 220.893 224.175 221.007L224.419 228.942C224.399 229.818 224.155 230.323 223.64 230.546L189.101 234.246C188.08 234.355 188.631 234.462 182.835 233.036C179.86 232.304 180.456 232.091 179.917 234.051L178.951 237.411C188.853 238.941 190.899 239.82 202.007 238.917L202.002 238.912ZM121.258 238.011C123.234 237.895 126.576 237.572 128.221 237.34C129.12 237.214 129.13 237.199 128.97 236.976C126.738 233.709 115.684 232.673 111.218 227.301C108.102 227.725 104.497 227.615 101.252 227.05C98.8819 226.637 100.928 225.944 97.3134 234.534C96.5 236.466 96.4146 236.761 96.5764 236.826L107.812 238.008C110.932 238.149 119.033 238.149 121.263 238.019L121.258 238.011ZM188.02 231.566L195.751 159.184L142.92 152.359L132.79 218.262L187.871 231.922C187.918 231.922 187.982 231.771 188.021 231.571L188.02 231.566ZM162.403 212.717C148.172 210.289 144.198 188.073 154.324 176.09C160.408 168.888 169.131 168.012 175.527 174.014C178.705 176.998 180.742 181.133 181.587 186.311C181.848 187.904 181.887 192.585 181.648 194.117C180.465 201.871 175.788 210.114 168.18 212.324C166.382 212.848 164.076 213.006 162.403 212.717ZM165.828 210.677C166.995 210.461 165.109 210.742 162.48 208.241C154.877 201.013 155.83 184.991 164.823 178.557C170.858 174.239 176.092 178.176 176.175 178.099C176.45 177.839 170.091 169.292 161.62 173.082C149.829 178.354 147.321 198.416 156.255 207.17C158.826 209.686 162.477 211.31 165.832 210.683L165.828 210.677ZM170.352 207.606C173.048 206.9 175.679 203.926 174.981 204.179C173.212 204.821 170.945 204.272 169.541 202.857C163.669 196.937 170.87 181.343 178.422 186.759C178.762 187.004 179.042 187.182 179.042 187.153C179.042 186.932 178.154 184.266 177.875 183.649C174.347 175.851 164.733 177.164 160.781 187.867C157.346 197.169 162.081 209.755 170.352 207.605V207.606ZM174.756 201.936C178.157 200.383 180.149 194.513 178.351 190.111C176.314 185.132 169.881 188.895 169.845 196.508C169.835 198.561 170.257 201.45 172.383 202.134C172.961 202.318 174.134 202.222 174.762 201.936H174.756ZM204.004 230.39L221.911 228.509C220.681 197.837 218.598 157.708 218.598 157.708C218.532 157.668 198.391 159.192 198.341 159.24L190.493 231.355C190.424 231.821 190.427 231.824 190.755 231.771C190.936 231.738 196.897 231.118 204.004 230.39ZM63.8158 159.29C65.3258 155.891 64.6607 159.041 64.6547 155.686C64.6547 152.822 66.2261 152.853 65.9205 151.811C65.4801 150.314 67.0201 149.262 66.3699 144.91C65.209 137.127 65.594 137.822 64.3701 138.151C56.2177 140.347 48.5897 135.94 48.007 135.94C47.9875 135.94 49.177 137.647 50.654 139.734C56.2687 147.673 59.4999 152.774 62.4331 158.328C63.645 160.628 63.3079 160.446 63.8158 159.29ZM205.178 156.378C209.44 156.057 212.851 155.762 212.755 155.73C212.659 155.697 203.885 154.58 193.257 153.26L173.932 150.859L156.281 151.716L196.951 156.961C197.207 156.961 200.909 156.705 205.172 156.381L205.178 156.378ZM61.5537 136.163C67.5354 135.566 72.6587 131.894 82.3241 131.917C89.5221 131.935 98.3531 134.632 103.995 133.156C106.637 132.466 108.997 131.038 107.561 128.19C105.625 124.349 97.0063 123.504 97.0063 118.164C97.0063 116.858 97.2175 116.766 97.8662 115.568C92.7264 115.568 91.0396 116.199 91.0007 113.285C91.0089 112.882 90.9884 112.48 90.9393 112.08L69.6087 112.391C69.4589 113.439 69.354 113.293 70.1705 114.686C72.7021 119.004 76.0128 128.666 73.2744 131.247C71.8018 132.635 70.2933 131.984 68.7368 131.268C64.1483 132.942 64.8674 131.41 62.902 131.582C60.5905 131.785 60.9036 130.721 59.3351 130.602C56.7885 130.407 56.8829 128.711 55.975 128.573C50.1582 127.689 51.4884 116.603 56.9578 118.275C57.1555 118.336 57.2574 118.224 57.6274 117.541C58.7045 115.533 58.8768 115.926 50.287 101.121L41.3931 86.3186C41.3931 85.693 35.5059 92.6012 35.9178 108.927C36.1485 118.059 37.1477 124 42.9721 129.467C47.6729 133.88 55.5316 136.757 61.5478 136.163H61.5537ZM71.7314 129.766C72.0775 129.404 72.1628 128.455 72.1628 127.802L70.8356 129.892C70.9854 130.033 71.5472 129.957 71.7344 129.766H71.7314ZM67.0545 129.409C68.1826 128.89 69.7959 127.314 70.4012 126.144C70.7098 125.538 70.912 123.999 70.8161 123.005C70.6334 121.169 69.739 118.921 67.9953 115.952C65.8696 112.329 64.8374 109.795 61.4189 99.8539C59.6917 94.8197 58.8723 92.5814 56.9533 87.5683C55.2635 83.1455 54.8995 83.4124 59.7606 80.0543C58.5622 78.1606 57.5974 76.9292 55.2665 74.6882C53.9182 73.3918 52.0846 71.8709 51.7176 71.7438C51.5379 71.6831 48.1328 74.3535 46.813 75.5891C40.6711 81.3535 42.3189 83.627 46.9629 90.9899C48.5687 93.5318 59.3157 111.12 60.3254 114.975C61.0309 117.658 59.0251 119.353 57.2334 122.212L55.9526 124.115C55.0328 121.967 56.7151 120.107 55.9526 120.107C54.844 120.107 53.9572 126.164 56.1893 126.381C57.133 126.471 57.3443 126.262 59.3456 123.274C60.7358 121.198 60.6939 121.297 60.6085 122.784C60.4587 125.243 59.7097 126.621 58.4064 127.953C59.5104 128.827 59.8535 129.18 62.2833 125.21C63.269 123.595 63.3109 123.544 63.4712 123.769C63.7708 124.185 63.4997 127.381 62.2938 128.965C61.4639 130.058 63.1806 129.332 63.7304 128.787C65.5984 126.895 66.9092 123.157 67.2822 124.459C67.6553 125.761 66.8463 128.211 65.7977 129.776L67.0545 129.411V129.409ZM165.958 116.643C167.652 116.127 169.014 115.09 169.622 113.831C170.173 112.69 170.575 106.713 169.472 105.118C168.37 103.524 167.495 113.915 166.767 113.915C166.19 113.915 166.797 105.279 164.64 105.279C163.629 105.279 163.964 110.294 163.034 112.401C162.836 112.851 162.135 113.843 162.071 113.778C161.322 113.072 162.009 101.239 159.866 109.208C158.553 114.077 157.777 117.116 163.548 116.968C164.733 116.938 165.196 116.874 165.963 116.643H165.958ZM214.632 114.807C220.822 113.838 223.965 113.384 228.083 112.861C235.072 111.979 237.793 111.337 238.42 110.428C239.456 108.942 237.116 108.221 234.282 107.149C231.162 105.97 218.232 101.825 216.156 101.34C214.614 100.978 211.984 100.755 210.613 101.364C208.965 102.098 204.195 105.522 203.551 106.427C203.437 106.59 203.44 107.047 203.551 107.047L211.844 105.004C214.691 104.33 214.769 104.298 214.911 103.989C215.57 102.514 217.907 102.891 217.907 104.482C217.907 105.877 216.189 106.426 215.395 105.728C214.852 105.254 213.846 105.712 210.391 106.594L203.475 108.311C203.475 109.283 202.948 109.15 208.119 108.704L223.271 107.204C224.277 107.093 224.331 107.071 224.486 106.663C225.12 105.011 228.231 105.946 227.244 107.9C226.873 108.635 225.996 108.899 225.156 108.52C224.468 108.208 222.31 108.647 221.333 108.772C218.753 109.101 205.365 110.147 203.701 110.147C203.367 110.147 203.475 110.963 203.475 111.585C207.481 111.585 227.443 109.866 230.813 109.198C231.181 109.125 230.931 108.996 231.382 108.492C232.687 107.022 234.82 108.222 234.195 109.763C233.446 111.592 231.238 110.228 231.237 110.228L222.618 111.254C217.997 111.688 207.574 112.689 204.326 112.689C201.222 112.689 207.138 115.301 207.154 115.306C208.098 115.598 210.618 115.428 214.632 114.801V114.807ZM33.0206 113.659C32.8513 112.37 32.8603 105.864 33.0326 104.056C33.7696 96.4055 35.1958 89.8531 39.8711 83.8473C40.4614 83.089 40.2981 83.4576 40.361 81.9113C40.6276 75.7346 48.1942 71.9938 47.8931 70.8683C47.8512 70.713 47.8856 70.0832 47.971 69.4675C48.1538 68.1076 48.4204 67.6218 49.6908 66.2407C53.2082 62.4477 59.428 57.3442 64 53.6204C70.1675 48.5847 72.9388 46.8012 76.1342 45.824C78.1116 45.2182 83.7052 44.3172 87.1387 44.0588C87.9761 43.9938 88.6952 43.9035 88.7401 43.8597L89.7109 39.2109C88.1559 37.3652 87.6136 36.6436 86.6729 34.6695C85.5134 34.5565 84.7673 34.4732 83.855 33.3039C82.1937 31.1772 81.7323 27.0439 82.8064 24.4809C83.3277 23.2466 82.6896 23.8101 81.978 20.7472L81.557 16.5658C73.8392 17.5105 70.8775 17.2789 62.2324 19.3195C47.0258 22.9106 33.9015 30.0687 25.9499 42.6198C21.5067 49.6297 18.8267 57.4614 17.9908 65.8736C17.7751 68.0172 17.814 73.557 18.0582 75.8348C19.3046 87.5005 23.3463 98.4503 31.2529 111.586C33.2363 114.885 33.1869 114.975 33.0146 113.673L33.0206 113.659ZM151.117 113.134H156.718L156.916 112.192C146.042 111.83 107.365 111.695 93.5489 112.059V113.281L151.124 113.139L151.117 113.134ZM200.838 112.867C201.466 112.435 200.047 112.596 197.703 112.696C194.006 112.856 181.905 112.784 176.131 112.57C173.107 112.459 172.549 112.463 172.461 112.593C172.161 113.035 171.785 113.017 186.484 113.017C198.497 113.017 200.65 112.994 200.841 112.861L200.838 112.867ZM199.041 111.4C209.579 110.992 172.47 110.552 172.47 110.945C172.47 111.661 198.473 111.422 199.041 111.4ZM88.8016 110.736L91.0486 110.664L91.149 108.851L69.7031 108.318L69.5533 110.953L88.8106 110.736H88.8016ZM157.199 110.712C157.199 110.661 154.595 110.586 151.415 110.545C135.936 110.352 110.752 109.3 93.5414 108.927V110.696C112.745 110.5 137.931 110.196 154.088 110.736C156.185 110.808 157.199 110.802 157.199 110.715V110.712ZM200.892 109.229V108.762L172.527 108.982L172.454 109.479L200.892 109.702V109.229ZM157.647 108.971C157.696 108.639 157.347 108.595 154.691 108.592L135.816 108.152C121.403 107.77 112.342 107.471 100.428 106.984C92.7549 106.67 93.6537 106.254 93.6537 107.69L103.517 107.986C120.478 108.348 139.652 109.242 155.139 109.208C157.556 109.208 157.605 109.197 157.639 108.971H157.647ZM67.3482 108.594C67.3482 108.17 66.9452 108.09 67.1504 108.594H67.3482ZM91.1954 107.167V106.627C85.4609 106.381 75.3731 105.692 70.6408 105.049C69.5218 104.897 69.7001 104.484 69.7001 107.129L90.8119 107.694C91.1909 107.713 91.1954 107.71 91.1954 107.173V107.167ZM199.925 107.08L200.892 107.008V106.292L172.317 105.798L172.467 107.152L199.922 107.08H199.925ZM67.4755 105.832C67.4755 104.264 67.7421 104.561 65.6059 104.357L66.5572 107.04H67.4755V105.83V105.832ZM158.406 106.278C158.493 106.074 158.555 105.861 158.589 105.644L93.7885 104.587C93.7885 105.563 93.2867 105.216 99.3717 105.435L154.276 106.858L158.192 106.877L158.406 106.278ZM238.014 105.836C238.083 105.713 238.125 105.578 238.137 105.439C238.137 105.224 235.985 104.08 235.386 104.71C235.25 104.852 235.203 104.984 235.268 105.045C235.403 105.164 237.554 106.033 237.749 106.033C237.829 106.033 237.949 105.943 238.014 105.829V105.836ZM91.3093 104.383C91.3093 101.7 93.7661 102.322 96.4176 102.368L100.004 102.428C98.3935 98.9671 100.582 97.1553 104.935 94.4497C107.066 93.1265 111.66 90.5409 112.101 89.0002C112.743 86.7507 109.104 85.6266 104.396 86.6208C99.8301 87.5867 93.041 90.2994 87.6181 91.1523C75.3836 93.0813 69.7031 89.5298 60.4257 82.7868L58.0738 84.5873L63.4113 98.302C68.5691 98.302 69.7031 98.487 69.7031 103.496C73.8766 104.121 85.9733 105.049 91.3123 105.164V104.385L91.3093 104.383ZM205.22 101.798C209.723 98.9361 209.809 98.6466 214.012 98.6296C214.99 96.2021 217.083 96.003 220.049 96.9223C224.337 98.2497 222.146 100.619 223.334 101.018C224.693 101.482 223.722 100.019 225.617 99.3357C226.834 98.8965 230.339 99.5164 231.562 100.823C231.815 101.094 232.035 101.296 232.059 101.27C232.436 100.847 233.939 97.7089 234.625 95.9112C238.617 85.4289 235.987 74.7079 229.831 64.7763C223.054 53.8577 213.046 44.4824 198.254 35.1877C180.727 24.1829 164.029 17.7449 144.151 14.329C136.661 13.0383 130.36 12.472 123.495 12.4649C120.007 12.4649 115.542 12.6528 115.365 12.8081C115.345 12.8265 115.004 20.3532 115.476 21.6848C115.939 22.9854 118.322 24.9921 114.394 23.4189C113.438 23.0362 113.086 22.9388 113.019 23.0391C112.249 24.1787 111.759 26.7431 111.638 28.658C111.295 34.0368 108.314 38.7378 103.662 41.6652C103.397 44.2325 103.316 43.9374 105.01 44.8694C108.006 46.5159 113.975 49.9248 115.152 50.6592C118.49 52.7392 119.415 53.8308 121.573 58.2311C123.11 61.366 128.408 73.091 128.837 74.3012C129.828 77.1015 128.435 75.4931 130.374 78.3272C132.964 82.1231 134.313 83.4223 139.232 86.8552C145.805 91.4446 157.556 98.7779 164.216 101.935L166.855 103.749C169.225 101.023 170.788 103.297 171.408 103.51L201.838 103.942L205.222 101.798H205.22ZM161.879 103.338C161.849 103.305 160.372 102.476 158.598 101.492C151.836 97.74 146.602 94.5076 139.563 89.7458C133.952 85.9542 132.231 85.8949 128.2 79.5572C126.78 77.326 128.303 79.4781 118.323 83.2288C117.517 83.531 116.842 83.8445 116.825 83.925C116.791 84.0817 118.394 86.9328 119.648 88.9367C123.632 95.3054 136.074 97.1963 133.897 99.587C133.182 100.371 131.627 99.6788 129.917 98.8669C125.264 96.6569 119.989 94.2223 117.709 90.8727C116.854 89.6145 113.536 83.8826 113.982 82.623C114.157 82.1174 114.399 81.9734 115.682 81.6246C117.961 81.0075 125.056 77.3882 126.9 75.8729C124.169 69.6595 118.722 56.4899 116.103 54.2149C114.551 52.8649 110.03 50.2991 106.988 48.6002C105.867 54.3392 101.808 55.1653 96.6348 55.6002C95.8259 62.4844 94.9765 67.5907 93.1069 71.8031C92.7474 72.6151 92.4268 73.252 92.3984 73.228C92.1841 73.0275 94.7218 55.6836 94.4567 55.5028C94.1571 55.3009 88.2188 55.1639 84.9441 49.9954C84.4033 49.1425 83.8041 47.5976 83.8041 47.0638C83.8041 46.8661 83.7697 46.7037 83.7352 46.7037C83.5045 46.7037 80.1504 47.4479 78.7108 47.8066C75.5349 48.613 74.8039 48.9773 71.1756 51.5516C67.4935 54.1598 63.9087 56.8994 60.2984 59.8621C58.6505 61.2107 51.1379 68.2191 51.1379 68.4027C51.1379 68.4465 51.9184 69.0297 52.8696 69.7047C56.414 72.2084 59.6527 75.4027 61.3066 78.0222C61.9058 78.974 61.4234 79.0587 64.1948 76.8925C65.4636 75.904 67.8994 74.0583 69.6042 72.8086C75.0301 68.8249 75.3806 68.5002 76.0053 66.8832C78.0441 61.6075 74.0893 52.8141 76.0143 55.8106C78.0561 59.011 78.9178 62.758 78.4651 66.4681C78.2239 68.3533 78.0367 68.9153 77.4165 69.5748C76.2555 70.8217 62.5919 81.1388 62.6818 81.3775C62.6967 81.4212 63.5252 82.0624 64.5244 82.8009C73.9515 89.7854 81.2739 91.4023 95.363 86.8199C100.732 85.0716 103.628 84.3331 106.014 84.0958C107.997 83.8953 107.006 84.3966 108.281 78.8116C109.813 72.1053 110.827 66.8225 111.683 59.9016C111.909 58.0588 112.154 56.4489 112.222 56.3261C112.426 55.973 112.838 56.0959 112.999 56.5577C114.313 60.3493 112.301 72.0559 111.202 77.0238L109.975 84.1933C112.584 84.9629 114.391 85.9161 114.391 88.5003C114.391 92.3258 108.812 94.0966 108.812 94.8677L110.249 102.616L161.879 103.333V103.338ZM97.243 68.7402C96.2917 68.3716 96.2498 66.9186 97.1786 66.4653C97.8662 66.1292 98.768 66.3424 99.0406 66.9044C99.565 67.9932 98.398 69.1864 97.243 68.7402ZM99.135 59.7618C98.0864 59.4667 97.7868 58.2875 98.5882 57.5377C99.3897 56.7878 100.94 57.4035 100.94 58.4429C100.94 59.2902 99.9724 59.9962 99.1425 59.7618H99.135ZM67.3766 102.307C67.2897 100.57 67.2088 100.495 65.3812 100.419C63.7813 100.352 64.0105 99.9457 65.0442 102.934L67.4186 103.057L67.3766 102.307ZM229.899 102.671C229.899 101.654 226.142 100.85 226.142 101.789C226.142 101.914 229.231 103.006 229.694 103.038C229.854 103.054 229.899 102.971 229.899 102.671ZM107.359 102.142L106.327 96.1908C106.23 96.1908 101.758 98.6917 101.758 100.607C101.758 101.258 102.906 101.998 103.448 102.235C104.327 102.619 105.984 102.502 107.428 102.502L107.359 102.142ZM220.618 99.8525C220.618 98.4559 213.727 98.3486 217.772 99.3442C219.075 99.6647 220.618 100.333 220.618 99.8525ZM99.8766 53.1841C102.471 52.5684 104.793 50.662 104.911 48.2416L104.953 47.3943C101.769 45.6997 105.628 47.5948 100.539 49.9531C94.2035 52.8875 88.0376 48.7937 88.0211 46.4354C88.0211 45.8706 88.0675 46.0697 86.8047 46.2095C86.4347 46.2519 86.1021 46.3309 86.0557 46.3888C85.4969 47.2276 87.2541 52.0741 94.0267 53.29C95.1937 53.499 98.8204 53.4312 99.8691 53.1784L99.8766 53.1841ZM97.9381 48.637C99.1907 48.3916 100.349 47.8292 101.288 47.0102C101.288 46.1742 101.438 42.6325 101.085 42.7653C99.8002 43.2341 97.1202 43.3598 95.7704 43.0138C91.7692 41.99 91.8036 40.0864 91.6074 41.6906C91.2464 44.6406 89.7079 46.1601 90.9842 47.198C92.7249 48.6186 95.6057 49.1044 97.9381 48.6327V48.637ZM100.16 41.0566C104.195 40.0836 107.2 36.3965 108.805 32.5837C110.453 28.6862 108.973 27.983 110.865 23.5912C111.671 21.7201 111.729 22.2115 110.589 21.5267C104.327 17.7577 102.2 13.5466 103.698 16.1958C104.885 18.283 106.294 20.3292 107.518 21.7385C110.074 24.6786 105.246 22.3033 102.609 20.4887C98.1149 17.3905 96.3592 13.5184 96.3577 13.7726C96.3472 15.4262 100.582 23.2904 100.533 23.4076C100.426 23.6703 99.9709 23.5686 98.762 23.0179C96.5764 22.0294 94.8402 20.5523 92.7144 17.8819C91.3917 16.217 91.6209 16.145 90.3176 18.6318C87.4893 24.0106 88.493 26.0639 86.7777 24.8311C83.157 22.2299 84.4767 34.9124 87.3515 32.0782L88.4181 30.8242C88.9933 32.708 87.6091 33.2517 90.1153 36.5547C92.7669 40.0525 95.9757 42.062 100.163 41.0523L100.16 41.0566ZM96.9868 38.8339C96.8655 38.8014 94.7653 37.4683 96.8865 38.012C98.6991 38.4766 101.438 37.7126 99.532 38.6503C98.7665 39.0259 97.6759 39.016 96.9854 38.8339H96.9868ZM96.7487 37.3667C95.6476 37.0998 93.9323 36.1268 93.7181 35.6467C93.6447 35.4829 93.6058 35.4744 95.0394 35.8458C98.8384 36.8343 102.969 35.6961 102.904 35.8783C102.825 36.1127 100.978 37.0715 100.29 37.2367C99.2878 37.4782 97.4902 37.5432 96.7487 37.3667ZM98.9403 34.4125C98.1823 33.9719 97.2235 32.9777 97.8767 33.3053C98.0894 33.4112 99.6863 33.544 100.113 33.222C100.862 32.6572 99.6518 31.0007 100.733 28.2273C100.894 27.8163 100.997 27.6794 101.059 27.7839C101.258 28.1256 102.107 32.1375 102.107 32.7391C102.107 34.822 99.7103 34.8573 98.9373 34.4125H98.9403ZM86.7283 30.7917C86.7283 29.9331 84.9756 29.8032 85.8295 28.0451C86.5275 26.6174 85.3636 24.6659 86.6099 25.9806C88.5169 27.99 86.8406 28.2146 87.2556 29.333C87.7454 30.6477 86.7238 31.5317 86.7238 30.7917H86.7283ZM92.5137 29.4078C90.5063 28.7385 93.5414 28.915 93.5414 28.593C93.4054 28.4871 93.2541 28.4001 93.0919 28.3346L91.4875 27.13L97.3299 28.4377C97.4797 28.5478 94.7233 30.1323 92.5092 29.4078H92.5137ZM105.876 29.292C104.613 28.9686 102.966 28.103 103.679 28.103C103.884 28.103 108.224 26.7445 108.224 27.3277C108.224 27.6723 106.699 28.3614 106.699 28.4377C106.699 28.7625 109.695 29.4332 108.135 29.4332C107.157 29.4332 107.236 29.6295 105.876 29.292ZM103.647 25.5979C104.562 23.3469 107.542 23.2622 108.859 24.8593C110.057 26.3068 108.949 24.663 103.788 25.8478C103.536 25.9071 103.529 25.8888 103.647 25.5922V25.5979ZM97.5995 25.4976C96.6484 24.9633 95.5434 24.7238 94.4402 24.8127C90.9378 25.0147 90.2532 26.1373 90.9947 25.0288C91.9534 23.5954 94.0297 22.607 95.7659 23.3497C97.264 23.9923 99.3612 26.4861 97.5936 25.4976H97.5995ZM112.521 11.9933C112.178 5.79822 106.63 1.26101 99.3762 3.48796C95.7225 4.60638 103.923 1.87247 108.785 6.78955C110.558 8.58015 112.017 12.3647 112.391 14.4151L112.521 11.9862V11.9933Z" fill="#3F170D"/>
</svg>
