<svg width="268" height="310" viewBox="0 0 268 310" fill="none" xmlns="http://www.w3.org/2000/svg">
<g clip-path="url(#clip0_159_5249)">
<path fill-rule="evenodd" clip-rule="evenodd" d="M22.6887 179.402C23.0025 190.057 22.4262 198.103 21.2205 205.002C17.3666 227.094 3.99716 235.334 0.622225 253.033C-1.36897 263.475 1.51413 274.771 8.03827 284.015C14.5624 293.258 24.7386 300.452 36.917 304.881C68.1631 316.219 98.0053 305.178 128.193 288.498C136.697 283.798 145.191 278.613 153.676 272.942C145.102 274.209 134.495 273.931 126.616 273.209C118.93 272.506 117.98 272.046 119.58 265.724C121.344 258.768 122.61 259.396 122.375 251.378C121.924 236.003 118.879 209.715 114.168 192.625C111.099 181.489 106.888 171.845 104.441 166.997C101.995 162.149 101.322 162.096 100.072 161.829C93.0007 160.326 94.4781 158.703 94.089 169.315C93.9863 172.167 93.722 174.936 91.984 179.842C90.2461 184.749 87.018 191.764 80.7765 205.457C74.535 219.15 65.2764 239.501 60.5691 249.705C53.8247 264.327 55.8141 257.74 59.468 265.769C60.5874 268.213 61.4188 271.469 61.7821 273.288C62.1455 275.108 62.0427 275.473 60.5342 276.219C52.775 280.056 45.0818 278.783 37.4107 276.219C36.137 275.792 35.9278 275.74 35.9021 274.514C35.7351 266.618 40.558 263.656 40.558 261.062C40.558 256.885 41.8427 251.557 44.0449 244.438C48.8421 228.991 59.7579 198.836 64.0211 182.01C66.361 172.798 66.2582 169.009 66.1793 167.039C66.0361 163.425 65.9058 165.766 59.7818 166.399C53.5017 167.048 48.6861 165.798 43.9165 160.965C36.3114 153.257 33.9825 143.223 34.3734 131.368C34.6634 122.522 37.1537 110.91 43.0851 106.141C46.6711 103.257 49.835 104.088 51.4077 102.411C52.6612 101.076 56.2105 92.3255 58.1429 88.0262C60.2828 83.289 63.1439 77.1137 65.1461 73.087C67.1483 69.0603 68.2916 67.1993 70.5801 65.5488C75.7664 61.8078 86.5941 59.5501 92.4263 58.3564C95.0268 57.8226 95.1791 57.8225 96.2491 56.971C97.319 56.1194 99.2918 54.4125 100.591 53.3203C103.652 50.7505 102.059 51.3953 99.8571 49.2184C98.1723 47.551 98.6568 44.6635 100.041 43.1183C100.898 42.1596 102.243 41.5204 102.771 40.0823C103.449 38.2025 102.476 30.9312 107.686 25.457C110.532 22.4643 115.935 20.9999 119.356 21.5676C123.381 22.2368 121.252 23.017 125.99 22.4868C131.334 21.8891 136.267 23.6674 139.852 28.7336C143.074 33.2829 143.494 40.3474 141.412 45.3835C139.998 48.8368 135.192 54.4651 132.841 56.7322C130.901 58.5952 129.14 58.9768 128.093 60.2344C127.211 61.2984 127.104 63.4302 124.207 65.483C120.81 67.8817 118.163 67.6786 119.916 68.8667C123.733 71.4534 124.996 71.9967 127.469 77.3374C128.561 79.6947 129.707 82.6254 131.786 86.8081C133.805 90.878 140.033 101.962 140.837 104.123C141.591 106.15 145.822 111.372 147.923 113.82C152.186 118.786 159.668 123.856 164.955 127.513C167.466 129.244 167.804 129.377 170.404 129.436C176.42 129.575 185.372 129.569 191.659 130.15C194.436 130.406 194.289 130.396 197.27 128.231C198.778 127.137 198.921 126.377 200.176 125.747C202.254 124.71 203.206 125.732 203.498 127.699C203.649 128.71 203.614 128.753 205.319 129.278C207.119 129.831 206.523 127.413 208.732 127.154C211.335 126.847 210.551 130.447 211.301 130.889C211.513 131.013 213.333 131.748 213.751 131.265C214.17 130.782 214.432 129.746 216.06 129.594C218.813 129.338 216.752 132.586 217.96 133.13C222.795 135.307 221.502 132.327 223.81 132.43C225.746 132.517 225.662 135.077 225.442 136.461C225.119 138.499 226.334 137.683 227.255 140.01C228.424 142.965 224.746 144.687 222.65 145.71C219.877 147.067 220.806 145.873 217.969 144.298C211.806 140.878 204.205 147.293 201.768 145.683C200.332 144.743 199.397 142.501 194.746 140.303C193.733 139.824 193.419 139.824 189.753 139.824L120.108 140.489C120.61 141.001 124.452 149.932 125.908 154.024L131.96 173.362C132.327 173.738 227.998 172.934 228.628 173.095C229.257 173.257 228.963 204.059 228.938 209.134C238.272 198.115 243.55 188.471 245.856 178.288C248.477 166.727 247.273 154.472 241.324 144.775C235.374 135.079 224.682 127.936 213.493 120.877C202.303 113.818 190.615 106.838 181.889 99.5648C173.162 92.2916 167.396 84.7271 162.366 72.79C157.336 60.8529 153.028 44.5545 145.987 32.3279C138.945 20.1013 129.136 11.9484 117.343 6.88778C105.55 1.8272 91.7657 -0.148534 80.1562 3.29161C55.9884 10.4464 36.1352 40.4827 30.1561 64.1878C25.2011 83.821 22.5822 113.017 21.8757 134.248C21.1691 155.479 22.373 168.747 22.6887 179.402ZM125.01 116.252C123.957 116.606 122.258 117.205 120.272 117.685C116.825 118.518 112.597 118.922 111.929 123.245C111.602 125.37 112.467 127.618 113.918 128.646C115.029 129.434 137.853 129.143 140.608 129.047C144.686 128.904 141.248 128.225 135.133 122.666C131.801 119.636 130.261 116.63 129.14 116.739C125.88 117.055 128.281 115.156 125.01 116.252Z" fill="white"/>
<path fill-rule="evenodd" clip-rule="evenodd" d="M133.717 180.959H221.36V267.432H124.93V265.682C131.274 267.269 141.512 267.729 148.369 267.164C153.373 266.752 155.559 267.87 157.339 267.218C159.119 266.566 159.174 266.299 158.073 265.432C153.427 261.748 150.206 261.409 145.552 259.159C140.241 256.591 141.147 252.864 137.686 253.57C137.785 252.504 137.726 250.474 137.611 246.457C137.187 231.847 136.636 194.789 133.709 180.961L133.717 180.959Z" fill="#E23C08"/>
<path fill-rule="evenodd" clip-rule="evenodd" d="M184.208 180.974C189.96 180.974 189.96 189.843 184.208 189.843C178.457 189.843 178.455 180.974 184.208 180.974ZM211.683 180.959H214.069C215.537 181.523 216.579 183.108 216.579 184.969C216.579 190.554 209.167 190.554 209.167 184.969C209.167 183.108 210.217 181.529 211.676 180.959H211.683ZM198.172 180.974C203.311 180.974 203.311 189.366 198.172 189.366C193.034 189.366 193.034 180.974 198.172 180.974Z" fill="#FFD284"/>
<path fill-rule="evenodd" clip-rule="evenodd" d="M181.41 195.532C196.491 195.532 208.716 208.371 208.716 224.211C208.716 240.05 196.491 252.88 181.41 252.88C166.328 252.88 154.104 240.041 154.104 224.203C154.104 208.365 166.33 195.524 181.41 195.524V195.532Z" fill="#FFD284"/>
<path fill-rule="evenodd" clip-rule="evenodd" d="M181.41 203.566C192.265 203.566 201.065 212.809 201.065 224.211C201.065 235.612 192.256 244.853 181.41 244.853C170.564 244.853 161.755 235.61 161.755 224.211C161.755 212.811 170.555 203.566 181.41 203.566Z" fill="#F7CEBF"/>
<path fill-rule="evenodd" clip-rule="evenodd" d="M116.757 256.599C115.752 258.546 114.309 262.883 114.039 265.058C113.922 265.998 114.104 266.216 115.574 266.682C121.676 268.619 133.118 269.215 140.565 268.6C145.572 268.188 147.758 269.307 149.538 268.654C151.318 268.002 151.373 267.735 150.272 266.869C145.623 263.184 142.404 262.846 137.75 260.595C132.259 257.941 133.412 254.046 129.519 255.095C119.292 257.847 118.141 253.907 116.75 256.599H116.757ZM30.8314 268.534C34.6853 256.922 49.2917 256.898 53.2355 265.43C53.8967 266.912 54.352 268.481 54.5881 270.093C54.7312 271.091 54.6266 271.198 53.887 271.57C48.6953 274.183 37.1628 273.279 31.8463 270.985C30.3634 270.346 30.3891 269.867 30.8314 268.542V268.534Z" fill="#E23C08"/>
<path fill-rule="evenodd" clip-rule="evenodd" d="M92.1326 162.963C90.8315 162.809 90.848 162.848 92.8465 166.437C94.845 170.026 98.7889 177.165 101.472 182.202C104.155 187.238 105.555 190.166 107.064 196.932C110.714 213.309 112.254 234.153 113.28 249.756C113.683 255.913 113.074 255.819 118.532 256.309C122.18 256.636 124.601 256.076 127.921 255.057C128.961 254.738 128.961 254.681 128.727 246.613C128.326 232.802 127.655 197.829 125.423 184.279C123.45 172.312 117.029 155.831 113.021 145.341C111.553 141.486 110.039 140.275 107.091 140.38C104.465 140.472 104.155 140.873 103.724 142.018C99.233 154.007 116.058 153.391 114.997 159.228C113.995 164.747 95.9113 163.409 92.1381 162.963H92.1326ZM85.1754 164.2C85.0579 166.93 84.6945 172.045 83.8907 176.387C83.0869 180.73 81.8335 184.298 75.9296 197.351L46.8031 260.007C45.6837 261.862 44.544 259.915 39.4421 260.383C32.8024 260.988 30.6735 263.673 31.5104 258.732C31.9527 256.121 33.0978 251.326 37.2839 238.112C41.47 224.899 48.7007 203.269 52.551 189.896C56.4012 176.522 56.8674 171.409 57.0876 168.732C57.3078 166.055 57.2821 165.815 59.1559 165.149C61.0296 164.484 64.7991 163.39 67.7501 162.352C73.32 160.391 74.834 159.091 80.1286 159.848C85.6342 160.634 85.3148 160.935 85.1754 164.204V164.2Z" fill="#3F170D"/>
<path fill-rule="evenodd" clip-rule="evenodd" d="M134.267 108.368C134.5 108.101 134.502 108.101 135.412 109.193C143.261 118.613 145.278 121.433 155.827 128.368C157.789 129.659 157.947 129.767 155.566 129.846L135.746 129.658C132.839 129.47 126.937 123.881 124.017 119.189C123.026 117.602 124.375 118.215 128.828 114.275C130.911 112.431 132.916 109.908 134.276 108.361L134.267 108.368Z" fill="#F7CEBF"/>
<path fill-rule="evenodd" clip-rule="evenodd" d="M174.335 134.113C174.377 137.436 176.44 140.269 171.215 140.401C169.63 140.44 167.178 140.254 166.001 140.234C164.825 140.213 164.9 140.36 165.306 140.873C169.632 146.293 182.942 148.172 185.328 140.315C186.613 136.092 183.86 131.12 182.089 132.419C181.158 133.102 181.373 134.064 180.437 132.964C177.934 130.028 178.07 133.915 176.824 133.716C176.09 133.598 174.302 131.682 174.333 134.122L174.335 134.113Z" fill="#F7CEBF"/>
<path fill-rule="evenodd" clip-rule="evenodd" d="M100.685 132.833L174.348 133.748C174.337 133.869 174.333 133.991 174.335 134.113C174.348 135.126 174.702 136.818 174.757 137.884C174.812 138.95 174.53 139.388 174.023 139.741C173.517 140.095 172.795 140.36 171.208 140.401C169.62 140.442 167.17 140.254 165.994 140.234C164.818 140.213 164.893 140.36 165.299 140.873C165.704 141.386 166.449 142.266 168.139 143.245C168.989 143.73 169.873 144.147 170.784 144.493L100.679 143.621V132.833H100.685ZM184.612 133.885L193.295 133.993V144.783L181.428 144.634C181.699 144.517 181.963 144.385 182.221 144.24C182.968 143.83 183.627 143.272 184.16 142.598C184.694 141.924 185.091 141.148 185.328 140.315C185.763 138.895 185.799 137.378 185.431 135.938C185.245 135.216 184.969 134.521 184.61 133.87L184.612 133.885Z" fill="#E23C08"/>
<path fill-rule="evenodd" clip-rule="evenodd" d="M192.216 136.948L191.949 144.108C202.322 149.219 198.776 151.507 202.704 150.468C206.299 149.516 212.684 147.283 216.058 148.789C218.903 150.06 219.885 152.361 222.904 150.695C227.859 147.958 228.154 143.396 221.891 140.499C217.853 138.632 204.436 134.511 200.167 133.346C196.89 132.451 197.106 132.799 193.403 134.825C192.572 135.278 192.35 135.438 192.219 136.955L192.216 136.948Z" fill="#FFD284"/>
<path fill-rule="evenodd" clip-rule="evenodd" d="M38.866 113.378C32.2593 118.454 30.659 129.052 30.2846 137.514C29.8717 146.83 31.2242 157.472 36.9152 164.926C43.3384 173.344 51.9822 175.139 61.973 172.159C72.7255 168.95 78.1521 164.262 89.8974 167.11C95.6691 168.509 103.249 172.197 108.466 168.975C111.683 166.988 111.7 163.442 107.387 160.797C103.568 158.455 99.0551 157.543 99.09 153.111C99.1285 148.112 104.906 143.29 108.292 139.482L100.6 139.386V128.597L108.378 128.693C110.156 123.242 121.712 124.875 122.77 120.544C123.775 116.427 118.916 113.743 113.979 113.401C105.62 112.831 95.036 117.049 88.176 117.668C79.1633 118.478 75.1828 113.827 66.2123 111.276C65.8746 112.228 65.6434 113.026 65.6232 113.476C65.4654 116.948 71.2591 123.251 74.0174 125.309C78.0751 128.344 86.9024 130.126 91.3656 131.511C97.8292 133.519 95.2911 135.498 95.3315 136.998C95.3737 138.568 96.7427 141.322 95.1883 142.352C93.8303 143.256 94.9204 144.501 92.731 144.751C91.1417 144.93 92.3162 146.761 88.9339 146.761C87.5851 146.761 87.6658 147.556 86.3463 147.68C83.0852 147.984 75.57 138.45 73.3072 136.171C68.1852 131.015 54.6983 124.503 49.4991 114.523C48.8275 113.233 48.7045 111.528 48.8733 109.748C45.0726 110.209 41.5325 111.323 38.866 113.372V113.378Z" fill="#FFD284"/>
<path fill-rule="evenodd" clip-rule="evenodd" d="M113.799 69.3123C108.87 69.1074 111.322 65.5939 110.874 67.6354C109.516 73.822 103.717 78.6758 100.692 71.7373C97.8072 65.1446 97.9724 65.2837 96.8933 65.2555C91.261 65.1108 83.7918 67.9024 77.9687 70.3781C75.1168 71.5888 73.6615 72.7355 72.096 74.8578C68.6954 79.4748 62.608 93.2805 60.3195 98.6287C59.2735 101.072 59.0221 101.849 59.4331 102.702C77.7558 103.563 80.5141 111.863 92.3879 110.786C100.784 110.034 119.343 102.24 125.972 109.707C127.257 111.158 126.631 112.632 127 113.654L128.083 116.694L136.633 110.075C138.066 108.964 135.392 106.898 134.807 105.859C133.339 103.227 130.938 99.8769 128.532 94.7956C125.902 89.2745 120.835 69.6055 113.799 69.3123Z" fill="white"/>
<path fill-rule="evenodd" clip-rule="evenodd" d="M85.7461 147.405C86.0654 146.932 86.1755 146.437 86.961 146.349C89.1504 146.101 88.0621 144.854 89.4183 143.95C90.9728 142.916 89.6019 140.168 89.5615 138.596C89.5211 137.092 92.0592 135.117 85.5956 133.109C81.1287 131.722 72.3014 129.938 68.2419 126.909C65.4891 124.841 59.6899 118.548 59.8477 115.066C59.9248 113.363 63.0208 106.661 63.4631 105.667C63.9054 104.672 63.8008 104.539 62.384 103.388C58.6604 100.381 57.1225 99.1437 54.8138 96.8334C50.9598 105.293 44.733 110.662 52.3913 119.708C57.4216 125.646 64.4724 129.361 69.8037 133.267C74.1641 136.463 80.2313 143.982 83.1713 146.148C83.9409 146.731 84.8133 147.157 85.7406 147.402L85.7461 147.405Z" fill="#F7CEBF"/>
<path fill-rule="evenodd" clip-rule="evenodd" d="M108.774 31.0571C107.785 32.3486 106.302 34.6138 105.315 35.7718C103.449 37.9619 103.039 36.255 100.321 36.3189C95.7334 36.4241 93.2595 43.0563 95.9004 45.6693C97.82 47.5679 99.3744 46.6543 97.9191 48.0661C90.3764 55.3637 89.8185 52.4875 91.0756 56.4785C92.3107 60.3867 96.5684 70.0755 101.426 70.0247C104.858 69.989 105.875 66.532 106.77 63.9904C107.761 61.1706 108.286 67.3629 115.809 63.778C117.875 62.7929 120.32 61.1462 121.802 59.663C124.796 56.6759 122.955 56.5179 126.185 54.7471C128.716 53.3598 130.672 51.6416 132.193 49.194C132.648 48.4609 132.621 48.3011 130.969 46.3554C129.318 44.4098 126.042 40.682 123.445 37.5201C119.358 32.561 116.985 28.6735 111.553 29.2938C110.268 29.4405 109.771 29.76 108.783 31.0515L108.774 31.0571Z" fill="#F7CEBF"/>
<path d="M78.6421 309.976C67.7428 309.269 58.4952 306.78 49.389 302.067C36.2324 295.277 24.867 285.128 21.1067 271.726C14.3495 247.664 31.615 234.729 38.3759 213.321C39.1522 210.86 40.257 206.578 40.257 206.019C40.257 204.515 34.7753 199.47 38.6292 180.077C39.2898 176.748 39.7083 175.25 41.9931 167.988C43.7108 162.536 43.7751 163.328 42.1638 161.66C33.7329 152.94 31.782 136.658 33.9549 123.345C35.1496 116.036 37.5152 110.551 41.2462 106.455C42.0867 105.53 42.094 105.515 42.1785 104.631C43.5659 90.4005 47.0179 72.9178 51.0627 59.6667C60.8388 27.6264 82.4978 -0.864744 116.343 0.0150303C132.753 0.439878 149.481 7.84652 159.899 20.043C167.526 28.9893 172.171 38.2006 180.127 60.2081C185.849 76.029 190.099 85.949 201.074 96.3578C206.275 101.294 209.668 103.676 221.823 110.906C237.308 120.117 248.633 126.712 256.846 136.73C263.197 144.475 266.728 152.171 267.78 160.563C268.044 162.657 268.077 167.668 267.846 169.911C265.423 193.374 248.719 213.612 229.998 229.525V250.974C237.754 252.478 249.854 255.324 250.195 261.338C250.718 270.562 224.256 270.275 211.461 270.549C197.514 270.844 185.174 271.455 185.187 274.811C185.199 278.167 195.264 284.013 192.821 288.91C191.817 290.925 188.303 292.331 182.313 293.106C172.757 294.341 160.565 294.187 146.473 292.651L145.019 292.493C144.102 292.662 123.915 305.229 97.9594 309.036C92.9126 309.773 90.3763 309.955 84.6358 309.994C81.7491 310.013 79.055 310.006 78.6421 309.981V309.976ZM91.182 306.545C106.355 305.139 121.727 300.625 136.368 293.277C140.237 291.333 139.976 291.795 136.994 291.256C121.958 288.536 108.862 282.528 103.206 275.764C93.5402 264.207 100.953 248.615 97.3941 238.195C94.8524 230.747 74.4431 223.026 74.4431 223.026C73.9072 222.876 72.7676 226.41 71.2095 225.062C70.4938 224.446 70.9618 222.733 71.327 221.795C71.8775 220.38 75.8783 211.672 78.8329 205.457C83.9862 194.62 88.4916 184.751 89.6863 181.675C91.5674 176.838 92.2831 172.517 92.5419 164.35C92.6043 162.533 92.5914 161.508 92.5107 161.45C92.3767 161.354 90.0148 160.901 88.6292 160.698C82.7235 159.867 77.9851 162.766 70.9049 165.104C66.7867 166.462 67.418 165.738 67.3042 168.368C67.2106 170.682 65.7406 190.796 62.1509 187.116C61.5747 186.523 61.6004 186.067 62.2904 183.544C62.9763 180.977 63.4931 178.367 63.8375 175.729C64.0779 173.966 64.7367 167.082 64.6762 167.01C64.4927 166.822 54.0082 170.088 46.3242 165.091C45.5405 164.582 45.5497 164.777 45.5644 167.134C45.6965 189.71 45.814 193.124 43.5695 206.066C44.8542 207.713 46.3535 209.373 48.1318 210.736C49.5872 211.851 52.0904 213.387 52.4464 213.387L53.5677 210.548C54.366 209.033 56.3535 209.322 56.1865 211.274C55.9131 214.469 43.4227 251.471 42.4831 255.678C42.2996 256.464 41.6628 259.407 42.2115 259.249C45.4066 258.296 49.8514 257.469 52.9768 258.152C54.8524 258.56 54.7037 258.601 55.1295 257.573C57.3886 252.095 59.2128 248.119 59.7982 247.408C60.8993 246.06 62.3381 246.889 61.9601 248.327L57.1977 260.078C58.7393 261.721 59.8349 262.851 60.7617 264.944C62.061 267.878 63.5457 274.305 63.2117 275.55C62.7437 277.277 58.3594 278.975 52.4758 279.708C49.9487 280.026 45.1203 280.026 43.052 279.708C39.2972 279.144 35.6965 277.864 34.8266 276.807C32.852 274.401 35.5112 266.793 37.763 263.716C38.9301 262.124 38.3025 263.137 38.3998 260.52C38.464 258.796 38.921 256.777 40.0955 253.027L50.2295 220.923C52.7731 212.809 52.7988 219.284 42.7896 209.422C37.2546 231.394 25.4671 240.5 23.0685 256.697C22.8097 258.466 22.773 263.549 23.0116 265.301C25.2322 281.571 37.183 292.326 51.4279 299.514C60.6332 304.154 69.0054 306.122 79.8882 306.791C81.6591 306.898 89.1413 306.74 91.1893 306.552L91.182 306.545ZM171.197 291.13C181.202 290.867 187.882 289.763 189.98 288.028C192.078 286.293 184.594 280.977 182.744 277.131C181.074 273.651 182.834 270.871 187.62 269.412C193.006 267.778 202.091 267.622 211.525 267.412C227.332 267.057 233.302 266.675 238.754 265.677C243.944 264.718 247.495 262.881 247.163 261.323C247.049 260.8 245.992 259.657 245.001 258.986C241.654 256.73 236.071 255.082 229.998 253.824L229.842 261.462L192.485 261.471L187.429 265.068C175.431 273.6 161.991 282.55 149.991 289.592C149.488 289.887 149.097 290.156 149.125 290.179C149.338 290.401 158.367 291.008 162.953 291.119L171.189 291.128L171.197 291.13ZM144.599 288.949C151.217 285.302 165.86 276.04 176.306 268.897C179.67 266.6 186.275 261.926 186.55 261.656L157.293 261.468C160.343 263.605 162.839 266.139 163.043 269.585C163.107 270.688 162.973 270.98 162.149 271.538C160.314 272.762 152.531 274.446 146.045 275.018C137.576 275.77 129.336 275.394 121.604 273.931C118.668 273.367 117.271 272.991 117.271 270.523C117.271 265.308 121.391 257.255 121.391 254.634L120.27 242.287C119.248 230.375 116.221 198.818 112.746 189.76C112.089 188.04 109.411 182.48 107.886 179.666C107.001 178.026 106.733 177.419 106.733 177.047C106.735 176.828 106.796 176.614 106.908 176.429C107.021 176.243 107.181 176.092 107.371 175.993C107.562 175.895 107.775 175.851 107.988 175.868C108.201 175.885 108.405 175.962 108.578 176.09C109.257 176.543 110.909 179.474 113.364 184.549C115.575 189.136 116.236 191.039 117.203 195.609C119.574 206.803 121.934 229.728 123.076 243.169C123.478 247.893 123.913 252.326 124.08 253.354C124.34 254.918 133.41 255.315 136.844 253.149C138.275 252.247 138.692 252.602 139.78 253.636C141.373 255.14 142.9 255.935 147.347 257.526L149.916 258.449L226.994 258.516V175.026L134.245 175.145C134.245 175.205 134.383 175.797 134.555 176.46C138.024 189.807 137.594 211.247 138.121 231.142C138.215 234.642 138.552 237.375 137.354 238.015C136.62 238.4 136.045 238.159 135.605 237.276C135.164 236.392 135.192 237.426 134.493 207.95C134.111 191.783 133.616 185.914 132.067 179C129.971 169.638 123.568 151.91 118.657 141.277H107.06C106.51 141.369 103.153 144.719 104.911 148.031C107.205 152.355 115.968 151.919 115.968 158.158C115.968 160.852 114.192 162.589 111.608 163.585C108.325 164.856 102.527 164.38 95.7773 162.296C95.5736 162.234 95.5571 162.416 95.5571 164.89C95.5571 178.517 93.6008 181.869 83.7292 202.846L75.4929 220.489C83.8412 223.032 91.7326 225.983 96.5279 231.542C101.323 237.101 101.197 242.481 100.865 251.074C100.448 261.857 100.018 268.728 106.262 275.065C111.072 279.952 120.061 284.389 130.633 287.107C134.104 287.998 137.253 288.611 142.562 289.446C143.594 289.611 143.173 289.728 144.61 288.94L144.599 288.949ZM179.822 254.221C154.372 252.341 143.977 223.053 158.752 205.008C168.492 193.114 185.577 190.721 197.859 199.515C220.389 215.659 211.149 251.92 183.138 254.176C182.035 254.294 180.924 254.309 179.819 254.221H179.822ZM185.19 251.04C199.855 248.745 210.03 234.323 207.225 219.207C204.139 202.562 187.24 193.124 172.265 198.716C160.646 203.053 153.458 215.031 154.986 227.514C156.846 242.729 170.521 253.356 185.187 251.04H185.19ZM178.136 245.288C163.586 242.876 156.163 227.388 162.219 214.603C169.927 198.344 192.094 198.551 199.859 214.27C206.051 226.805 199.015 242.081 185.388 245.045C183.467 245.466 179.914 245.583 178.136 245.288ZM184.251 242.468C197.559 240.097 203.735 224.474 196.157 213.161C193.647 209.413 189.448 206.621 185.251 205.625C182.45 204.957 178.136 205.125 175.308 206.093C169.986 207.914 165.229 212.796 163.601 218.295C159.609 231.766 170.696 244.887 184.251 242.468ZM179.945 239.007C172.421 238.035 166.897 232.317 166.915 224.446C166.941 212.791 179.268 206.508 188.18 211.96C198.951 218.539 196.581 234.195 185.992 238.09C184.194 238.751 181.347 239.18 179.936 238.998L179.945 239.007ZM173.324 185.258V178.224H223.383V192.289H173.324V185.258ZM185.069 188.255C188.099 187.163 187.398 182.124 184.102 182.632C179.552 183.331 180.815 189.792 185.069 188.255ZM199.365 188.067C202.97 186.279 200.432 179.951 196.308 183.179C195.15 184.087 195.082 186.476 196.183 187.529C197 188.311 198.402 188.55 199.365 188.07V188.067ZM213.863 187.704C217.224 185.952 213.792 180.342 210.815 183.281C208.613 185.459 211.351 189.024 213.863 187.704ZM52.4886 277.055C54.0687 276.881 59.3614 275.693 60.3194 275.046C60.5855 274.858 60.1616 273.128 60.1157 273.072C60.0698 273.016 59.7487 273.072 59.4165 273.175C53.8907 274.909 44.4688 274.973 38.5429 273.001C36.9977 272.487 37.3299 272.183 37.1078 275.277C41.4205 277.285 47.3005 277.618 52.4923 277.055H52.4886ZM144.742 272.147C148.963 271.803 151.402 271.45 156.144 270.487C160.448 269.613 160.275 269.963 159.505 268.207C159.27 267.669 159.138 267.485 158.984 267.532C147.963 270.952 134.647 270.831 122.784 268.547C121.523 268.305 120.472 268.126 120.446 268.147C120.378 268.222 120.167 270.341 120.219 270.433C120.27 270.525 122.812 271.245 124.03 271.495C129.341 272.589 138.642 272.655 144.742 272.147ZM52.8667 271.679C53.6686 271.621 59.7432 270.97 59.5395 270.241C58.3117 265.729 56.8821 263.301 54.5642 261.782C52.5639 260.466 47.0638 261.112 44.667 261.757C42.5822 262.321 39.9891 265.141 38.6604 268.271C37.8566 270.173 37.7593 269.936 39.567 270.527C44.065 271.997 47.8437 272.053 52.8667 271.679ZM142.617 267.596C147.143 267.372 150.142 266.998 153.858 266.194C157.638 265.374 158.079 265.489 154.539 263.637C149.817 261.167 144.339 260.562 139.49 257.024C136.297 254.693 139.123 256.2 133.067 257.315C130.639 257.768 126.631 257.58 124.465 256.922C123.364 256.588 124.232 256.245 122.263 261.911C120.947 265.718 120.978 265.483 121.657 265.658C127.792 267.226 136.315 267.914 142.61 267.602L142.617 267.596ZM232.125 223.399C248.655 208.328 262.223 189.971 264.473 169.979C264.684 168.123 264.684 162.809 264.473 161.093C262.88 147.954 254.302 137.008 243.461 128.714C238.675 125.05 234.102 122.112 221.467 114.566C210.116 107.787 204.739 104.663 197.218 96.9763C185.598 85.0956 182.114 74.9631 176.044 58.2907C169.121 39.2815 162.28 23.4268 148.303 13.8696C131.182 2.15619 109.213 -0.663598 90.8608 9.19062C75.012 17.6932 63.5585 34.3864 56.6802 52.7564C53.0098 62.6012 49.389 77.1738 47.0674 91.5303C46.4655 95.26 45.5002 102.418 45.5002 103.155C45.5002 103.719 46.6747 102.637 49.4128 102.319C50.2368 102.223 50.2001 102.264 51.2976 100.163C51.8683 99.0704 53.6044 96.2149 53.5237 95.4292C53.4429 94.6434 56.9757 87.404 58.4585 84.0504C61.4077 77.375 65.0652 69.316 67.8181 66.3271C70.2919 63.6407 73.2135 62.135 79.4624 60.3115C82.7437 59.3584 83.4852 59.3547 84.2009 60.2871C85.2763 61.6988 81.9638 62.6689 78.8293 63.7216C71.9124 66.047 70.0772 67.4005 67.3446 72.1659C65.6011 75.2263 60.3928 86.6408 58.0272 92.5906C56.6343 96.1059 56.4637 95.3465 57.4767 96.7075C59.3541 99.2378 63.4044 103.056 66.8472 105.543C69.9212 107.761 69.3541 107.456 70.1506 106.372C71.7013 104.278 79.8772 91.9326 80.3928 89.3553C81.1765 85.4809 79.6569 76.9671 78.6457 74.0232C77.9685 72.0211 80.3672 73.9743 82.0794 80.8452C83.2906 85.7065 83.5476 89.7501 81.1489 93.8313L75.0084 104.338C74.9478 104.441 78.4255 106.436 79.7799 107.073C82.7988 108.496 85.1552 109.278 87.2767 109.569C92.2317 110.248 100.042 108.319 105.482 106.81C110.962 105.289 113.199 105.105 117.561 105.048C119.642 100.525 125.33 86.4622 126.31 85.2065C127.625 83.524 126.677 88.5395 126.587 88.8778C126.082 90.8273 124.144 96.1623 121.621 102.526C120.336 105.742 120.152 105.297 121.668 105.765C130.703 108.56 127.981 115.07 128.062 115.151C128.211 115.305 131.011 113.425 132.751 112C134.084 110.908 139.725 105.522 139.281 104.293C139.207 104.105 138.22 102.336 137.088 100.379C132.65 92.7203 131.399 90.1524 128.264 82.3153C125.713 75.9237 124.072 73.1773 119.231 70.4909C117.89 69.739 118.383 69.8198 117.2 70.0868C113.733 70.8688 111.878 68.8931 111.694 69.0622C111.556 69.1901 111.202 72.149 109.35 74.074C107.427 76.0723 104.974 76.3467 102.531 74.8259C99.4991 72.9479 96.0214 67.5678 94.1183 61.8135C92.1712 55.922 93.9128 58.4091 99.4569 53.3692C101.997 51.0588 99.8001 52.9932 98.1448 49.882C96.6197 47.0134 97.6529 42.6634 100.347 40.5955L100.987 40.0993L101.07 38.6762C101.358 33.6607 103.805 28.0287 107.246 24.4701C111.428 20.1464 116.897 18.4226 121.419 19.9942C124.107 20.9341 122.536 21.2593 124.614 20.8777C133.346 19.2723 141.211 23.6317 143.546 33.0573C144.779 38.0371 144.148 45.5509 142.445 50.4592C139.974 57.5744 143.1 60.8379 135.943 55.1005C134.016 57.1928 133.285 58.2079 130.876 59.5671C126.392 62.0955 130.578 63.3268 121.149 68.6036C126.288 70.9496 128.71 75.3109 131.178 81.6987C134.436 90.1355 135.447 91.7766 141.419 102.398C142.377 104.101 142.413 104.575 141.694 105.919C139.793 109.47 135.691 113.126 131.641 116.241C133.808 119.061 140.362 125.659 143.337 127.625L144.205 128.201L163.634 128.485C157.983 124.569 150.837 119.394 146.422 114.106C144.423 111.712 144.37 111.634 144.37 111.098C144.352 110.839 144.423 110.581 144.572 110.37C144.721 110.16 144.937 110.009 145.183 109.945C145.917 109.695 146.354 110.028 148.303 112.31C152.606 117.356 155.759 119.76 163.784 125.247L168.653 128.577L194.399 128.868L197.172 126.93C198.235 126.603 197.369 125.373 199.628 124.236C201.646 123.217 204.326 124.063 204.53 127.187L204.597 128.257C205.882 128.658 205.855 128.757 206.02 128.154C207.073 124.298 212.533 125.475 212.091 129.693L212.004 130.496C213.656 131.06 212.883 130.684 213.806 129.302C215.412 126.906 219.507 127.798 219.229 131.325C219.132 132.568 218.604 132.829 220.246 133.16C221.111 133.335 220.855 130.876 223.821 130.876C225.515 130.876 226.757 131.938 227.125 133.681C227.326 134.641 227.053 135.476 226.701 136.773L227.205 137.337C231.234 141.803 226.849 147.413 220.903 147.875C217.403 148.15 218.372 143.937 211.881 145.037C210.378 145.291 206.59 146.264 204.153 147.022C201.3 147.913 201.021 147.881 199.932 146.486C198.314 144.401 196.467 142.802 194.212 141.773L192.977 141.209L186.06 141.127C185.181 142.918 183.902 144.65 182.327 145.531C180.587 146.499 176.541 146.646 172.87 145.875C166.563 144.546 163.643 141.463 163.021 141.273H121.911C126.166 150.616 129.538 160.203 133.32 171.951L229.751 172.084C230.261 172.411 229.646 225.617 230.219 225.13C230.34 225.029 231.197 224.252 232.127 223.399H232.125ZM41.7435 196.705C42.2629 191.83 42.4996 186.706 42.5033 180.162C42.5033 174.622 42.6428 174.635 41.9527 177.402C39.934 185.412 38.8145 193.671 41.1819 201.186L41.7508 196.712L41.7435 196.705ZM58.932 165.311C64.3881 164.866 69.7597 163.029 76.2343 160.574C81.8647 158.436 83.0833 158.136 86.1297 158.136C93.7916 158.136 99.0697 161.758 106.667 161.769C108.17 161.769 108.958 161.715 109.585 161.557C112.23 160.895 114.485 158.865 112.826 156.645C110.76 153.874 101.734 153.365 101.734 145.877C101.734 141.27 104.742 141.155 101.632 141.307C99.3266 141.42 99.4294 141.279 99.4294 137.436H95.5865C96.3976 139.008 97.3483 141.215 95.5571 142.7C94.6744 143.429 94.8708 145.144 92.8043 145.341C91.3196 145.49 91.9344 147.652 88.9504 147.381C87.3611 147.238 88.0328 148.533 85.3901 148.419C82.2042 148.279 80.3616 144.869 76.7757 141.839C73.6558 139.207 75.269 139.598 70.1157 139.292C65.926 139.042 66.3499 139.01 66.3499 139.593C66.3499 142.634 64.0816 142.448 61.237 142.412C56.4526 142.339 57.1152 142.866 57.2179 133.827L57.2987 126.558C54.0283 123.55 51.3196 120.886 49.0403 117.405C44.3844 110.274 48.6163 106.126 48.6163 105.022C48.6163 104.962 44.4798 105.802 41.2755 110.417C33.0355 122.26 32.6501 152.831 46.9353 162.542C50.4956 164.959 53.8522 165.738 58.9357 165.319L58.932 165.311ZM86.293 146.02C86.739 145.736 82.0721 139.576 86.394 143.514C87.407 144.433 88.9853 145.841 89.8166 145.488C91.1985 144.896 89.589 144.294 88.4145 142.42C87.897 141.591 86.816 139.647 86.816 139.546C86.816 138.641 91.9234 143.518 92.8062 143.418C93.6448 143.322 92.8245 141.399 91.6041 139.912C89.5285 137.384 88.2787 136.331 91.0535 137.694C94.2211 139.252 94.6927 141.973 94.6817 140.405C94.6689 138.021 89.4459 133.179 84.4486 130.896C79.8294 128.795 75.124 127.902 71.8114 125.17C69.1449 122.982 65.1221 117.948 64.3569 115.884C63.5163 113.579 64.9496 111.346 66.1499 108.754C62.9805 106.641 58.5631 102.762 56.1957 99.7472C55.2524 98.546 55.8929 98.2433 53.1181 102.911C51.0627 106.376 48.8311 110.113 50.0221 113.104C52.4281 119.144 60.0386 125.379 65.8452 129.178C76.1077 135.893 70.9636 133.013 78.6421 140.288C80.0148 141.593 81.7124 143.285 82.4171 144.055C83.8504 145.636 84.5973 146.123 85.5644 146.123C85.8134 146.133 86.0621 146.097 86.2985 146.016L86.293 146.02ZM221.927 145.165C224.359 144.527 227.451 142.285 225.976 139.713C224.926 137.891 222.843 136.617 218.389 135.094C211.856 132.853 199.534 129.253 198.4 129.25C197.596 129.25 195.908 130.981 194.829 131.475C194.223 131.754 194.296 131.84 194.296 132.445C196.779 132.372 197.488 132.673 197.796 131.694C198.369 129.866 201.01 130.334 201.248 132.16C201.432 133.57 199.815 134.604 198.58 133.852C197.846 133.412 195.713 133.675 194.175 133.748V134.839L205.908 135.271C205.265 130.163 212.674 134.331 207.479 136.587C206.635 136.826 194.175 136.241 194.175 136.57C194.175 137.249 210.555 137.42 213.522 137.42C213.522 134.047 216.407 135.243 216.765 136.128C217.244 137.316 215.847 138.422 215.412 138.589C214.128 139.089 204.807 139.051 198.358 138.521C195.53 138.288 194.173 138.002 194.173 138.369C194.173 139.081 214.728 139.837 220.637 140.019C220.637 137.737 222.986 137.918 223.649 138.677C224.392 139.531 223.92 140.933 222.781 141.253C220.432 141.92 203.827 140.602 199.455 140.166C195.476 139.768 195.561 139.762 196.484 140.254C198.56 141.352 200.387 143.132 201.979 145.086C208.567 143.176 215.31 140.621 219.374 144.542C220.312 145.448 220.56 145.507 221.929 145.15L221.927 145.165ZM179.78 144.01C182.27 143.446 184.812 140.476 184.808 137.959C184.808 133.551 181.634 130.84 182.536 134.788C183.373 138.457 183.271 139.299 181.757 140.822C181.454 141.13 178.512 143.616 180.006 141.411C181.518 139.172 181.256 136.972 180.103 134.363C178.472 130.671 178.119 133.729 178.754 135.711C179.246 137.252 179.571 139.155 178.73 140.222C178.372 140.677 176.616 142.001 176.512 141.892C176.486 141.867 176.633 141.489 176.84 141.059C178.11 138.427 176.583 133.983 175.324 133.983C174.788 133.983 175.926 137.982 175.489 138.933C175.201 139.561 173.885 140.907 173.287 141.189C172.419 141.604 170.123 141.117 168.963 141.206L167.025 141.277L171.586 143.533C173.739 144.253 177.684 144.473 179.784 143.999L179.78 144.01ZM63.7953 139.831C64.1458 138.876 63.6742 139.021 62.5951 138.97C60.5543 138.873 59.3302 137.583 63.9164 137.756L63.9898 135.807C63.1952 135.649 60.6865 135.69 61.7344 134.62C62.0812 134.263 63.1823 134.367 63.9825 134.367L63.887 132.318C62.1748 132.299 60.525 131.318 63.2466 130.977L59.6496 128.468C59.5945 128.68 59.5284 139.865 59.5853 139.924L63.7953 139.831ZM143.452 138.841C170.956 138.841 174.126 138.965 173.549 138.384C173.476 138.309 164.126 137.95 159.101 137.82C141.099 137.374 121.164 137.365 101.744 137.365C101.621 139.26 100.809 139.021 107.644 138.92C110.85 138.869 126.965 138.831 143.452 138.835V138.841ZM72.1528 137.305C70.9489 136.059 71.5508 136.688 69.4275 136.356L66.3517 135.995V137.797L73.0135 138.198L72.1436 137.303L72.1528 137.305ZM191.441 136.929C191.441 136.438 186.924 136.756 186.923 136.758C186.04 137.311 191.441 137.421 191.441 136.929ZM173.456 136.491C173.456 135.983 164.052 135.891 157.726 135.713L109.387 134.434C100.578 134.201 101.679 133.547 101.679 136L166.776 136.517C171.516 136.696 173.45 136.685 173.45 136.476L173.456 136.491ZM99.4312 135.137V134.243C96.0783 134.182 96.9445 133.712 96.416 136.034H99.4312V135.137ZM94.3679 135.113C95.6525 133.216 90.5966 132.13 90.492 132.237L94.0266 135.38C94.1073 135.38 94.2633 135.267 94.3679 135.113ZM191.434 134.63V134.111H186.205C186.523 135.152 186.185 135.074 189.461 135.109L191.428 135.13V134.622L191.434 134.63ZM224.563 134.808C225.207 133.086 222.889 133.37 222.889 134.128C222.889 134.199 224.346 135.357 224.563 134.808ZM69.0935 134.79L66.5371 133.111C66.4233 135.322 66.1205 134.384 69.0036 134.867C69.0149 134.87 69.0267 134.87 69.038 134.867C69.0494 134.865 69.06 134.86 69.0691 134.852C69.0782 134.845 69.0854 134.835 69.0903 134.824C69.0952 134.813 69.0975 134.802 69.0972 134.79H69.0935ZM173.131 134.098C173.173 133.946 173.179 133.786 173.148 133.632C172.47 132.938 111.45 132.066 101.74 132.007V132.648L173.05 134.5L173.131 134.098ZM99.411 132.295L99.4477 131.945H95.5131C96.1077 132.59 96.1701 132.684 98.5522 132.658C99.3395 132.648 99.3652 132.641 99.4055 132.295H99.411ZM191.434 131.945V131.304L184.39 131.133L185.471 132.449L191.434 132.586V131.949V131.945ZM174.757 131.741C176.093 131.25 176.372 132.314 176.796 131.741C177.315 131.034 177.365 131.058 175.427 131.058L102.52 130.034C101.786 130.034 101.679 130.064 101.679 130.272C101.679 130.481 101.863 130.517 104.893 130.596L135.073 130.996L169.648 131.887C173.898 132.075 173.88 132.075 174.757 131.748V131.741ZM216.836 131.63C217.455 129.073 214.172 131.193 215.866 131.727C216.673 131.983 216.752 131.974 216.836 131.63ZM181.314 131.483L181.61 131.162H180.556L181.015 131.799C181.015 131.799 181.156 131.658 181.32 131.483H181.314ZM99.4257 129.5C99.4257 127.475 99.1651 127.547 106.135 127.663L111.687 127.755C110.204 124.819 110.45 121.644 112.681 119.456C116.159 116.046 122.133 116.923 124.794 115.202C128.545 112.758 124.487 105.084 109.475 108.225C103.612 109.447 94.4303 113.181 87.0895 112.055C84.4486 111.65 82.953 111.139 77.9337 108.942C72.4005 106.517 73.6742 106.511 72.2134 108.511C70.6608 110.639 70.5011 110.507 69.0935 110.365C66.1792 114.976 65.9223 114.168 68.6843 117.852C72.8685 123.435 75.4653 125.15 81.4995 127.33C84.5661 128.439 83.5641 128.458 87.6437 129.308C94.6285 130.748 91.1049 130.5 99.4239 130.532V129.5H99.4257ZM209.811 129.423C209.931 128.795 209.094 126.845 207.91 129.235C208.982 129.611 209.699 130.037 209.811 129.423ZM139.062 127.81C136.908 126.178 131.883 120.871 128.842 117.737C125.816 118.38 126.387 117.019 125.603 117.549C122.742 119.467 113.371 118.207 113.355 124.014C113.355 126.093 114.55 127.571 115.234 127.823L139.435 128.097L139.068 127.815L139.062 127.81ZM202.265 127.047C202.133 125.294 199.608 126.55 199.932 126.881C200.674 127.156 201.431 127.386 202.199 127.571C202.258 127.584 202.285 127.344 202.265 127.047ZM106.741 73.0024C108.565 72.1546 109.086 69.7221 109.552 67.4456C104.518 63.5674 102.696 57.2831 103.612 56.9184C104.427 56.5969 107.301 64.0618 113.445 67.2444C115.148 68.1317 116.122 68.1411 118.337 67.2914C123.351 65.3702 125.183 63.59 126.875 60.1066C125.504 59.0633 125.706 58.0989 125.908 58.2267L127.825 58.7907L130.822 57.0199C127.969 55.7679 126.943 56.3243 128.484 55.5498C129.696 54.9426 130.96 54.9389 131.824 55.5498C132.608 56.095 132.946 55.3731 134.394 53.858C130.07 49.4967 126.365 45.502 124.056 40.9678C121.979 36.8828 125.157 45.643 125.783 47.1224C126.783 49.4704 127.906 51.4066 125.267 50.0418C120.575 47.6225 116.321 42.7367 114.421 37.5784L113.938 36.2625C112.769 38.7176 112.366 39.8342 109.989 41.7272C107.009 44.109 107.475 45.4211 106.739 43.6541C104.904 39.2665 99.4588 42.4284 99.8386 47.363C100.118 51.0062 104.3 50.1227 104.3 50.5043C104.3 53.2169 95.9315 58.5256 95.937 58.9881C95.9554 60.6442 101.81 75.3429 106.743 73.0062L106.741 73.0024ZM117.148 65.9191C114.975 65.2894 114.658 63.7235 114.489 61.806C115.862 63.3099 116.392 63.9885 118.541 64.8025C119.248 65.0732 119.85 65.357 119.874 65.436C120.008 65.8439 118.073 66.188 117.148 65.9191ZM120.707 63.5261C119.506 63.2648 118.64 61.259 119.239 61.5898C119.563 61.7778 120.578 61.9019 120.879 61.806C121.21 61.6988 123.081 58.7982 123.52 58.7982C123.52 58.7982 123.52 64.1351 120.701 63.5279L120.707 63.5261ZM117.976 56.2472C116.691 55.8262 115.208 52.1416 116.812 53.6493L120.459 55.9051C119.705 56.2322 118.725 56.4973 117.976 56.2548V56.2472ZM122.234 53.9914C121.085 51.7732 116.891 50.3295 116.935 50.1866C117.018 49.9215 118.642 49.5662 119.391 49.6452C123.627 50.1058 122.957 55.4051 122.234 53.9914ZM102.441 49.2015C100.973 48.865 102.922 48.5285 102.922 48.1582C102.922 47.2296 101.386 45.7539 103.733 44.4568C104.63 43.9624 104.707 43.9737 104.616 43.2292C104.537 42.592 104.627 42.5544 105.078 43.0412C105.961 43.9812 105.957 44.9568 105.062 45.8761C103.696 47.2766 105.656 49.2053 102.441 49.2053V49.2015ZM140.813 35.7004C140.378 29.0626 134.908 25.2615 128.26 25.0942L126.078 25.0416C135.438 27.0888 138.723 30.027 140.446 39.4282C140.665 40.6106 140.841 36.129 140.813 35.7023V35.7004ZM105.72 34.298C107.234 30.9143 111.314 26.2992 114.884 24.6995L115.843 24.2709C111.296 24.6957 108.616 25.9815 106.598 30.4518C106.157 31.4256 104.546 36.9148 105.715 34.298H105.72Z" fill="#3F170D"/>
</g>
<defs>
<clipPath id="clip0_159_5249">
<rect width="268" height="310" fill="white"/>
</clipPath>
</defs>
</svg>
