<svg width="44" height="44" fill="none" xmlns="http://www.w3.org/2000/svg"><g clip-path="url(#a)"><path d="M44 9.194V31.11c0 2.844-2.89 5.157-6.445 5.157-1.688 0-3.227-.522-4.376-1.373-1.272-.943-2.07-2.29-2.07-3.784 0-1.493.798-2.84 2.07-3.783 1.149-.852 2.688-1.374 4.376-1.374 1.456 0 2.787.404 3.867 1.058V16.306l-8.243 3.533-7.226 3.097v15.91c0 2.844-2.89 5.156-6.445 5.156s-6.445-2.313-6.445-5.157c0-2.843 2.89-5.156 6.445-5.156 1.457 0 2.787.403 3.867 1.057V16.929c0-.516.307-.982.78-1.184L42.202 8.01A1.287 1.287 0 0 1 44 9.194Z" fill="#3F170D"/><path d="M20.625 14.179c0 3.016-2.656 5.775-2.965 6.059a1.246 1.246 0 0 1-1.805 0 1.246 1.246 0 0 1 0-1.805c.593-.619 2.192-2.578 2.192-4.254 0-2.759-2.836-6.781-5.157-9.54v18.564c0 .206-.025.464-.051.722-.258 1.392-1.186 2.604-2.527 3.404-1.057.644-2.423 1.031-3.867 1.031C2.887 28.36 0 26.04 0 23.203c0-2.836 2.887-5.157 6.445-5.157 1.47 0 2.785.413 3.867 1.058V1.287c0-.516.31-.98.8-1.186a1.256 1.256 0 0 1 1.392.283c.85.825 8.121 8.277 8.121 13.795Z" fill="#FFD284"/><path d="M20.625 14.179c0 3.016-2.656 5.775-2.965 6.059a1.246 1.246 0 0 1-1.805 0 1.246 1.246 0 0 1 0-1.805c.593-.619 2.192-2.578 2.192-4.254 0-2.759-2.836-6.781-5.157-9.54v18.564c0 .206-.025.464-.051.722-.258 1.392-1.186 2.604-2.527 3.404V1.287c0-.516.31-.98.8-1.186a1.256 1.256 0 0 1 1.392.283c.85.825 8.121 8.277 8.121 13.795Z" fill="#FFD284"/><path d="M43.42 8.117a1.281 1.281 0 0 0-1.218-.108l-9.023 3.867v7.961l8.243-3.533v10.704a7.466 7.466 0 0 0-3.867-1.057c-1.688 0-3.227.521-4.376 1.373-1.272.943-2.07 2.29-2.07 3.783 0 1.494.798 2.84 2.07 3.783 1.149.852 2.688 1.373 4.376 1.373 3.555 0 6.445-2.312 6.445-5.156V9.193c0-.433-.217-.837-.58-1.076Z" fill="#3F170D"/></g><defs><clipPath id="a"><path fill="#fff" d="M0 0h44v44H0z"/></clipPath></defs></svg>