<svg width="44" height="44" fill="none" xmlns="http://www.w3.org/2000/svg"><path d="M27.863 34.868H16.136V44h11.726v-9.132Z" fill="#3F170D"/><path d="M27.863 34.868H22V44h5.863v-9.132Z" fill="#3F170D"/><path d="M13.477 6.125H5.89v2.578h7.586V6.125Z" fill="#FFD284"/><path d="M5.125 10.635a2.573 2.573 0 0 0 2.573-2.573V6.766a2.573 2.573 0 1 0-5.146 0v1.296a2.573 2.573 0 0 0 2.573 2.573ZM13.477 18.28H5.89v2.578h7.586V18.28Z" fill="#FFD284"/><path d="M5.125 22.79a2.573 2.573 0 0 0 2.573-2.573v-1.296a2.573 2.573 0 0 0-5.146 0v1.296a2.573 2.573 0 0 0 2.573 2.573ZM13.477 30.436H5.89v2.578h7.586v-2.578Z" fill="#FFD284"/><path d="M5.125 34.946a2.573 2.573 0 0 0 2.573-2.573v-1.297a2.573 2.573 0 0 0-5.146 0v1.297a2.573 2.573 0 0 0 2.573 2.573ZM38.11 6.125h-7.586v2.578h7.585V6.125Z" fill="#FFD284"/><path d="M38.875 10.635a2.573 2.573 0 0 1-2.573-2.573V6.766a2.573 2.573 0 0 1 5.146 0v1.296a2.573 2.573 0 0 1-2.573 2.573ZM38.11 18.28h-7.586v2.578h7.585V18.28Z" fill="#FFD284"/><path d="M38.875 22.79a2.573 2.573 0 0 1-2.573-2.573v-1.296a2.573 2.573 0 0 1 5.146 0v1.296a2.573 2.573 0 0 1-2.573 2.573ZM38.11 30.436h-7.586v2.578h7.585v-2.578Z" fill="#FFD284"/><path d="M38.875 34.946a2.573 2.573 0 0 1-2.573-2.573v-1.297a2.573 2.573 0 0 1 5.146 0v1.297a2.573 2.573 0 0 1-2.573 2.573Z" fill="#FFD284"/><path d="M22 39.138h5.863l4.51-4.987 1.424-30.49S28.699 0 22 0c-6.699 0-11.797 3.661-11.797 3.661l1.425 30.49 4.509 4.987H22Z" fill="#3F170D"/><path d="M22 39.138h5.863l4.51-4.987 1.424-30.49S28.699 0 22 0v39.138Z" fill="#3F170D"/><path d="M16.064 9.224a1.81 1.81 0 1 0 0-3.621 1.81 1.81 0 0 0 0 3.621ZM16.613 21.38a1.81 1.81 0 1 0 0-3.621 1.81 1.81 0 0 0 0 3.621ZM17.218 33.535a1.81 1.81 0 1 0 0-3.621 1.81 1.81 0 0 0 0 3.62ZM27.936 9.224a1.81 1.81 0 1 0 0-3.621 1.81 1.81 0 0 0 0 3.621ZM27.387 21.38a1.81 1.81 0 1 0 0-3.621 1.81 1.81 0 0 0 0 3.621ZM26.782 33.535a1.81 1.81 0 1 0 0-3.621 1.81 1.81 0 0 0 0 3.62Z" fill="#fff"/></svg>