<svg width="46" height="46" fill="none" xmlns="http://www.w3.org/2000/svg"><path d="M30.304 33.063h-5.327V45.55H8.176V29.846l-4.582-4.043v-4.142l3.818-2.641a8.15 8.15 0 0 1 5.651-1.384l9.281 1.168a6.739 6.739 0 0 1 5.705 5.077l2.255 9.181Z" fill="#fff"/><path d="m23.27 28.57-.549-5.597-2.82 5.597h3.369Z" fill="#3F170D"/><path d="M27.672 32.146a4.204 4.204 0 0 0-4.205-4.205c-.368 0-.728.063-1.078.198a7.33 7.33 0 0 1-6.657-.755c-.683-.458-1.393-.925-2.022-1.347a8.367 8.367 0 0 0-4.663-1.41c-1.86 0-3.585.592-4.986 1.598l4.115 3.621v14.87c.27.017.476.026.727.026h.117a8.49 8.49 0 0 0 4.7-1.41c.646-.432 1.374-.917 2.066-1.375a7.224 7.224 0 0 1 6.567-.746l.045.018c.341.126.71.198 1.078.198.53 0 1.06-.099 1.51-.279v-8.086h2.695v-.916h-.01Z" fill="#3F170D"/><path d="M23.719 27.133h5.12l1.465 5.93h-5.327l-1.258-5.93Z" fill="#F7CEBF"/><path d="M23.467 26.324c-.368 0-.727.063-1.078.198a7.33 7.33 0 0 1-6.657-.755c-.683-.458-1.393-.925-2.022-1.348a8.367 8.367 0 0 0-4.663-1.41A8.58 8.58 0 0 0 .45 31.598v3.082c0 4.663 3.783 8.445 8.455 8.445h.116a8.49 8.49 0 0 0 4.7-1.41c.646-.432 1.374-.917 2.066-1.375a7.224 7.224 0 0 1 6.567-.746l.045.018c.341.126.71.198 1.078.198a4.204 4.204 0 0 0 4.205-4.205v-5.067c-.01-2.327-1.896-4.214-4.214-4.214Z" fill="#FFD284"/><path d="m3.109 25.38 7.987 10.117a1.455 1.455 0 0 0 2.102.189l1.842-1.626-8.634-10.647a8.66 8.66 0 0 0-3.297 1.968ZM18.957 36.387a3.324 3.324 0 1 0 0-6.649 3.324 3.324 0 0 0 0 6.649Z" fill="#3F170D"/><path d="M22.254 31.086h17.951v3.953h-17.95v-3.953Z" fill="#3F170D"/><path d="M24.527 31.086h.899v3.953h-.899v-3.953ZM27.223 31.086h.898v3.953h-.898v-3.953ZM29.828 31.086h.899v3.953h-.899v-3.953ZM32.523 31.086h.899v3.953h-.899v-3.953ZM35.219 31.086h.898v3.953h-.898v-3.953Z" fill="#FFD284"/><path d="M8.176 27.852h1.797v10.421H8.176V27.852Z" fill="#3F170D"/><path d="M9.074 32.883h29.29v.449H9.073v-.45ZM9.074 31.086h29.29v.45H9.073v-.45ZM9.074 34.59h29.29v.45H9.073v-.45Z" fill="#fff"/><path d="M38.363 31.086v3.953l4.564 1.788a1.921 1.921 0 0 0 2.624-1.788l-3.387-4.196a1.922 1.922 0 0 0-2.381-.494l-1.42.737Z" fill="#FFD284"/><path d="m43.125 35.309-.566-.701.7-.566.567.7-.701.567Zm-1.132-1.393-.566-.7.7-.567.567.701-.701.566Zm-1.123-1.401-.566-.701.7-.566.567.7-.701.566Z" fill="#fff"/><path d="M19.227 18.04h-3.594v.9c0 .987.808 1.796 1.797 1.796.988 0 1.797-.809 1.797-1.797v-.898ZM13.297 30.116l2.462 1.06-1.384 1.267.53 1.266-1.734 1.402a.915.915 0 0 1-1.455-.458l-.656-2.273-7.97-7.026a2.238 2.238 0 0 1-.278-3.064 2.248 2.248 0 0 1 3.441-.108l7.044 7.934ZM35.668 35.04v-1.977h2.695v1.626a2.422 2.422 0 0 1-2.03 2.39l-5.463.88a2.832 2.832 0 0 1-3.198-2.084v-.836h7.996Z" fill="#F7CEBF"/><path d="m14.375 32.443-.485-1.15 1.869-.117-1.384 1.267ZM35.668 35.039h-7.996v.809c.117.449.332.844.61 1.168l7.386-1.977ZM17.43 12.021h7.115a1.867 1.867 0 0 0 1.87-1.869 1.867 1.867 0 0 0-1.87-1.868H17.43v3.737ZM17.43 12.021h-7.116a1.867 1.867 0 0 1-1.869-1.869c0-1.033.836-1.868 1.87-1.868h7.115v3.737Z" fill="#F7CEBF"/><path d="M17.43 18.409a6.139 6.139 0 0 1-6.137-6.136V2.704h12.282v9.569c-.009 3.387-2.758 6.136-6.145 6.136Z" fill="#F7CEBF"/><path d="M11.293 2.704h12.282v5.57H11.293v-5.57Z" fill="#F7CEBF"/><path d="M14.016 8.895h1.886v.898h-1.886v-.898ZM15.453 10.512h.899v1.437h-.899v-1.437ZM18.957 8.895h1.887v.898h-1.887v-.898ZM18.508 10.512h.898v1.437h-.898v-1.437ZM17.43 1.923A3.072 3.072 0 0 0 14.806.449h-.494C11.32.45 9.12 3.243 9.811 6.154l.503 2.12h2.273c.719 0 1.375-.43 1.653-1.095l.719-1.672a1.797 1.797 0 0 1 2.462-.898 1.797 1.797 0 0 1 2.461.898l.72 1.672a1.804 1.804 0 0 0 1.652 1.096h2.273l.503-2.12C25.75 3.242 23.54.448 20.547.448h-.494c-1.069 0-2.066.557-2.623 1.474Z" fill="#3F170D"/><path d="M17.43 4.609a1.802 1.802 0 0 1 1.797.108V.566a3.138 3.138 0 0 0-1.797 1.357v2.686Z" fill="#3F170D"/></svg>