<svg width="44" height="44" fill="none" xmlns="http://www.w3.org/2000/svg"><g clip-path="url(#a)"><path d="M43.335 7.928a.663.663 0 0 1-.47-.195l-6.598-6.599a.665.665 0 0 1 .94-.94l6.598 6.6a.664.664 0 0 1-.47 1.134ZM41.532 9.1a.663.663 0 0 1-.47-.194l-5.968-5.968a.664.664 0 1 1 .94-.94L42 7.967a.664.664 0 0 1-.47 1.135ZM39.649 10.184a.663.663 0 0 1-.47-.195L34.01 4.821a.665.665 0 0 1 .94-.94l5.168 5.168a.664.664 0 0 1-.47 1.135Z" fill="#3F170D"/><path d="m37.797 9.307 5.202-3.321a2.044 2.044 0 0 0 .76-2.581l-.02-.04c-.645-1.352.747-1.872-.242-2.862-.979-.978-1.51.403-2.862-.243a2.044 2.044 0 0 0-2.621.74l-3.321 5.203 3.104 3.104Z" fill="#3F170D"/><path d="M43.758 3.405a3.266 3.266 0 0 0-.019-.04c-.645-1.352.747-1.872-.242-2.862-.313-.312-.58-.384-.843-.358-.096.753-1.009 1.556-.53 2.56l.006.013c.431.928.103 2.03-.759 2.58L36.67 8.18l1.128 1.127 5.202-3.321a2.044 2.044 0 0 0 .76-2.581Z" fill="#3F170D"/><path d="M4.96 39.04c3.57 3.57 9.694 7.465 15.46 2.861 3.863-3.083 2.917-6.259 3.968-8.8 1.051-2.541 2.805-2.326 5.371-4.785 3.211-3.077 3.253-8.141-1.34-12.734-4.594-4.594-9.658-4.552-12.735-1.341-2.46 2.566-2.244 4.32-4.785 5.37-2.541 1.052-5.717.106-8.8 3.968-4.604 5.767-.71 11.89 2.861 15.46Z" fill="#FFD284"/><path d="M24.388 33.101c1.051-2.541 2.805-2.326 5.371-4.785 3.211-3.077 3.253-8.141-1.34-12.734a16.902 16.902 0 0 0-.578-.55c4.033 4.434 3.867 9.207.79 12.156-2.566 2.46-4.32 2.244-5.37 4.785-1.052 2.541-.106 5.717-3.968 8.8-5.47 4.367-11.258 1.089-14.887-2.307.185.198.37.39.554.574 3.57 3.57 9.694 7.465 15.46 2.862 3.863-3.084 2.917-6.26 3.968-8.8Z" fill="#3F170D"/><path d="M21.576 28.864a4.558 4.558 0 1 0-6.446-6.445 4.558 4.558 0 0 0 6.446 6.445Z" fill="#3F170D"/><path d="M21.581 22.419a4.579 4.579 0 0 0-.614-.514 4.559 4.559 0 0 1-6.346 6.346 4.558 4.558 0 1 0 6.96-5.832ZM14.652 36.069l-6.72-6.72a.906.906 0 0 1 0-1.282l.753-.753a.906.906 0 0 1 1.28 0l6.721 6.72a.906.906 0 0 1 0 1.281l-.753.754a.906.906 0 0 1-1.281 0Z" fill="#3F170D"/><path d="m16.686 34.034-1.127-1.128a.906.906 0 0 1 0 1.281l-.754.754a.906.906 0 0 1-1.281 0l1.128 1.128a.906.906 0 0 0 1.28 0l.754-.754a.906.906 0 0 0 0-1.281ZM37.797 9.307l-2.149 2.15-.94.94-2.167 2.167-.94.94-3.108 3.106-2.167 2.168-.94.94-2.651 2.65a4.53 4.53 0 0 0-1.154-1.95 4.531 4.531 0 0 0-1.95-1.153l2.652-2.65.94-.941 2.167-2.167 3.107-3.108.94-.939 3.107-3.107 2.149-2.15 3.104 3.104Z" fill="#3F170D"/><path d="M22.735 24.369 37.797 9.307 36.669 8.18 21.978 22.87c.35.458.603.966.757 1.498Z" fill="#fff"/><path d="m31.6 9.296.94-.94 3.103 3.103-.94.94L31.6 9.296ZM28.487 12.387l.94-.94 3.103 3.104-.94.94-3.103-3.104ZM25.385 15.508l.94-.94 3.103 3.103-.94.94-3.103-3.103ZM22.28 18.63l.94-.94 3.103 3.103-.94.94-3.103-3.104Z" fill="#3F170D"/></g><defs><clipPath id="a"><path fill="#fff" d="M0 0h44v44H0z"/></clipPath></defs></svg>