<svg width="44" height="44" fill="none" xmlns="http://www.w3.org/2000/svg"><path d="M41.8 7.333A1.467 1.467 0 0 1 43.267 8.8v28.6a1.467 1.467 0 0 1-1.467 1.467H25.667v.733a1.467 1.467 0 0 1-1.467 1.467h-4.4a1.467 1.467 0 0 1-1.467-1.467v-.733H2.2A1.467 1.467 0 0 1 .733 37.4V8.8A1.467 1.467 0 0 1 2.2 7.333h39.6Z" fill="#3F170D"/><path d="M22 35.933H5.133a1.47 1.47 0 0 1-1.466-1.466V30.8a1.471 1.471 0 0 0 1.466 1.467h13.2A3.667 3.667 0 0 1 22 35.933ZM40.333 30.8v3.667a1.47 1.47 0 0 1-1.466 1.466H22a3.667 3.667 0 0 1 3.667-3.666h13.2a1.471 1.471 0 0 0 1.466-1.467Z" fill="#fff"/><path d="M40.333 4.4v26.4a1.471 1.471 0 0 1-1.466 1.467h-13.2A3.667 3.667 0 0 0 22 35.933a3.666 3.666 0 0 0-3.667-3.666h-13.2A1.471 1.471 0 0 1 3.667 30.8V4.4a1.471 1.471 0 0 1 1.466-1.467h13.2A3.666 3.666 0 0 1 22 6.6a3.667 3.667 0 0 1 3.667-3.667h13.2A1.471 1.471 0 0 1 40.333 4.4Z" fill="#FFD284"/><path d="M10.267 22a2.2 2.2 0 1 0 0-4.4 2.2 2.2 0 0 0 0 4.4ZM16.867 19.8a2.2 2.2 0 1 0 0-4.4 2.2 2.2 0 0 0 0 4.4ZM12.08 8.052l5.134-1.4a1.466 1.466 0 0 1 1.853 1.415v2.2L11 12.467v-3a1.467 1.467 0 0 1 1.08-1.415ZM28.6 22a2.2 2.2 0 1 0 0-4.4 2.2 2.2 0 0 0 0 4.4ZM35.2 19.8a2.2 2.2 0 1 0 0-4.4 2.2 2.2 0 0 0 0 4.4ZM30.414 8.052l5.133-1.4A1.467 1.467 0 0 1 37.4 8.066v2.2l-8.067 2.2v-3a1.466 1.466 0 0 1 1.081-1.415Z" fill="#3F170D"/><path d="M22.733 4.4v29.333a3.623 3.623 0 0 0-.733 2.2 3.624 3.624 0 0 0-.733-2.2V4.4c.479.633.736 1.406.733 2.2a3.623 3.623 0 0 1 .733-2.2ZM18.333 25.667H6.6a.733.733 0 0 1 0-1.467h11.733a.733.733 0 0 1 0 1.467ZM18.333 29.333H6.6a.733.733 0 1 1 0-1.466h11.733a.733.733 0 1 1 0 1.466ZM37.4 25.667H25.667a.734.734 0 0 1 0-1.467H37.4a.734.734 0 0 1 0 1.467ZM37.4 29.333H25.667a.733.733 0 1 1 0-1.466H37.4a.733.733 0 1 1 0 1.466Z" fill="#fff"/><path d="M11 11h1.467v8.8H11V11ZM17.6 10.267h1.467V17.6H17.6v-7.333ZM29.333 11H30.8v8.8h-1.467V11ZM35.933 10.267H37.4V17.6h-1.467v-7.333Z" fill="#3F170D"/></svg>