<svg width="44" height="44" fill="none" xmlns="http://www.w3.org/2000/svg"><g clip-path="url(#a)"><path d="M22.08 44c-4.022 0-9.055-5.188-12.424-10.044C4.49 26.514.112 15.683 4.172 7.584 7.389 1.164 14.944 0 22.08 0c7.141 0 14.692 1.167 17.909 7.584 4.058 8.097-.317 18.927-5.484 26.372C31.135 38.812 26.102 44 22.08 44Z" fill="#FFD284"/><path d="M39.989 7.584C36.772 1.167 29.222 0 22.08 0v44c4.022 0 9.056-5.188 12.425-10.044 5.166-7.445 9.543-18.275 5.484-26.372Z" fill="#FFD284"/><path d="M29 19.998c0 1.915-1.674 3.667-1.869 3.847a.782.782 0 0 1-1.137 0 .795.795 0 0 1 0-1.146c.373-.393 1.381-1.637 1.381-2.7 0-1.752-1.788-4.305-3.25-6.056v11.784c0 .13-.016.294-.033.458-.162.884-.747 1.653-1.592 2.16-.666.41-1.527.655-2.438.655C17.82 29 16 27.527 16 25.727s1.82-3.274 4.063-3.274a4.72 4.72 0 0 1 2.437.672v-11.31c0-.327.195-.621.504-.752a.788.788 0 0 1 .877.18c.537.523 5.119 5.253 5.119 8.755Z" fill="#3F170D"/></g><defs><clipPath id="a"><path fill="#fff" d="M0 0h44v44H0z"/></clipPath></defs></svg>