<svg width="360" height="800" fill="none" xmlns="http://www.w3.org/2000/svg"><path d="M95.732 739.614c10.227 2.895 19.635-11.925 10.573-18.88-22.876-17.684-13.562-58.213-7.426-82.851 1.856-7.458 4.311-13.405 12.587-15.734 10.321-2.863 19.635-.377 21.145 10.51.148 1.243.232 2.493.252 3.745a20.377 20.377 0 0 0-16.205.566c-15.388 7.174-13.94 26.054-3.367 36.848a31.458 31.458 0 0 0 24.406 8.921 31.472 31.472 0 0 0 22.794-12.477 46.408 46.408 0 0 0 8.939-28.924 46.408 46.408 0 0 0-10.796-28.283c-28.697-32.159-82.19-16.457-104.375 14.821-30.9 43.298-8.024 97.641 41.473 111.738Zm30.24-74.953c1.07 1.667 1.825 2.737.346 4.248a12.595 12.595 0 0 1-7.458-9.912 13.631 13.631 0 0 1 4.122-11.674c.913-.881 2.644-1.479 3.147-.347-1.699 5.79-3.461 12.524-.094 17.653l-.063.032Zm-70.297 15.513a57.209 57.209 0 0 1-.346-21.209 42.359 42.359 0 0 1 3.398-12.272c1.951-4.059 7.741-12.587 12.839-11.517-7.898 14.601-12.839 29.202-9.44 46.068.503 2.486 1.164 4.971 1.825 7.457a1.894 1.894 0 0 1 0 1.542c-.504.787-1.731.472-2.518 0a16.108 16.108 0 0 1-5.695-10.101l-.063.032ZM39.784 611.765a14.728 14.728 0 0 0-4.373-9.786c-10.196-9.44-23.286 4.28-13.405 14.506a11.518 11.518 0 0 0 4.247 2.738c6.105 2.328 14.224.472 13.531-7.458Zm-16.96 4.217-.284-.283.284.283ZM5.108 640.148a12.59 12.59 0 0 1 8.81-10.667 13.083 13.083 0 0 1 12.273 3.147 11.213 11.213 0 0 1 1.479 1.762 10.758 10.758 0 0 1 3.146 5.129 11.893 11.893 0 0 1-8.212 14.821 13.513 13.513 0 0 1-11.108-1.857l.472.378-.566-.284a13.024 13.024 0 0 1-4.563-4.405 12.02 12.02 0 0 1-1.73-8.024ZM66.38 260.399c6.467 1.831 12.416-7.542 6.685-11.939-14.466-11.184-8.576-36.813-4.696-52.394 1.174-4.716 2.726-8.477 7.96-9.95 6.527-1.811 12.417-.239 13.372 6.646.093.786.146 1.577.16 2.368a12.893 12.893 0 0 0-10.249.359c-9.73 4.536-8.815 16.476-2.129 23.301a19.903 19.903 0 0 0 15.434 5.642 19.9 19.9 0 0 0 14.415-7.89 29.356 29.356 0 0 0-1.175-36.177c-18.147-20.336-51.976-10.407-66.004 9.373-19.541 27.381-5.075 61.746 26.226 70.661ZM85.501 213c.677 1.054 1.154 1.731.22 2.686a7.96 7.96 0 0 1-4.717-6.268 8.62 8.62 0 0 1 2.607-7.383c.577-.557 1.671-.935 1.99-.219-1.075 3.662-2.19 7.92-.06 11.164l-.04.02Zm-44.454 9.81a36.176 36.176 0 0 1-.219-13.412 26.795 26.795 0 0 1 2.15-7.761c1.233-2.567 4.894-7.959 8.118-7.283-4.995 9.233-8.119 18.467-5.97 29.132.319 1.572.736 3.144 1.154 4.716a1.198 1.198 0 0 1 0 .975c-.318.498-1.094.299-1.592 0a10.187 10.187 0 0 1-3.601-6.387l-.04.02ZM30.999 179.549a9.31 9.31 0 0 0-2.766-6.188c-6.447-5.97-14.725 2.706-8.477 9.173a7.294 7.294 0 0 0 2.686 1.732c3.86 1.472 8.995.298 8.557-4.717Zm-10.726 2.667-.179-.179.18.179ZM9.07 197.498a7.963 7.963 0 0 1 5.572-6.745 8.27 8.27 0 0 1 7.76 1.989c.35.339.663.712.936 1.115a6.806 6.806 0 0 1 1.99 3.243 7.528 7.528 0 0 1-2.553 8.031 7.522 7.522 0 0 1-2.64 1.342 8.54 8.54 0 0 1-7.025-1.174l.298.238-.358-.179a8.23 8.23 0 0 1-2.885-2.785 7.603 7.603 0 0 1-1.095-5.075ZM351.368 579.732a61918.52 61918.52 0 0 0-16.835-44.588c-5.16-13.72-10.342-27.439-15.545-41.159a20.946 20.946 0 0 0-6.293-10.226c-5.035-3.588-12.052-2.077-17.59.629-23.757 11.485-50.661 15.733-75.142 26.558-7.71 3.398-9.66 9.912-7.646 17.716 3.398 13.31 8.118 26.274 11.579 39.585 3.461 13.31 7.426 26.463 11.485 39.616.756 2.455 2.014 5.57 3.147 8.78a15.01 15.01 0 0 0-6.608-3.871c-18.88-5.632-27.282 18.566-18.66 31.907 10.982 16.961 37.76 19.415 46.728-.818 8.654-19.572-5.191-44.053-11.957-62.115-4.342-11.611-9.44-22.845-14.097-34.362-1.982-5.129-3.744-10.352-5.57-15.513a51.86 51.86 0 0 1-2.8-7.741c2.108-4.468 17.149-1.825 21.082-2.171a96.455 96.455 0 0 0 27.377-6.293c8.842-3.462 17.086-8.244 25.771-12.115 2.014-.912 4.531-1.699 6.293-.315a6.289 6.289 0 0 1 1.668 2.958c2.077 6.294 6.293 13.216.252 17.968-5.318 4.153-18.471 3.587-25.174 5.349-9.031 2.423-6.073 17.307 3.147 16.206a61.849 61.849 0 0 0 28.698-10.699c1.006 2.737 2.013 5.475 3.146 8.118 4.563 12.178 8.465 25.174 13.468 37.383-6.702 1.447-13.688 1.196-18.219 7.898a16.704 16.704 0 0 0 .708 19.581 16.699 16.699 0 0 0 5.302 4.46c14.569 8.338 35.904-2.298 35.589-19.793a38.804 38.804 0 0 0-3.304-12.933Zm-121.934 49.749a13.271 13.271 0 0 0-4.5 4.848 13.272 13.272 0 0 0-1.604 6.417 11.008 11.008 0 0 1-2.738-12.587c1.888-4.153 16.174-11.611 17.59-4.971.035.355.035.714 0 1.07.126 3.838-6.451 3.744-8.748 5.223Zm37.76-126.559c5.035-2.171 37.761-19.604 39.9-11.36 1.888 7.112-34.55 9.094-39.9 11.391v-.031Zm62.43 86.439c-1.038.283-2.14.472-3.146.787a16.976 16.976 0 0 0-6.577 3.367c-1.007.912-2.077 2.108-3.461 1.919a4.599 4.599 0 0 1 .975-3.965 10.286 10.286 0 0 1 3.367-2.517 12.584 12.584 0 0 1 9.881-1.448c.527.156 1.063.282 1.605.378-.742.517-1.52.979-2.329 1.385l-.315.094ZM419.497 117.085a62275.353 62275.353 0 0 0-16.834-44.588 16421.65 16421.65 0 0 0-15.545-41.159 20.957 20.957 0 0 0-6.293-10.227c-5.035-3.587-12.052-2.076-17.59.63-23.757 11.485-50.662 15.733-75.143 26.557-7.709 3.399-9.66 9.913-7.646 17.716 3.399 13.31 8.118 26.275 11.58 39.586 3.461 13.31 7.426 26.463 11.485 39.616.755 2.455 2.014 5.57 3.147 8.779a15.017 15.017 0 0 0-6.608-3.87c-18.88-5.633-27.282 18.565-18.66 31.907 10.982 16.961 37.76 19.415 46.728-.818 8.653-19.572-5.192-44.053-11.957-62.115-4.343-11.612-9.44-22.845-14.097-34.362-1.983-5.129-3.745-10.352-5.57-15.513a51.884 51.884 0 0 1-2.8-7.74c2.108-4.47 17.149-1.826 21.082-2.172a96.437 96.437 0 0 0 27.376-6.293c8.843-3.462 17.087-8.245 25.771-12.115 2.014-.913 4.532-1.7 6.294-.315a6.303 6.303 0 0 1 1.668 2.958c2.076 6.294 6.293 13.216.251 17.968-5.318 4.153-18.471 3.587-25.173 5.349-9.031 2.423-6.073 17.307 3.147 16.205a61.831 61.831 0 0 0 28.697-10.698c1.007 2.737 2.014 5.475 3.147 8.118 4.563 12.178 8.464 25.173 13.468 37.383-6.703 1.447-13.688 1.195-18.22 7.898a16.712 16.712 0 0 0 6.011 24.04c14.569 8.339 35.903-2.297 35.589-19.792a38.782 38.782 0 0 0-3.305-12.933Zm-121.933 49.749a13.278 13.278 0 0 0-6.104 11.265 11.008 11.008 0 0 1-2.738-12.587c1.888-4.153 16.174-11.611 17.59-4.972.035.356.035.715 0 1.07.126 3.839-6.451 3.745-8.748 5.224Zm37.76-126.56c5.035-2.17 37.76-19.603 39.9-11.359 1.888 7.112-34.551 9.094-39.9 11.391v-.031Zm62.43 86.44c-1.039.283-2.14.472-3.147.786a17 17 0 0 0-6.576 3.367c-1.007.913-2.077 2.109-3.462 1.92a4.592 4.592 0 0 1 .976-3.965 10.275 10.275 0 0 1 3.367-2.517 12.578 12.578 0 0 1 9.881-1.448c.527.156 1.063.282 1.604.378-.742.516-1.52.979-2.328 1.384l-.315.095ZM182.297 468.151a124.788 124.788 0 0 0 32.159-56.64c5.821-23.82-3.933-46.949-18.88-65.262a24.548 24.548 0 0 0 8.874-7.08 8.404 8.404 0 0 0-.315-10.51c-4.689-4.437-12.083.44-16.52 5.129-23.978 25.425-48.49 50.127-72.374 75.52-9.723 10.321-19.289 20.8-29.17 30.963a89.953 89.953 0 0 1-14.317 13.185c-5.506-13.153-19.824-20.925-35.903-12.587-24.072 12.587-10.825 44.809 10.132 52.078 29.83 10.321 52.266-33.292 68.818-51.637l37.76-42.071 7.017-7.804a82.632 82.632 0 0 0 2.58 9.125c4.374 12.398 12.272 17.37 19.321 27.314 7.867 11.107 2.738 26.211-3.87 36.155a3.148 3.148 0 0 0 .529 4.126 3.146 3.146 0 0 0 4.159-.004Zm-115.483-1.227c-1.227.598-3.807 0-4.059-1.227a19.037 19.037 0 0 0-19.793-4.469c-1.038.409-2.454.787-3.146 0a2.454 2.454 0 0 1-.19-1.888 12.337 12.337 0 0 1 11.707-9.062 15.072 15.072 0 0 1 12.964 7.961 17.056 17.056 0 0 1 2.517 8.685Zm129.895-76.936c-1.668-7.08-10.888-20.328-10.195-26.842A3.738 3.738 0 0 1 189.66 360a3.493 3.493 0 0 1 2.266.566c6.293 3.776 11.045 25.174 11.674 30.082 1.605 12.587-3.524 21.587-4.72 33.261a101.143 101.143 0 0 0-2.171-33.921Z" fill="#29E23C08"/><path opacity=".16" d="M131.157 696.848c-29.824 15.315-133.822 115.931 17.788 240.424 56.788 40.536 115.885 46.868 179.694-8.381 63.809-55.248 40.324-104.598 105.573-138.103 84.51-43.396 85.659-133.869 32.144-198.616-54.381-65.797-186.953-.676-217.776 44.379-30.823 45.055-67.003 34.406-117.423 60.297ZM383.723-50.57c-8.531-22.37-71.793-104.073-172.043-6.225-33.224 37.129-42.352 78.579-8.14 128.2 34.211 49.623 71.08 36.823 89.745 85.763 24.176 63.385 88.302 71.295 138.454 38.388 50.965-33.441 15.137-132.643-14.425-158.053-29.563-25.41-19.167-50.256-33.591-88.073ZM128.86 299.101c.651-26.626-30.012-137.419-174.485-78.972-49.863 24.209-76.742 63.03-62.453 128.543 14.29 65.514 57.644 67.888 56.217 126.141-1.847 75.449 60.832 110.638 126.34 97.915 66.571-12.929 71.53-130.165 51.814-168.792-19.716-38.628 1.464-59.82 2.567-104.835Z" fill="#fff"/></svg>