<svg width="44" height="44" fill="none" xmlns="http://www.w3.org/2000/svg"><g clip-path="url(#a)"><path d="M38.009 3.968H5.991A5.116 5.116 0 0 0 .876 9.084v29.8A5.115 5.115 0 0 0 5.99 44h32.018a5.116 5.116 0 0 0 5.115-5.115V9.084a5.115 5.115 0 0 0-5.115-5.116Z" fill="#FFD284"/><path d="M43.124 13.58V7.38a5.116 5.116 0 0 0-5.115-5.115H5.991A5.116 5.116 0 0 0 .876 7.381v6.199h42.248Z" fill="#3F170D"/><path d="M43.124 14.736V9.084a5.116 5.116 0 0 0-5.115-5.116H5.991A5.116 5.116 0 0 0 .876 9.084v5.652h42.248Z" fill="#3F170D"/><path d="M9.255 6.716a1.785 1.785 0 1 0 0 3.57 1.785 1.785 0 0 0 0-3.57Z" fill="#3F170D"/><path d="M9.255 0a.955.955 0 0 0-.956.955v7.442a.955.955 0 1 0 1.91 0V.955A.955.955 0 0 0 9.256 0Z" fill="#FFD284"/><path d="M17.752 6.716a1.785 1.785 0 1 0 0 3.57 1.785 1.785 0 0 0 0-3.57Z" fill="#3F170D"/><path d="M17.752 0a.955.955 0 0 0-.956.955v7.442a.955.955 0 1 0 1.91 0V.955A.955.955 0 0 0 17.753 0Z" fill="#FFD284"/><path d="M26.248 6.716a1.785 1.785 0 1 0 0 3.57 1.785 1.785 0 0 0 0-3.57Z" fill="#3F170D"/><path d="M26.248 0a.955.955 0 0 0-.955.955v7.442a.955.955 0 1 0 1.91 0V.955A.955.955 0 0 0 26.25 0Z" fill="#FFD284"/><path d="M34.745 6.716a1.785 1.785 0 1 0 0 3.57 1.785 1.785 0 0 0 0-3.57Z" fill="#3F170D"/><path d="M34.745 0a.955.955 0 0 0-.955.955v7.442a.955.955 0 1 0 1.91 0V.955A.955.955 0 0 0 34.745 0Z" fill="#FFD284"/><path d="M19 28a2 2 0 0 1 2-2h2a2 2 0 0 1 2 2v2a2 2 0 0 1-2 2h-2a2 2 0 0 1-2-2v-2Z" fill="#E23C08"/></g><defs><clipPath id="a"><path fill="#fff" d="M0 0h44v44H0z"/></clipPath></defs></svg>