<svg width="230" height="278" fill="none" xmlns="http://www.w3.org/2000/svg"><path fill-rule="evenodd" clip-rule="evenodd" d="M49.414 256.464c7.558 1.94 14.35 3.711 25.732 3.962 25.382.558 51.677-5.495 75.664-16.533l-2.221-32.853c-.769-10.614-.614-13.025-4.528-15.775-2.736-1.923-3.02-2.31-6.924-1.637-2.33.401-6.06 1.203-11.521 1.938-5.461.735-12.651 1.405-19.276 1.739-6.626.334-12.687.327-16.98-2.04-4.294-2.367-6.827-7.119-9.59-9.892-2.765-2.773-5.754-3.581-10.621-5.218-4.868-1.637-11.588-4.111-15.916-7.085-4.328-2.974-6.258-6.451-7.791-10.394-1.533-3.944-2.663-8.357-2.197-13.302.467-4.945 2.531-10.429 4.829-13.871 3.866-5.793 8.368-6.019 13.083-7.085 1.332-.301 1.793-.635 3.796-4.511 2.002-3.876 5.526-11.295 8.357-16.377 5.67-10.177 9.838-11.855 18.611-17.546 2.73-1.778 3.796-2.708 4.695-4.98 3.773-9.541-2.974-15.508-3.296-23.622-.25-6.35 4.449-18.034 9.458-20.609 6.512-3.346 21.917 0 22.515 12.693.163 3.503-.688 5.565.335 6.492 2.283 2.095 1.717 7.308.523 8.548-1.507 1.563-1.495.04-2.379 2.84-1.21 3.828-2.568 7.701-5.871 10.445-3.117 2.58-4.155 1.192-3.912 5.055.279 4.42-1.891 1.571 5.835 5.323 5.82 2.825 7.359 5.18 10.872 11.28 3.424 5.95 7.501 13.364 9.888 19.25.902 2.229.455 1.395-.466 3.243-.745 1.491 4.652 9.875 6.441 11.848 1.199 1.319 2.131 1.854 4.129 2.557 1.998.702 5.055 1.569 6.743 2.021 1.688.452 1.98.491 4.993.234 1.853-.154 4.729-.416 7.421-.633-10.555-10.149-16.222-17.145-21.265-31.005-3.291-9.041-5.99-20.07-8.893-33.393-2.902-13.323-6.007-28.926-11.052-39.654-11.363-24.16-38.62-36.078-61.772-18.178-8 6.182-14.209 16.009-18.63 26.269-7.838 18.194-12.129 45.678-18.59 65.239-8.326 25.166-18.612 29.494-25.316 51.439-3.982 13.033-6.141 31.281-2.363 46.755 3.779 15.474 13.5 28.173 22.527 35.581 9.026 7.409 17.363 9.509 24.923 11.447v-.005Zm138.935-36.932c9.596-9.356 16.297-20.564 14.614-32.738-1.856-13.423-13.046-25.56-24.12-36.253-4.402 1.768-20.81 2.783-27.739 3.839-5.476.835-16.164 2.64-21.491 3.56-5.327.92-5.295.953-5.228 1.801.267 3.437.947 5.822 2.963 8.857.7 1.053 1.099 1.352 4.212 1.788 7.568 1.055 20.486 1.993 28.749 3.658 9.473 1.91 11.492 3.863 15.482 12.604 4.427 9.693 9.096 21.981 12.556 32.879l.002.005Z" fill="#fff"/><path fill-rule="evenodd" clip-rule="evenodd" d="m146.021 254.737-1.981 9.257c-.1.861-.049.961 1.356 1.521 9.785 3.894 24.135 7.132 34.734 5.465 2.813-.443 4.064.275 4.604-.117.539-.393.593-1.056-.84-1.637-11.382-4.62-15.492-6.939-21.225-13.939-2.04-2.488-1.665-2.033-4.088-1.537-5.042 1.035-6.747 1.541-11.22.059-.807-.267-.991-.15-1.34.928ZM175.685 245.898l-.69 6.599c.065.725 5.507 1.429 8.398 1.8 7.428.945 14.071 1.547 21.6 1.261 2.406-.09 2.836-1.428.258-2.038-8.401-1.991-16.028-5.88-18.82-8.039-2.651-2.049.452-2.054-8.824-.869-1.439.183-1.673.214-1.922 1.29v-.004Z" fill="#E23C08"/><path fill-rule="evenodd" clip-rule="evenodd" d="m133.162 129.697-2.56 1.44c-.596.252-1.615 3.765-3.182 4.121-2.064.466-3.027 2.157-2.291 3.994.815 2.016 1.73 5.76 3.47 7.137.52.41.93.536 4.403.293 1.794-.127 17.042-1.389 17.667-1.875.253-.198-5.611-1.249-8.038-2.697-4.24-2.534-6.544-7.686-7.733-11.762-.422-1.452-.512-1.411-1.733-.654l-.003.003Z" fill="#F7CEBF"/><path fill-rule="evenodd" clip-rule="evenodd" d="M165.949 219.933c2.773 6.096 5.077 12.244 7.407 19.414 2.33 7.17 1.329 6.657 4.029 6.493 2.701-.163 8.821-.34 10.763-2.357.432-.45.466-.684-2.131-8.605-2.598-7.921-7.828-23.529-11.836-34.123-4.008-10.594-6.81-16.176-9.34-19.502-3.185-4.188-6.27-4.993-10.633-5.803 7.115 3.4 8.087 8.384 9.45 19.703.842 7.005 1.744 17.542 2.3 24.773l-.009.007Z" fill="#3F170D"/><path fill-rule="evenodd" clip-rule="evenodd" d="M85.999 203.309c-.905-.295-2.877-.616-3.862-.722-.985-.106-.978 0-2.105 7.754s-5.642 40.393-7.351 46.709c-.784 2.888-2.415 5.978.08 7.808 2.255 1.652 5.719.773 6.606-2.434.4-1.443.133-3.154.026-4.357-.26-2.92 5.282-40.123 6.073-45.506 1.278-8.689 1.438-8.956.533-9.251v-.001Zm39.895-3.811-3.05 1.445 10.146 38.818c2.039 7.902 2.065 8.349 1.892 9.167-.173.818-.546 1.991-.201 3.302 1.447 5.472 8.529 3.99 7.766-.735-.344-2.128-2.3-4.738-3.099-6.384l-10.736-38.376c-2.048-7.401-2.094-7.468-2.718-7.237Zm-10.222 3.033c-1.092.19-2.172.445-3.235.761-.792.241-.779.328.106 8.652.698 6.555 4.597 40.343 3.922 44.918-.312 2.117-.634 4.119.84 5.949 2.412 2.992 5.334 1.146 6.152-1.017.662-1.746-.716-5.289-1.211-7.353-.662-2.751-5.289-51.276-5.587-51.789-.047-.08-.14-.24-.987-.121Zm-13.422.937-3.57.294-4.027 36.841c-1.241 11.669-.512 6.447-2.185 11.203-1.921 5.464 7.056 8.764 7.299 1.845.052-1.524-.374-3.343-.586-4.44-.212-1.097-.213-1.473.452-8.875s1.998-21.842 2.663-29.198c.665-7.356.667-7.62-.046-7.674v.004Z" fill="#fff"/><path fill-rule="evenodd" clip-rule="evenodd" d="M83.053 193.216c-2.12.25-6.654.69-7.137 3.368-.432 2.413 2.268 4.569 5.414 5.474 8.68 2.5 33.162 1.431 42.137-1.424 2.935-.933 5.288-2.549 4.414-4.151-.192-.354-.489-.46-3.961-.08-6.935.761-21.856 3.016-28.92 1.838-5.25-.876-7.175-3.138-9.822-4.813-.572-.36-.879-.36-2.12-.212h-.005Z" fill="#E23C08"/><path fill-rule="evenodd" clip-rule="evenodd" d="M144.056 244.151c.163 5.936.08 3.718.132 5.481.062 2.067.339 2.882 2.904 4.256 4.418 2.357 14.906 4.747 14.756-.081-.605-19.425-2.772-42.528-6.42-61.896-1.769-9.386-4.606-11.103-13.238-13.079-6.976-1.596-14.399-2.215-21.474-2.575-2.425-.123 1.122-2.172.153-.066-1.957 4.256-9.502 4.33-14.35 3.718-7.085-.895-6.068-2.051-11.904-1.858-5.187.164-12.995 7.906-16.796 10.507-4.866 3.338-5.536 2.583-4.42 4.392a23.66 23.66 0 0 0 2.554 3.456c.64-2.524 5.033-2.947 7.1-3.196 2.371-.279 1.843.189 5.028 2.273 5.707 3.738 11.801 3.424 20.163 2.666 5.545-.501 12.199-1.37 15.676-1.751 3.477-.382 3.769-.274 3.961.08.724 1.327-.892 2.735-2.772 3.545 3.532-.556 6.407-.998 8.181-1.237 3.976-.534 2.51-.182 3.809 1.591.692.943 2.251 1.661 3.099 1.524.326-.053.326-.293.786 2.874 1.839 12.881 2.693 25.657 3.062 39.371l.01.005ZM105.467 153.093c-1.36.11-1.066-.383-.719 2.166l1.38 10.106 3.703-.491a4.592 4.592 0 0 1-.073-.776c-.013-1.422.665-2.827 1.141-3.509.476-.683.739-.64 2.844-.855 2.105-.214 6.047-.682 8.118-.923 2.071-.241 2.269-.254 2.323.021.054.275-.039.835.093 2.071.073.672.188 1.339.343 1.997l57.423-7.666c15.141-2.031 15.141-2.031 15.128-2.031l-1.266-9.358-9.771.998c.091.262.176.547.255.855.406 1.612.618 3.858.479 5.248-.139 1.389-.633 1.925-1.432 2.339-.799.414-1.904.708-3.23.962-1.302.25-2.615.433-3.935.549-1.067.08-1.652.026-2.317.147-.666.121-1.412.414-2.637.561-1.225.148-2.935.148-4.315-.234a8.45 8.45 0 0 1-2.997-1.588c-.546-.44-.572-.561.086-.654.659-.094 2.004-.18 2.81-.369.806-.188 1.073-.481 1.212-2.044.096-1.061.132-2.706.187-4.15l-64.833 6.628Z" fill="#3F170D"/><path fill-rule="evenodd" clip-rule="evenodd" d="M111.511 148.056c.636-1.909 2.317-2.892 4.308-3.55-.688-5.419 3.284-6.946 7.791-7.89.307-.081.623-.125.94-.131-2.218-2.911-7.642-5.378-14.523-3.811-7.932 1.801-14.659 7.093-20.239 8.541-3.993 1.038-8.87.21-14.056-1.006l10.245 10.708c2.397 2.513 2.557 2.619 3.836 2.947 4.076 1.024 7.736 2.183 10.436 6.042 1.013 1.443 1.358 2.727 1.345 3.422-.044 2.271-5.95-2.329-6.433-.574-.712 2.596 6.249 5.392 7.338 5.975.979.527.57 2.028.281 2.874-.558 1.637-4.892-.566-5.967-.694-.978-.118-1.436.899-4.582-.897-9.008-5.142-4.106-7.405-7.164-9.237-.826-.491-2.318-1.084-5.767-2.783-6.763-3.328-22.243-10.817-21.742-19.334.04-.653.146-1.3.314-1.933-10.992-.478-18.285 5.741-19.697 17.679-1.228 10.378 1.01 28.338 7.6 36.78 6.255 8.011 15.034 8.348 24.063 4.092 3.625-1.707 7.54-4.185 10.918-6.14-2.515-3.601-1.858-2.216 3.462-5.863 3.793-2.601 6.565-5.124 11.752-5.294 4.507-.149 13.095 2.548 19.053 2.052-2.948-3.11-10.033-3.043-10.422-7.59-.393-4.606 4.782-8.987 7.399-12.298-6.034.804-6.078.797-6.109.778l-1.665-12.159 7.29-.698-.005-.008Zm84.336-1.756c.086 1.45.339 4.218.466 5.565.127 1.347.126 1.285 1.305 2.14 1.178.854 3.535 2.633 4.755 3.57 1.219.936 1.304 1.028 3.654.199 2.35-.828 6.994-2.579 9.396-3.429 4.175-1.473 2.412-.038 6.047 1.444 2.935 1.196 6.834-.522 7.184-4.926.284-3.557-2.799-4.511-6.485-5.474-6.704-1.749-14.895-3.165-21.611-3.214-2.437-.015-2.432.242-4.315 2.128-.406.407-.489.541-.4 1.992l.004.005Zm-70.865-5.167c.815-1.032.844-2.322.202-3.63l-.202 3.63Z" fill="#FFD284"/><path fill-rule="evenodd" clip-rule="evenodd" d="M94.4 87.535c-.297-.655-.326-.629-2.056.2-8.38 4.008-15.392 7.377-20.099 12.312-6.144 6.441-10.904 15.798-15.296 25.48-1.752 3.87 2.916-.731 4.557-.28 6.064 1.667 9.086 3.636 12.681 8.465.49.655-.326-1.565 1.957-1.162l6.766 1.203c11.47 2.036 11.816-.475 22.402-4.952 8.35-3.531 19.939-6.685 24.022 1.886.217.453.271.507 1.99-.401 1.867-.982 3.214-.589 4.101-2.341.202-.401.202-.614-1.313-3.85-2.497-5.326-8.471-17.482-12.411-21.843-2.479-2.745-5.107-5.336-7.816-6.7-.336-.164-.907 1.663-4.254 2.542-4.853 1.274-10.378-3.128-13.372-7.22a17.795 17.795 0 0 1-1.86-3.34Zm16.496 73.05c-.473.683-1.151 2.087-1.142 3.51.01 1.422.72 2.868 1.592 3.878a7.687 7.687 0 0 0 2.73 1.951c.815.368 1.418.529 3.809.635 2.391.106 6.573.164 8.776.188 2.204.025 2.432.026 1.845-.776s-1.985-2.406-2.864-4.164c-.879-1.758-1.237-3.67-1.371-4.911-.134-1.241-.039-1.8-.093-2.07-.054-.271-.253-.262-2.324-.022-2.071.241-6.011.712-8.114.935-2.104.223-2.371.173-2.844.854v-.008Zm12.719-23.969c-1.211.254-3.261.722-4.781 1.557-1.52.834-2.503 2.039-2.883 3.437-.38 1.398-.153 2.987.039 3.85.193.863.354.995.653 1.13.298.134.738.266 2.036.24a43.078 43.078 0 0 0 4.566-.388c1.106-.173 1.16-.327 1.373-2.025.214-1.697.586-4.91.586-6.505 0-1.594-.374-1.55-1.585-1.296h-.004Z" fill="#E23C08"/><path fill-rule="evenodd" clip-rule="evenodd" d="M53.306 143.056c2.326 7.102 21.18 17.87 27.595 20.776 4.056 1.836 1.006 1.111 3.098 4.91 1.4 2.56 4.363 4.893 7.298 5.481 2.398.491 2.788.176 5.913.897 2.263.52 3.168-.524 1.572-2.128-1.794-1.801-6.988-4.564-6.725-6.51.273-2.04 5.1 2.391 5.925.735.731-1.474-1.229-4.158-2.837-5.548-3.382-2.912-6.126-3.3-9.517-4.308-1.078-.328-1.53-.643-3.941-3.249-2.41-2.606-8.618-9.025-10.828-11.524-2.994-3.385-.533-8.157.96-11.496.245-.55.283-1.118-.312-1.768-1.584-1.729-8.363-4.287-9.595-4.287-.036 0-.04 0 1.27-2.186-3.123-1.34-3.517-1.319-4.669.676-2.074 3.602-6.628 15.189-5.206 19.532v-.003Zm117.094 1.571c-.132 1.585-.147 4.42-.287 5.983-.14 1.563-.406 1.858-1.212 2.045-.805.186-2.151.268-2.81.368-.658.1-.632.221-.086.655a8.465 8.465 0 0 0 2.997 1.584c1.388.385 3.089.385 4.323.241 1.235-.144 1.97-.442 2.637-.562.667-.119 1.251-.067 2.317-.147a38.62 38.62 0 0 0 3.935-.548c1.326-.254 2.431-.549 3.231-.963.799-.414 1.291-.949 1.431-2.339.14-1.39-.073-3.635-.479-5.248-.406-1.612-1.006-2.586-1.659-3.18-.652-.595-1.358-.809-2.79-.889a46.996 46.996 0 0 0-5.528.119c-1.937.148-3.654.388-4.641.676-.986.288-1.237.621-1.371 2.205h-.008ZM90.385 57.595c-8.69 17.551 2.482 18.27 4.463 20.692 1.32 1.613-2.159 8.799-2.852 10.224-.438.9.145 1.637.979 3.034C99.47 88.28 96.598 89 99.681 93.28c.978 1.35 2.356 2.714 3.794 3.583a9.235 9.235 0 0 0 1.934.882c1.491-.276 2.714-1.005 3.007-2.537.343-1.79-.898-8.48-.546-11.07.235-1.727 5.916-1.904 8.616-8.156 3.352-7.747 3.405-10.088 3.011-18.272-.201-4.158-.86-8.185-5.055-11.123-4.418-3.09-6.186-2.362-11.014-1.765-12.181 1.508-9.458 5.533-13.046 12.768l.002.005Z" fill="#F7CEBF"/><path d="M170.17 277.795c-8.852-.745-18.303-2.966-19.44-4.57-1.555-2.192.79-13.734 1.587-17.74-3.361-2.372-2.947-3.676-3.056-9.003-.062-3.061-.132-4.419-.228-4.419l-8.123 2.782c-.508.346 4.201 4.747 2.763 8.861-1.514 4.326-7.702 4.583-9.959.196-1.353-2.628-.546-6.179-.946-6.578l-9.621 1.992c-.112.111.511 5.033.736 5.835.606 2.163 1.793 4.911 1.104 7.074-1.631 5.041-8.876 5.238-10.355-.469-.529-2.033.315-4.162-.03-8.451l-.216-2.678-12.883 1.187c.341 1.72.347 2.904-.753 4.616-3.52 5.47-10.587 1.933-9.856-4.312l-9.897-.501c-.024.072-.192 1.184-.37 2.466-.714 5.098.86 5.719.12 8.551-1.597 6.123-11.021 5.729-10.987-.619.013-2.324 1.56-5.459 2.148-7.828.25-.995.652-3.765.57-3.851-.399-.401-23.684-2.927-39.915-19.115-12.545-12.509-19.027-30.6-19.032-48.835 0-7.964.862-14.803 2.904-22.974 2.847-11.397 6.764-20.267 15.966-36.158 10.324-17.831 11.402-22.177 16.715-45.716 4.776-21.154 9.658-40.741 19.485-55.706C78.62 6.579 93.635-2.376 110.774.552c5.118.873 11.52 3.634 16.342 7.055 17.222 12.223 21.411 32.164 27.261 60.239 3.775 18.119 6.359 27.865 9.418 35.573 6.078 15.294 14.882 23.261 27.585 35.472l3.645-.383c.091-.042 1.728-1.856 3.067-2.455.528-.239.6-.315.6-.678 0-1.652 2.609-4.333 5.468-3.054 1.249.559 2.201 1.988 2.201 3.309 0 .604.326.555.429-.067.432-2.724 5.799-3.437 6.849.711.783 3.102.404-3.135 5.037-1.555 2.772.942 2.13 3.917 2.72 4.002.591.085.291-1.732 2.432-2.356 1.896-.551 3.874.3 4.378 1.979.571 1.904-.466 2.42.341 3.423 2.297 2.852 2.136 7.892-2.418 10.089-5.326 2.571-8.038-2.245-9.01-2.006l-11.669 4.297c7.651 9.412 11.088 15.715 11.074 26.566 0 3.234-.038 3.848-.295 5.307-2.569 14.478-14.564 25.496-25.886 34.335l5.497 18.625c.946 3.438 1.27 3.737-.639 5.135 7.48 3.4 18.343 3.913 21.641 9.478 1.26 2.128 1.63 4.007 1.022 5.21-.375.748-.761.983-2.392 1.429-8.56 2.367-23.042 1.829-31.247-.008-3.304-.74-3.47-1.727-3.47-5.393.019-2.913.311-5.818.874-8.676.125-.627-.723-.395-1.142-1.041-.194-.301-4.566-14.507-5.194-15.166l-7.457 3.894-.083-3.274 6.251-3.246c.254-.217.249-.237-.741-2.657l-6.717-14.94c-.075.082 2.128 17.566 1.902 18.383-.558 2.012-2.086 1.498-2.569.568-.145-.28-.349-1.851-.694-5.286-.504-5-2.754-23.529-3.451-28.374-1.131-7.901-1.839-10.933-3.201-13.732-2.976-6.119-12.882-7.33-23.645-8.461-4.712-.491-13.68-1.027-13.68-.819 0 .085 2.882 3.567-.67 7.073-6.351 6.268-19.262-.718-26.494.655-2.12.406-4.332 1.421-7.1 3.274a836.215 836.215 0 0 0-5.984 4.056c-.256.207 3.07 5.79 10.811 8.452 7.828 2.691 15.366 1.714 25.796-.049 6.197-1.05 23.215-3.626 24.958-3.438 2.036.228.978 2.292 3.462 2.992 1.042.295 1.749.739 1.986 1.249.292.609.778 3.513 1.304 7.725 1.783 14.434 2.464 24.581 2.861 42.545.086 3.947.137 4.747.316 5.135.781 1.637 5.926 3.002 9.784 2.581 2.816-.306 4.173-.923 6.577-1.964 3.403 1.637-1.608 2.763 14.278 8.373 5.306 1.873 10.024 3.668 11.703 8.15.948 2.531.94 5.264-.026 6.121-.579.514-5.185 1.8-8.443 2.352-4.372.745-11.415.898-16.157.501v.008Zm10.004-2.632c2.573-.175 10.926-1.287 12.194-2.223.232-.164.163-2.596-.445-2.264-.887.476-5.344 1.257-8.827 1.545-8.642.719-22.459-.894-29.011-3.141-1.129-.388-1.305-1.046-1 2.619 6.435 2.542 18.037 4.092 27.089 3.467v-.003Zm2.743-5.641c3.185-.246 7.751-.868 8.137-1.107.183-.116-.882-1.145-1.848-1.8-5.007-3.351-17.358-5.353-20.872-10.837-3.805 1.542-8.364 2.035-12.72.848a4.392 4.392 0 0 0-.707-.163c-.108.235-1.599 8.762-1.599 9.142 0 .38 1.305.848 4.971 1.728 5.794 1.397 8.502 1.78 15.232 2.174 2.575.149 7.54.154 9.409 0l-.003.015Zm-106.864-5.454c3.24-.971 1.18-4.332 1.18-6.661l7.637-53.082-2.258-.458-4.03 26.77c-4.27 28.541-3.984 26.931-5.249 29.415-1.59 3.12.49 4.68 2.728 4.016h-.008Zm45.18-1.1c1.642-.838 1.622-2.744.735-4.842-1.397-3.305-1.277-2.632-2.346-13.114l-4.207-41.15c-.031-.025-1.925.218-1.949.245-.196.3 4.825 50.121 4.099 53.364-1.064 4.747 1.126 6.811 3.668 5.505v-.008Zm87.429-4.533 6.71-1.102c.216 0-.229-1.517-.591-1.997-.071-.096-.604-.05-1.735.146-6.755 1.177-14.243 1.329-22.028.439l-7.419-1.184c0 .721-.102 2.15.22 2.32 2.888 1.514 20.354 2.018 24.837 1.378h.006Zm-111.576-2.046c.466-.197 1.193-.971 1.389-1.473.535-1.393-.585-3.367-.804-5.256-.235-2.05 2.234-26.294 3.726-44.68h-1.652l-4.474 42.887c-.243 2.166-1.977 3.983-1.773 5.792.197 1.748 2.07 3.38 3.588 2.736v-.006Zm42.704-2.215c2.366-1.203 1.468-3.622-.147-5.565-1.44-1.721-1.81-2.744-4.173-11.496l-7.287-26.947c-1.241-4.584-2.283-8.439-2.316-8.556-.107-.369-1.229.121-1.141.389.037.116 2.576 10.378 5.644 22.797 6.051 24.525 5.681 22.803 5.544 25.864-.126 2.979 2.363 4.272 3.874 3.513l.002.001Zm67.529-.312c1.66-.148 4.782-.595 5.198-.744.199-.077-.088-.265-1.386-.887-5.244-2.519-14.944-3.958-18.383-6.634-1.342-1.045-1.321-.164-6.381.175-1.048.072-1.912.142-1.925.164l-.746 6.241c5.471 1.473 17.501 2.205 23.623 1.685Zm-115.274-4.911 4.62-43.95-8.643-.258-6.523 43.825c.103.103 4.041.42 6.575.53 4.138.175 3.846.183 3.966-.147h.005Zm11.076-.1c2.99-.218 8.548-.802 10.452-1.098.451-.068.48-.1.48-.531l-3.641-42.741c-.071-.071-5.752.388-5.84.471l-3.945 43.557c0 .568-.163.543 2.494.347v-.005Zm-30.052-1.883c.163-1.057 6.591-43.98 6.591-44.051 0-.07-5.87-2.63-4.982-6.629.781-3.518 5.802-3.806 6.119-4.092-2.983-4.178-2.05-3.795-3.914-2.909-4.915 2.328-10.378 3.671-15.686 2.732-7.72-1.367-5.581-4.125-4.28-4.125 1.728 0 7.525 4.169 18.877-1.287 5.518-2.653 11.286-7.945 16.796-9.425 8.042-2.158 18.237 3.78 24.46.912 1.305-.598 2.361-1.871 2.361-2.832 0-3.199-8.014-2.397-10.663-7.821-2.395-4.911 1.399-5.913-1.487-5.52-2.487.34-2.537-.342-2.966-3.438l-3.529.452c1.28 1.699 3.672 4.814 1.36 6.346-2.312 1.533-7.038-3.229-5.17-1.049 1.543 1.801 7.238 3.218 7.238 6.247 0 2.116-2.13 3.274-4.814 2.201-1.745-.7-1.676.441-4.473-.263-1.812-.459-5.52-2.431-7.385-4.33-2.027-2.059-2.197-3.514-2.559-6.282-2.042-.694-1.905-.689-4.262-.436.096 2.33.477 4.114-.762 4.813-.523.298-4.077 1.052-4.928 1.052-.992 0-1.836-.705-2.12-1.782-.104-.393-1.41-9.196-1.41-9.514 0-.213-11.637-6.201-14.64-13.009-2.246-5.095 1.873-11.908 1.545-12.236-.256-.257-6.272 1.637-9.334 6.25-6.598 9.93-2.772 26.191-3.201 28.44-.26 1.404-1.794 1.58-2.368.272-.815-1.888-1.565-13.488-1.157-17.938.935-10.162 7.11-19.055 16.995-19.898 1.082-.093 1.327-3.176 2.927-3.709 1.102-.364 3.51.296 6.609 1.8 3.041 1.482 4.69 3.102 7.175 6.07 3.529-4.935 5.648-8.581 10.516-14.11 3.19-3.623 1.313.926-.72 4.235-1.041 1.692-.716 1.222-1.004 4.056l-.303 6.534c2.363.478 7.29.938 9.975.239 9.165-2.386 19.405-13.061 31.402-7.709.413.185 2.521-14.844 3.022-14.679.326.107.515 1.912.52 4.911 0 3.822-.37 6.901-.946 11.522 2.852 3.014 1.44 3.166 3.051 2.349 2.847-1.443 6.66-3.889 8.203-5.272-4.535-9.638-7.74-16.05-11.624-22.714-.915-1.572-1.353-2.138-.978-2.858.416-.819 1.547-.783 2.234.054 2.317 2.809 12.473 23.472 12.928 25.189.308 1.167-.233 1.712-.933 2.619 6.138 10.7 3.956 10.803 15.932 14.773l2.787.923 27.461-2.783c.029 0-2.572-2.619-5.773-5.811-11.345-11.314-16.415-17.389-21.62-31.676-2.531-6.947-5.231-17.475-8.316-32.39-5.463-26.439-9.802-51.433-31.08-62.333-17.704-9.068-35.358-3.092-47.627 13.307-11.304 15.11-16.39 36.45-21.603 59.871-5.219 23.446-7.068 28.383-16.948 45.304-9.956 17.048-15.864 29.674-17.775 48.641-.275 2.715-.391 10.869-.192 13.473 1.179 15.507 7.428 31.075 18.1 41.63 7.768 7.694 18.392 13.372 31.007 16.593 1.743.444 6.703 1.534 7.175 1.577l.163-.477h.003Zm-1.209-136.8c-.777-.304-1.048-1.126-.652-2.012.49-1.1 3.762-5.498 5.802-7.783 3.813-4.276 10.671-7.342 19.21-11.794.567-.293.696-.447 1.115-1.29.923-1.886 2.283-5.631 2.476-6.803.172-1.072-2.526-3.374-3.316-6.548-.445-1.784-1.117.558-3.858-.751-2.138-1.023-3.322-3.739-3.322-6.695 0-4.133.94-.837.317-4.637-.346-2.097-.467-5.265-.274-6.928.548-4.675 2.82-8.392 5.776-9.445 1.671-.597 1.697-4.077 7.803-6.107 8.437-2.806 21.818 2.128 23.589 12.357.336 1.941.206 5.348-.091 7.482 1.352 1.403 1.846 2.107 1.842 5.096 0 7.112-3.346 5.554-3.561 6.513-1.244 5.504-3.891 11.131-8.714 13.538l-1.055.525c0 2.745-.03 5.893.44 7.954.752 3.306-.144 5.418-3.304 6.413-1.355.426-4.626.395-6.001 0-4.251-1.232-7.922-4.18-9.36-7.954-.016-.037-6.094 3.163-7.537 3.973-7.645 4.282-9.686 5.566-14.808 13.019-.687.997-1.533 2.277-2.518 1.882l.002-.005ZM111.928 96.6c1.557-.761 1.304-1.667.978-3.351l-.512-7.826c-3.136.164-7.103-.884-9.703-2.89-1.288-.996.101-1.058-3.628 7.46 1.957 4.646 5.518 7.096 10.521 7.003 1.468-.025 1.665-.064 2.344-.393V96.6Zm1.294-13.488c6.523-1.395 11.06-11.295 9.729-17.645-.758-3.627.232-3.841.476-9.017.064-1.277.142-1.17-1.386-2.014-3.415-1.89-7.46-5.146-10.342-7.9 2.05 2.7 2.324 3.124 5.427 6.291 2.617 2.673 4.176 3.858.941 3.601-4.532-.35-9.672-2.434-13.388-5.434-.489-.388-.898-.676-.928-.655-.138.137 1.83 2.864 3.079 4.269 1.87 2.103 2.528 2.729.104 2.315-3.524-.603-6.884-2.327-9.21-4.43-.373 5.667-1.828 6.775-1.828 11.678-5.825-3.017-4.91 6.683-1.528 7.263 1.486.254 2.971-2.01 3.099-1.86.56.655 1.32 8.676 8.642 12.375 2.335 1.182 4.977 1.613 7.105 1.163h.008Zm-.637-3.348c-.521-.191-.931-.506-.816-.622.075-.075 3.351-.313 3.425-.252.073.06-.997 1.45-2.609.874Zm-1.344-1.637c-1.349-.398-3.209-1.651-2.906-1.96.278.04.551.109.815.205 4.692 1.466 8.733-1.065 8.733-.644 0 1.309-4.087 3.15-6.645 2.394l.003.005Zm2.493-5.336c-.463-.182-.114.154.883-.913-.54-1.061-1.188-2.151-1.279-3.138-.068-.739.207-4.245.788-1.744.567 2.456 3.018 3.993 1.539 5.477-.579.581-1.468.491-1.931.318Zm-18.64-2.703c.266-.998-1.04-1.388-1.468-1.921-.751-.951.92-1.737.03-2.574-1.254-1.175 2.57-.366 1.805 1.454-.175.425-.163.465.12.737 1.506 1.41-.714 3.167-.489 2.304h.002Zm9.98-1.8c-.816-.477-.796-2.498.024-2.937 1.631-.879 2.562 1.951 1.244 2.883a1.378 1.378 0 0 1-1.268.054Zm12.701-.491c-1.467-.379-.869-3.886 1.07-3.137 1.115.433.559 3.564-1.07 3.137Zm-16.688-4.109c-.413-.655 1.658-3.449 4.269-3.053 2.068.313 3.119 2.578 2.423 2.415-3.935-.922-6.4 1.127-6.686.638h-.006Zm19.273-1.169c-2.425-1.8-5.275.305-5.522.058-.021-.02.149-1.871 1.794-2.56 3.164-1.323 6.092 4.245 3.725 2.502h.003Zm5.187 5.28c.825-1.62.931-7.27-.587-6.437-1.344.736-.072 4.104.051 5.852.084 1.205.137 1.363.536.584Zm-5.101-22.405c0-.025-.489-.468-1.099-.982-2.919-2.465-5.419-3.602-9.323-3.626-3.507-.025-5.218.491-8.153 2.44-3.884 2.589.908-.499 7.193-.818 6.502-.327 11.377 3.11 11.377 2.983l.005.003Zm4.987 200.447c3.933-.798 6.523-1.474 6.523-1.686 0-.213-10.101-41.277-10.176-41.355-.075-.079-3.082.523-3.245.628l4.212 42.625c0 .328.07.318 2.684-.214l.002.002Zm62.825-3.333a59.025 59.025 0 0 0 3.325-.562c1.611-.327 1.673-.35 1.662-.654-.016-.375-1.684-6.831-2.684-10.385-2.935-10.434-8.672-24.935-14.334-38.828-5.748-14.11-7.087-15.418-19.914-17.28 3.129 2.203 4.666 3.786 6.184 8.438 1.547 4.747 1.922 13.131 3.472 17.317 2.235 6.043 8.2 18.024 10.542 23.796 2.446 6.035 4.677 12.674 6.384 18.516l5.363-.36v.002Zm-45.882-1.267 6.741-2.421-1.448-22.753-2.164-18.317c0-.035-2.772-.578-3.529-2.628-.311-.844.074-.774-1.994-.363l-10.35 1.876c.383 1.552-.232 2.292-1.099 3.274l11.415 42.157 2.426-.819.002-.006Zm48.734-25.13c9.848-7.869 19.885-18.648 21.816-28.659 1.436-7.442.76-14.33-2.577-20.905-2.283-4.508-7.248-11.208-10.288-13.881-1.813-1.601-3.55-2.796-4.041-2.783-.373.013-7.082.899-7.515.995-.638.143-.206 1.888-1.716 3.187-1.673 1.439-4.665.75-6.446 1.225l-4.537.551c-2.643.012-4.172 1.814-9.502-.28-1.172-.459-1.601-.68-2.283-1.178-.36-.264-38.143 5.047-38.143 5.047-.13.068.393 5.963 3.504 9.253 1.277 1.349.524 1.028 3.285 1.146 7.935.327 26.97 1.948 32.641 3.817 5.602 1.847 8.348 4.86 12.005 13.166 3.11 7.058 8.519 20.789 11.288 28.646.898 2.549.409 2.326 2.506.655l.003-.002Zm-87.859-14.095c6.545-.318 12.556-.945 16.06-1.675 2.735-.57 8.956-2.344 7.104-3.135-.413-.163-.703-.141-4.133.449-13.094 2.242-17.187 2.71-30.348 2.118-7.254-.327-11.383-.845-13.659-1.714-.95-.362-.771-.144-.016.614 3.897 3.915 18.61 3.657 24.992 3.343Zm-16.174-5.193s-3.15-1.99-3.85-1.989l-4.269.735c2.733.819 4.346.932 7.162 1.233.675.078.957.087.957.021Zm14.696-26.117c1.041-.655-4.228-3.028-5.402-3.843-3.3-2.292-2.446-5.348-.995-5.594 1.882-.327 4.11 2.646 4.977 2.038 1.536-1.073-4.088-6.845-9.197-7.693-2.71-.447-2.802-.473-3.547-.974-1.419-.953-15.002-15.541-18.029-19.366-3.827-4.826 3.47 1.391 3.718 1.406.134 0 .995-1.737.995-2.001 0-.116-.317-.689-.705-1.273-1.223-1.852-3.765-4.029-6.051-5.186-1.039-.525-3.325-1.29-3.849-1.29-.787 0-1.94 3.341-2.351 4.31-3.239 7.62-3.287 9.63-.326 13.189 8.58 10.322 27.766 15.235 27.456 17.435-.127.903-1.432-.575-.786 1.537.93 3.044 2.902 4.419 5.843 5.911-1.305-1.451-2.234-2.569-2.73-4.705-.734-3.156-.243.223 6.346 4.195 2.755 1.677 4.121 2.232 4.633 1.904Zm24.609-1.517c-1.621-2.456-3.111-6.057-3.126-8.61 0-.876.297-.873-5.636-.074-5.847.787-5.529.54-6.359 1.912-1.281 2.1-.186 4.614 2.576 6.045l1.168.606 11.61.492-.233-.356v-.015Zm-48.955-4.827.894-.149-.207-2.495h-1.837c-.489-.404.013-1.026.816-1.026.955 0 .776-.313.613-1.768l-3.506-1.64 1.122 7.299c0 .106.417.063 2.112-.221h-.007Zm31.833-5.15 59.261-8.047c.12-.023.513-.58-.26-.501-2.26.236-61.402 7.39-61.467 7.765-.059.31.091 1.112.207 1.112.051 0 1.07-.149 2.265-.328l-.006-.001Zm-7.443-1.539c2.366-.275 2.265-.241 2.265-.759 0-.243-.045-.469-.099-.501-.1-.064-4.902.438-5.008.522-.106.083.804.935.978.935.092 0 .933-.087 1.859-.197h.005Zm35.988-4.428c16.685-2.043 30.419-3.717 30.523-3.717l.163-.509c-.375.011-62.015 7.05-62.047 7.084 0 0-.222 1.045.569.928.254-.037 14.112-1.743 30.797-3.786h-.005Zm-36.986 2.315c3.033-.328 3.006-.318 3.006-.678 0-.676.024-.676-3.537-.299-4.317.451-4.067.379-3.228.91.994.627 1.235.335 3.759.067Zm36.246-4.107c16.843-1.904 30.81-3.5 31.043-3.534.489-.082.417-.192.417-.853l-62.153 6.826c-.468 0-.163 1.028 0 1.028.045 0 13.861-1.557 30.701-3.467h-.008Zm35.358 2.753c2.18-.565 2.669-1.375 2.173-3.757-.533-2.535-2.227-5.933-2.964-5.933-.607 0-.89 3.237-.507 5.843.443 3.037.119 2.893-2.065 3.156-1.621.195-1.687.236-.383.606 1.142.318 2.702.35 3.751.079l-.005.006Zm-73.272-.635c4.648-.509 4.473-.223 4.344-.931a3.995 3.995 0 0 0-.116-.518l-11.113 1.262c3.12.832 1.928.732 6.885.187Zm78.762-.588c.711-.708-.411-7.886-2.12-9.438-.445-.404-2.1-1.128-.637 1.742 1.463 2.869 2.234 6.022 1.511 8.367l1.253-.671h-.007Zm-47.815-2.82 38.499-4.228.041-.678-62.333 6.53c-.887.129-.489 1.057.033.99.2-.024 10.893-1.203 23.76-2.619v.005Zm51.157 2.426c.804-.38 1.069-.856 1.069-1.906 0-2.245-1.467-9.412-3.142-7.556-.918 1.015 1.262 4.759 1.282 8.49.008 1.54-.035 1.355.791.972Zm4.265-.948c.816-1.614.147-9.039-2.08-9.039-.653 0-.662.079-.279.956 1.06 2.418 1.657 6.847 1.198 9.057.574-.229.803-.255 1.161-.982v.008Zm-90.023.139c8.642-.903 7.848-.777 7.77-1.2-.093-.491-.442-2.511.088-2.712l11.806-1.332c.134-.136-2.772-5.874 2.601-9.077 3.001-1.791 7.596-1.904 9.527-3.601 3.675-3.248-3.699-10.252-15.114-6.366-4.098 1.398-12.729 6.547-15.535 7.444-6.122 1.965-12.188.565-18.505-.555-1.39 1.351-1.713 1.929-2.62 4.486l13.183 13.607c.033 0 3.099-.317 6.792-.7l.007.006Zm109.323.058s11.124-4.366 12.556-4.358c2.195.015 2.868 2.874 5.91 2.657 5.192-.372 4.989-5.942 3.051-7.203-1.082-.707-7.422-2.455-12.048-3.334-5.89-1.112-13.96-1.801-15.154-1.31-.638.267-2.526 2.189-2.446 2.479l.934 6.498c.079.568.137.655.662.961.95.56 2.447 1.704 3.838 2.947 1.643 1.463 1.154 1.332 2.702.654l-.005.009Zm17.533-6.167c-.949-.964-.136-2.846 1.497-2.026 1.87.939-.069 3.455-1.497 2.026Zm-6.102-1.779c-1.761-1.074.403-3.274 1.885-2.151 1.361 1.033-.344 3.092-1.885 2.151Zm-6.918-.655c-1.025-.409-1.195-2.689.741-2.689 2.594 0 1.379 3.549-.741 2.689Zm-8.073-.943c-.413-.231-.641-.682-.652-1.28-.013-1.403 2.239-1.954 2.884-.7.732 1.417-.991 2.643-2.235 1.98h.003Zm-72.158 5.95 39.768-4.239c1.218-.503-.941-.328-5.056.083l-58.156 5.893c-.164.051-.08.706.091.706.059 0 10.567-1.099 23.346-2.439l.007-.004Zm62.845-.271c1.74-.234 3.162-.472 3.162-.531l-7.028.956 3.866-.425Zm-.13-1.346c1.673-.199 3.038-.409 3.038-.463l-6.903.818 3.865-.355Zm-70.733-.638c2.827-.272 2.266.258 2.434-2.053l.578-6.056c-.01-.01-9.424 1.046-6.523 7.975.307.73.598.417 3.517.131l-.006.003Zm70.193-.696c3.206-.371 3.776-.183 3.338-.876-.211-.327-6.906.577-6.947.614-.134.116.033.655.204.655.08 0 1.611-.164 3.405-.386v-.007Zm-62.142-.123c3.217-.335 3.108-.093 2.579-.697-1.862-2.128-3.551-7.772-3.649-7.857 0 0-1.166.182-1.287.956l-.753 7.857 3.11-.259Zm15.98-1.612c4.532-.46 8.261-.858 8.283-.877.285-.293-6.978-1.518-9.75-6.186l-4.599-8.27c-.029 0-.531.309-1.114.686-1.748 1.128-4.429 2.66-5.673 3.241-1.746.818-.652.265-2.097 3.028 1.076 2.732 2.381 6.496 3.671 7.83.598.622 2.017 1.378 2.591 1.383.246 0 4.155-.375 8.687-.835h.001Zm46.222-.129c1.685-.18 3.082-.347 3.098-.369.139-.139-.174-.458-.453-.458-.445 0-6.567.637-6.775.709-.181.062-.144.628.59.519.258-.04 1.849-.223 3.535-.401h.005Zm-.442-1.677c9.713-1.021-4.801-.432-4.515.293.13.328 2.524-.085 4.515-.293Zm34.897-2.142c0-1.801-3.038-.457-.928.271.925.32.928.456.928-.271Zm-7.286-1.819c0-.319-.91-1.162-1.631-.63-1.003.745 1.631.948 1.631.63Zm-7.288-1.265c0-.696-2.043-1.259-2.043-.351 0 .377 2.043.668 2.043.351Zm-7.209-1.146c-.179-.899-1.252-1.382-2.094-.948-.464.241-1.006.948-.844 1.112l2.522.226c.49.024.49.024.416-.39Zm-122.301-3.289.337-4.092c-.067-.065-2.144 3.274-2.222 3.564-.079.289 1.885.784 1.885.522v.006Z" fill="#3F170D"/></svg>