<svg width="242" height="278" fill="none" xmlns="http://www.w3.org/2000/svg"><path fill-rule="evenodd" clip-rule="evenodd" d="M3.79 59.976C.343 69.756-.435 82.49 3.303 95.044c6.645 22.312 29.908 47.803 41.892 68.454 4.977 8.573 8.267 16.561 9.873 25.905 4.014-11.91 7.932-23.82 10.143-30.695 2.863-8.904 2.863-9.366 2.666-11.395a552.629 552.629 0 0 0-.806-7.542c-.218-1.914-.27-2.145-1.664-2.26-5.152-.423-8.765-.538-13.508-4.821-1.736-1.567-2.765-3.136-3.033-5.696-.797-7.585 3.728-13.675 2.728-20.68-1.232-8.626-8.409-18.017-9.678-22.05-2.305-7.355 6.655-10.127 7-12.492.489-3.355-.128-3.378 4.233-7.312 5.255-4.743 14.231-12.129 19.807-15.905 1.48-1.003 1.821-1.164 3.095-1.534 4.658-1.351 7.553-1.602 12.185-2.006 1.32-.116 1.37-.161 1.579-1.096 1.114-5.006 1.218-4.444-.87-8.332-2.248-4.177-4.678-1.13-4.992-5.634-.165-2.37-.036-6.017 1.338-8.696-11.336.79-23.096 2.189-32.548 4.061-14.927 2.956-24.1 7.095-31.747 12.577-7.646 5.482-13.762 12.302-17.21 22.081h.002Zm107.298 25.176c-1.692.578 3.05 1.076 2.263 3.737-.72 2.434-3.445 3.565-5.243 4.787-.783.53-.734.737-.44 2.248.293 1.51.833 4.324 1.101 5.824.268 1.499.269 1.684 3.327 1.845 7.283.384 20.223.318 27.393.069 2.656-.091 3.242-.141.417-1.591-4.751-2.442-16.03-7.256-20.101-10.714-2.674-2.262-2.745-5.051-4.974-6.164-1.297-.647-3.033-.282-3.745-.035l.002-.006Zm-53.65 141.029 1.02 6.651c.225.392 7.963 5.649 6.532 11.182-.183.706-1.423.864-2.846 1.179 2.812 6.84 6.808 13.023 12.077 18.095 8.738 8.415 20.973 13.783 34.125 14.602 13.153.819 27.233-2.912 37.475-11.69 10.242-8.778 16.651-22.606 18.447-37.704 1.796-15.099-1.019-31.474 1.554-46.302 2.572-14.827 10.534-28.11 18.834-38.524 9.652-12.111 17.93-18.499 25.14-26.759-3.096.242-3.445-.648-5.999-2.28-.76-.485-1.004-.485-9.348-.474l-82.991.554c2.388 7.343 6.23 18.157 7.64 25.926 1.149 6.309 1.002 11.637-.381 25.465l-6.552 59.149c.544 4.362 10.613 6.39 15.218 8.811 2.547 1.339 3.549 2.746 4.172 3.969 1.812 3.545.084 4.112-4.354 4.694-8.792 1.15-20.604 1.342-29.252.183-3.888-.521-4.683-.83-3.206-5.639.807-2.63 2.446-6.896 3.206-9.157.759-2.261.635-2.515.623-4.395-.012-1.879.085-5.386.135-12.26.088-12.414-.165-36.901.244-48.853.645-18.848 2.68-8.364-2.814-19.837-1.15-2.4-2.128-5.028-2.642-6.412-.668-1.798-.552-1.676-2.716-2.583-.44-.185-.49-.185-.686 2.26-.806 10.068-1.414 16.91-5.676 28.44-2.448 6.62-6.166 15.062-10.2 24.19-4.035 9.128-8.39 18.965-11.516 25.827-2.559 5.629-4.286 9.263-5.264 11.692h.002ZM220.126 98.358c.985-4.494.899-9.22-.566-14.275-4.879-16.916-23.669-34.892-41.286-44.87-11.286-6.39-24.247-10.94-36.067-14.032-9.532-2.494-18.322-4.041-29.59-4.512-.352 2.161-1.545 3.565-1.823 5.708-.466 3.584-.481 6.496-3.254 10.16-3.676 4.86-5.45 3.31-4.687 7.544.109.61.281.848 2.483 2.19 2.202 1.343 6.442 3.813 8.989 5.386 2.546 1.574 3.436 2.239 5.467 6.056 1.349 2.549 8.415 17.128 8.271 18.764-.084.948 1.889 3.569 3.059 4.943 4.852 5.654 25.413 17.84 32.501 21.666 2.547 1.373 3.01 1.442 9.079 1.523 6.068.08 17.739.172 23.669.196 5.929.024 6.13-.024 7.28-.727 1.413-.865 5.472-3.784 6.839-4.083 4.122-.905 4.269.178 5.407-1.752.648-1.099 3.459-.232 4.229.118v-.003Z" fill="#fff"/><path fill-rule="evenodd" clip-rule="evenodd" d="M219.735 156.029c-.054.305-22.309 1.791-22.417 2.377-.03.166-.042.467-1.419 12.842l-6.741 61.736 34.208-3.714c.275-.26-3.636-73.248-3.637-73.241h.006Z" fill="#3F170D"/><path fill-rule="evenodd" clip-rule="evenodd" d="m157.244 152.403 40.367 5.782 20.823-2.248c.449-.034-4.149-1.031-12.1-2.192l-33.388-4.359-19.831 1.511c-3.964.3-3.904.335 4.129 1.506Z" fill="#FFD284"/><path fill-rule="evenodd" clip-rule="evenodd" d="M142.063 151.077c-.637 0-.538.069-2.226 11.383l-8.59 56.431c.702 0 55.128 14.3 57.918 14.3.27 0 .221.045 1.517-12.455l6.534-63.062c-.051-.095-51.729-6.597-55.153-6.597Z" fill="#E23C08"/><path fill-rule="evenodd" clip-rule="evenodd" d="M166.831 171.022c8.557.697 14.753 10.464 13.839 21.816-.913 11.352-8.592 19.987-17.148 19.291-8.555-.696-14.752-10.465-13.839-21.816.914-11.351 8.592-19.989 17.148-19.291Z" fill="#FFD284"/><path fill-rule="evenodd" clip-rule="evenodd" d="M180.264 195.816a25.88 25.88 0 0 1-1.261 4.425c-2.339 5.773-6.891 9.462-11.535 8.743-5.917-.909-9.727-8.614-8.509-17.228s7.001-14.842 12.918-13.932c5.917.909 9.726 8.614 8.509 17.228-.036.257-.077.511-.122.762v.002Z" fill="#3F170D"/><path fill-rule="evenodd" clip-rule="evenodd" d="M176.633 187.181c2.971.823 4.394 5.012 3.195 9.343-1.198 4.331-4.599 7.182-7.569 6.354-2.971-.827-4.398-5.006-3.188-9.343 1.21-4.336 4.597-7.183 7.568-6.354h-.006Z" fill="#fff"/><path fill-rule="evenodd" clip-rule="evenodd" d="M91.759 225.364c-.922 4.284-1.92 6.131-3.296 9.773-.393 1.034-.282 1.086 1.577 1.446 7.805 1.514 24.406 3.954 31.975 2.401 1.291-.264 1.396-.581.648-1.291-3.206-3.051-8.759-4.31-13.304-6.778-5.418-2.944-3.095-5.81-6.925-5.729-4.626.096-5.669.083-9.775-1.182-.637-.195-.686.359-.899 1.357l-.001.003ZM38.398 226.66c-.477.847-1.26 2.374-2.227 3.883-1.348 2.119-3.546 4.645-3.437 6.759.024.476.171.539 1.296 1.032 4.858 2.13 10.786 3.423 16.504 3.607 2.996.096 4.906-.297 5.813-.695.906-.398.807-.802.244-1.607-1.591-2.279-5.043-5.475-6.398-7.415-2.111-3.024.578-3.971-2.619-5.201-1.615-.622-4.968-1.072-6.582-1.566-1.615-.494-2.117.349-2.593 1.203Z" fill="#E23C08"/><path fill-rule="evenodd" clip-rule="evenodd" d="M106.306 118.137c1.23 3.886 3.628 11.499 5.071 17.633 1.442 6.135 1.938 10.796 1.615 19.33-.636 17.054-4.045 43.926-6.268 59.913-.857 6.171-1.151 8.316-1.518 9.423-.367 1.107-.807 1.176-1.982 1.212-2.747.08-7.75-.153-10.41-1.051-1.163-.393-1.36-.83-1.36-6.607 0-12.244.769-45.158 1.334-57.654.3-6.758.599-8.834.648-10.011.05-1.176-.15-1.451-.899-2.616-3.145-4.838-4.044-7.304-5.959-12.549-.662-1.82-.548-1.855-3.62-2.225-.576-.069-.576-.023-.45 2.098.409 7.182.847 12.275-1.534 20.02-4.194 13.658-23.131 55.691-29.448 69.822-1.443 3.228-1.443 3.228-2.74 3.045-2.554-.365-8.313-1.21-10.572-2.584-.758-.462-.611-.784 2.105-8.165 2.716-7.382 8.002-21.819 11.427-32.745 3.424-10.926 4.991-18.358 5.91-22.213 1.215-5.098 1.522-4.059 1.498-5.489-.11-5.162 2.585-2.6 1.647-11.827-.245-2.416-.82-5.496-1.083-7.087-.262-1.592-.214-1.695 1.157-2.134 4.382-1.401 11.021-2.887 16.113-3.178 7.241-.412 19.497 3.333 25.484 2.025 3.781-.824 6.809-1.436 6.577-4.48-.327-4.287-3.246-6.472-6.16-7.502-5.528-1.953-4.59-7.673-2.001-7.704 1.902-.023 1.904-.946 3.017-.847 1.113.098 1.173.264 2.396 4.15l.005-.003Z" fill="#3F170D"/><path fill-rule="evenodd" clip-rule="evenodd" d="M118.368 78.197c-3.811 2.604-5.727 3.878-10.387 5.156-1.049.282-1.781 1.062-.552 1.349 3.705.864 4.883 2.311 6.223 3.954.188.228-2.044 3.218-1.851 3.43 2.77 3.03 6.341 4.468 12.83 7.538 3.462 1.638 7.182 3.506 9.115 4.441 1.932.935 2.08.933 5.64.9 1.348-.015 17.837-.026 17.593-.531-.49-1.017-30.196-15.547-35.654-24.43-1.619-2.637-1.075-3.099-2.96-1.81l.003.003Z" fill="#F7CEBF"/><path fill-rule="evenodd" clip-rule="evenodd" d="M209.379 104.549c-1.867.989-4.913 2.904-6.485 4.22-1.573 1.316-1.669 2.03-1.627 3.553.042 1.522.226 3.851.489 5.133.264 1.282.6 1.515 1.548 1.977 4.154 2.066 4.058 2.049 10.167 1.107 4.966-.767 14.314-2.301 19.19-3.213 4.876-.912 5.279-1.206 5.726-1.836 1.865-2.615.548-3.247-2.228-4.359-5.072-2.025-16.266-5.627-21.612-6.965-2.617-.655-3.296-.608-5.168.375v.008Z" fill="#FFD284"/><path fill-rule="evenodd" clip-rule="evenodd" d="M160.135 106.158c-1.922 2.43-4.394 10.38 1.095 11.954 3.595 1.032 7.706-.489 9.288-3.922 2-4.325.599-11.066-1.75-10.321-1.21.384-.834 1.402-2.329.75-3.17-1.386-2.321.967-4.327.697-.47-.063-1.198-.155-1.981.847l.004-.005Z" fill="#F7CEBF"/><path fill-rule="evenodd" clip-rule="evenodd" d="m92.858 106.381 66.435 1.192a16.242 16.242 0 0 0-1.186 3.464c-.385 1.793-.3 3.291.194 4.503a4.089 4.089 0 0 0 1.133 1.623c.51.447 1.126.773 1.798.949 1.529.437 3.683.392 5.427-.272 1.744-.663 3.075-1.943 3.865-3.65.789-1.707 1.034-3.84.936-5.593a11.56 11.56 0 0 0-.072-.808l30.995.556-.074 10.528h-89.368l-.102-.321c-1.23-3.886-1.29-4.046-2.397-4.15-1.107-.105-3.279-.15-5.182-.126-1.902.024-3.541.115-4.735.778-1.194.664-1.938 1.898-2.159 2.925a2.456 2.456 0 0 0-.041.894h-5.467v-12.492Z" fill="#E23C08"/><path fill-rule="evenodd" clip-rule="evenodd" d="M107.945 90.847c1.538.82 2.064 2.119 1.765 3.288-.2.775-.838 1.525-1.734 2.26a27.273 27.273 0 0 0-.163-.763c-.312-1.343-.484-1.263-1.622-.606-1.139.657-3.242 1.892-4.345 2.843-1.102.95-1.198 1.62-1.186 2.283.002.23.024.46.064.688a18.767 18.767 0 0 0-2.677 1.888 6.149 6.149 0 0 0-.548.549l-4.857-.079V114.2h7.371a6.295 6.295 0 0 1-.283 1.429 4.642 4.642 0 0 0-1.37 2.35 2.813 2.813 0 0 0-.034.186c-1.062 1.347-2.377 2.401-3.198 3.389-3.852 4.6 6.233 7.817 8.389 9.809.912.84 1.442 1.775 1.601 2.709l-.15.035c-2.007.438-4.773.357-7.304.114-2.532-.243-4.833-.645-7.055-.95-2.221-.305-4.36-.514-7.088-.359-2.728.155-6.046.677-9.05 1.315a78.175 78.175 0 0 0-7.065 1.857c-1.372.438-1.42.542-1.156 2.134.072.432.166.974.27 1.584-6.234 1.695-11.194 3.77-17.936 1.998-13.278-3.489-19.737-13.892-20.104-25.924-.244-7.954.765-17.97 5.992-24.842 2.216-2.913 5.147-5.225 8.314-6.194 2.792 6.526 13.51 23.645 15.452 28.696 1.035 2.692.962 4.136-.713 5.414-.599.461-2.53.071-3.117.872-2.366 3.228.094 7.381 2.199 8.302 1.348.59 2.801 1.544 4.665 2.118 3.71 1.141 4.692.109 7.548.109 1.818 0 3.869.858 4.246-2.434.665-5.799-4.317-12.957-6.63-18.267-1.322-3.033-2.718-7.075-4.354-11.48-1.258-3.38-2.66-6.978-3.637-9.61 5.216 2.992 9.81 6.285 17.135 6.878 12.25.989 25.433-8.278 32.365-4.59Z" fill="#FFD284"/><path fill-rule="evenodd" clip-rule="evenodd" d="M57.957 73.34c2.34 1.242 4.344 3.153 6.055 5.2l-6.124 4.404c-1.15.98-1.101 1.28.037 4.174 1.139 2.893 3.365 8.385 5.004 12.992 3.57 10.017 2.942 10.351 7.745 19.144 1.73 3.169 3.03 6.381 2.546 9.71-.424 2.912-2.525 1.675-3.817 1.271-.98-.308-1.625.795-3.817.877l-4.763-.835c-1.42-3.011 6.335-7.165 3.877-13.556-1.771-4.597-12.072-21.401-14.99-27.662-2.62-5.624-1.922-7.125 2.105-11.383 1.407-1.488 3.022-3.01 3.94-3.863.918-.853 1.137-1.038 2.202-.473Z" fill="#F7CEBF"/><path fill-rule="evenodd" clip-rule="evenodd" d="M88.253 52.606c-3.036-.3-11.19 1.516-14.427 3.013-3.687 1.703-11.985 9.845-15.73 13.078a109.457 109.457 0 0 0-3.895 3.53 22.423 22.423 0 0 1 2.075 1.878c1.738 1.788 3.296 4.049 4.099 5.2.803 1.153.819 1.201.158 1.743-.15.129-.352.283-.569.458.159.078.318.155.474.234 3.32 1.668 6.108 3.695 9.302 5.348 3.194 1.654 6.79 2.918 10.559 3.228 3.767.311 7.707-.333 11.928-1.51 5.958-1.661 14.996-5.65 19.722-3.08 2.07 1.13 2.339 3.125.908 4.733l4.864-1.79c-1.082-1.773-1.865-3.672-2.29-4.66-.878-2.041.109-.454 5.786-3.288a26.5 26.5 0 0 0 1.999-1.12c-1.888-5.03-4.794-14.483-7.4-17.488-2.829-3.262-9.533-6.42-13.066-8.163-.761-.375-1.281-.707-1.449-.537-1.564 1.644-5.866 2.32-13.048-.81v.003Zm17.938 42.418c-2.201 1.271-5.57 2.933-5.53 5.127.035 1.835 1.035 2.541 3.296 2.808a21.76 21.76 0 0 0 4.123.047c.93-.105.942-.301.722-1.782-.221-1.482-.673-4.25-.985-5.594-.311-1.343-.483-1.262-1.622-.606h-.004Z" fill="#fff"/><path fill-rule="evenodd" clip-rule="evenodd" d="M88.81 14.846c-4.735 2.317-4.924 3.616-6.19 4.855-3.364 3.287-5.365 6.967-3.17 13.448 1.286 3.794 7.13.581 5.485 11.934 1.33-.154 2.475-.212 3.192-.142 1.223.122 1.199.617 1.407 1.281.208.664.649 1.494 1.798 2.18 1.149.687 3.027 1.228 4.765 1.28h.277c.172-.107.337-.219.492-.333.72-.543.648-.866.61-1.962-.264-7.89.798-3.712 4.625-8.372 3.464-4.216 3.296-8.766 4.111-12.687.985-4.704 3.146-8.501.257-11.37-1.59-1.58-5.163.656-8.405-.532-3.242-1.187-6.741-.819-9.26.416l.007.004Z" fill="#F7CEBF"/><path d="M125.372 274.427c-12.113-.727-24.595-5.273-33.287-12.116-6.7-5.279-10.27-10.398-13.89-17.679-4.458-.028-6.7.133-10.823-.799-1.489-.336-1.258-.435-1.357.17-.207 1.207-2.697 2.338-6.783 3.084-5.073.923-12.434.282-18.416-1.6-3.643-1.146-3.477-1.458-3.46-3.593.028-3.509 1.179-6.315 3.25-9.348-10.095-7.301-15.423-14.843-12.775-27.29 3.692-17.337 17.113-31.596 14.082-50.114-1.798-11.039-9.794-19.561-8.281-26.455.386-1.762 1.26-2.785 2.515-4.05l-1.855-3.013c-14.788-21.87-23.34-43.07-17.629-64.901 7.772-29.676 34.502-41.359 65.168-42.743.818-3.421 1.903-6.504 4.15-8.049 2.76-1.897 3.123-.282 4.663-2.058 3.347-3.838 9.639-4.45 14.904-3.442 5.947 1.14 8.717 4.747 9.396 9.972 2.62-.371 10.197-.507 14.362-.245 24.079 1.513 46.681 8.74 67.533 21.242 14.761 8.853 25.585 18.255 32.738 28.44 9.249 13.168 12.922 26.675 5.598 40.987-1.098 2.145-1.113 1.968-.547 1.694 1.038-.505 7.678.152 5.243 4.545 1.088 1.111 1.784 2.167.883 4.061-1.241 2.61-5.666 3.107-12.211 3.989-4.644.63-4.145.212-5.624 1.75-9.761 10.138-19.122 17.502-26.376 29.262-1.414 2.295-2.742 4.775-2.606 4.854l26.087 3.381c.579.18.867.605.929 1.388l3.015 62.822c6.762 2.503 11.921 5.902 11.921 10.418 0 4.13-4.732 6.779-8.988 8.146-10.028 3.228-20.373 4.377-32.058 4.36-6.095-.012-9.36-.454-14.613-1.437-2.577-.483-1.897-.847-2.775 1.395-8.48 21.627-27.258 34.477-52.083 32.972Zm7.986-2.529c18.361-1.284 32.347-11.469 39.982-27.719.739-1.567 1.847-4.256 2.012-4.865.066-.25.03-.296-.26-.361-6.255-1.383-28.883-9.111-31.423-6.944-1.74 1.483 7.457 8.408 8.246 12.328a2.827 2.827 0 0 1-.147 1.626 2.996 2.996 0 0 1-1.03 1.311c-4.159 2.955-15.774-1.029-20.543-2.774-1.929-.706-2.086-.746-2.759-.688-8.452.727-18.606 1.219-27.215.407-8.178-.773-8.341-1.6-7.271-5.532.364-1.334 1.628-4.869 2.397-6.693.359-.848.63-1.564.599-1.59-.421-.406-13.152-4.324-14.575-1.492-.431.862-.08 2.987 1.24 7.447 1.461 4.942.607 5.941-1.866 7.502l.734 1.483c9.164 18.499 31.072 27.99 51.87 26.548l.009.006Zm14.624-26.072c1.498-.298 1.766-.771 1.125-1.977-1.798-3.389-10.89-9.956-7.341-13.4 2.98-2.888 12.034.01 23.479 3.313l10.976 3.026 1.392-5.023-46.589-11.594c-.511-.257-.749-.679-.742-1.32l10.537-68.163c.237-.486.773-.685 1.848-.685.47 0 7.707-.327 16.087-.727l15.232-.73 17.1 2.097c.02-.017.512-.929 1.097-2.025 5.509-10.327 13.103-17.934 23.138-27.729 2.525-2.465 4.574-4.495 4.554-4.519-.019-.024-1.063.119-2.317.303-8.133 1.201-10.22 1.924-14.471-.807l-1.038-.668-30.46.151c-1.724 2.192-3.37 3.518-6.9 3.874-5.655.565-11.461-3.7-11.702-3.769l-39.898.169c5.073 14.595 9.749 28.708 7.991 42.891-.208 1.695-.79 2.986-1.973 2.517-.878-.346-1.049-1.042-.826-3.258 1.47-14.218-3.108-26.964-7.956-42.205h-8.269c-.59.151-3.033 1.798-2.247 3.594.827 1.877 5.013 3.402 7.279 4.92 6.142 4.109 3.55 10.57-2.924 11.601-1.396.223-6.623.257-8.33.055-1.641-.195-1.53-1.13 1.628 6.174 1.887 4.365 1.922 5.249 4.549 7.528 1.877 1.629 5.843 5.589 5.715 5.709-.127.12-4.699-2.118-6.163-3.011-.244-.151-.254-.141-.325.376-.776 5.766-.864 17.478-1.009 29.09l-.57 42.694c.976.576 4.876.807 7.363.814 4.276.01 3.278.795 4.073-4.701l5.178-39.939c.492-1.113 2.049-.973 2.426.22.465 1.473-4.871 43.043-5.322 44.632-.462 1.626 4.344 3.672 8.293 5.05 5.424 1.881 6.362 2.295 7.964 3.52 2.696 2.059 5.093 6.92 3.349 8.729-.275.282-.574.155 2.779 1.223 5.628 1.783 9.788 2.458 12.22 1.977v.003Zm-90.343-1.095a42.36 42.36 0 0 0 4.984-1.077c1.06-.322 1.086-.336 1.109-.685.129-2.118.343-.959-6.611-.178-5.16.58-12.673.086-16.694-1.398-.322-.119-.207.96-.207 1.579 2.547.923 5.703 1.598 9.573 1.957 1.182.107 6.74-.03 7.846-.198Zm19.475-2.448c.03-.029-.271-.989-.674-2.13-4.148-11.793-4.211-24.735-5.508-40.476-2.661 5.616-6.163 14.343-8.757 19.911-4.182 8.991-4.706 9.477-4.285 10.855.608 1.977 5.992 4.204 7.884 9.767.3.902.313.912.795 1.035 1.936.472 3.905.814 5.892 1.023.557.065 4.593.08 4.657.017l-.004-.002Zm38.622-.283c1.757-.076 14.668-.946 14.981-1.24.045-.043-.276-1.43-.345-1.499-.447.034-.891.096-1.33.185-3.769.636-7.355.838-15.006.838-9.487 0-10.266-.367-18.44-1.217l-.386 2c.232.22 2.764.617 5.318.831 3.702.311 9.535.351 15.21.102h-.002Zm-35.033-1.075c1.064-1.529-3.156-9.718-1.568-12.959 2.752-5.609 17.443.336 17.677.141 0 0 .831-2.041.546-2.451-.409-.583-.428-1.168-.3-8.339l.43-39.086c.13-15.027.43-20.982 1.48-28.014-1.63-1.679-1.718-1.955-4.72-9.017-1.372-3.23-2.546-5.9-2.608-5.931-.15-.093-5.073-.731-6.84-.887-4.724-.416-8.822.29-14.51 2.073-3.352 1.052-2.833.317-2.193 3.531 3.31 16.663-4.431 6.234 5.789 18.542-1.133 0-4.9-2.554-5.702-3.286-.42-.382-.771-.699-.79-.699-.122 0-.28 1.041-.223 1.466.236 1.695 1.704 4.211 3.113 6.188-1.627-.296-2.958-1.163-4.194-2.234-1.348 5.536-5.974 25.701-7.128 28.312-.581 1.313-1.886 1.271-2.175.25-.15-.536-.18-.392.776-4l4.86-19.783-.6-1.243c-2.34-4.884-5.86-10.887-9.887-16.871-3.346-4.962-10.546-14.978-11.403-15.865-3.755-3.895-2.755-4.635-3.631-3.43-2.323 3.194.02 8.074 2.247 12.709 3.947 8.222 5.71 13.156 5.705 20.593-.012 16.638-11.555 30.22-14.531 45.531-2.072 10.647 2.03 17.41 11.668 24.338l2.007-3.471c-.615-.353-1.062-.582-1.062-1.391 0-.739 2.794-8.74 3.52-10.084.673-1.247 2.057-1.168 2.198.125.184 1.682-2.846 9.072-2.466 9.353 1 .734 9.438 2.391 9.738 2.108l8.204-18.225c.342-1.747 11.835-28.447 12.854-30.714 3.894-8.614 10.47-24.032 11.226-33.348.213-2.635 1.797-1.835 2.126-1.179.876 1.773-1.289 10.978-2.532 14.848-1.402 4.377-10.704 26.933-13.26 32.994-1.54 3.651-1.308 2.768-.979 6.43 1.71 18.983.876 29.66 6.256 43.724l.887-.743-.005-.006Zm-23.811-.369c2.018-.177 5.616-.822 5.862-1.051.341-.326-2.423-3.238-3.259-3.981-3.467-3.081-4.118-3.845-4.494-5.25-.18-.672-.22-.733-.532-.763-1.593-.151-4.449-.695-6.59-1.261-2.278-.6-.45-.878-4.156 4.419-.944 1.351-3.446 5.263-3.116 6.055.096.23 2.722 1.003 4.518 1.326 3.625.659 7.903.847 11.768.506h-.001Zm145.11-1.644c8.954-.727 28.075-2.755 30.935-8.535 2.343-4.732-8.647-9.484-8.762-9.37l.244 7.935c-.02.876-.264 1.381-.779 1.604l-34.539 3.7c-1.021.109-.47.216-6.266-1.21-2.975-.732-2.379-.945-2.918 1.015l-.966 3.36c9.902 1.53 11.948 2.409 23.056 1.506l-.005-.005Zm-80.744-.901c1.976-.116 5.318-.439 6.963-.671.899-.126.909-.141.749-.364-2.232-3.267-13.286-4.303-17.752-9.675-3.116.424-6.721.314-9.966-.251-2.37-.413-.324-1.106-3.939 7.484-.813 1.932-.898 2.227-.737 2.292l11.236 1.182c3.12.141 11.221.141 13.451.011l-.005-.008Zm66.762-6.445 7.731-72.382-52.831-6.825-10.13 65.903 55.081 13.66c.047 0 .111-.151.15-.351l-.001-.005Zm-25.617-18.849c-14.231-2.428-18.205-24.644-8.079-36.627 6.084-7.202 14.807-8.078 21.203-2.076 3.178 2.984 5.215 7.119 6.06 12.297.261 1.593.3 6.274.061 7.806-1.183 7.754-5.86 15.997-13.468 18.207-1.798.524-4.104.682-5.777.393Zm3.425-2.04c1.167-.216-.719.065-3.348-2.436-7.603-7.228-6.65-23.25 2.343-29.684 6.035-4.318 11.269-.381 11.352-.458.275-.26-6.084-8.807-14.555-5.017-11.791 5.272-14.299 25.334-5.365 34.088 2.571 2.516 6.222 4.14 9.577 3.513l-.004-.006Zm4.524-3.071c2.696-.706 5.327-3.68 4.629-3.427-1.769.642-4.036.093-5.44-1.322-5.872-5.92 1.329-21.514 8.881-16.098.34.245.62.423.62.394 0-.221-.888-2.887-1.167-3.504-3.528-7.798-13.142-6.485-17.094 4.218-3.435 9.302 1.3 21.888 9.571 19.738v.001Zm4.404-5.67c3.401-1.553 5.393-7.423 3.595-11.825-2.037-4.979-8.47-1.216-8.506 6.397-.01 2.053.412 4.942 2.538 5.626.578.184 1.751.088 2.379-.198h-.006Zm29.248 28.454 17.907-1.881c-1.23-30.672-3.313-70.801-3.313-70.801-.066-.04-20.207 1.484-20.257 1.532l-7.848 72.115c-.069.466-.066.469.262.416.181-.033 6.142-.653 13.249-1.381Zm-140.188-71.1c1.51-3.399.845-.249.839-3.604 0-2.864 1.571-2.833 1.266-3.875-.44-1.497 1.1-2.549.449-6.901-1.161-7.783-.776-7.088-2-6.759-8.152 2.196-15.78-2.211-16.363-2.211-.02 0 1.17 1.707 2.647 3.794 5.615 7.939 8.846 13.04 11.78 18.594 1.211 2.3.874 2.118 1.382.962Zm141.362-2.912c4.262-.321 7.673-.616 7.577-.648-.096-.033-8.87-1.15-19.498-2.47l-19.325-2.401-17.651.857 40.67 5.245c.256 0 3.958-.256 8.221-.58l.006-.003ZM61.554 136.163c5.981-.597 11.105-4.269 20.77-4.246 7.198.018 16.03 2.715 21.671 1.239 2.642-.69 5.002-2.118 3.566-4.966-1.936-3.841-10.555-4.686-10.555-10.026 0-1.306.212-1.398.86-2.596-5.14 0-6.826.631-6.865-2.283a8.468 8.468 0 0 0-.062-1.205l-21.33.311c-.15 1.048-.255.902.562 2.295 2.531 4.318 5.842 13.98 3.103 16.561-1.472 1.388-2.98.737-4.537.021-4.589 1.674-3.87.142-5.835.314-2.312.203-1.998-.861-3.567-.98-2.547-.195-2.452-1.891-3.36-2.029-5.817-.884-4.487-11.97.983-10.298.198.061.3-.051.67-.734 1.077-2.008 1.249-1.615-7.341-16.42l-8.894-14.802c0-.626-5.887 6.282-5.475 22.608.23 9.132 1.23 15.073 7.054 20.54 4.7 4.413 12.56 7.29 18.576 6.696h.006Zm10.177-6.397c.347-.362.432-1.311.432-1.964l-1.327 2.09c.15.141.711.065.898-.126h-.003Zm-4.676-.357c1.128-.519 2.74-2.095 3.346-3.265.309-.606.511-2.145.415-3.139-.183-1.836-1.077-4.084-2.82-7.053-2.126-3.623-3.159-6.157-6.577-16.098-1.727-5.034-2.547-7.273-4.466-12.286-1.69-4.422-2.053-4.156 2.808-7.514-1.199-1.893-2.164-3.125-4.495-5.366-1.348-1.296-3.181-2.817-3.548-2.944-.18-.06-3.585 2.61-4.905 3.845-6.142 5.764-4.494 8.038.15 15.4 1.606 2.543 12.353 20.131 13.362 23.986.706 2.683-1.3 4.378-3.092 7.237l-1.28 1.903c-.92-2.148.762-4.008 0-4.008-1.109 0-1.996 6.057.236 6.274.944.09 1.155-.119 3.157-3.107 1.39-2.076 1.348-1.977 1.263-.49-.15 2.459-.9 3.837-2.203 5.169 1.104.874 1.447 1.227 3.877-2.743.986-1.615 1.028-1.666 1.188-1.441.3.416.029 3.612-1.177 5.196-.83 1.093.887.367 1.436-.178 1.868-1.892 3.18-5.63 3.552-4.328.373 1.302-.436 3.752-1.484 5.317l1.257-.365v-.002Zm98.903-12.766c1.694-.516 3.056-1.553 3.664-2.812.551-1.141.953-7.118-.15-8.713-1.102-1.594-1.977 8.797-2.705 8.797-.577 0 .03-8.636-2.127-8.636-1.011 0-.676 5.015-1.606 7.122-.198.45-.899 1.442-.963 1.377-.749-.706-.062-12.539-2.205-4.57-1.313 4.869-2.089 7.908 3.682 7.76 1.185-.03 1.648-.094 2.415-.325h-.005Zm48.674-1.836c6.19-.969 9.333-1.423 13.451-1.946 6.989-.882 9.71-1.524 10.337-2.433 1.036-1.486-1.304-2.207-4.138-3.279-3.12-1.179-16.05-5.324-18.126-5.809-1.542-.362-4.172-.585-5.543.024-1.648.734-6.418 4.158-7.062 5.063-.114.163-.111.62 0 .62l8.293-2.043c2.847-.674 2.925-.706 3.067-1.015.659-1.475 2.996-1.098 2.996.493 0 1.395-1.718 1.944-2.512 1.246-.543-.474-1.549-.016-5.004.866l-6.916 1.717c0 .972-.527.839 4.644.393l15.152-1.5c1.006-.111 1.06-.133 1.215-.541.634-1.652 3.745-.717 2.758 1.237-.371.735-1.248.999-2.088.62-.688-.312-2.846.127-3.823.252-2.58.329-15.968 1.375-17.632 1.375-.334 0-.226.816-.226 1.438 4.006 0 23.968-1.719 27.338-2.387.368-.073.118-.202.569-.706 1.305-1.47 3.438-.27 2.813 1.271-.749 1.829-2.957.465-2.958.465l-8.619 1.026c-4.621.434-15.044 1.435-18.292 1.435-3.104 0 2.812 2.612 2.828 2.617.944.292 3.464.122 7.478-.505v.006Zm-181.611-1.148c-.17-1.289-.16-7.795.012-9.603.737-7.65 2.163-14.203 6.838-20.209.59-.758.427-.39.49-1.936.267-6.176 7.833-9.917 7.532-11.043-.042-.155-.007-.785.078-1.4.183-1.36.45-1.846 1.72-3.227 3.517-3.793 9.737-8.897 14.309-12.62 6.168-5.036 8.939-6.82 12.134-7.797 1.978-.606 7.571-1.507 11.005-1.765.837-.065 1.556-.155 1.601-.2l.97-4.648c-1.554-1.846-2.096-2.567-3.037-4.541-1.16-.114-1.906-.197-2.818-1.366-1.661-2.127-2.123-6.26-1.049-8.823.522-1.234-.116-.67-.828-3.734l-.421-4.181c-7.718.945-10.68.713-19.325 2.754-15.206 3.59-28.33 10.749-36.282 23.3-4.443 7.01-7.123 14.841-7.96 23.254-.215 2.143-.176 7.683.068 9.96 1.247 11.666 5.288 22.616 13.195 35.752 1.983 3.299 1.934 3.389 1.762 2.087l.006-.014Zm118.096-.525h5.601l.198-.942c-10.874-.362-49.551-.497-63.367-.133v1.222l57.575-.142-.007-.005Zm49.721-.267c.628-.432-.791-.271-3.135-.171-3.697.16-15.798.088-21.572-.126-3.024-.111-3.582-.107-3.67.023-.3.442-.676.424 14.023.424 12.013 0 14.166-.023 14.357-.156l-.003.006Zm-1.797-1.467c10.538-.408-26.571-.848-26.571-.455 0 .716 26.003.477 26.571.455Zm-110.24-.664 2.248-.072.1-1.813-21.446-.533-.15 2.635 19.258-.217h-.01Zm68.398-.024c0-.051-2.604-.126-5.784-.167-15.479-.193-40.663-1.245-57.874-1.618v1.769c19.204-.196 44.39-.5 60.547.04 2.097.072 3.111.066 3.111-.021v-.003Zm43.693-1.483v-.467l-28.365.22-.073.497 28.438.223v-.473Zm-43.245-.258c.049-.332-.3-.376-2.956-.379l-18.875-.44c-14.413-.382-23.474-.681-35.388-1.168-7.673-.314-6.774-.73-6.774.706l9.863.296c16.961.362 36.135 1.256 51.622 1.222 2.417 0 2.466-.011 2.5-.237h.008Zm-90.299-.377c0-.424-.403-.504-.198 0h.198Zm23.847-1.427v-.54c-5.734-.246-15.822-.935-20.554-1.578-1.12-.152-.94-.565-.94 2.08l21.11.565c.38.019.384.016.384-.521v-.006Zm108.73-.087.967-.072v-.716l-28.575-.494.15 1.354 27.455-.072h.003Zm-132.45-1.248c0-1.568.267-1.271-1.87-1.475l.952 2.683h.918v-1.21.002Zm90.931.446c.087-.204.149-.417.183-.634l-64.8-1.057c0 .976-.502.629 5.583.848l54.904 1.423 3.916.019.214-.599Zm79.608-.442a.984.984 0 0 0 .123-.397c0-.215-2.152-1.359-2.751-.729-.136.142-.183.274-.118.335.135.119 2.286.988 2.481.988.08 0 .2-.09.265-.204v.007Zm-146.705-1.453c0-2.683 2.457-2.061 5.109-2.015l3.586.06c-1.61-3.46.578-5.273 4.931-7.978 2.131-1.324 6.725-3.91 7.166-5.45.642-2.25-2.997-3.373-7.705-2.38-4.566.967-11.355 3.68-16.778 4.532-12.234 1.93-17.915-1.622-27.192-8.365l-2.352 1.8 5.337 13.715c5.158 0 6.292.185 6.292 5.194 4.174.625 16.27 1.553 21.61 1.668v-.779l-.004-.002Zm113.911-2.585c4.503-2.862 4.589-3.151 8.792-3.168.978-2.428 3.071-2.627 6.037-1.708 4.288 1.328 2.097 3.697 3.285 4.096 1.359.464.388-.999 2.283-1.682 1.217-.44 4.722.18 5.945 1.487.253.271.473.473.497.447.377-.423 1.88-3.561 2.566-5.359 3.992-10.482 1.362-21.203-4.794-31.135-6.777-10.918-16.785-20.294-31.577-29.588-17.527-11.005-34.225-17.443-54.103-20.859-7.49-1.29-13.791-1.857-20.656-1.864-3.488 0-7.953.188-8.13.343-.02.018-.361 7.545.111 8.877.463 1.3 2.846 3.307-1.082 1.734-.956-.383-1.308-.48-1.375-.38-.77 1.14-1.26 3.704-1.381 5.619-.343 5.379-3.324 10.08-7.976 13.007-.265 2.568-.346 2.272 1.348 3.204 2.996 1.647 8.965 5.056 10.142 5.79 3.338 2.08 4.263 3.172 6.421 7.572 1.537 3.135 6.835 14.86 7.264 16.07.991 2.8-.402 1.192 1.537 4.026 2.59 3.796 3.939 5.095 8.858 8.528 6.573 4.59 18.324 11.923 24.984 15.08l2.639 1.814c2.37-2.726 3.933-.452 4.553-.239l30.43.432 3.384-2.144h-.002Zm-43.341 1.54c-.03-.033-1.507-.862-3.281-1.846-6.762-3.752-11.996-6.984-19.035-11.746-5.611-3.792-7.332-3.851-11.363-10.189-1.42-2.231.103-.079-9.877 3.672-.806.302-1.481.615-1.498.696-.034.157 1.569 3.008 2.823 5.012 3.984 6.368 16.426 8.26 14.249 10.65-.715.784-2.27.092-3.98-.72-4.653-2.21-9.928-4.645-12.208-7.994-.855-1.258-4.173-6.99-3.727-8.25.175-.506.417-.65 1.7-.998 2.279-.618 9.374-4.237 11.218-5.752-2.731-6.214-8.178-19.383-10.797-21.658-1.552-1.35-6.073-3.916-9.115-5.615-1.121 5.74-5.18 6.565-10.353 7-.81 6.884-1.659 11.99-3.528 16.203-.36.812-.68 1.449-.709 1.425-.214-.2 2.324-17.544 2.059-17.725-.3-.202-6.238-.34-9.513-5.508-.54-.852-1.14-2.397-1.14-2.931 0-.198-.034-.36-.069-.36-.23 0-3.585.744-5.024 1.103-3.176.806-3.907 1.17-7.535 3.745a192.062 192.062 0 0 0-10.878 8.31c-1.648 1.349-9.16 8.357-9.16 8.54 0 .044.78.628 1.732 1.303 3.544 2.503 6.783 5.698 8.437 8.317.599.952.116 1.037 2.888-1.13a281.443 281.443 0 0 1 5.41-4.083c5.425-3.984 5.776-4.309 6.4-5.926 2.04-5.275-1.916-14.069.01-11.072 2.041 3.2 2.903 6.947 2.45 10.657-.241 1.885-.428 2.447-1.049 3.107-1.16 1.247-14.824 11.564-14.734 11.802.015.044.843.685 1.842 1.424 9.427 6.984 16.75 8.601 30.839 4.019 5.369-1.748 8.265-2.487 10.651-2.724 1.983-.2.992.3 2.267-5.284 1.532-6.707 2.546-11.99 3.402-18.91.226-1.843.471-3.453.539-3.576.204-.353.616-.23.777.232 1.314 3.791-.698 15.498-1.797 20.466l-1.227 7.17c2.609.769 4.416 1.722 4.416 4.306 0 3.826-5.579 5.597-5.579 6.368l1.437 7.748 51.63.717v.005ZM97.243 68.74c-.951-.368-.993-1.821-.064-2.275.687-.336 1.589-.123 1.862.44.524 1.088-.643 2.281-1.798 1.835Zm1.892-8.978c-1.049-.295-1.348-1.474-.547-2.224.802-.75 2.352-.134 2.352.905 0 .847-.968 1.553-1.797 1.319h-.008Zm-31.758 42.545c-.087-1.737-.168-1.812-1.996-1.888-1.6-.067-1.37-.473-.337 2.515l2.375.123-.042-.75Zm162.522.364c0-1.017-3.757-1.821-3.757-.882 0 .125 3.089 1.217 3.552 1.249.16.016.205-.067.205-.367Zm-122.54-.529-1.032-5.951c-.097 0-4.569 2.5-4.569 4.416 0 .651 1.148 1.391 1.69 1.628.879.384 2.536.267 3.98.267l-.069-.36Zm113.259-2.29c0-1.396-6.891-1.503-2.846-.508 1.303.32 2.846.989 2.846.509ZM99.877 53.185c2.594-.616 4.916-2.522 5.034-4.942l.042-.848c-3.184-1.694.675.2-4.414 2.56-6.335 2.934-12.501-1.16-12.518-3.519 0-.564.046-.365-1.216-.226-.37.043-.703.122-.75.18-.558.839 1.2 5.685 7.972 6.901 1.167.209 4.793.141 5.842-.112l.008.006Zm-1.939-4.547a7.202 7.202 0 0 0 3.35-1.627c0-.836.15-4.377-.203-4.245-1.285.47-3.965.595-5.315.249-4-1.024-3.966-2.928-4.163-1.323-.36 2.95-1.9 4.47-.623 5.507 1.74 1.42 4.622 1.906 6.954 1.435v.004Zm2.222-7.58c4.035-.973 7.04-4.66 8.645-8.473 1.648-3.898.168-4.601 2.06-8.993.806-1.87.864-1.38-.276-2.064-6.262-3.77-8.389-7.98-6.891-5.331 1.187 2.087 2.596 4.133 3.82 5.542 2.556 2.94-2.272.565-4.909-1.25-4.494-3.098-6.25-6.97-6.251-6.715-.01 1.653 4.224 9.517 4.175 9.635-.107.262-.562.16-1.771-.39-2.186-.989-3.922-2.466-6.048-5.136-1.322-1.665-1.093-1.737-2.396.75-2.829 5.379-1.825 7.432-3.54 6.2-3.621-2.602-2.301 10.08.573 7.246l1.067-1.254c.575 1.884-.809 2.428 1.697 5.73 2.652 3.498 5.86 5.508 10.048 4.498l-.003.005Zm-3.173-2.223c-.121-.033-2.222-1.366-.1-.822 1.812.465 4.551-.3 2.645.638-.766.376-1.856.366-2.547.184h.002Zm-.238-1.467c-1.101-.267-2.817-1.24-3.03-1.72-.074-.164-.113-.173 1.32.199 3.8.988 7.93-.15 7.865.032-.079.235-1.926 1.194-2.614 1.359-1.002.241-2.8.306-3.541.13Zm2.191-2.954c-.758-.441-1.716-1.435-1.063-1.108.212.106 1.81.239 2.236-.083.749-.565-.461-2.221.62-4.995.161-.41.264-.548.326-.443.199.342 1.048 4.354 1.048 4.955 0 2.083-2.397 2.118-3.17 1.674h.003Zm-12.212-3.621c0-.859-1.752-.989-.898-2.747.698-1.428-.466-3.38.78-2.064 1.907 2.009.23 2.234.646 3.352.49 1.315-.532 2.199-.532 1.459h.004Zm5.786-1.384c-2.008-.67 1.027-.493 1.027-.815a1.873 1.873 0 0 0-.45-.258l-1.603-1.205 5.842 1.308c.15.11-2.607 1.694-4.82.97h.004Zm13.362-.116c-1.263-.323-2.91-1.189-2.197-1.189.205 0 4.545-1.359 4.545-.775 0 .344-1.525 1.033-1.525 1.11 0 .325 2.996.995 1.436.995-.978 0-.899.197-2.259-.141Zm-2.229-3.694c.915-2.251 3.895-2.336 5.212-.739 1.198 1.448.09-.196-5.071.989-.252.06-.259.04-.141-.256v.006Zm-6.047-.1a5.552 5.552 0 0 0-3.16-.685c-3.502.202-4.187 1.324-3.445.216.958-1.434 3.035-2.422 4.77-1.68 1.499.643 3.596 3.137 1.829 2.149h.006Zm14.921-13.505c-.343-6.195-5.891-10.732-13.145-8.505-3.654 1.118 4.547-1.616 9.409 3.302 1.773 1.79 3.232 5.575 3.606 7.625l.13-2.429v.007Z" fill="#3F170D"/></svg>