<svg width="312" height="381" fill="none" xmlns="http://www.w3.org/2000/svg"><g clip-path="url(#a)"><path d="M65.026 358.269c-6.803-2.131-14.978 2.812-21.533 0" stroke="#3F170D" stroke-width="3" stroke-miterlimit="10"/><path d="M208.062 230.579c47.596-47.609 47.596-124.799 0-172.409-47.597-47.609-124.766-47.609-172.363 0-47.596 47.61-47.596 124.8 0 172.409 47.597 47.61 124.766 47.61 172.363 0Z" fill="#E23C08"/><path d="M240.001 69.231c47.011 47.024 47.011 123.264 0 170.287-47.011 47.024-123.23 47.024-170.241 0-47.011-47.023-47.011-123.263 0-170.287 47.011-47.023 123.23-47.023 170.241 0Z" stroke="#3F170D" stroke-width="3"/><path d="M177.83 340.194c2.947 4.276 19.162-3.621 24.609-2.476 4.886 1.018 8.198 3.84 13.702 2.647 4.167-.906 8.288-3.948 12.622-5.243 4.254-1.275 9.801-1.713 14.148-.326 3.743 1.193 7.226 5.665 11.214 6.08 4.517.464 7.63-4.368 11.227-5.449 4.757-1.425 7.041 2.5 11.534 2.922M311.845 351.703c-5.055-1.917-8.509 1.394-13.244 2.836-6.107 1.861-8.436-1.857-13.916-1.922-3.98-.047-8.285 3.765-12.493 3.724-2.467-.024-3.978-1.832-6.75-1.666-2.004.131-4.202 1.878-6.248 2.157M106.996 345.665c-5.02-2.008-8.534 1.242-13.293 2.596-6.15 1.752-8.401-2.007-13.88-2.172-3.98-.118-8.346 3.614-12.558 3.496-2.467-.069-3.945-1.914-6.717-1.786-2.006.094-4.237 1.802-6.287 2.036M47.43 375.692c7.864-2.544 12.197-2.289 20.302-1.082 7.418 1.108 12.574-2.822 19.689-3.091 7.31-.275 13.435 3.718 20.916 2.973 7.978-.796 13.517.676 21.534 1.814M179.291 380.613c5.651-2.879 12.86-1.678 19.075-1.368 6.622.332 12.073-1.09 18.467-1.108 6.048-.014 11.854.299 17.831-.611 5.928-.894 14.637 1.527 19.685-1.222" stroke="#3F170D" stroke-width="3" stroke-miterlimit="10"/><path d="M251.509 359.302c0 7.566-38.248 13.702-85.429 13.702-47.181 0-85.432-6.136-85.432-13.702 0-7.567 38.251-13.702 85.432-13.702 47.181 0 85.429 6.139 85.429 13.702Z" fill="#fff"/><path d="M115.196 131.492c.454.947-.381 2.295-1.867 3.012-1.486.716-3.054.533-3.52-.408-.466-.94.379-2.295 1.867-3.013 1.488-.719 3.062-.536 3.52.409Z" fill="#3F170D"/><path d="M114.888 131.767v-10.525" stroke="#3F170D" stroke-width=".095" stroke-miterlimit="10"/><path d="M121.915 129.344c.459.945-.378 2.292-1.864 3.011-1.486.719-3.054.532-3.518-.407-.464-.939.379-2.295 1.867-3.012 1.488-.716 3.059-.539 3.515.408Z" fill="#3F170D"/><path d="M121.61 129.619v-10.528" stroke="#3F170D" stroke-width=".095" stroke-miterlimit="10"/><path d="m121.879 121.072-7.272 3.285v-3.362l7.272-3.282v3.359ZM121.879 122.714l-7.272 3.282v-.861l7.272-3.285v.864ZM247.922 131.162c.456.947-.378 2.295-1.866 3.012-1.488.716-3.054.533-3.518-.408-.464-.94.379-2.294 1.867-3.011 1.488-.717 3.061-.538 3.517.407Z" fill="#3F170D"/><path d="M247.615 131.437v-10.525" stroke="#3F170D" stroke-width=".095" stroke-miterlimit="10"/><path d="M254.644 129.012c.456.947-.378 2.295-1.864 3.011-1.486.717-3.054.534-3.518-.407-.464-.941.379-2.295 1.865-3.013 1.486-.719 3.061-.536 3.517.409Z" fill="#3F170D"/><path d="M254.339 129.287v-10.526" stroke="#3F170D" stroke-width=".095" stroke-miterlimit="10"/><path d="m254.608 120.743-7.272 3.282v-3.36l7.272-3.284v3.362ZM254.608 122.382l-7.272 3.284v-.863l7.272-3.283v.862ZM187.727 15.235c.886.562.886 2.148 0 3.541-.885 1.393-2.321 2.069-3.208 1.505-.888-.564-.888-2.148 0-3.541.887-1.393 2.323-2.069 3.208-1.505Z" fill="#3F170D"/><path d="m187.611 15.63-5.547-8.945" stroke="#3F170D" stroke-width=".095" stroke-miterlimit="10"/><path d="M192.307 9.855c.884.562.886 2.15 0 3.541-.885 1.391-2.32 2.07-3.208 1.507-.887-.562-.885-2.15 0-3.543.886-1.393 2.321-2.06 3.208-1.505Z" fill="#3F170D"/><path d="m192.191 10.257-5.547-8.942" stroke="#3F170D" stroke-width=".095" stroke-miterlimit="10"/><path d="m187.916 2.853-4.45 6.626-1.771-2.855L186.143 0l1.773 2.853ZM188.782 4.25l-4.45 6.623-.456-.733 4.45-6.623.456.733ZM95.146 76.786c.456.947-.38 2.295-1.867 3.014-1.486.719-3.053.532-3.517-.407-.464-.939.378-2.295 1.867-3.012 1.488-.716 3.06-.54 3.517.405Z" fill="#3F170D"/><path d="M94.839 77.061V66.536" stroke="#3F170D" stroke-width=".095" stroke-miterlimit="10"/><path d="M266.856 74.263c1.045.096 1.769 1.51 1.629 3.15-.141 1.642-1.122 2.9-2.166 2.805-1.044-.096-1.771-1.507-1.629-3.15.143-1.644 1.12-2.9 2.166-2.805Z" fill="#3F170D"/><path d="m266.934 74.667-9.023-5.419" stroke="#3F170D" stroke-width=".095" stroke-miterlimit="10"/><path d="M89.033 182.428c.084 1.047-1.183 2.002-2.828 2.134-1.644.133-3.053-.611-3.13-1.657-.078-1.047 1.182-2.002 2.83-2.134 1.646-.133 3.044.611 3.128 1.657Z" fill="#3F170D"/><path d="m88.648 182.573 3.805-9.813" stroke="#3F170D" stroke-width=".095" stroke-miterlimit="10"/><path d="M128.126 26.349c.454.945-.38 2.295-1.866 3.011-1.486.717-3.054.532-3.518-.407-.464-.938.379-2.295 1.867-3.011 1.488-.717 3.061-.548 3.517.407Z" fill="#3F170D"/><path d="M127.819 26.616V16.09" stroke="#3F170D" stroke-width=".095" stroke-miterlimit="10"/><path d="M130.148 20.79c-1.262 0-1.018-1.588-1.466-1.588h-1.099v-3.358h1.407c.61 0 .101 3.775 1.158 3.775 1.056 0 1.256 1.171 0 1.171ZM234.271 36.764c.955.436 1.175 2.006.491 3.509-.684 1.502-2.014 2.368-2.97 1.932-.957-.436-1.175-2.006-.491-3.508.684-1.503 2.013-2.37 2.97-1.933Z" fill="#3F170D"/><path d="m234.212 37.172-6.73-8.092" stroke="#3F170D" stroke-width=".095" stroke-miterlimit="10"/><path d="M232.276 31.205c-.969.815-1.801-.566-2.141-.285l-.845.703-2.148-2.58 1.081-.9c.47-.391 2.492 2.836 3.304 2.16.812-.676 1.718.096.749.902ZM230.802 360.796c-.203 5.755-7.292 7.575-7.817 0l-7.817-112.681h15.634s.208 106.929 0 112.681ZM206.038 353.491c-.175 4.864-6.164 6.401-6.608 0-.443-6.402-6.607-95.248-6.607-95.248h13.215s.175 90.383 0 95.248ZM147.551 353.491c.175 4.864 6.162 6.401 6.608 0l6.607-95.248h-13.215s-.175 90.383 0 95.248ZM126.652 360.798c.204 5.753 7.292 7.573 7.818 0l7.819-112.683h-15.637s-.207 106.929 0 112.683ZM187.627 250.158s-43.779-9.945-39.085-20.414c4.694-10.468 30.421-14.736 40.062-13.642 5.574.627 20.215-5.323 28.213-4.696 5.834.458 22.22 17.618 22.665 20.328 1.065 6.418-51.855 18.424-51.855 18.424Z" fill="#3F170D"/><path d="M153.768 215.088c5.417 9.492 61.85 7.018 65.675-3.14 1.682-4.468-1.179-33.832-2.748-48.157-1.57-14.325-.116-33.048-3.51-37.263-8.918-11.049-20.56-11.049-20.56-11.049h-15.064s-11.062 2.896-17.548 9.723c-11.858 12.484-4.928 25.235-3.719 41.395 3.155 42.103-7.79 39.262-2.526 48.491Z" fill="#fff" stroke="#3F170D" stroke-width=".136" stroke-miterlimit="10"/><path d="M215.917 159.732c5.533 4.165 5.763 17.919 7.532 26.563 2.158 10.548 19.838 9.526 17.827-13.172-3.396-38.281-31.736-51.625-36.642-53.944" fill="#fff"/><path d="M215.917 159.732c5.533 4.165 5.763 17.919 7.532 26.563 2.158 10.548 19.838 9.526 17.827-13.172-3.396-38.281-31.736-51.625-36.642-53.944" stroke="#3F170D" stroke-width="3" stroke-linecap="round" stroke-linejoin="round"/><path d="M230.281 173.713c2.06-4.129 10.008-10.995 10.008-10.995l8.395-2.491s.908 27.027-14.934 32.097" fill="#fff"/><path d="M230.281 173.713c2.06-4.129 10.008-10.995 10.008-10.995l8.395-2.491s.908 27.027-14.934 32.097" stroke="#3F170D" stroke-width="3" stroke-linecap="round" stroke-linejoin="round"/><path d="M103.78 363.405c.944 3.985 13.867 3.207 15.416-3.616 1.018-4.492 4.161-18.734 3.908-17.105l-2.176-10.713-12.324-2.708s-6.349 27.679-4.824 34.142Z" fill="#3F170D"/><path d="M141.02 239.805c-2.278 12.434-14.657 44.364-15.308 91.47-.069 5.186-17.818 1.202-17.818 1.202s-10.35-79.326 1.773-110.075c3.664-9.294 10.948-17.068 20.764-16.026 11.611 1.236 13.633 16.81 10.589 33.429Z" fill="#fff" stroke="#3F170D" stroke-width="3" stroke-miterlimit="10"/><path d="M85.265 256.582c-3.917-1.199-2.313-14.05 4.594-15.158 4.546-.733 18.967-2.956 17.322-2.81l10.551 2.851 1.903 12.474s-28.02 4.577-34.37 2.643Z" fill="#3F170D"/><path d="M210.961 227.309c-12.551 1.476-45.193 11.81-92.239 9.43-5.177-.261-2.337 17.715-2.337 17.715s78.481 15.402 109.927 5.268c9.506-3.055 17.73-9.839 17.315-19.697-.482-11.682-15.892-14.691-32.666-12.716Z" fill="#fff" stroke="#3F170D" stroke-width="3" stroke-miterlimit="10"/><path d="m192.808 106.945-.183 8.552s-.712 6.28-7.394 6.28c-6.681 0-7.662-6.28-7.662-6.28l.153-7.705s-4.595-1.647-7.011-6.923c-2.132-4.677-4.747-18.096-4.904-26.752-.226-10.902 15.316-10.283 15.316-10.283s16.667-1.54 19.217 7.685c1.777 6.424.794 23.848-1.056 29.342-1.517 4.494-6.476 6.084-6.476 6.084Z" fill="#F7CEBF" stroke="#3F170D" stroke-width="3" stroke-miterlimit="10"/><path d="M168.934 93.11s-.523 1.768-2.647 1.194c-1.111-.3-2.646-2.757-2.646-5.738-.014-4.97 4.055-6.577 5.293-2.81" fill="#F7CEBF"/><path d="M168.934 93.11s-.523 1.768-2.647 1.194c-1.111-.3-2.646-2.757-2.646-5.738-.014-4.97 4.055-6.577 5.293-2.81" stroke="#3F170D" stroke-width=".136" stroke-miterlimit="10" stroke-linecap="round"/><path d="M200.135 93.11s1.131 1.63 2.646 1.156c1.097-.349 2.646-2.719 2.646-5.702.015-4.97-4.055-6.577-5.292-2.81" fill="#F7CEBF"/><path d="M200.135 93.11s1.131 1.63 2.646 1.156c1.097-.349 2.646-2.719 2.646-5.702.015-4.97-4.055-6.577-5.292-2.81" stroke="#3F170D" stroke-width=".136" stroke-miterlimit="10" stroke-linecap="round"/><path d="M194.115 106.373c-3.601 1-12.975.845-12.975.845s4.321 3.462 6.263 3.604c1.943.143 6.712-4.449 6.712-4.449ZM171.421 53.79c-5.119.578-8.438 8.537-10.598 13.607-2.992 7.031 5.959 17.624 5.959 17.624s1.382 3.561 2.538 3.545c1.157-.016-.189-11.72 2.755-13.512 8.633 4.147 20.407 2.353 22.958-5.498 2.551-7.852 3.054-12.959-2.286-15.51-6.83-3.262-16.517-.798-21.326-.257Z" fill="#3F170D"/><path d="M195.813 56.6c4.126-2.027 11.565 3.49 11.585 11.451.014 6.282-3.334 12.875-5.496 17.715-1.153 2.578-1.989 3.824-2.626 3.857-1.832.098 1.447-15.925-6.922-19.14-8.368-3.216-.667-11.86 3.459-13.884ZM169.893 170.738c8.932-3.736 29.629-13.596 29.629-13.596s8.55 4.448 14.771 19.312c6.221 14.865 6.532 30.395-5.055 35.241-6.793 2.851-13.266 1.981-20.876 4.938-7.609 2.957-7.379 18.837-24.88 26.155-18.134 7.583-36.701-5.622-44.948-25.357-8.246-19.735-2.266-40.454 13.12-46.886 15.923-6.659 27.368 4.738 38.239.193Z" fill="#3F170D"/><path d="M165.622 166.658c8.934-3.739 10.056-10.033 16.849-12.873 11.587-4.847 21.876 5.005 28.093 19.871 6.217 14.867 5.997 29.118-5.592 33.957-6.794 2.85-15.065-1.047-22.664 1.914-7.599 2.96-7.552 21.081-25.053 28.397-15.384 6.434-32.545-5.182-40.795-24.915-8.251-19.734-4.458-40.114 10.927-46.545 15.919-6.66 27.366 4.735 38.235.194Z" fill="#FFD284" stroke="#3F170D" stroke-width="3" stroke-linecap="round" stroke-linejoin="round"/><path d="M168.425 176.684a13.462 13.462 0 0 0-5.977 19.939 13.46 13.46 0 0 0 20.716 1.972 13.463 13.463 0 0 0-14.739-21.911Z" fill="#fff" stroke="#3F170D" stroke-width="2" stroke-linecap="round" stroke-linejoin="round"/><path d="M170.257 181.068a8.707 8.707 0 0 0-5.347 8.065 8.715 8.715 0 0 0 5.4 8.029 8.709 8.709 0 0 0 11.854-6.38 8.718 8.718 0 0 0-2.403-7.855 8.719 8.719 0 0 0-6.171-2.535 8.71 8.71 0 0 0-3.333.676Z" fill="#3F170D"/><path d="m151.604 186.287-5.781 2.418 8.552 20.46 5.781-2.417-8.552-20.461Z" fill="#fff" stroke="#3F170D" stroke-width="2" stroke-linecap="round" stroke-linejoin="round"/><path d="m157.167 204.049.112.263a1.427 1.427 0 0 1-.765 1.865 1.423 1.423 0 0 1-1.865-.766l-.108-.264a1.44 1.44 0 0 1-.047-1.125 1.415 1.415 0 0 1 1.346-.918 1.428 1.428 0 0 1 1.327.945ZM155.563 199.472a1.424 1.424 0 0 1-.763 1.861l-.263.11a1.428 1.428 0 0 1-1.825-.781 1.428 1.428 0 0 1 .726-1.848l.263-.11a1.433 1.433 0 0 1 1.862.768ZM153.324 194.847c.708 1.697-1.92 2.794-2.628 1.1-.708-1.694 1.92-2.794 2.628-1.1ZM151.455 190.38c.711 1.694-1.919 2.794-2.626 1.097-.706-1.696 1.914-2.793 2.626-1.097ZM255.845 146.267l3.738 8.935-80.312 38.208-5.213-12.482 81.787-34.661Z" fill="#3F170D"/><path d="m259.803 141.626-3.958 4.641 3.738 8.935 6.424 1.264s4.815-4.111 10.466-6.473c5.651-2.362 11.868-2.867 11.868-2.867l4.859-5.858-3.479-8.324-7.581-.66a56.791 56.791 0 0 1-10.614 5.879 58.287 58.287 0 0 1-11.723 3.463ZM276.218 132.64c-1.017.426-1.714 1.063-1.563 1.426.151.362 1.097.311 2.113-.114 1.016-.426 1.718-1.063 1.566-1.426-.153-.362-1.098-.293-2.116.114Z" fill="#3F170D"/><path d="m277.284 132.961-1.489.623 1.3 3.109 1.489-.622-1.3-3.11ZM264.538 137.434c-1.018.425-1.718 1.063-1.568 1.425.151.362 1.1.312 2.115-.112 1.016-.423 1.719-1.063 1.566-1.425-.153-.363-1.095-.314-2.113.112Z" fill="#3F170D"/><path d="m265.407 141.494-1.299-3.109 1.488-.623 1.301 3.109-1.49.623ZM269.965 135.161c-1.018.428-1.716 1.065-1.564 1.426.153.36 1.098.311 2.113-.114 1.016-.426 1.716-1.063 1.564-1.426-.153-.362-1.097-.309-2.113.114Z" fill="#3F170D"/><path d="m270.84 139.224-1.303-3.11 1.49-.625 1.299 3.111-1.486.624ZM283.946 151.127c-1.018.428-1.964.475-2.115.114-.151-.36.547-1.001 1.563-1.425 1.016-.424 1.963-.474 2.115-.112.153.362-.547 1-1.563 1.423Z" fill="#3F170D"/><path d="m281.668 147.656 1.301 3.109 1.488-.623-1.299-3.112-1.49.626ZM272.33 156.088c-1.018.423-1.964.472-2.115.112-.15-.361.55-1.004 1.566-1.426 1.015-.421 1.962-.474 2.115-.114.152.361-.55 1.002-1.566 1.428Z" fill="#3F170D"/><path d="m271.537 152.018-1.489.623 1.299 3.111 1.49-.622-1.3-3.112ZM277.77 153.817c-1.018.428-1.961.477-2.113.112-.153-.364.547-1 1.565-1.425 1.018-.426 1.963-.477 2.113-.112.151.364-.56.998-1.565 1.425Z" fill="#3F170D"/><path d="m276.971 149.738-1.489.623 1.3 3.109 1.49-.623-1.301-3.109Z" fill="#3F170D"/><path d="M244.629 152.504c-8.361 4.498-7.787 8.605-4.536 13.064 1.211 1.666 4.762-1.48 9.617-3.632 2.32-1.031 2.76-3.666 2.052-5.606-1.183-3.238-2.455-6.343-7.133-3.826Z" fill="#fff" stroke="#3F170D" stroke-width="3" stroke-miterlimit="10" stroke-linecap="round"/><path d="M160.589 174.898a66.058 66.058 0 0 0-.34 10.467c8.754.716 15.065.786 15.065.786l.472-5.498s-6.744-2.146-15.197-5.755Z" fill="#fff" stroke="#3F170D" stroke-width="2" stroke-miterlimit="10"/><path d="M174.481 186.136s12.035 5.924 14.551 5.541 5.016-4.5 3.113-5.537c-1.904-1.036-10.103-5.55-11.313-5.943-1.799-.591-5.447.034-7.165-.253" fill="#fff"/><path d="M174.481 186.136s12.035 5.924 14.551 5.541 5.016-4.5 3.113-5.537c-1.904-1.036-10.103-5.55-11.313-5.943-1.799-.591-5.447.034-7.165-.253" stroke="#3F170D" stroke-width="2" stroke-miterlimit="10" stroke-linecap="round"/><path d="M160.152 154.416s-6.443 7.188-5.431 11.621c1.504 6.605 10.178 10.24 10.178 10.24l-2.081 10.018s-26.738 5.294-31.168-15.75c-6.038-28.68 31.168-54.74 44.836-54.74" fill="#fff"/><path d="M160.152 154.416s-6.443 7.188-5.431 11.621c1.504 6.605 10.178 10.24 10.178 10.24l-2.081 10.018s-26.738 5.294-31.168-15.75c-6.038-28.68 31.168-54.74 44.836-54.74" stroke="#3F170D" stroke-width="3" stroke-linecap="round" stroke-linejoin="round"/></g><defs><clipPath id="a"><path fill="#fff" d="M0 0h312v381H0z"/></clipPath></defs></svg>