<svg width="268" height="310" fill="none" xmlns="http://www.w3.org/2000/svg"><g clip-path="url(#a)"><path fill-rule="evenodd" clip-rule="evenodd" d="M43.664 61.428a42.971 42.971 0 0 0-6.732 4.643c-4.822 4.018-8.638 8.59-11.45 13.439-2.813 4.85-4.619 9.967-5.064 15.593a38.94 38.94 0 0 0 .41 9.251 52.624 52.624 0 0 1 1.511-3.002c1.984-3.642 3.79-6.103 5.95-7.785 2.16-1.681 4.67-2.587 5.964-3.09 1.293-.501 1.367-.602 1.117-.978-.25-.377-.83-1.03-.905-1.595-.076-.564.352-1.043 1.494-2.612 1.142-1.569 2.993-4.231 4.444-5.764 1.45-1.532 2.509-1.933 4.366-2.31 1.858-.376 4.535-.722 5.878-1.093 1.344-.371 1.406-.74 1.28-1.848-.126-1.107-.427-2.938-.952-4.257-.526-1.318-1.282-2.121-2.712-3.401-1.431-1.28-3.527-3.024-4.604-5.193l.005.002ZM25.577 221.3c-1.698 3.489-3.291 6.831-4.615 9.975-4.168 9.895-5.675 17.83-4.62 26.374 1.055 8.544 4.67 17.681 13.157 26.47 8.486 8.789 21.842 17.229 35.952 21.749 14.11 4.521 28.973 5.124 41.325 2.856 12.352-2.268 22.195-7.391 29.777-14.615 7.583-7.223 12.905-16.575 16.168-27.323 3.263-10.748 4.469-22.903 5.021-34.456.207-4.31.323-8.537.872-12.654-6.037-.457-11.64-.956-15.088-1.247-4.895-.415-5.448-.415-5.686-.289-.239.126-.168.377-.076 2.046.093 1.67.188 4.759-.168 7.224-.356 2.464-1.155 4.295-2.448 5.387-1.293 1.092-3.07 1.438-7.08 1.735-4.011.298-10.27.553-13.558.654-3.289.101-3.618.05-3.881.138-.264.087-.466.314-1.131 1.255-.665.94-1.795 2.6-2.322 3.605-.528 1.004-.452 1.355.126 3.359.577 2.004 1.656 5.64 3.426 9.255 1.77 3.615 4.232 7.208 5.475 9.543 1.242 2.335 1.266 3.417.89 4.321-.377.903-1.154 1.631-2.422 2.016-1.268.384-3.023.44-5.411-.2-2.388-.64-5.398-1.973-8.449-4.007a43.453 43.453 0 0 1-8.46-7.472c-2.323-2.699-3.88-5.36-4.431-7.018-.551-1.658-.108-2.307 1.888-4.449 1.995-2.142 5.541-5.752 7.958-8.362 2.417-2.611 3.728-4.22 3.428-5.275-.301-1.055-2.21-1.557-11.95-1.86-9.741-.302-27.318-.403-36.054-.302-8.736.101-8.637.402-7.784 2.612.853 2.211 2.46 6.328 3.327 8.427.866 2.098.99 2.172 1.72 3.126a32.995 32.995 0 0 1 3.05 4.734 19.594 19.594 0 0 1 1.92 5.852c.276 1.848.177 3.478-.703 5.111-.88 1.632-2.536 3.265-4.595 4.871-2.059 1.606-4.516 3.199-7.193 4.039a17.649 17.649 0 0 1-7.725.64c-2.172-.336-3.63-1.143-4.508-2.016-.878-.874-1.175-1.833-.514-3.918.662-2.084 2.298-5.3 3.78-8.075 1.48-2.775 2.81-5.11 3.526-6.729.715-1.62.816-2.52.44-4.019-.376-1.498-1.231-3.578-2.976-7.02-1.745-3.442-4.38-8.231-7.58-13.298a277.768 277.768 0 0 0-1.791-2.777l-.007.007Zm140.41-19.575a36.207 36.207 0 0 1 1.572-1.773c.804-.84 1.679-1.68 2.613-2.519-12.037-.126-24.252-.577-34.057-1.252-.383.541-.69.966-.905 1.29-.615.931-.464 1.03-.113 1.406.351.377.904 1.03 1.582 1.358.679.327 1.482.325 6.382.552 4.791.22 13.501.659 22.931.936l-.005.002Zm55.489-41.701a74.921 74.921 0 0 0 11.787-17.607c2.074-4.324 3.421-8.2 4.153-11.986-9.572 8.878-19.926 20.583-26.366 31.936-1.456 2.57-.428.941 7.94-1.621a94.98 94.98 0 0 1 2.477-.722h.009Zm16.184-30.989c.532-3.429.568-6.822.198-10.452-.672-6.518-2.647-13.799-7.221-21.632-10.203 12.745-17.983 22.867-25.317 39.695a96.51 96.51 0 0 0-4.237 11.632c-1.473 5.039 1.399-.504 10.331-7.056 9.069-6.654 17.179-9.652 26.241-12.187h.005Zm-8.77-34.92a71.514 71.514 0 0 0-2.074-3.005c-7.362-10.07-19.212-20.92-29.305-28.102a110.76 110.76 0 0 0-4.422-2.989 11.27 11.27 0 0 1-.591.082c-1.445.168-3.359.113-4.395.152-1.037.038-1.218.168-2.924 2.084-1.706 1.917-4.946 5.638-6.886 7.484-1.939 1.846-2.554 1.82-3.706 1.67-1.152-.15-2.837-.427-3.817-.504-.981-.077-1.255.05-4.281 2.298a996.154 996.154 0 0 0-11.674 8.84c-2.875 2.222-2.855 2.298-2.584 3.001.27.704.765 2.035.671 3.68-.094 1.644-.765 3.603-1.054 4.795-.289 1.193-.188 1.62-.303 3.152-.15 1.97-.419 3.929-.806 5.866-.377 1.695-.804 2.449-.967 3.064-.163.615-.062 1.092 0 2.285.062 1.192.087 3.102-1.847 6.618-1.935 3.516-5.824 8.638-8.587 12.331l-.034.047.387.072c7.992 1.498 17.695 6.971 24.878 12.641 5.181 4.089 7.823 8.483 7.853 8.304.025-.15.124-.451.823-3.767s1.993-9.649 4.811-17.081c3.502-9.239 12.005-26.154 17.824-31.393 1.246-1.12 1.196-.474-.05 3.84-4.249 14.696-7.084 24.817-9.319 40.52-.598 4.19-.504 4.536 1.048 2.095 1.551-2.441 4.534-7.68 8.349-13.365 7.732-11.537 18.244-23.71 28.984-31.917a54.537 54.537 0 0 1 3.998-2.797Zm-90.016 33.43c-2.48 3.321-4.03 5.396-5.642 6.567-1.72 1.243-3.527 1.469-5.687 1.217-2.159-.252-4.67-.979-6.382-.766-1.711.214-2.611 1.37-4.569 2.45-1.958 1.08-4.971 2.083-7.119 2.855-2.148.773-3.426 1.331-4.042 1.759-.617.429-.565.728.352 2.016.917 1.289 2.699 3.54 4.469 5.764 1.77 2.224 3.527 4.406 4.456 5.952.928 1.545 1.029 2.447.866 3.227-.163.779-.589 1.431-.966 2.071-.376.64-.703 1.268-.69 1.52.014.252.363.124 1.871-.534 1.508-.659 4.167-1.848 6.81-2.569a20.647 20.647 0 0 1 7.801-.658c2.536.294 4.984 1.124 7.174 2.11 2.19.986 4.125 2.128 5.645 3.88a11.519 11.519 0 0 1 2.788 6.913c.046.937.006 1.876-.121 2.805.426.271 1.032.773 1.936 1.487 6.301 4.979 9.097 8.754 4.87 1.147-6.89-12.405-13.207-18.695-21.268-28.712-.972-1.209-.972-1.235.375-.91 10.447 2.519 14.921 5.237 23.679 11.408 1.646 1.159 1.698 1.132 1.225-.777-2.132-8.602-6.417-15.918-12.141-23.55a63.889 63.889 0 0 0-5.71-6.672h.02Zm33.342-77.714c-1.362-.52-2.76-1.038-4.199-1.566-11.072-4.043-24.88-8.614-44.439-7.56-16.987.918-38.312 6.077-53.824 10.742.063 1.223.05 2.449-.039 3.67-.168 2.335-.672 4.746-1.33 6.48-.658 1.733-1.456 2.786-1.834 3.39-.378.603-.326.754.277 2.235.603 1.482 1.75 4.294 2.46 5.7.711 1.406.955 1.406 2.11 1.176 1.155-.23 3.213-.672 5.196-.628 1.983.043 3.893.603 5.206 1.332a6.906 6.906 0 0 1 2.358 2.164c.364.527.388.672 3.276 1.117 2.889.445 8.636 1.167 12.215 2.016 3.579.848 4.983 1.795 6.816 3.742 1.834 1.947 4.091 4.886 5.297 6.418 1.206 1.531 1.356 1.656 2.435 1.254 1.08-.401 3.089-1.33 7.532-3.98 4.444-2.648 11.325-7.02 14.599-9.318 3.275-2.298 2.951-2.52 2.624-3.126-.328-.606-.652-1.582-.615-2.197.037-.615.44-.867 1.357-.74.917.125 2.351.626 3.389.903 1.038.277 1.695.326 2.899-.553 1.204-.878 2.962-2.688 5.335-4.245 2.373-1.557 5.362-2.856 6.97-3.64 1.607-.785 1.832-1.03 2.309-2.11.477-1.08 1.206-2.989 1.432-4.395.227-1.406-.05-2.311.188-3.038.239-.728.991-1.282 1.821-1.68.829-.398 1.731-.654 2.435-.672a2.265 2.265 0 0 1 1.694.672c.491.452.966 1.13 1.369 1.369.403.238.727.037.978-.188.268-.22.439-.535.478-.879.051-.403-.025-.956.289-1.959a6.659 6.659 0 0 1 .936-1.896v-.01Z" fill="#fff"/><path fill-rule="evenodd" clip-rule="evenodd" d="M140.428 199.307c1.889-3.572 4.633-8.198 6.348-12.205 4.427-10.348 1.389-12.11 5.987-8.476 6.347 5.014 9.163 8.817 4.909 1.155-6.933-12.496-13.304-18.829-21.414-28.918-.979-1.218-.979-1.244.376-.916 10.523 2.533 15.027 5.275 23.848 11.489 1.657 1.167 1.709 1.14 1.232-.782-2.146-8.663-6.462-16.032-12.227-23.719-5.601-7.469-7.837-7.78-4.921-7.224 8.051 1.512 17.823 7.022 25.058 12.732 5.216 4.117 7.878 8.544 7.909 8.362.025-.151.125-.451.827-3.791s2.016-9.72 4.847-17.204c3.527-9.303 12.092-26.342 17.951-31.618 1.255-1.13 1.204-.477-.05 3.864-4.272 14.796-7.127 24.989-9.391 40.805-.603 4.218-.504 4.571 1.053 2.109 1.556-2.463 4.569-7.728 8.412-13.46 7.794-11.621 18.381-23.879 29.198-32.146 4.469-3.416 7.633-4.922 9.038-5.4 1.406-.48 1.055.075-.671 2.236-11.568 14.42-20.086 24.848-28.068 43.182a96.932 96.932 0 0 0-4.269 11.716c-1.483 5.076 1.409-.504 10.412-7.108 9.741-7.151 18.396-10.111 28.284-12.784-10.195 9.125-21.701 21.81-28.652 34.08-1.468 2.59-.431.947 7.998-1.633 5.53-1.692 14.207-3.716 19.269-3.954 1.33-.063 1.204.112-2.261 2.876-6.939 5.533-17.188 13.573-23.536 19.676-1.293 1.243-1.293 1.241.275.564 10.916-4.718 24.004-8.799 36.519-9.795 4.418-.351 8.662-.326 11.097-.289 2.435.037 3.063.087.702 1.142s-7.707 3.115-14.349 6.216c-13.373 6.247-22 11.317-31.294 20.466-.765-.553-1.896-.818-3.555-.907-3.753-.202-10.206.504-20.927.804-17.749.504-40.111-.03-55.964-1.145Z" fill="#E23C08"/><path fill-rule="evenodd" clip-rule="evenodd" d="M139.807 207.484c15.919 1.19 39.161 1.769 57.489 1.255 10.721-.302 17.173-1.008 20.927-.805 3.753.204 4.808 1.307 5.021 4.597.213 3.289-.415 8.765-.853 11.502-.438 2.736-.69 2.738-4.395 3.102-25.05 2.463-51.406 1.074-75.727-1.708-4.063-.464-4.076-.464-4.367-3.402-.29-2.938-.872-8.816-1.16-11.779-.289-2.963-.289-3.014 3.07-2.762h-.005Z" fill="#3F170D"/><path fill-rule="evenodd" clip-rule="evenodd" d="M10.45 195.431c-1.93 7.907-4.337 20.13-3.863 27.108.23 3.35 1.091 5.186 3.402 6.752 4.702 3.191 16.069 4.828 24.133 5.728-5.85-10.854-16.987-27.046-23.68-39.588h.007Zm37.183 43.549c7.097 3.734 28.373 2.585 36.57 2.196 8.451-.405 6.182-.907 11.573-.029 9.725 1.586 19.997 3.338 30.397 2.52 4.086-.324 7.64-.971 9.72-2.322 2.081-1.35 2.687-3.403 2.615-9.37-.107-8.431-1.244-22.631-3.96-32.223l-13.062 19.832c-4.859 7.083-9.353 13.16-11.726 16.424-2.373 3.264-2.623 3.718-4.556 3.743-1.933.025-5.542-.376-7.431-.603-3.047-.366-1.9-.017 2.46-7.697 6.627-11.673 11.91-27.318 16.1-40.255-8.396.059-20.656.229-35.709-.168-17.272-.457-38.228-1.658-51.287-2.204 6.605 12.989 6.73 16.737 11.017 30.033 2.016 6.229 4.82 13.511 6.276 17.328.482 1.265.816 2.148 1.008 2.797l-.005-.002Z" fill="#E23C08"/><path fill-rule="evenodd" clip-rule="evenodd" d="M37.791 245.103c-1.942 9.006-7.518 12.045-6.791 15.734 1.11 5.631 8.68 3.805 13.407 1.105 2.979-1.701 10.142-6.709 10.545-9.229.297-1.848-2.687-6.661-4.105-8.438-1.293-1.633-2.474-2.337-3.251-2.699-.778-.363-1.156-.39-2.649-.014s-4.106 1.156-5.461 1.67c-1.355.514-1.456.766-1.694 1.871Zm58.99-8.399c-.504.61-1.356 1.965-2.587 3.435-3.493 4.171-5.038 4.225-3.816 6.253 3.269 5.385 14.275 15.79 20.657 17.302 2.072.489 3.955.315 4.796-.013.842-.328.64-.803-.589-2.725-3.065-4.786-6.718-9.935-8.199-15.72-1.881-7.311 1.621-4.435-8.184-8.426-1.419-.578-1.57-.716-2.072-.108l-.007.002Z" fill="#3F170D"/><path fill-rule="evenodd" clip-rule="evenodd" d="M37.133 247.556a24.438 24.438 0 0 1-.804 2.147c2.986-.795 4.702-.793 8.707.232 1.215.312 1.708-1.512.504-1.86-3.46-1.008-5.757-1.06-8.407-.519Zm72.151 3.553a35.593 35.593 0 0 1-.889-1.925c-2.062.074-4.02.604-6.649 1.414-1.209.373-.643 2.211.566 1.838 3.121-.961 4.829-1.441 6.972-1.327Zm-2.002-4.988a27.37 27.37 0 0 1-.246-.88 34.88 34.88 0 0 1-.255-1.073c-2.339-.039-4.437.517-7.369 1.419-1.21.373-.643 2.211.564 1.84 3.282-1.008 5.002-1.492 7.306-1.306Zm-72.142 6.002a38.262 38.262 0 0 1-1.377 2.277c3.13-.859 4.836-.884 8.938.168 1.215.312 1.71-1.512.503-1.858-3.313-.961-5.557-1.055-8.06-.587h-.004Z" fill="#fff"/><path fill-rule="evenodd" clip-rule="evenodd" d="M43.438 242.3c-1.45-3.1-3.843-8.04-8.266-15.714-6.39-11.087-18.244-28.091-21.832-37.77-1.62-4.368-2.498-8.764-2.36-11.927.138-3.163 1.293-5.099 4.004-6.367 2.58-1.206 6.566-1.811 9.844-1.456a34.73 34.73 0 0 1 2.958 3.176c3.474 4.297 4.786 8.724 4.494 14.078-.284 5.207-1.836 4.171-.442 7.784.828 2.147 2.687 6.014 4.091 9.982 1.404 3.968 2.361 8.036 3.565 12.055 2.002 6.677 5.77 16.147 7.76 22.05 1.324 3.934 1.343 2.62-3.816 4.109Zm58.233-4.148c8.397-11.655 28.442-40.807 31.786-52.086 1.08-3.64 1.281-7.156.905-9.644-.84-5.5-7.279-9.204-11.744-9.485-3.923 6.098-5.154 10.172-5.302 17.135-.039 1.757.037 2.209-.477 4.683-1.83 8.794-3.465 12.902-7.433 21.886-3.695 8.381-7.053 16.649-11.611 23.407-.996 1.477-1.453.905 3.876 4.104Z" fill="#F7CEBF"/><path fill-rule="evenodd" clip-rule="evenodd" d="M49.227 174.735c-.256.795-.439 1.363-.66 1.29-7.062-2.289-15.018-4.999-20.9-6.015-5.884-1.017 2.57-1.798 4.814 16.619 1.008 8.273-1.767 10.415.929 11.157 5.001 1.38 16.84 1.611 22.722 1.344 6.405-.294 7.465-1.384 10.733-1.071 4.88.465 7.423.552 12.327-.313 2.833-.504.932 1.235 6.854 1.729 8.637.72 19.513-2.342 27.392-5.154 4.907-1.752 3.25-.719 4.105-11.128 1.55-18.875 8.887-17.143 5.862-17.707-.077-.015-30.06 11.759-32.136 12.656-11.42 4.917-30.86 2.271-42.043-3.403v-.004Z" fill="#3F170D"/><path fill-rule="evenodd" clip-rule="evenodd" d="M103.908 171.933c2.509-2.728 4.059-5.219 4.887-7.126.839-1.933.942-3.266-.365-5.298-1.306-2.033-4.017-4.773-5.95-7.032-5.147-6.019-3.359-6.204-6.138-5.325-11.158 3.536-10.543 12.521-13.45 20.921-1.911 5.508-5.23 9.239-9.625 13.259 11.6 0 21.376-2.753 30.647-9.407l-.006.008Z" fill="#fff"/><path fill-rule="evenodd" clip-rule="evenodd" d="m162.831 70.067 4.744 7.728 4.914-2.81c2.395-1.143 3.834-.056 6.667.335.966.13 1.294-.026 3.013-2.141 1.72-2.115 4.832-6.19 6.577-8.242 3.033-3.578 2.635-1.208 6.833-1.544 6.98-.552 9.858-17.699-13.495-8.985-4.619 1.725-10.413 4.44-13.62 6.1-4.545 2.351-4.271 2.796-5.939 6.719-.376.888-.552 1.176.303 2.834l.003.006Z" fill="#FFD284"/><path fill-rule="evenodd" clip-rule="evenodd" d="M124.507 116.086c-.737-.081 3.45 5.431-2.774 16.977-2.479 4.599-1.475 6.795-.603 7.547 2.023 1.737 6.397 2.409 9.478 1.771 2.284-.477 4.169-1.771 6.904-4.947 3.191-3.708 10.196-12.544 13.829-19.225 2.191-4.032 4.337-13.217-.118-16.419-.909-.652-2.383 7.971-7.054 5.243-2.715-1.586-.671-2.673-2.084-.351-1.743 2.856-6.081 11.63-12.679 10.919-1.878-.202-4.118-1.433-4.896-1.52l-.003.005Z" fill="#fff"/><path fill-rule="evenodd" clip-rule="evenodd" d="M142.611 99.096c.227 1.757.672 2.963 1.795 4.092 1.94 1.962 5.977 4.031 8.335 1.281 2.267-2.64 2.506-8.804 2.914-12.47.599-5.403.918-9.603-3.164-14.753-2.078-2.621-8.577-8.1-10.018-5.964-1.143 1.697 4.3 6.462 4.444 7.044l-3.013.816c-1.308.52-.44 1.047-1.908.603-2.613-.791-4.526-.116-3.815 2.725.193.776-1.157.11-1.984.84-1.553 1.376 3.453 5.88 4.703 7.257 2.213 2.437 1.106 3.864 1.706 8.527l.005.002Z" fill="#F7CEBF"/><path fill-rule="evenodd" clip-rule="evenodd" d="M106.627 100.799c-2.298 1.418-2.398 1.468-1.008 3.491l7.846 10.761 24.978-17.185c-.168-3.385.274-4.368-1.53-6.355-1.273-1.401-5.063-4.872-5.015-6.568l-25.271 15.856Zm45.439-12.308 15.787-10.86-6.478-8.852c-1.206-1.596-1.28-1.545-8.335 2.9l-6.687 4.2c3.769 3.527 5.814 7.784 5.71 12.615l.003-.003Z" fill="#E23C08"/><path fill-rule="evenodd" clip-rule="evenodd" d="M83.287 180.563a19.797 19.797 0 0 0 5.847-5.354c5.989-8.295 4.556-18.783 12.451-24.56 8.384-6.135 21.315-6.563 25.677-15.134-2.533-.104-4.945-.704-6.433-1.987-.873-.753 1.569-1.794 3.314-6.72 3.211-9.061-.672-17.887.062-17.806.198.023.608.168 1.286.445l-4.003-5.762-10.58 7.223-7.244-10.008c-1.394-2.016-1.293-2.073 1.008-3.491a1734.12 1734.12 0 0 0 4.645-2.884c-4.383-1.722-9.196-2.16-14.318-.934-4.674 1.117-8.916 3.527-12.193 7.232-3.276 3.704-5.585 8.701-7.495 11.564-1.91 2.862-3.414 3.586-6.666 3.479-3.25-.108-8.247-1.069-12.96-1.237-12.585-.435-23.323 4.959-26.714 18.462 7.247 2.456 16.949 7.728 21.04 8.924 5.762 1.68 15.927 4.093 16.18 11.552.044 1.262-.365 1.492-.715 3.064-.261 1.176-.796 1.982-2.082 1.883-.672-.05.208.61 1.204 3.466.92 2.641-.18 3.768-1.656 3.36-1.88-.514-2.474-2.534-2.725-.993-.707 4.352-4.64.927-6.691-1.67-3.072-3.894-6.046-8.858-10.644-11.013-1.206-.565-1.607-.365-4.457-.402-2.175-.028-5.772-.168-9.554-.448 2.12 8.386 8.06 15.455 13.245 20.751l2.242 1.206c4.03 2.172 9.358 5.01 14.83 6.643 5.474 1.632 11.091 2.074 16.578 1.873a60.76 60.76 0 0 0 7.52-.724Z" fill="#FFD284"/><path fill-rule="evenodd" clip-rule="evenodd" d="M65.224 121.73c-10.29 6.78-2.91 21.838 8.386 20.259 10.897-1.511 11.623-14.43 5.553-19.822-4.257-3.786-9.537-3.336-13.939-.433v-.004Z" fill="#fff"/><path fill-rule="evenodd" clip-rule="evenodd" d="M26.743 137.84c4.581 1.62 11.084 4.633 14.525 6.254 3.44 1.621 3.815 1.848 5.878 2.448 5.762 1.68 15.927 4.094 16.18 11.552.044 1.262-.365 1.49-.715 3.064-.263 1.176-.796 1.983-2.084 1.884-.672-.051.21.609 1.206 3.465.92 2.641-.181 3.768-1.658 3.36-1.88-.514-2.473-2.533-2.724-.993-.708 4.353-4.64.927-6.69-1.67-3.074-3.894-6.046-8.858-10.646-11.013-1.204-.564-1.607-.364-4.457-.401-5.072-.068-17.887-.74-22.734-2.374-8.246-2.779-5.73-15.262 4.306-17.014 2.373-.415 5.038-.188 9.616 1.431l-.003.007Z" fill="#F7CEBF"/><path fill-rule="evenodd" clip-rule="evenodd" d="M32.928 86.658c-1.453-.464-2.049-.627-3.166-.336-12.128 3.192-24.687 38.235-28.743 47.483-2.045 4.679-1.39 16.117 5.46 17.005 1.318.168-5.418-5.434 4.367-10.176.913-5.942 6.962-9.542 13.252-8.613 1.923-2.458 4.437-5.144 5.22-7.178 1.16-3.014 4.099-11.302 5.738-11.954 6.922-2.755 7.876-4.238 16.156-3.44 7.597.73 17.682 3.915 20.666-2.688 6.67-14.736 12.693-17.597 23.14-19.727.392-.079-.769-.222-1.16-.324-4.469-1.168-9.497-1.587-13.516-1.848-2.519-.168-.786.919-5.412 6.342-3.94 4.61-7.865 7.383-10.725 12.494-.133.236-.206.871-.376.686-2.168-2.354-11.346-9.329-18.584-11.643-3.895-1.245-10.868-5.618-12.317-6.083Zm-1.45 74.546.25 5.298 7.409 3.14c1.511.615 1.607.64.1-1.243-1.506-1.883-4.62-5.677-6.188-7.308-1.569-1.631-1.596-1.105-1.57.113Z" fill="#fff"/><path fill-rule="evenodd" clip-rule="evenodd" d="M48.341 80.735c-7.827 3.023-8.447.168-11.273 4.2a60.156 60.156 0 0 0-3.178 5.136c.36-.11.672-.203.946-.28 1.105-.321 1.254-.358 2.698.107 1.445.466 4.18 1.432 7.907 3.07 3.727 1.637 8.45 3.949 12.14 6.171a71.65 71.65 0 0 1 7.697 5.411c.578.454.91.707 1.124.773.257-.712.531-1.397.823-2.055a32.728 32.728 0 0 1 1.224-3.69 26.097 26.097 0 0 1 4.41-7.269c2.272-2.7 5.542-5.69 7.658-8.188a28.21 28.21 0 0 0 1.56-2.016c-.065-2.328-1.468-3.573-4.474-3.929-3.113-.371-3.883-.11-6.44.716-.427.14-.427.089-.076.729s-1.582 3.595-1.706 4.316c-.855 4.99-1.94 6.361-3.653 11.125-3.295 9.209.27 7.296-7.068-.778-2.26-2.486-5.297-5.098-6.837-6.504-2.677-2.44-1.228-2.352-2.147-6.543-.2-.916-.451-.84-1.33-.504l-.005.002Z" fill="#3F170D"/><path fill-rule="evenodd" clip-rule="evenodd" d="M40.51 29.603c-8.017 2.227-12.783 6.23-14.788 13.686-1.201 4.465-1.112 10.388 2.636 12.657 1.431.866 3.112.716 3.979.716.866 0 .917.15 1.62 1.62 4.773 9.978 8.58 10.213 10.759 13.185.403.55 1.076 3.93 1.321 5.711.116-.02.23-.042.346-.065 1.606-.328 3.112-.93 3.992-1.269.88-.339 1.129-.414 1.33.505.202.918.351 2.825.452 3.88.1 1.055.151 1.255 1.695 2.66 1.543 1.407 4.583 4.02 6.841 6.505.35.384.68.764.991 1.14.153-.449.32-.925.504-1.429 3.527-9.622 4.4-7.576 2.015-12.599-6.57-13.791-2.477-10.213-1.268-17.705.363-2.528.49-5.084.377-7.635-.225-3.783-1.33-10.142-4.254-19.55-.513-1.645-2.65-3.856-5.902-4.358-3.251-.503-8.348 1.155-12.64 2.351l-.006-.006Z" fill="#F7CEBF"/><path d="M79.138 304.735c-22.737-1.008-46.764-9.938-61.802-27.479-13.955-16.286-14.731-32.845-7.725-51.488.964-2.564 1.087-2.147-.134-2.942-3.932-2.561-3.927-6.368-3.492-11.631.55-6.647 1.428-11.778 2.61-15.539-3.527-6.301-9.992-20.168-5.77-26.476 1.701-2.547 5.636-4.378 10.345-4.818 3.38-.304 6.477-1.693 10.543-1.095a35.56 35.56 0 0 1 5.238 1.263c.383.139.776.249 1.176.327.062-.068-.213-4.906-.318-5.58-.181-1.154-3.75-5.777-3.75-6.963 0-1.3-11.69.576-15.386-5.638-1.052-1.767-3.023-1.402-5.1-5.516-.859-1.697-1.136-2.539-1.138-4.58 0-1.624.02-1.809.326-2.578 1.554-3.911 6.308-6.5 11.42-6.997 3.681-.353 7.725-.203 9.262.346.81.286 1.186.247 1.385-.146.518-.996 1.977-4.65 5.383-13.471 1.511-3.909 2.828-6.568 3.26-6.568l-.28 4.115c7.644-3.863 16.795-4.26 26.367-2.578 7.247 1.275 7.015.534 11.111-6.96 1.848-3.383 3.71-6.02 5.821-8.245a24.502 24.502 0 0 1 23.495-7c2.539.603 5.065 1.57 6.627 2.53.289.195.595.363.913.504.074-.079-4.222-4.944-5.164-5.843-1.305-1.25-2.579-1.896-4.91-2.49-2.788-.725-9.506-1.894-12.105-2.117-3.161-.27-1.074-.402-3.583 3.294-3.023 4.448-10.076 9.053-13.353 15.908-3.887 8.119-1.147 11.927-5.963 7.442-3.915-3.647-9.39-7-13.954-9.071-3.104-1.41-12.636-5.349-13.84-5.722-.553-.168-5.319 1.942-7.274 3.225-7.16 4.68-9.999 19.042-12.548 16.104-1.008-1.166 1.293-5.163 2.385-7.429 2.398-4.984 5.71-10.112 10.333-12.43 3.968-1.98 4.116-1.022 3.671-1.916-1.142-2.296 2.838-5.817 4.187-8.055 3.925-6.516 7.421-3.679 11.796-5.4l.867-.337-.926-4.582c-4.841-2.806-7.893-5.855-10.788-12.223-1.241-2.721.085-.062-4.535-1.512-9.42 6.098-16.782 14.435-20.288 25.112-4.894 14.88 2.636 28.98 2.631 29.768l-1.536 3.622c-.1 0-1.967-4.8-2.664-6.832-2.87-8.37-3.637-15.343-2.462-22.34 1.553-9.239 7.368-19.15 15.417-26.246 1.626-1.433 4.648-3.768 5.905-4.555.915-.577.912-.372.451-1.045-1.835-2.68-2.7-7.551-1.091-10.602.641-1.216-.192-1.317-.635-5.468-.65-6.06 1.33-13.25 4.637-16.52 2.57-2.538 4.428-2.457 4.57-3.669.097-.84.392-.764-.94-1.216-3.464-1.176-6.631-3.135-8.954-6.057-.96-1.21-.989-1.54-.228-2.572 1.758-2.377 5.878-5.89 9.043-4.704 5.801 2.184 8.779 11.206 7.12 6.236-1.361-4.077-4.382-6.829-4.21-7.37.54-1.68 11.619-2.54 12.73-1.428.48.479.644 1.475.64 3.842 0 5.628-2.225 9.113-2.225 9.673l.895 1.389c.148.475 8.548.504 12.833 6.71 1.246 1.805 2.666 5.03 3.463 7.871.933 3.328.745 2.92 1.49 3.192 2.364.884 3.266 4.2 3.916 7.882 10.72-4.072 21.158-6.552 33.203-7.56 2.519-.211 13.687-.216 16.327 0 10.883.876 18.858 2.406 29.389 5.628 7.523 2.303 13.091 4.425 19.181 7.323 2.667 1.266 3.06 1.431 3.894 1.654 1.317.355 1.791 1.778 1.888 1.904l1.512-.714c-.14-.422-.224-1.865.144-2.665 1.389-3.023 6.55-3.023 7.744.09l.193.504c3.569-.505 6.652-.26 9.404 2.323 3.695 3.44 1.584 8.48-1.964 11.038 11.267 9.071 21.664 20.39 28.129 32.937 1.386 2.688.649 2.481 3.077.672 4.87-3.633 10.008-6.741 11.517-6.968 1.344-.205 2.253.996 1.722 2.268l-12.033 14.427c2.311 8.399 2.687 16.251.168 23.96-.749 2.296-1.888 4.834-2.227 4.976-.252.099-3.527 1.08-3.617 1.08-.091 0 3.619-5.208 4.648-13.323.25-1.978.183-6.742-.122-9.01-.242-1.789-.796-4.646-.926-4.775-.082-.083-.059-.118-2.059 2.637-11.038 15.178-17.916 29.92-21.694 46.497l-2.153 9.491c-.393 2.265-.484 1.307-.323-3.512.135-4.124.294-5.964.739-8.472 2.074-11.727 7.581-24.005 14.409-35.304 3.796-6.279 7.821-11.804 12.163-17.563l6.682-7.96c-1.276.755-5.238 3.567-6.911 4.872-1.649 1.368-3.313 2.717-4.92 4.131-15.857 13.963-28.491 31.728-34.127 51.27l-.65 2.261c-.719-4.091-.884-5.293-.632-9.611.828-14.243 4.031-29.619 8.968-44.415.694-2.083 1.248-3.81 1.223-3.834-.109-.109-2.973 4.124-4.817 7.126-8.875 14.439-16.374 33.468-17.049 50.279-.07 1.792-.124 2.283-.277 2.432-.311.311-.66.032-.801-.647-1.584-7.512 1.728-21.591 4.617-29.743 2.687-7.582 6.281-15.119 10.832-22.724 3.526-5.88 7.339-11.164 8.827-12.213.928-.651 2.055-.495 2.435.336.349.76.208 1.334-1.777 7.333-3.545 10.728-4.889 15.672-6.568 24.131-1.191 5.984-2.733 15.432-2.696 17.001 1.539-3.484 6.214-11.927 8.874-16.073 6.164-9.616 15.115-19.319 24.397-27.092l-.909-1.807c-5.669-11.314-15.648-23.182-27.456-32.65-3.172-2.545-1.295-1.309-4.87-2.315-1.381-.388-1.651-.059-4.469 3.39-2.157 2.64-4.091 4.843-5.468 6.215-2.068 2.065-3.072 2.327-5.962 1.563-3.257-.86-3.908.489-7.109 2.617-1.826 1.213-12.836 9.478-12.836 9.896 0 1.085 1.481 2.372.059 8.633-1.273 5.607-.606 7.813-2.699 11.966 2.015 5.248-1.343 8.668-6.701 7.089a12.915 12.915 0 0 1-5.233-3.024c-2.762-2.595-1.671-3.835-2.729-2.196-1.461 2.255-3.451 4.825-5.755 5.405-2.422.608-4.835-2.456-4.346-.582 1.798 6.888 1.256 14.876-2.538 20.401-.47.687-.621.989-.504 1.048.256.146 2.488.569 3.751.71 8.437.955 9.841-7.24 12.247-7.24 2.911 0-2.878 6.977-5.417 8.615-3.883 2.503-8.522 1.384-12.734-.032-3.295 2.664-5.142 3.663-11.964 5.999-3.036 1.039-2.811.611-1.568 2.477 1.184 1.773 2.396 3.236 6.346 7.655 2.397 2.675 4.049 4.923 2.939 8.102-.324.931-.45.822.957.221 3.359-1.435 7.927-2.886 11.471-2.742 4.109.168 5.214 1.176 8.744 2.251a15.182 15.182 0 0 1 4.209 1.974c1.475.989 1.468 1.104-.652-1.53-1.671-2.075-2.707-3.305-6.989-8.276-3.065-3.559-3.559-4.282-3.559-5.231 0-.999.852-1.512 2.225-1.357 2.36.279 8.446 2.406 12.299 4.3 9.728 4.786 21.749 15.924 18.836 14.447-9.601-4.851-10.413-8.851-26.083-14.515l-3.806-1.396 2.308 2.617c7.535 8.292 17.335 22.3 21.869 31.272 3.12 6.16 1.679 4.937-3.545.168-2.311-2.108-5.623-5.039-6.842-6.062-.781-.655-.573-.753-.993 1.302-1.115 5.496-4.262 11.12-7.935 17.423-2.643 4.536-2.61 3.976-1.614 3.987l6.36.549c2.931.26 18.536 1.107 24.702 1.344 11.375.433 36 .106 44.709-.882 14.237-1.616 11.486 4.032 10.478 18.646-.116 1.773-.643 2.66-1.76 2.962-6.733 1.818-41.901 1.68-48.605 1.441-10.436-.381-17.466-.781-22.218-1.276-.956-.098-1.759-.157-1.791-.126l-.396 13.504c-1.249 24.457-8.12 45.501-27.005 58.916-12.296 8.736-27.283 12.107-42.603 11.424v-.009Zm8.266-2.77c22.41-1.266 41.211-12.352 50.644-32.173 4.728-9.923 7.144-20.746 7.92-35.445.13-2.399.412-13.743.346-13.807-.065-.064-7.041-.902-7.35-.902-.168 0-.194.487-.256 3.827-.19 10.04-.855 10.958-9.725 12.207-4.049.568-11.455.914-15.382.723-3.167-.168-2.227-.444-4.084 1.985-.815 1.067-1.478 2.051-1.525 2.272-.2.922.242 3.668.914 5.681 2.591 7.761 7.869 12.486 8.991 16.992 1.344 5.375-2.677 7.215-7.352 6.408-6.471-1.118-12.634-4.883-17.1-9.363-3.836-3.857-7.408-8.949-7.576-10.83-.29-3.209 7.338-9.683 9.408-13.231 2.034-3.482 3.085-.912 6.446.638l4.543 1.375c9.003-11.83 13.025-17.626 21.414-31.043 3.738-5.98 9.859-16.179 11.777-19.624 4.283-7.695 8.498-18.41 1.154-23.984-1.876-1.421-4.786-2.625-6.36-2.62-7.759.01-14.142 10.182-15.633 18.964-.321 1.897-.457 2.229.436.494 2.714-5.273 6.673-10.226 10.379-12.984 1.244-.924 2.941-2.039 3.397-1.483.158.191-.619 1.134-3.474 4.186-6.975 7.469-9.573 13.568-13.209 26.142-2.149 7.432-5.661 16.555-6.916 17.988-.69.788-1.788.726-2.142-.122-.239-.568-.153-.867.868-3.041 2.05-4.376 3.585-8.668 5.878-16.453 1.827-6.182 2.06-5.452.68-4.883-5.189 2.145-13.894 3.724-19.364 4.169-1.315.108-1.128-.203-.451 1.867 2.855 8.749 4.188 21.502 3.793 31.699-.15 3.864-.263 4.307-1.185 4.586-.553.168-1 0-1.369-.504-.285-.385-.29-.491-.112-4.089.52-10.601-.899-22.829-4.387-33.209-3.206-.088-2.737-.368-2.183 1.245 2.715 7.819 4.411 23.494 4.411 31.484 0 7.989-.408 6.34-9.819 7.055-11.603.884-26.961.351-36.275-2.162-1.409-.379-1.251-.598-.643.954.93 2.352 2.519 7.298 2.519 7.837 0 .089.262.353.584.591 4.432 3.269 7.417 10.797 7.09 15.92-.159 2.468-1.242 4.156-4.277 6.659-3.63 2.997-8.06 5.235-12.397 6.256-4.618 1.092-10.061.269-11.867-4.258-.463-1.164-.376-3.77.068-5.099 1.7-5.096 6.381-9.157 7.84-14.95.372-1.464.402-.992 0-2.028-2.14-5.411-4.89-10.415-8.673-16.595-4.345-.108-9.024-.797-13.426-2.287-.695-.237-1.298-.384-1.343-.336-.22.24-2.067 5.544-2.754 7.916-3.374 11.606-3.023 21.213 1.091 30.446 6.088 13.635 19.65 25.608 36.78 32.443 11.948 4.773 26.656 7.205 39.257 6.491l-.019.005Zm-47.827-34.241c4.324-.858 14.218-5.93 14.54-10.395l.064-.867-1.098 1.044c-5.19 4.932-16.915 11.655-21.82 6.828l-.53-.519c.84 4.074 4.92 4.677 8.844 3.909Zm74.844-.977c.554-.309.623-.573.796-1.008-2.209 0-2.642.168-4.702-.521-6.826-2.29-15.607-10.091-20.283-16.681-.453-.644-.878-1.137-.94-1.099-.193.118-.808 1.531-.808 1.848 0 .563 1.836 3.36 3.888 5.927 4.998 6.252 14.171 12.479 20.657 11.885a3.629 3.629 0 0 0 1.377-.361l.015.01Zm-76.705-3.661c5.023-1.04 11.007-5.332 14.779-9.071 1.343-1.331 1.29-1.089.663-2.975-.853-2.562-4.175-8.436-6.214-8.189-2.183.27-4.83 1.034-6.395 1.856-2.687 1.413-.85 1.762-3.805 6.988l-4.305 6.844c-.349 1.008-.213 3.084.907 3.939.966.738 2.613.966 4.367.605l.003.003Zm76.906 0 .271-.055c-1.409-2.806-5.603-8.603-7.18-11.902a22.232 22.232 0 0 1-2.183-8.389c-.099-2.072.227-1.721-1.753-2.283-7.594-2.161-5.67-3.975-7.034-1.892-.774 1.176-1.914 2.533-4.008 4.759-.942.991-1.71 1.85-1.715 1.905-.054 1.117 15.618 19.487 23.594 17.854l.008.003Zm-74.723-21.255c1.701-.854 4.103-1.579 5.856-1.767.44-.047.798-.138.798-.2 0-.467-1.491-4.559-4.331-11.894-1.298-3.36-2.543-7.106-3.876-11.708-4.67-16.127-10.167-29.919-19-41.69-1.81-2.412-3.872-5.207-.335-2.142 4.366 3.79 7.45 7.961 10.886 14.746 1.007 1.976 1.007 2.463 1.189-.813.36-6.356-2.62-13.103-7.803-16.547-1.484-.986-3.802-2.183-5.532-2.456-1.548-.235-4.87-.267-6.214-.055-3.934.62-5.943 1.918-6.818 4.411-1.955 5.569 4.066 18.229 8.866 26.761 2.183 3.895 2.14 3.786 2.072 4.398-.146 1.344-1.537 1.154-1.903.957-.556-.297-2.593-3.833-3.414-5.347-1.305 6.516-2.375 16.55-1.713 19.078.368 1.405 1.114 2.332 2.578 3.192 4.341 2.545 15.037 4.218 14.809 3.634-.543-1.381-5.08-7.534-3.99-8.736.651-.714 1.592.126 3.785 3.379 3.807 5.654 10.533 17.386 12.554 22.27.53 1.28.325 1.137 1.53.53l.006-.001Zm80.03-7.975c5.843-.226 10.02-.729 13.15-1.585 2.099-.573 2.457-1.032 2.855-3.649.527-3.528.398-12.982-.265-19.416-.168-1.72-.995-7.559-1.069-7.625-.018-.02-.592.875-1.274 1.986-5.675 9.239-15.441 23.704-20.353 30.237l6.963.059-.007-.007Zm-39.091-2.162c3.774-.216 6.214-.404 6.214-.48 0-.406-11.808-7.176-11.808-8.085l3.88 1.396c4.122 1.408 6.393 2.432 8.532 3.845.73.484 1.325.825 1.325.761 0-.356-1.4-2.762-3.568-6.14-4.399-6.84-5.514-9.281-6.382-13.966-.336-1.836-.504-4.069-.336-4.388.089-.16.36.46 1.228 2.783 3.493 9.387 7.221 12.863 10.412 18.815.27.504.517.84.546.766.07-.217-.193-5.666-.405-8.391-.712-9.036-2.361-18.363-4.225-24.222-2.484-.282-2.555-.218-5.956-1.205-1.847-.535-1.14-.48-3.012-.255-6.3.761-9.237-.235-12.774.398l-8.7.906c-3.096 4.166-5.009 7.727-6.473 13.529a81.314 81.314 0 0 0-1.88 10.92l-.167 10.433c6.128 1.539 11.026 2.365 18.901 2.688 2.922.123 11.73.055 14.65-.113l-.002.005ZM44.73 218.489c.878-9.429 3.149-17.85 7.99-24.167h-2.505c-4.854 6.332-8 16.631-8.004 24.537 0 2.649.744 3.841 2.11 7.458l.416-7.828h-.007Zm159.444.358c9.288-.197 13.042-.408 15.205-.86 1.066-.219.937.032 1.239-2.453.687-5.711.957-10.279.684-11.556-.311-1.443-.628-1.737-2.173-2.016-1.356-.243-2.901-.208-5.843.13-18.918 2.167-54.96 1.466-74.429-.356-.961-.091-1.762-.155-1.777-.138-.015.017.185 1.512.447 3.334l1.086 11.412c11.618 1.816 21.277 2.133 34.71 2.614 1.585.055 27.374-.041 30.851-.115v.004Zm-162.92-11.741c4.092-14.346 8.326-12.767 3.761-12.953-3.04-.13-6.413-.397-9.404-.744-3.406-.399-3.077-.766-2.037 1.599 2.326 5.291 4.406 11.255 6.381 17.806l1.302-5.711-.004.003Zm50.249-15.623c10.043-.618 14.093-1.579 24.102-4.678 0-10.904 3.673-21.449 13.315-27.227-4.064.253-7.521 1.256-13.833 4.127-1.166.531-1.193.553-2.016 1.625-6.593 8.668-17.785 14.226-29.053 16.496-2.733.553-11.346 1.873-13.219 1.05-2.154-.951-1.594-2.29 2.173-2.297 1.087 0 6.382-.544 8.345-.858 9.845-1.569 19.832-6.071 26.644-12.824 4-3.963 6.576-8.591 5.831-10.454-.983-2.441-7.299-7.895-9.709-12.663-.48-.951.123-1.327-4.072.778-10.426 5.234-6.372 13.412-12.69 24.331-.477.823-2.015 2.893-3.045 2.893a1.13 1.13 0 0 1-1.157-.907c-.094-.494.124-.891 1.397-2.52 5.228-6.74 3.44-16.486 9.325-22.601 8.867-9.212 26.945-5.255 30.017-22.194.764-4.2.144-9.341-1.201-13.439-.504-1.569-1.706-4.279-1.879-4.279-.514 0-8.283 6.266-9.882 6.266-.72 0-2.305-1.994-2.729-2.555l-23.456 15.671c-1.424.958-1.23.706-.82 2.253 3.146 11.809-10.909 20.736-20.347 12.905-1.258-1.043-.48-.445-3.952 1.486-.15.086 1.028 2.655 2.818 4 2.7 2.028 4.79 5.04 4.802 8.312 0 2.688-.702 2.176-1.008 3.55-.525 2.305-2.44 1.008-1.561 2.244 1.219 1.709 2.102 5.3 0 6.384-2.06 1.053-3.049-1.322-3.316-.271-.38 1.527-2.48 2.071-4.433 1.151-4.755-2.244-7.457-9.883-13.662-13.607-1.99-1.194-1.159-.853-4.684-.934l-9.53-.415c-.326.071 1.922 3.592 4.107 6.427 4.857 6.306 9.96 11.2 15.429 14.798 1.133.743 1.298.943 1.31 1.584.045 2.056-2.28 1.08-3.997-.121-.791-.552-5.146-2.782-8.275-4.235-6.437-2.99-11.608-4.608-15.553-4.871 15.822 9.036 11.009 23.978 11.652 24.378.239.155 5.918.781 9.128 1.008 5.6.4 11.224.36 16.819-.121-3.374-1.27-7.977-3.434-10.488-5.181-4.366-3.035-1.9-1.982 2.475-.324 14.443 5.471 21.54 6.94 37.097 2.142 2.855-.88 4.317-1.275 4.734-1.275 1.214 0-4.267 3.284-7.547 4.477l-1.445.525h7.054l-.015-.01Zm61.321-14.866c-.742-1.228-5.849-9.623-6.072-9.394.03.286.092.567.184.84l.482 4.3 5.646 4.712a1.889 1.889 0 0 0-.24-.458Zm-116.352-9.932c-4.302-4.433-3.54-5.298-3.54-.734l4.63 1.962c.059 0-.431-.549-1.09-1.228Zm22.583-1.95c-.09-.786-.682-1.939-1.525-2.963-1.07-1.302-4.228-5.437-4.228-5.922 0-.662 4.198 1.893 5.849 3.56 1.147 1.155 4.917 6.383 4.55 3.818-.46-3.192-9.555-11.122-5.245-9.112 1.847.859 5.22 4.338 5.426 2.873.18-1.277-3.38-5.609-2.352-5.804.336-.062 1.68.887 2.551 1.801.906.961.973.883.48-.597-1.573-4.703-6.759-6.917-11.743-7.989-3.099-.672-6.649-1.918-7.166-2.535-.672-.789-.14-2.184 1.511-1.557 1.332.504.54.368-1.46-3.657-1.141-2.303-.85-2.846 2.644-4.941 3.349-2.016 3.557-1.92 4.842.168 1.097 1.781.113 1.969 5.86-1.774.614-6.933 5.541-11.981 12.573-12.014 2.324-.012 2.541.168 4.476.672l22.153-14.245c4.479-2.752 4.326-2.411 3.756-3.159-1.043-1.384-1.399-2.266-.27-3.166.311-.247 5.861-3.864 7.21-4.694.73-.45.75-.475.545-.699-.367-.403-1.961-1.407-3.095-1.948-8.45-4.044-18.706-2.822-25.486 3.887-8.283 8.196-7.302 17.54-15.68 17.089-3.516-.188-7.054-1.226-12.354-1.365-7.575-.202-17.768 1.589-18.978 5.745l-5.725 14.549c-2.138 4.489-4-.237-11.58 4.032-2.965 1.668-5.3 5.169-4.62 8.456.167.793.936 2.423 1.427 3.009 1.37 1.638 4.66 2.531 11.698 3.171l15.064 1.049c-.352-.949-.386-2.666-.107-3.671 2.16 4.186 4.444 4.504 7.435 6.94 3.169 2.578 8.348 11.51 11.279 11.535.335 0 .346 0 .285-.529v-.013Zm-3.26-22.45c.385-.238.714-.45.738-.47.055-.044-1.204-2.1-1.334-2.184-.092-.057-3.04 1.68-3.154 1.865-.367.606 2.687 1.15 2.971 1.209a3.56 3.56 0 0 0 .78-.425v.005ZM9.613 139.71c1.33-5.858 8.122-9.053 14.216-9.597 2.93-.261-4.576-.949-7.957-.35-6.74 1.196-12.204 5.544-6.629 11.655l.37-1.708Zm64.143 1.139a10.308 10.308 0 0 0 8.27-10.116c0-1.264-.327-3.374-.518-3.288L64.87 138.532c-.01.202 3.962 3.323 8.901 2.318l-.015-.001Zm-13.603-1.322 1.562-1.032-1.436-2.276-3.124 2.08c1.757 2.889.987 2.541 2.998 1.228Zm-5.865-1.393-1.377-2.288c-4.401 2.401-3.906 1.653-2.749 3.269l.84 1.176 3.288-2.16-.002.003Zm14.562-4.3c5.005-3.286 11.462-7.625 11.78-7.924.453-.425-1.43-2.352-1.436-2.352-.118 0-16.578 11.011-16.85 11.273-.37.357 1.206 2.352 1.307 2.352.052 0 2.39-1.512 5.206-3.346l-.007-.003Zm-10.58 1.871c1.695-1.134 1.522-.526.746-3.568-4.818 3.044-4.389 2.184-3.233 3.991.613.958.361 1.008 2.487-.423Zm-8.022-.27c.945-.52 1.718-.987 1.718-1.037 0-.109-.852-1.557-.919-1.557l-3.42 2.2c.997 1.818.422 1.596 2.62.394Zm14.973-4.403c1.888-1.277 5.509-3.728 8.043-5.46 5.51-3.756 5.105-3.081 2.49-4.465l-14.526 9.61.49 2.688c.044-.03 1.624-1.095 3.515-2.365l-.012-.008Zm3.154-7.126c5.139-3.431 5.163-3.451 4.713-3.528-4.338-.716-8.799 1.826-10.789 5.769-.248.487-.813 2.098-.813 2.306 0 .055.032.032 6.886-4.551l.003.004Zm28.103-8.627c7.08-4.712 10.548-7.089 10.493-7.183-.091-.158-1.103-1.512-1.26-1.7-.156-.188-12.612 7.706-21.257 13.527-4.624 3.107-3.36 1.449-1.75 4.591l13.77-9.24.004.005ZM81.716 119.8c4.72-3.261 15.955-10.602 21.743-14.208 1.315-.818 1.225-.625.558-1.512-.344-.459-.561-.644-.687-.593L78.087 119.58c-.07.064 1.592 1.386 1.816 1.441.016 0 .827-.546 1.808-1.221h.005Zm66.079-10.247c.897-.613.896-1.494.996-2.555-3.014 2.52-7.233-.115-9.69-3.17l-.715-.892c0 5.394 7.713 7.747 9.404 6.617h.005Zm-17.242-.519c1.537-.781 2.482-2.406 4.241-5.121 2.03-3.136 1.437-3.154 2.302-4.59.6-.997.41-.664.336-2.732-.094-2.735.426-2.6-2.511-.588l-12.016 8.246 1.535 3.128c.428 1.091.712-.122 3.023 1.477 1.194.818 1.735.85 3.077.168l.013.012Zm-17.197-1.176 15.632-10.869 6.825-4.552-.537-.726-24.856 16.343c1.327 1.344.85 1.289 2.944-.196h-.008Zm-2.316-2.268 23.241-14.89-1.511-1.496c-3.31 2.401-8.651 5.742-20.993 13.307-2.132 1.307-3.882 2.407-3.882 2.437 0 .106 1.343 1.736 1.436 1.736.052 0 .816-.504 1.706-1.104l.003.01Zm35.939.212c1.656-.709 2.708-3.783 3.104-9.053.379-5.04 2.076-7.783.47-12.297-.992-2.799-2.38-4.964-4.746-7.391-2.873-2.959-4.696-4.25-5.984-4.25-2.221 0 2.587 3.438 3.683 5.207.744 1.203 1.549.118 3.142 1.472 1.68 1.424 3.381 8.025 2.573 8.025-.176 0-1.308-1.302-1.56-1.798-1.278-2.52-1.229-4.99-3.495-5.27-.608-.074-3.07.103-3.711.27-.588.157 1.636 1.039 3.26 3.769 2.065 3.47 1.654 5.999-1.562 1.434-1.283-1.827-5.487-5.896-6.736-4.006-.551.84 1.555 2.006 2.4 2.715 3.862 3.243 4.557 6.383 3.829 6.383-1.047-.002-5.517-6.31-8.105-6.116-1.606.116.203 2.214 2.378 4.433 3.577 3.659 3.565 3.627 3.612 7.477.035 3.062.177 3.949.789 5.021 1.549 2.713 4.916 4.72 6.653 3.971l.006.004Zm-81.568-3.604c-.239-1.197-.78-3.225-1.278-4.796-1.369-4.275-6.649-10.556-12.025-14.29-2.34-1.626-1.14-2.875-1.7-5.59-4.233 1.882-6.441.137-8.502 1.948-4.381 3.848 9.069 10.437 8.531 10.736-1.02.576-9.213-2.567-11.065-6.204-.168-.336-.353-.564-.408-.504l-2.649 4.253 5.71 2.352c7.32 2.789 18.229 7.896 22.897 12.715.791.813.743.672.482-.62h.007Zm49.268-3.615 16.935-10.664-.555-1c-.086-.236-.185-.192-1.656.725l-23.671 14.364 1.175 1.366c.094-.035 3.594-2.184 7.779-4.787l-.007-.004Zm-7.186.282 15.946-9.743c6.913-4.18 7.262-4.403 7.39-4.808.651-2.06 2.089-.895 2.263-2.282.098-.783.168-.757-.443-.337-1.639 1.108-28.479 17.658-28.491 18.03 0 .095.492.809.558.809.015 0 1.268-.75 2.777-1.669ZM68.388 96.8c3.843-8.364 19.312-18.085 13.273-21.31-1.71-.915-4.284-1.324-7.01-1.116-3.347.255-3.09-.015-2.224 1.68.84 1.64.72.99.533 2.607-.621 5.345-3.78 9.407-5.12 15.475-.31 1.4-.683 4.235-.672 5.125 0 .953.655-1.22 1.224-2.47l-.004.01Zm-3.157-3.714c.015-1.79 4.348-9.985 4.535-13.466.087-1.597.221-.909-.805-2.802-1.372-2.52-2.877-6.35-3.37-8.735-.39-1.887-.207.694-6.45 2.5-3.716 1.075-6.666.317-6.51.84.947 3.191 1.175 6.442 1.305 9.853 4.198 3.49 7.725 6.599 10.538 11.187.549.895.752 1.063.752.623h.005Zm53.136-5.473 19.458-12.149c.134-.132-2.074-2.844.168-4.38 1.246-.858 3.471-.671 4.974.42.731.528.46.406 3.428-1.462 3.485-2.194 10.931-7.2 11.788-7.26l.503-.036c.904-2.575.991-3.232 2.54-5.04-.711-1.423-1.166-2.751.243-4.423 1.542-1.83 6.588-3.192 7.688.262.101.32.995 0 .84-.568-.287-1.054-.186-2.7.878-3.732l.444-.427c-9.573-4.536-22.066-8.735-33.118-10.842-18.104-3.457-35.879-2.746-52.688 2.107-3.68 1.07-10.714 3.489-11.055 3.805-.487.457.109 4.376-3.577 4.967.524 6.872.36 10.6-3.119 16.008l2.761 7.376c.13.144 12.092-2.063 14.727 3.433l.36.753c3.205 0 7.417.541 12.81 1.633 4.198.852 6.166 1.81 8.331 4.053 1.271 1.32 4.798 5.447 6.089 7.13 1.221 1.592.336 1.604 5.527-1.628Zm35.864-8.11 8.839-6.4-.496-.755c-2.119 1.529-11.499 7.855-11.331 8.099l.514.801 2.467-1.745h.007Zm-15.728.062c0-.472 2.656-.817 2.726-.887l-1.238-1.294c-2.744 1.633-3.249 1.695-2.216 2.075.671.247.728.255.728.106Zm13.558-1.778 9.69-6.603-.68-.825-11.242 7.95c0 .167.42.651.533.609.075-.029.839-.538 1.699-1.13Zm-1.362-2.237 9.405-6.552-.664-.86c-.194.064-11.524 7.629-11.532 7.7-.017.154.776 1.056.893 1.007.068-.022.922-.611 1.895-1.307l.003.012Zm.61-4.2 7.075-4.82c-.744-1.007.037-1.14-4.188 1.68l-8.495 5.485c1.107.991.207 1.208 5.611-2.352l-.003.007Zm15.491-.411c5.599-3.992 7.256-.452 9.367-1.454 2.005-.952 8.651-10.069 10.624-11.058 2.827-1.416 5.262 2.202 8.296-.879 2.78-2.822 2.116-6.308-1.572-7.34-3.33-.933-9.322.234-12.87 1.468-3.615 1.253-12.116 4.886-15.631 6.679-1.75.892-2.149 1.228-2.678 2.246-.429.82-1.72 4.236-1.636 4.319l3.502-2.198c.319-.184.451-.35.451-.546 0-1.752 3.725-4.602 5.944-2.015.779.91.839 2.083.448 3.128l4.44-2.305c-.933-.849-1.488-1.272-1.488-2.698 0-3.965 6.765-4.674 6.733-.363-.012 1.465-.777 2.607-2.17 3.242l-14.985 8.04c.803 1.216.517 1.152 1.827.31.551-.352 3.685-2.237 6.963-4.179 6.981-4.14 6.046-3.566 9.801-6.03 2.942-1.936 2.986-1.968 2.652-2.107-2.699-1.139-1.997-5.115.646-6.016 2.551-.87 5.062 1.42 4.199 4.01-.346 1.035-1.107 1.725-4.073 3.696-3.118 2.073-4.405 2.856-10.215 6.262l-10.221 6.154c-.044.038.253.542.321.542.026 0 .619-.413 1.321-.915l.004.007ZM56.38 68.097c2.688-.371 5.71-1.776 7.612-3.528 6.65-6.163 3.67-18.408 1.343-27.86-.168-.686-1.343-3.36-1.966-4.449-1.493-2.637-3.569-3.988-5.507-3.576-2.584.547-3.006 2.47-12.031 3.143-4.357.324-7.57.98-8.874 4.984-.687 2.103-.376 7.355.028 9.328.222 1.099 1.823 5.576 2.812 7.87 3.216 7.462 8.46 15.227 16.586 14.091l-.002-.003Zm-1.815-6.24-1.785-.826c2.576-.105 3.423.05 5.673-1.122.611-.317 1.114-.519 1.114-.44 0 .771-2.341 3.325-5.002 2.387Zm-.777-2.196c-2.87-.57-6.4-4.723-6.382-4.744.019-.022.553.047 1.142.193 4.296 1.055 9.215-.61 12.703-2.846 1.035-.662 1.263-.952.697.064-.967 1.739-1.265 4.032-2.917 5.712a5.725 5.725 0 0 1-5.246 1.612l.003.009Zm3.166-1.899c1.167-.576 1.679-1.404 2.267-2.573-2.813 1.566-4.03 1.787-7.307 2.016 1.617.959 3.19 1.468 5.038.56l.002-.003Zm-3.863-5.337c-.929-.463-2.157-2.687-.35-1.726 1.26.672 1.77.708 2.372.055.631-.687.729-1.436.905-1.48.176-.044 1.008 2.016-.655 3.131-.54.367-1.553.373-2.272.02Zm-8.565-4.031c-.595-.419-1.733-3.014-.274-3.998 1.863-1.26 3.191 2.746 1.654 3.974-.324.259-1.022.27-1.38.024Zm14.61-4.218c-1.007-1.06-.989-3.192.024-3.65 2.209-1.009 2.983 4.076.858 4.076-.39 0-.552-.077-.881-.426ZM38.53 41.538c.336-3.09 4.405-5.264 7.144-3.9.566.278 1.176.91 1.283 1.315.222.85-3.675-1.205-8.038 2.864l-.466.435.077-.714Zm15.264-3.774c-.768-2.779 2.14-6.026 5.374-5.463 2.084.364 3.023 1.471 3.443 3.146l-3.04-.929c-3.681-.388-5.215 3.696-5.497 3.696-.085 0-.211-.203-.282-.45h.002Zm110.202 29.565 2.994-1.789-1.943-1.307-3.283 2.352c0 .224 1.008 1.512 1.134 1.44.07-.044.564-.358 1.093-.7l.005.004Zm4.422-4.23c1.364-.695.618-2.449-.989-1.433-1.095.694-.57 2.221.989 1.433Zm9.599-4.2c.731-.616.561-1.624-.267-1.624-2.747 0-1.113 2.787.267 1.625Zm-14.291-2.746c.772-.393 3.137-1.235 3.19-1.71.168-1.38-4.46-.46-3.929 1.58.131.505.089.466.734.13h.005Zm23.227-1.008c.953-.494.741-1.868-.287-1.868-.504 0-1.404.622-1.404.958 0 .907.84 1.354 1.691.91ZM36.626 54.27l-2.134-7.381c-.632-2.352-.72-2.545-1.314-2.786-1.572-.64-1.864 6.216.897 9.092.81.84 2.08 1.377 2.551 1.075Zm137.608-2.626c1.895-.774 1.985-.715 1.651-1.137-.485-.611-3.762-.53-3.762 1.24 0 .976.014.77 2.111-.103Zm9.67-3.558c1.777-.49 1.68-.431 1.035-.915-.716-.544-2.234-.54-2.801.463-.192.336-.09 1 .146.914.077-.032.807-.238 1.62-.462ZM71.217 45.834c1.209-1.801.246-9.17-1.579-10.149-.581-.31-1.223.424-1.344 1.54-.097.802 1.749 7.134 2.002 8.38.183.917.504.828.922.229h-.001Zm-38.65-12.079c.76-5.305 2.262-8.651 5.653-11.79 1.538-1.425-2.311.728-2.408.796-2.311 1.616-4.088 6.187-3.927 10.087.114 2.701.383 2.947.682.907Zm32.56-7.907c-2.89-5.8-5.39-6.57-10.076-6.551 4.804 1.906 6.43 2.711 9.62 6.917 1.49 1.97 1.395 1.526.458-.364l-.002-.002Zm-22.309-9.222 7.512-.991c-1.763-1.53-5.255-1.176-7.477-.126-.772.364-1.855 1.71-1.15 1.433.114-.047.616-.19 1.115-.316Zm8.422-7.828c.455-1.425.615-2.334.611-3.426 0-.752-.243-2.286-.38-2.42L49.7 12.236c.023.267 1.2-2.363 1.541-3.438Zm159.143 173.041c5.562-6.929 9.741-10.759 23.463-21.502 2.158-1.692 3.911-3.093 3.895-3.113-.098-.117-5.22.896-8.733 1.724-7.364 1.733-13.692 3.994-18.588 6.642-1.909 1.033-2.294 1.147-2.546.747-.299-.475 2.726-5.809 5.453-9.619 3.336-4.666 8.565-10.705 12.932-15.75 5.256-6.064 9.752-10.336 13.141-12.495 2.554-1.624 2.183-1.198.725.321-9.396 9.762-18.169 21.506-25.736 31.797 6.662-2.876 14.275-4.481 23.145-6.295 2.741-.559 6.666-1.476 6.666.719 0 1.067-.314 1.366-4.763 4.536-6.748 4.794-10.263 7.517-20.746 16.044-3.191 2.594-6.927 5.517-8.534 6.671-.135.099-.029-.094.235-.42l-.009-.007Z" fill="#3F170D"/></g><defs><clipPath id="a"><path fill="#fff" d="M0 0h268v310H0z"/></clipPath></defs></svg>