<svg width="266" height="331" fill="none" xmlns="http://www.w3.org/2000/svg"><path fill-rule="evenodd" clip-rule="evenodd" d="M160.135 218.679c-5.505 3.834-10.944 8.29-15.827 15.893-15.628 24.341-19.708 64.18-45.516 83.002-23.891 17.427-62.027 14.564-82.74-7.995C7.955 300.764 2.713 288.715.846 277.99c-1.868-10.725-.362-20.088 1.769-27.395 2.13-7.306 4.883-12.55 10.19-21.065 5.306-8.514 13.172-20.322 18.414-29.956 10.42-19.149 10.34-30.795 6.095-51.577-1.902-9.306-4.458-19.07-4.295-28.869.608-36.27 34.713-49.063 68.252-51.003-5.736 4.29-8.336 8.063-13.401 15.85-4.23 6.477-10.258 15.914-13.404 22.338-3.145 6.424-3.41 9.83-3.113 12.516.883 8.041 5.416 5.172 7.373 12.158 2.832 10.149-.18 21.488 9.268 33.327 19.259 24.102 43.566 15.341 28.349 47.187-3.539 7.407-7.824 14.549-16.202 25.232-8.377 10.683-20.824 24.904-27.821 32.391-6.998 7.487-8.539 8.246-9.277 8.914-.738.668-.672 1.262.885 4.702 1.557 3.441 4.614 9.732 7.258 14.044 4.871 7.91 9.688 9.83 17.974 10.01 3.58.079 8.04-.28 8.488-3.161.473-3.036-11.127-9.63-12.108-23.12-.132-1.805.13-2.686 2.588-5.308s7.11-6.979 11.847-11.549c9.228-8.914 22.587-22.47 30.803-32.44 8.791-10.673 11.541-17.39 14.713-30.494 1.491-6.161 2.965-13.337 3.718-16.892.752-3.555.786-3.491 3.799-4.342 3.014-.85 9.014-2.628 12.304-3.392 3.29-.764 3.884-.54 5.391.327 6.753 3.89 14.888 16.451 20.194 23.94-10.833 6.604-22.241 12.38-30.763 18.316Zm1.742-144.623c23.931 5.659 41.875 14.22 54.188 32.949 16.485 25.051 17.121 57.844-6.036 79.421-1.404-3.309-6.552-12.639-10.013-18.014-3.888-6.03-8.101-11.371-11.78-14.139-3.68-2.769-6.783-2.965-10.765-2.984-19.081-.078-12.84 2.259-9.732-6.175 1.428-3.884 1.348-9.364 2.178-11.108.327-.688.787-.788 2.49-1.017 5.778-.776 7.054-.939 12.639.427 2.407.59 5.914 1.375 8.552 2.195 4.647 1.443 6.803 3.336 9.945 1.31 3.645-2.347 8.087-8.025 6.097-12.386-1.954-4.275-8.151-8.757-13.04-8.627-3.399.087-9.63 1.439-12.585.59-2.622-.754-7.556-7.272-9.748-11.034-6.406-10.955-7.552-21.99-12.39-31.408Z" fill="#fff"/><path fill-rule="evenodd" clip-rule="evenodd" d="M71.143 283.76c1.376 2.965 4.163 8.47 6.26 11.796 3.21 5.086 6.018 6.207 11.731 5.996 2.227-.082 4.39-.475 5.227-.9.836-.426.343-.885-.558-1.884-5.66-6.278-3.01-2.721-8.502-3.573-3.385-.524-5.503-3.094-5.194-5.914.327-2.992 6.598-.979 5.882-3.917-.963-3.948-3.926-1.023-10.192-2.638-4.837-1.243-7.262-4.58-4.654 1.034Zm151.924-64.032c-13.6 10.533-9.63 4.921-9.862 12.705-.087 2.831-.927 2.771 2.285 3.499 11.234 2.548 27.284 2.797 38.348-1.565 2.638-1.039 3.687-1.891 4.112-2.491.426-.6.231-.941-.786-1.76-3.727-3.009-8.606-4.506-13.672-5.186-8.161-1.097-5.732 1.178-9.511 4.414-3.445 2.957-8.446.429-8.226-3.21.265-4.201 4.083-3.93-.892-6.913-.574-.345-.787-.295-1.806.491l.01.016Z" fill="#E23C08"/><path fill-rule="evenodd" clip-rule="evenodd" d="M137.261 183.784c-2.261 10.504-5.577 27.255-11.47 36.767-7.577 12.237-45.54 48.676-49.773 55.571-2.598 4.233-.662 4.921-3.507 5.312-2.192.305-10.931-11.086-11.878-13.353-.426-1.015-.231-1.204 3.009-5.144l34.346-42.543c6.857-8.739 3.37-4.782 4.03-10.715.347-3.105 2.227-3.101 3.03-7.34.75-3.932 1.003-13.484 1.392-17.221.261-2.422 1.023-.694 9.814-1.589 22.901-2.327 23.071-9.351 21.005.247l.002.008Z" fill="#3F170D"/><path fill-rule="evenodd" clip-rule="evenodd" d="M94.214 184.472c5.126 4.949 13.724 10.709 22.479 12.181l.572-8.578c.259-2.422 1.023-.694 9.814-1.589 22.901-2.327 23.071-9.351 21.005.247a814.23 814.23 0 0 1-1.175 5.36c22.268-6.907 17.453-9.076 24.18-.423 3.649 4.7 29.26 37.796 31.982 40.264.917.832 2.982-.082 4.161-.738 3.503-1.946 6.496-3.951 9.341-6.779.819-.817.851-.977-.967-5.166-6.313-14.541-21.528-47.86-33.704-58.045-2.293-1.918-3.374-2.11-4.931-2.271-4.592-.471-12.378-.201-17.052.144-5.088.376-3.311 2.227-8.733 3.327-8.336 1.689-14.18-2.183-22.365 5.216-5.477 4.949-8.771 10.205-16.597 13.527-13.35 5.668-23.326-1.805-18.006 3.327l-.004-.004Z" fill="#3F170D"/><path fill-rule="evenodd" clip-rule="evenodd" d="M240.529 110.971c-1.549 1.032-4.301 3.01-5.638 4.185-1.336 1.176-1.251 1.533-.94 2.949 1.282 5.84.908 6.234 3.41 6.621 11.235 1.701 6.101.758 18.415-1.14 3.031-.467 5.8-.746 7.332-1.057 1.533-.311 1.828-.654 2.105-1.966.933-4.382.014-12.513-3.375-14.204-.523-.263-.802-.164-3.94.466-3.137.63-9.134 1.793-12.304 2.407-3.169.614-3.514.704-5.063 1.737l-.002.002Z" fill="#FFD284"/><path fill-rule="evenodd" clip-rule="evenodd" d="M193.167 118.798c-5.098.152-1.846 9.007-1.74 9.172.646.989-4.77 8.909 3.65 14.001 4.756 2.877 11.421-1.824 13.319-6.895a6.387 6.387 0 0 0-.632-5.608c-2.877-4.64-8.5-10.855-14.593-10.67h-.004Z" fill="#F7CEBF"/><path fill-rule="evenodd" clip-rule="evenodd" d="M134.338 125.235c.64-.602 1.769-1.671 3.252-2.343a8.948 8.948 0 0 1 4.859-.704c1.541.247 2.784 1.015 3.448 1.805.664.791.747 1.591 1.106 4.089.359 2.498 1.003 6.693 1.286 8.863.283 2.171.222 2.319-.311 2.917-.534.598-1.531 1.647-2.769 2.207-1.238.56-2.71.646-3.685.558-.975-.089-1.451-.353-1.623-.664-.173-.311-.042-.672.188-1.214.232-.569.5-1.122.803-1.655.245-.401.401-.458.837-.696a14.73 14.73 0 0 0 1.572-1.003c.458-.351.689-.646.237-1.589-.451-.943-1.581-2.532-3.113-4.195a39.315 39.315 0 0 0-4.703-4.326 9.586 9.586 0 0 0-1.974-1.171c-.201-.131-.048-.279.59-.885v.006Z" fill="#fff"/><path fill-rule="evenodd" clip-rule="evenodd" d="M147.625 124.118c-2.39.477-1.846-.321-1.294 2.491l2.09 11.486c.03.188 22.028-4.237 43.771-8.693-.337-2.596.14-5.675-.249-6.141-.126-.15-4.646-3.657.311-4.456 2.175-.351 4.568.181 5.417-.31 1.316-.771 2.319-1.888 5.707.252 2.027 1.28 5.897 4.596 6.476 7.022 13.791-2.855 24.476-5.108 24.608-5.216l-2.128-9.881c-.46-1.934-.46-1.934-13.077.345l-71.62 13.107-.012-.006Z" fill="#fff"/><path fill-rule="evenodd" clip-rule="evenodd" d="M74.293 128.423c-3.33 11.369-2.374 26.807 2.899 37.833 4.961 10.376 14.508 20.174 26.543 19.907 5.899-.13 12.583-2.556 17.825-6.259 9.783-6.908 11.837-15.217 21.398-15.448 6.918-.168 14.072 2.291 19.482-5.555 4.223-6.127 3.92-15.305 2.135-23.896l-16.148 3.09c.1 1.105-.03 1.298-.447 1.765-3.455 3.88-7.624 2.923-8.077 2.107-.305-.55.754-2.558 1.089-3.009-3.91 5.079-2.447.786-4.307 4.634-.913 1.894-3.762-.127-4.169.688-.235.469-.088 3.611-2.5 2.654-2.999-1.204-3.783-6.406-6.536-9.012-1.308-1.235-9.146-5.392-11.1-5.513-2.407-.148-2.016.524-1.777 3.01.228 2.391.704 6.929.818 9.29.137 2.823.056 2.795-2.425 2.727-3.792-.103-3.323-.115-3.694-3.367-.305-2.654-.894-7.683-1.189-10.207-.444-3.812.373-1.958-10.174-3.471-5.236-.752-14.597-2.313-18.55-5.069a29.873 29.873 0 0 0-1.096 3.111v-.01Zm71.386-14.581c-5.473.295-11.273 3.244-15.157 4.703-3.884 1.458-5.848 1.424-9.403-.016-8.737-3.543-16.561-9.249-27.78-7.439l30.27 11.718c5.932 2.207 10.895 3.717 15.247 7.204-5.216-5.035-6.029-3.338-4.514-4.777 2.118-2.006 4.766-3.581 8.111-3.047 1.631.261 3.117 1.168 3.731 2.195l13.642-2.584c-3.585-5.914-8.707-8.25-14.151-7.957h.004Zm-2.003 22.293c.089 1.683-1.671 1.547-2.62 2.732.705-.828 3.18-1.203 2.62-2.732Z" fill="#FFD284"/><path fill-rule="evenodd" clip-rule="evenodd" d="M114.214 127.243c-.845 1.722-2.367 5.046-3.032 6.821-.664 1.776-.467 2.007.271 2.639 5.712 4.887 10.771 3.831 13.189 9.83.742 1.841 1.444 5.37 3.745 5.497 1.932.104 1.963-2.468 2.073-2.827.263-.871 2.179.221 3.44-.778.671-.534.933-1.663 1.327-2.179.565-.742 2.092-.283 3.169-2.237 1.003-1.834-.226-1.446 2.033-2.04 1.502-.401 1.159-2.576-.201-4.382-4.516-6.018-16.481-10.326-23.438-11.846-1.573-.345-1.736-.231-2.58 1.49l.004.012Z" fill="#F7CEBF"/><path fill-rule="evenodd" clip-rule="evenodd" d="M147.641 67.457c-2.877-.401-3.048-1.896-2.973.688.084 2.968.21 9.175-3.411 10.633-4.237 1.701-8.982-5.52-10.633-9.682-3.478-8.807-1.496-16.38-5.44-15.73-6.079 1.003-20.04 3.767-26.08 7.038-3.17 1.703-11.167 8.56-16.279 15.965-5.112 7.404-13.337 19.694-17.941 27.099-4.604 7.405-3.13 13.666-3 15.943.673 11.686 19.539 15.283 29.935 16.515 5.39.638 14.009.05 16.974.05s1.95-.688 2.835-2.441c2.285-4.526 3.095-8.091 2.375-8.494-5.015-2.797-22.708-8.069-29.015-10.693-4.097-1.704-4.227-2.033-4.344-2.719-.473-2.883 1.254-4.584 3.94-7.701 2.147-2.49 5.981-6.751 8.144-8.996 1.526-1.593 13.445-12.683 17.536-18.69.244-.359 1.336 7.245-1.224 10.86-4.781 6.757-14.864 14.187-14.625 16.366.112 1.069 7.423-2.752 12.272-.949 4.265 1.581 21.951 9.49 24.629 8.679 5.355-1.617 16.955-9.086 26.129-3.697 4.965 2.915 6.36 6.831 9.748 12.58.937 1.589 5.451-.529 6.468-1.255 1.741-1.246-7.054-4.097-13.891-21.713-1.703-4.392-3.009-8.914-4.062-12.862-2.588-9.744-7.467-16.714-8.061-16.794h-.006Zm42.432 62.9c-1.817.351-5.216.991-6.764 1.416-1.549.426-1.28.64.826 1.254 2.107.614 6.039 1.631 7.955 2.006 1.916.376 1.819.117 1.532-.85-.287-.967-.762-2.638-1.123-3.441-.361-.802-.602-.738-2.426-.385Z" fill="#E23C08"/><path fill-rule="evenodd" clip-rule="evenodd" d="M135.832 29.23c-11.3 4.13-3.41 13.812-4.758 17.604-1.312 3.693-2.791 3.434-5.505 6.086-1.09 1.066-1.041.92-.887 2.408a40.63 40.63 0 0 0 .55 3.731c2.835-.471 2.941-.716 3.282 1.302.11.654 1.687 9.608 3.27 11 3.954 3.443 7.88 2.825 8.627-2.9.684-5.189-1.004-8.922.31-8.078 2.905 1.854 5.301 1.968 9.229-.36 7.531-4.47 7.367-10.772 11.158-13.256 2.767-1.805 4.643-3.121 6.242-6.275 1.37-2.7.866-3.057-.556-5.144-7.285-10.689-9.068-11.395-22.11-8.528-3.319.728-6.48 1.53-8.856 2.407l.004.003Z" fill="#F7CEBF"/><path d="M79.352 330.305c-23.169-1.705-43.815-15.492-53.916-36.482-8.975-18.658-7.326-38.896 3.01-58.928 3.043-5.898 5.793-10.272 14.368-22.858 11.724-17.207 17.722-27.399 17.417-43.364-.292-15.343-6.989-31.284-7.29-47.165-.345-18.174 6.873-32.472 22.395-42.772 11.164-7.4 21.486-8.94 21.637-9.02.909-.493 3.831-5.751 13.88-8.837a106.523 106.523 0 0 1 14.026-3.232l3.34-.556c.662-.299 6.913-6.219 6.913-8.78 0-.815 0-.837-.592-1.343-3.169-2.74-2.79-8.426.458-11.557.967-.933.73-.456.923-2.007.473-3.827 1.847-6.951 3.876-9.966-1.174-2.3-1.004-3.274.2-5.712-1.992-1.404-5.102-4.233-6.648-6.15-2.155-2.677-1.714-4.061.285-6.035 3.209-3.174 6.638-5.068 10.422-2.193 1.683 1.278 5.591 7.68 5.617 7.647.201-.2-1.635-4.437-2.442-5.651-.806-1.214-.822-.343 3.427-3.41 1.003-.729 2.006-1.26 2.654-1.405 3.154-.678 5.876 5.963 2.773 12.735l-.436.95c3.15 2.457 2.067 2.944 3.654 3.44 4.963 1.55 10.673 6.759 13.367 12a26.705 26.705 0 0 1 2.841 9.029c.282 2.235.2 8.568-.588 9.356-.568.57-2.141-1.94-2.408-1.88-.054.015-.27.42-.485.904-.963 2.196-2.327 3.745-4.614 5.236-4.506 2.929-3.272 3.53-5.852 7.573-1.146 1.806-3.379 4.213-5.016 5.427-1.98 1.482-.142-.311 5.29 4.247 4.918-.504 11.061-.18 18.742 1.111 22.032 3.698 43.659 14.673 56.723 31.975 1.446 1.914 1.204 1.751 1.821 1.36.402-.253.436-.327.498-1.178.223-3.067 3.126-4.925 5.698-3.639l.814.401c2.028-1.952 3.302-2.227 6.005-1.13 1.003-.874 1.504-1.29 3.326-1.29 2.646 0 3.27.918 3.884 2.408 1.244-.18 1.494-.323 2.642.771 3.244 3.093 4.801 9.521 3.611 14.31-1.166 4.654-2.285 3.759-2.472 5.531-.341 3.252-3.095 5.077-5.793 3.846l-.823-.37c-1.916 1.916-3.469 2.809-6.404.859l-1.003 1.166c1.405 5.039 2.269 8.566 2.699 13.967.2 2.608.096 9.216-.201 11.617-4.301 35.341-34.735 46.48-34.165 47.796 1.292 2.979-1.003 3.643-2.119 2.796-.349-.265-.614-.692-1.041-1.669-6.935-15.877-12.759-27.527-21.562-39.148-3.89-5.128-5.682-6.611-8.733-7.243-2.659-.543-7.756-.622-15.835-.238l-3.078.148c-.14.058-2.483 2.865-7.497 3.866-2.574.515-11.401-.291-13.808.367-9.542 2.608-14.595 18.676-33.136 20.786-1.754.201-5.682.096-7.243-.201-1.46-.268-1.442-.274-1.059.141 1.09 1.171 4.145 3.23 6.448 4.329 7.244 3.465 16.577 3.082 25.145 1.342 8.569-1.739 24.54-7.35 32.88-10.416.401-4.363 1.946-7.96 5.677-10.47.843-.568 5.674-3.122 3.812-1.174-2.767 2.901-6.117 6.697-6.129 10.216 0 2.267 1.041 3.252 3.268 3.073 1.24-.1 1.571.075 2.265 1.168l9.8 13.371c10.834 14.735 19.587 25.741 27.322 34.306 2.972-1.605 5.925-3.371 8.238-5.238 6.359-5.138.469 1.5 20.042 3.478 7.84.791 14.42 1.764 18.693 7.162 1.583 2.007 2.582 4.582 2.386 6.161-.689 5.525-15.187 8.591-21.366 9.265-8.059.877-20.437-.231-28.099-1.914-6.273-1.38-.588-9.543-2.407-15.269-.389-1.226-.618-1.547-3.991-5.435l-10.185-12.161c-.086 0-1.268.666-2.622 1.482-15.363 9.243-24.493 18.973-31.603 33.672-10.753 22.243-13.875 47.546-33.199 66.912-13.128 13.149-30.965 19.157-49.352 17.783Zm10.248-3.742c24.014-2.206 39.893-15.676 50.497-36.713 12.952-25.679 13.827-50.401 37.458-71.079 3.84-3.36 9.142-7.14 14.326-10.209 1.049-.62 1.904-1.164 1.91-1.216.006-.052-2.089-2.883-4.648-6.295-5.686-7.58-7.901-10.633-12.019-16.515-4.248-6.073-3.812-5.559-4.739-5.559-2.947 0-4.159-1.87-4.586-1.878l-16.928 5.7c-12.168 4.241-20.285 5.818-32.021 5.818-.457 7.063-1.324 19.913-1.922 21.466-.678 1.761-3.188 2.682-1.962 6.183.897 2.566-.389 3.659-3.623 7.38-10.49 12.082-17.073 20.185-31.816 39.163-4.727 6.085-6.243 7.977-8.15 10.191-2.336 2.709-2.449 2.865-2.356 3.238.12.472 1.685 2.113 2.88 3.01 2.665 2.006 4.165 2.634 7.786 2.636 5.136 0 2.065.118 3.884-3.902 1.11-2.448 4.815-5.794 11.383-12.037 10.611-10.041 28.799-28.835 34.236-35.349 6.678-8.001 9.483-13.201 12.298-22.818 1.793-6.113 1.924-6.474 2.493-6.769.763-.402 1.975-.189 1.824 1.52-.245 2.851-2.953 12.027-4.741 16.088-2.758 6.259-6.887 11.78-16.177 21.633-13.053 13.842-18.144 18.972-32.125 32.419-3.064 2.949-5.45 4.875-5.856 7.923-.18 1.354-.251.86.329 2.14 1.111 2.462 1.64 5.056 3.242 8.248 3.35 6.68 9.027 8.008 9.268 12.177.22 3.688-4.213 4.703-10.562 4.891-5.245.157-9.983-.65-13.04-2.206-1.605-.819-3.11-2.324-4.39-4.39-.788-1.264-3.571-6.753-7.533-14.858-5.947-12.153-1.443-8.771 3.39-14.055 1.928-2.113 11.167-13.893 13.363-17.036 4.111-5.899 8.296-11.209 15.063-19.129l15.144-18.56c-1.145-3.009-.955-5.286 1.298-8.401.887-1.22.825-1.004 1.363-5.182l1.272-16.036c-5.066-1.047-8.497-2.239-13.053-5.675-1.883-1.421-3.98-3.728-5.057-5.563-.69-1.182-7.674-2.964-14.023-12.573-1.256-1.9-8.28-14.589-5.303-16.136 1.417-.734 2.115.556 2.608 2.307 1.547 5.523 5.527 12.864 9.046 16.676 2.881 3.129 7.279 6.034 10.942 7.222 3.663 1.188 8.735 1.503 12.225.784 14.776-3.037 19.25-15.16 27.792-19.44 7.238-3.625 15.151 1.004 21.318-3.665 6.357-4.815 6.604-16.553 6.255-16.553-.116 0-17.089 3.352-17.341 3.423-.576.164-3.421 6.891-10.633 4.815-2.054-.602-1.671-.893-2.006 0-.727 1.909-2.446 2.285-4.197 2.08-.861 4.456-4.845 2.989-6.177 1.541-1.806-1.96-2.02-5.345-3.411-7.196-.317-.422-11.297 1.958-11.305 1.966-.27.266.983 4.814-.174 6.285-.991 1.266-6.279 1.593-7.128 1.24a2.536 2.536 0 0 1-1.29-1.531c-.542-1.926-1.332-15.088-1.747-15.307-2.292-1.204-35.789.556-33.303-18.607 1.304-10.162 6.406-7.558 4.728-4.308-1.422 2.777-2.218 7.309-.73 10.346.981 2.006 3.846 4.181 7.28 5.537 4.787 1.882 13.316 3.168 26.773 4.037 2.598.17 3.226.174 3.322.038.349-.522 4.264-8.452 4.227-8.561-.054-.17-1.245-.698-5.998-2.656-5.252-2.164-7.497-3.009-12.856-4.801l-4.614-1.55-6.534.293c-2.43.678-4.931 2.104-4.931 2.05 0-.756 4.012-5.088 8.793-5.333l1.37-.068c-4.026-3.39-10.52.542-7.982-1.428 2.032-1.569 5.777-3.025 9.005-2.277l15.831-18.056c2.103-2.373 2.143-4.702 2.323-8.677.257-5.63.301-6.154.54-6.199 1.003-.188 2.788 8.354 1.569 12.84-1.643 6.045-4.32 4.351-5.401 14.753-.116 1.112-.355.857 1.996 1.306 8.627 1.649 17.805 9.171 23.32 8.31 5.056-.788 10.504-6.163 19.46-6.163l1.912-6.821c1.667-7.423 3.994-15.56 4.688-16.374 1.056-1.25.851 3.46.269 6.853-3.733 21.789-5.842 14.733.863 18.689 8.394 4.949 8.979 12.651 9.718 12.651.327 0 12.364-2.15 12.438-2.223.03-.03-.602-.732-1.414-1.56-13.012-13.319-14.868-38.816-19.34-43.324-1.352-1.364-2.915-2.24-5.95-3.326-1.483-.53-.921-.524-2.309-.038-5.16 1.805-5.533-1.082-5.417 1.486.614 14.645-12.591 15.093-17.654-2.967-2.163-7.693.495-6.883-5.036-5.784-6.494 1.292-14.91 3.086-19.436 6.5-4.343 3.25-9.304 10.693-12.167 15.342-2.626 4.237-3.948 2.7-3.948 1.274 0-2.125 6.018-9.981 5.643-9.981-.2 0-3.21 1.053-4.777 1.675-18.202 7.226-30.558 20.975-32.087 40.296-1.095 13.843 3.754 26.843 6.174 41.315 4.142 24.791-3.63 37.648-17.932 58.408-5.252 7.624-8.321 12.352-10.655 16.397-14.043 24.359-15.156 48.786.568 69.985 12.619 17.013 33.682 26.311 54.803 24.369h.004Zm2.682-21.953c3.188-.401 5.036-.875 3.894-2.024-.507-.502-1.143-.516-3.162-.057-2.872.65-7.59.781-9.908.275-4.96-1.085-6.64-4.937-11.45-14.404-2.672-5.262-5.605-10.581-5.831-10.581-.155 0-1.405.751-1.449.873-.174.439.96 2.809 4.063 8.504 1.575 2.881 2.437 4.63 5.563 11.209 1.553 3.274 2.847 4.443 5.89 5.328 3.595 1.049 8.426 1.36 12.39.877Zm-1.278-4.757c2.408-.357 2.474.235-1.338-3.567-2.776.831-5.015 1.029-7.202-.066-2.187-1.095-5.216-5.29-3.85-7.951 1.184-2.313 5.617-1.51 5.978-2.477.079-.201-.292-1.142-.445-1.138-.06 0-.501.093-.977.201-5.49 1.236-10.45-1.465-10.45-1.324 0 .253 5.874 11.852 6.436 12.703 1.757 2.676 2.925 3.501 5.396 3.812 1.266.16 4.765.056 6.452-.201v.008Zm-3.95-5.617c1.641-.201.51-.47-.889-4.151-.928-2.448-.315-1.3-3.504-.861-1.77.239-1.68.201-1.605.831.174 1.527 1.775 3.884 3.95 4.233 1.135.185 1.226-.052 2.048-.052Zm152.943-52.175c4.695-.467 9.042-1.39 12.603-2.682 1.884-.68 5.092-2.341 5.794-2.989.76-.709.736-1.108.148-2.482-5.95 3.633-15.782 5.746-27.252 5.746-18.912 0-17.812-4.095-17.812.124 1.077.636 1.153.684 3.496 1.079 3.868.648 7.311 1.046 12.106 1.405 1.274.096 9.513-.042 10.917-.183v-.018Zm-4.213-5.633c6.568-.42 11.181-1.216 15.967-2.755 2.342-.754 4.918-2.006 4.918-2.389 0-.319-1.525-1.639-2.673-2.311-3.637-2.135-8.745-2.684-15.118-3.286-2.279 2.732-3.228 6.177-7.275 6.881-5.071.883-11.084-4.285-6.564-9.83.959-1.174.879-.674-.851-1.993a60.318 60.318 0 0 1-8.827 6.248c-2.754 1.561-.305.2-.939 6.018-.2 1.912-1.049 1.806 3.951 2.672 5.216.895 12.081 1.074 17.417.737l-.006.008Zm-3.725-7.112c1.314-.614 3.236-4.049 3.21-4.065l-6.839-2.006c-5.387 5.942 1.785 6.915 3.611 6.061l.018.01Zm-14.114-35.203c14.387-8.753 24.476-19.46 28.604-35.862 2.759-10.98 2.111-20.892-1.189-31.999-3.878-1.911-3.024-2.808-3.958-3.894-.063-.084-4.815-.836-5.287-.836-.802 0-.345.257-1.105.602l-23.725 4.815-.161.958c-.706 4.238-4.213 8.898-8.063 10.734-3.296 1.57-6.219-.478-8.191-.893-.357-.078-1.591-.415-2.742-.747-2.963-.858-5.252-1.422-9.319-2.285-5.128-1.087-3.627-1.384-7.97-.539-4.414.86-3.758.2-3.702 2.79.118 5.257-1.101 9.205-3.471 13.394l13.002-.189c7.311.461 9.391 1.854 15.996 10.729 7.198 9.668 12.881 20.449 18.36 32.639 1.031 2.295.402 2.108 2.921.577v.006Zm-108.943-47.747.718-.09-.339-3.41c-.777.082-1.35.254-1.561-.141-.233-.435.03-.802.644-.901.927-.148.803-.224.646-1.422-2.145.341-1.956-.857-.602-1.111.64-.121.891-.803-.144-.658-1.162.154-1.545-.881.118-1.204.401-.078.674-.823-.439-.815-.803 0-1.888-.63.497-1.229-.082-2.596.52-2.077-2.891-2.241l1.491 13.271 1.858-.059.004.01Zm21.897-.401c.163-.421.074-1.751-.188-2.849-1.204-5.015-4.952-8.099-4.952-8.811 0-.67 5.341 1.11 7.255 6.966.91 2.786 2.58 2.178 2.132.09-.447-2.088-2.943-6.293-4.756-8.025-2.36-2.269 5.153.385 7.176 5.916.331.905.588.99 1.203.384 2.219-2.219-5.771-8.757-5.771-8.874 0-1.065 6.034 1.405 8.038 4.829 1.118 1.902 1.561.925.741-.437-3.226-5.365-8.747-7.886-15.448-10.123-3.152-1.052-7.772-2.408-8.183-2.408-.161 0-2.706 5.016-3.264 6.42-.58 1.465-.58 1.475.034 2.245 2.676 3.358 7.507 3.24 10.655 6.62 2.437 2.618 2.518 5.776 3.482 7.243.564.85 1.658 1.338 1.854.822l-.008-.008Zm13.825-5.138c3.292-1.649 2.503-2.576 1.888-5.113-1.629.216-1.571.07-1.571.91 0 1.322-.911 2.34-2.323 2.729-.763.2-.803.234-1.038.868-.2.514-.74.961 1.435.989a2.907 2.907 0 0 0 1.605-.383h.004Zm-26.995-.812c2.686-.514 4.943-.959 5.015-.981.171-.06-1.119-.893-1.382-.893-.175 0-7.842 1.386-8.563 1.547-.509.114-.305 1.264-.126 1.264.096 0 2.373-.418 5.058-.937h-.002Zm-1.617-2.145c3.334-.602 3.434-.531 2.65-.858-.915-.382-6.436.987-6.448 1.003-.07.066-.201.602.419.479l3.379-.618v-.006Zm85.072-1.39c3.86-1.366 7.89-7.176 7.21-10.432-.401-1.934-5.064-8.236-8.916-7.269-.922.233 2.374.961 4.31 4.962 1.131 2.339.082 2.357-2.827-.275-2.446-2.207-3.118-2.624-5.162-3.148-1.089-.283-3.368-.479-3.918-.343-1.003.253-.764 2.247 1.84 2.562 1.067.126 2.357.602 4.271 1.579 1.866.947 2.285 1.282 3.091 2.498.973 1.464 1.844 3.653 1.605 4.038-.305.489-4.078-3.848-4.917-4.335-.943-.544-3.641-1.569-4.147-1.569-1.404 0-.507 2.546.353 2.546 1.004 0 3.933 2.355 4.875 3.924.602.989 1.004 2.507.689 2.507-1.296 0-3.393-3.727-6.22-3.954.016 2.157 3.02 8.4 7.861 6.713l.002-.004Zm-86.306-.233c1.717-.323 1.655-.375.975-.724-.586-.301-2.53.183-3.75.401 0 .929-.401.905 2.775.323Zm54.875-4.285 21.311-4.343c.175-.536.019-.51-20.703 3.474-11.291 2.171-20.556 3.979-20.586 4.013-.03.034-.2.838.602.696.271-.048 8.986-1.776 19.372-3.836l.004-.004Zm-55.726 2.423s-.042-.75-1.26-.601c-1.039.126-.941.168-.78.967l2.04-.366Zm31.969.187c.702-.136.19-.959.186-.963l-1.791.271c.487 1.021.244.955 1.605.692Zm46.294-.421c-2.176-4.253.839-3.367-7.73-1.894l7.73 1.894ZM170 129.96c11.134-2.141 20.346-3.918 20.477-3.958.244-.075.331-.588.1-.588s-41.022 7.511-41.127 7.567c-.13.084.018.869.169.869.07 0 9.24-1.75 20.373-3.89H170Zm-24.723 2.538c1.064-.211 1.108-.849-.401-.57-1.647.305-1.593.283-1.404.592.188.309.213.293 1.805-.026v.004Zm44.969-8.314c.04-.04-.07-.166-.245-.279-.543-.355-40.188 7.098-40.639 7.202-.271.061-.415.44-.237.618.075.074 41.011-7.433 41.127-7.541h-.006Zm-45.897 6.638c1.372-.234 1.382-.238 1.294-.577-.165-.642-.311-.426-3.84.283.788.832.475.652 2.546.294Zm25.033-4.598c10.701-1.966 19.486-3.611 19.53-3.657.044-.046-.046-.68-.514-.572l-39.556 7.223c-.024 0-.465.832.538.664.305-.055 9.303-1.702 20.002-3.668v.01Zm-26.145 2.825c1.974-.361 2.006-.375 2.048-.728.023-.201-.022-.361-.104-.361-.235 0-4.887.832-4.949.884-.124.115.455.584.712.58.157 0 1.186-.168 2.293-.375Zm25.376-4.642c10.717-1.954 19.561-3.579 19.661-3.611v-.602s-39.893 6.913-39.893 7.439c0 .369.112.465.459.387.153-.034 9.048-1.661 19.765-3.611l.008-.002Zm-26.602 2.901c3.527-.632 3.056-.245 2.847-1.605-.178-1.156-.345-1.338-1.591-1.744-3.089-1.003-5.216.063-7.232 1.936 3.487 2.382 2.181 2.093 5.976 1.405v.008Zm26.737-4.831c20.062-3.611 20.354-3.68 20.354-4.159l-40.276 7.108c-1.075.215-.778.814-.401.724.167-.04 9.311-1.695 20.323-3.683v.01Zm-34.2 1.079c2.695-2.694 7.742-3.691 11.183-1.468l.802.519 18.299-3.28c.2-.172-2.52-8.225-9.395-11.395-2.037-.943-2.699-1.069-5.437-1.059-4.428.016-6.356 1.031-11.253 3.41-8.259 4.013-9.491 3.649-19.753-1.015-7.974-3.627-10.167-4.397-13.991-4.955-3.855-.564-7.968-.243-10.632 2.263-1.188 1.115-.763.638-.75 3.505 5.597 1.546 9.428 2.866 17.62 6.239 6.353 2.618 10.915 4.363 17.8 6.596 5.497 1.784 3.892 2.257 5.507.64Zm75.898-.11c-.102.102.072.359.241.359 0 0 21.807-4.063 21.807-4.498 0-.435-22.04 4.133-22.048 4.139Zm43.247-1.228c.065-.072 1.056-1.884.133-1.713l-2.713.445c0 .688 1.778 2.207 2.58 1.268Zm-44.003-.341c-.648.134-.038.469.231.401l11.26-2.164c27.615-5.305-4.026.214-11.491 1.759v.004Zm38.342-.287c0-.824-.682.602-.122.267a.336.336 0 0 0 .122-.267Zm11.752-.501c1.439-1.541-.2-1.152-.897-1.102-1.538.108-1.635.201-.888.949.565.568 1.332.638 1.785.153Zm-51.358-.837c-.803.152-.044.602.074.602l23.428-4.334c.044-.044.026-.2-.042-.327-.2-.413-22.284 3.834-23.46 4.059Zm-1.749-1.571c-.622.153.264.582.401.582l24.052-4.374c.726-.13.363-.72.295-.72-.161 0-24.275 4.4-24.744 4.512h-.004Zm28.816-.564c10.587 1.625 4.426 1.098 14.212-.246l12.238-1.204c3.428-7.624-.945-14.011-1.649-14.011-.151 0-1.417.301-2.809.676l-16.934 3.452-6.189 4.869 1.129 6.464h.002Zm-39.214-.601c.92-.159 1.003-.338 1.466-.829-1.93.427-4.289.508-2.857.841l1.391-.012Zm8.425-.301c-.555.166.402.443.584.443l25.988-4.795c0-.461-.252-.423-13.263 1.922-7.178 1.29-13.164 2.385-13.309 2.43Zm-3.41-1.148c-.245.036.658.229 1.121.235.464.006 28.352-4.853 28.432-5.248.028-.121-.012-.227-.082-.227l-29.455 5.226-.016.014Zm6.871-4.46c15.247-2.724 23.499-4.142 23.83-4.098 1.615.216.762 1.36 2.489.178 1.463-1.003 1.477-.716.066-2.594-8.574-11.425-21.731-20.718-37.29-26.353-7.686-2.78-15.394-4.482-24.897-5.493l-8.139-.2c4.213 13.146 5.533 20.186 9.537 28.459 2.795 5.776 5.339 9.518 8.324 12.238.873.802 2.465 2.006 2.646 2.018.066 0 10.611-1.874 23.436-4.163l-.002.008Zm35.744-8.606c1.443-.225 1.517-.129.803-.877-1.439-1.499-2.305.508-2.305.921 0 .17.076.17 1.504-.044h-.002Zm6.769-1.172c1.98-.401-.879-2.072-2.114-.959-.362.323-.741 1.25-.58 1.405.056.056 1.033-.109 2.694-.454v.008Zm-149.633-.881 1.631-.084.803-4.712c.068-.239.052-.247-.153-.075-.267.223-4.12 4.667-4.289 4.95l2.006-.079h.002Zm154.632-.262c3.186-.845-.698-1.244-1.356-.648-.283.254-.365 1.003-.108 1.003.088 0 .746-.157 1.464-.353v-.002Zm-115.038-23.24c3.551-1.224 2.482-10.243 2.375-10.476-.222-.492-3.761-2.723-6.219-10.394-1.514-4.73.022-2.664-4.999 2.006l-1.509 1.404c.343 5.866 2.245 13.556 6.859 16.75 1.094.758 2.516 1.045 3.493.71Zm9.485-11.702c3.918-.92 7.987-5.106 10.124-9.208l.884-1.7c-1.422-1.833.504-3.84 1.679-3.009.492.347.731-.329 1.796-.963 1.713-1.02-2.082-2.568-2.127-2.706-.11-.341 2.39-1.425 4.346 1.175.056.085 1.922-1.604 1.922-1.733 0-.064 1.741-3.3 1.741-4.056l-3.24-5.11.361 9.377c-3.551-3.364-6.995-8.01-8.574-12.691-.518-1.533-.271-1.405-1.469-.347-3.519 3.075-8.751 5.16-13.154 5.242-1.752.032-1.435.218-2.767-1.64-1.043-1.442-1.5-1.787-2.485-1.855-4.912-.353-5.618 10.855-.201 8.6 1.067-.443 1.023-.447 1.15 0 .24.85-.54 2.22-1.491 2.609-1.675.69 1.779 10.054 2.939 12.261 2.006 3.812 4.614 6.673 8.574 5.742l-.008.012Zm.584-2.96c-3.087-1.094-2.379-5.029-1.986-3.81.153.47 1.404 1.5 2.45 1.991 2.243 1.068 4.863.129 3.338 1.292-.955.729-2.59.955-3.802.528Zm5.463-4.874c-1.942-1.537.873.016 1.238-1.673 1.348-6.23 2.905-6.049 2.712-5.385-.311 1.076-.62 6.135-1.099 6.871-.48.737-1.677 1.124-2.851.187Zm-3.565-5.95c-.939-.937.152-3.288 1.525-3.288 2.556 0 .058 4.893-1.525 3.288Zm4.684-5.873c-1.33-1.805-2.283-1.71-4.754-1.875 2.624-2.819 6.273-1.013 6.299 1.342 0 .263-.545 1.649-.646 1.64a8.3 8.3 0 0 1-.893-1.107h-.006Zm-19.694-1.891c-2.129-.654.961-.223.082-1.718-1.511-2.568 1.035-2.63.985-4.473-.058-2.177 3.13 1.185 1.222 2.768-.474.401.2 1.784-.259 2.658-.387.755-1.137 1.038-2.03.765Zm33.503-10.154c-.301-2.608-2.052-5.785-4.614-8.38-2.809-2.834-5.437-4.232-8.99-4.768-1.404-.219-4.931-.441-4.815-.311.706.738 10.964.736 17.623 12.858 1.003 1.823.912 1.749.792.601h.004Zm-27.88-13.864c3.529-2.438 6.285-2.911 11-3.595-2.654-.983-4.534-1.282-7.764 0-4.49 1.773-5.334 5.101-4.51 4.494.137-.1.71-.5 1.274-.893v-.006Z" fill="#3F170D"/></svg>