<svg width="268" height="310" fill="none" xmlns="http://www.w3.org/2000/svg"><g clip-path="url(#a)"><path fill-rule="evenodd" clip-rule="evenodd" d="M22.689 179.402c.314 10.655-.263 18.701-1.468 25.6-3.854 22.092-17.224 30.332-20.599 48.031-1.991 10.442.892 21.738 7.416 30.982 6.524 9.243 16.7 16.437 28.879 20.866 31.246 11.338 61.088.297 91.276-16.383 8.504-4.7 16.998-9.885 25.483-15.556-8.574 1.267-19.181.989-27.06.267-7.686-.703-8.636-1.163-7.036-7.485 1.764-6.956 3.03-6.328 2.795-14.346-.451-15.375-3.496-41.663-8.207-58.753-3.069-11.136-7.28-20.78-9.727-25.628-2.446-4.848-3.119-4.901-4.369-5.168-7.071-1.503-5.594-3.126-5.983 7.486-.103 2.852-.367 5.621-2.105 10.527-1.738 4.907-4.966 11.922-11.207 25.615-6.242 13.693-15.5 34.044-20.208 44.248-6.744 14.622-4.755 8.035-1.101 16.064 1.12 2.444 1.95 5.7 2.314 7.519.364 1.82.26 2.185-1.248 2.931-7.759 3.837-15.452 2.564-23.123 0-1.274-.427-1.483-.479-1.509-1.705-.167-7.896 4.656-10.858 4.656-13.452 0-4.177 1.285-9.505 3.487-16.624 4.797-15.447 15.713-45.602 19.976-62.428 2.34-9.212 2.237-13.001 2.158-14.971-.143-3.614-.273-1.273-6.397-.64-6.28.649-11.096-.601-15.865-5.434-7.606-7.708-9.934-17.742-9.544-29.597.29-8.846 2.78-20.458 8.712-25.227 3.586-2.884 6.75-2.053 8.323-3.73 1.253-1.335 4.803-10.085 6.735-14.385 2.14-4.737 5-10.912 7.003-14.939 2.002-4.027 3.146-5.888 5.434-7.538 5.186-3.741 16.014-5.999 21.846-7.193 2.6-.533 2.753-.534 3.823-1.385 1.07-.852 3.043-2.558 4.342-3.65 3.061-2.57 1.468-1.926-.734-4.103-1.685-1.667-1.2-4.555.184-6.1.857-.958 2.202-1.598 2.73-3.036.678-1.88-.295-9.15 4.915-14.625 2.846-2.993 8.249-4.457 11.67-3.89 4.025.67 1.896 1.45 6.634.92 5.344-.598 10.277 1.18 13.862 6.247 3.222 4.549 3.642 11.613 1.56 16.65-1.414 3.453-6.22 9.081-8.571 11.348-1.94 1.863-3.701 2.245-4.748 3.502-.882 1.064-.989 3.196-3.886 5.249-3.397 2.399-6.044 2.196-4.291 3.384 3.817 2.586 5.08 3.13 7.553 8.47 1.092 2.358 2.238 5.288 4.317 9.471 2.019 4.07 8.247 15.154 9.051 17.315.754 2.027 4.985 7.249 7.086 9.697 4.263 4.966 11.745 10.036 17.032 13.693 2.511 1.731 2.849 1.864 5.449 1.923 6.016.139 14.968.133 21.255.714 2.777.256 2.63.246 5.611-1.919 1.508-1.094 1.651-1.854 2.906-2.484 2.078-1.037 3.03-.015 3.322 1.952.151 1.011.116 1.054 1.821 1.579 1.8.553 1.204-1.865 3.413-2.124 2.603-.307 1.819 3.293 2.569 3.735.212.124 2.032.859 2.45.376.419-.483.681-1.519 2.309-1.671 2.753-.256.692 2.992 1.9 3.536 4.835 2.177 3.542-.803 5.85-.7 1.936.087 1.852 2.647 1.632 4.031-.323 2.038.892 1.222 1.813 3.549 1.169 2.955-2.509 4.677-4.605 5.7-2.773 1.357-1.844.163-4.681-1.412-6.163-3.42-13.764 2.995-16.201 1.385-1.436-.94-2.371-3.182-7.022-5.38-1.013-.479-1.327-.479-4.993-.479l-69.645.665c.502.512 4.344 9.443 5.8 13.535l6.052 19.338c.367.376 96.038-.428 96.668-.267.629.162.335 30.964.31 36.039 9.334-11.019 14.612-20.663 16.918-30.846 2.621-11.561 1.417-23.816-4.532-33.513-5.95-9.696-16.642-16.839-27.831-23.898-11.19-7.059-22.878-14.039-31.604-21.312-8.727-7.273-14.493-14.838-19.523-26.775-5.03-11.937-9.338-28.236-16.379-40.462-7.042-12.227-16.851-20.38-28.644-25.44C105.55 1.828 91.766-.15 80.156 3.292c-24.168 7.154-44.02 37.19-50 60.896-4.955 19.633-7.574 48.829-8.28 70.06-.707 21.231.497 34.499.813 45.154Zm102.321-63.15c-1.053.354-2.752.953-4.738 1.433-3.447.833-7.675 1.237-8.343 5.56-.327 2.125.538 4.373 1.989 5.401 1.111.788 23.935.497 26.69.401 4.078-.143.64-.822-5.475-6.381-3.332-3.03-4.872-6.036-5.993-5.927-3.26.316-.859-1.583-4.13-.487Z" fill="#fff"/><path fill-rule="evenodd" clip-rule="evenodd" d="M133.717 180.959h87.643v86.473h-96.43v-1.75c6.344 1.587 16.582 2.047 23.439 1.482 5.004-.412 7.19.706 8.97.054 1.78-.652 1.835-.919.734-1.786-4.646-3.684-7.867-4.023-12.521-6.273-5.311-2.568-4.405-6.295-7.866-5.589.099-1.066.04-3.096-.075-7.113-.424-14.61-.975-51.668-3.902-65.496l.008-.002Z" fill="#E23C08"/><path fill-rule="evenodd" clip-rule="evenodd" d="M184.208 180.974c5.752 0 5.752 8.869 0 8.869-5.751 0-5.753-8.869 0-8.869Zm27.475-.015h2.386c1.468.564 2.51 2.149 2.51 4.01 0 5.585-7.412 5.585-7.412 0 0-1.861 1.05-3.44 2.509-4.01h.007Zm-13.511.015c5.139 0 5.139 8.392 0 8.392-5.138 0-5.138-8.392 0-8.392ZM181.41 195.532c15.081 0 27.306 12.839 27.306 28.679 0 15.839-12.225 28.669-27.306 28.669-15.082 0-27.306-12.839-27.306-28.677s12.226-28.679 27.306-28.679v.008Z" fill="#FFD284"/><path fill-rule="evenodd" clip-rule="evenodd" d="M181.41 203.566c10.855 0 19.655 9.243 19.655 20.645 0 11.401-8.809 20.642-19.655 20.642-10.846 0-19.655-9.243-19.655-20.642 0-11.4 8.8-20.645 19.655-20.645Z" fill="#F7CEBF"/><path fill-rule="evenodd" clip-rule="evenodd" d="M116.757 256.599c-1.005 1.947-2.448 6.284-2.718 8.459-.117.94.065 1.158 1.535 1.624 6.102 1.937 17.544 2.533 24.991 1.918 5.007-.412 7.193.707 8.973.054 1.78-.652 1.835-.919.734-1.785-4.649-3.685-7.868-4.023-12.522-6.274-5.491-2.654-4.338-6.549-8.231-5.5-10.227 2.752-11.378-1.188-12.769 1.504h.007Zm-85.926 11.935c3.854-11.612 18.46-11.636 22.405-3.104a17.761 17.761 0 0 1 1.352 4.663c.143.998.039 1.105-.701 1.477-5.192 2.613-16.724 1.709-22.04-.585-1.484-.639-1.458-1.118-1.016-2.443v-.008Z" fill="#E23C08"/><path fill-rule="evenodd" clip-rule="evenodd" d="M92.133 162.963c-1.301-.154-1.285-.115.714 3.474 1.998 3.589 5.942 10.728 8.625 15.765 2.683 5.036 4.083 7.964 5.592 14.73 3.65 16.377 5.19 37.221 6.216 52.824.403 6.157-.206 6.063 5.252 6.553 3.648.327 6.069-.233 9.389-1.252 1.04-.319 1.04-.376.806-8.444-.401-13.811-1.072-48.784-3.304-62.334-1.973-11.967-8.394-28.448-12.402-38.938-1.468-3.855-2.982-5.066-5.93-4.961-2.626.092-2.936.493-3.367 1.638-4.491 11.989 12.334 11.373 11.273 17.21-1.002 5.519-19.086 4.181-22.859 3.735h-.005Zm-6.958 1.237c-.117 2.73-.48 7.845-1.284 12.187-.804 4.343-2.058 7.911-7.961 20.964l-29.127 62.656c-1.12 1.855-2.259-.092-7.36.376-6.64.605-8.77 3.29-7.933-1.651.443-2.611 1.588-7.406 5.774-20.62 4.186-13.213 11.417-34.843 15.267-48.216 3.85-13.374 4.316-18.487 4.537-21.164.22-2.677.194-2.917 2.068-3.583 1.874-.665 5.643-1.759 8.594-2.797 5.57-1.961 7.084-3.261 12.379-2.504 5.505.786 5.186 1.087 5.046 4.356v-.004Z" fill="#3F170D"/><path fill-rule="evenodd" clip-rule="evenodd" d="M134.267 108.368c.233-.267.235-.267 1.145.825 7.849 9.42 9.866 12.24 20.415 19.175 1.962 1.291 2.12 1.399-.261 1.478l-19.82-.188c-2.907-.188-8.809-5.777-11.729-10.469-.991-1.587.358-.974 4.811-4.914 2.083-1.844 4.088-4.367 5.448-5.914l-.009.007ZM174.335 134.113c.042 3.323 2.105 6.156-3.12 6.288-1.585.039-4.037-.147-5.214-.167-1.176-.021-1.101.126-.695.639 4.326 5.42 17.636 7.299 20.022-.558 1.285-4.223-1.468-9.195-3.239-7.896-.931.683-.716 1.645-1.652.545-2.503-2.936-2.367.951-3.613.752-.734-.118-2.522-2.034-2.491.406l.002-.009Z" fill="#F7CEBF"/><path fill-rule="evenodd" clip-rule="evenodd" d="m100.685 132.833 73.663.915a3.416 3.416 0 0 0-.013.365c.013 1.013.367 2.705.422 3.771.055 1.066-.227 1.504-.734 1.857-.506.354-1.228.619-2.815.66-1.588.041-4.038-.147-5.214-.167-1.176-.021-1.101.126-.695.639.405.513 1.15 1.393 2.84 2.372.85.485 1.734.902 2.645 1.248l-70.105-.872v-10.788h.006Zm83.927 1.052 8.683.108v10.79l-11.867-.149c.271-.117.535-.249.793-.394a6.397 6.397 0 0 0 1.939-1.642 6.571 6.571 0 0 0 1.168-2.283 8.105 8.105 0 0 0 .103-4.377 8.86 8.86 0 0 0-.821-2.068l.002.015Z" fill="#E23C08"/><path fill-rule="evenodd" clip-rule="evenodd" d="m192.216 136.948-.267 7.16c10.373 5.111 6.827 7.399 10.755 6.36 3.595-.952 9.98-3.185 13.354-1.679 2.845 1.271 3.827 3.572 6.846 1.906 4.955-2.737 5.25-7.299-1.013-10.196-4.038-1.867-17.455-5.988-21.724-7.153-3.277-.895-3.061-.547-6.764 1.479-.831.453-1.053.613-1.184 2.13l-.003-.007ZM38.866 113.378c-6.607 5.076-8.207 15.674-8.581 24.136-.413 9.316.94 19.958 6.63 27.412 6.423 8.418 15.067 10.213 25.058 7.233 10.752-3.209 16.18-7.897 27.924-5.049 5.772 1.399 13.352 5.087 18.569 1.865 3.217-1.987 3.234-5.533-1.079-8.178-3.819-2.342-8.332-3.254-8.297-7.686.038-4.999 5.816-9.821 9.202-13.629l-7.692-.096v-10.789l7.778.096c1.778-5.451 13.334-3.818 14.392-8.149 1.005-4.117-3.854-6.801-8.791-7.143-8.359-.57-18.943 3.648-25.803 4.267-9.013.81-12.993-3.841-21.964-6.392-.337.952-.569 1.75-.589 2.2-.158 3.472 5.636 9.775 8.394 11.833 4.058 3.035 12.885 4.817 17.349 6.202 6.463 2.008 3.925 3.987 3.966 5.487.042 1.57 1.41 4.324-.144 5.354-1.358.904-.268 2.149-2.457 2.399-1.59.179-.415 2.01-3.797 2.01-1.349 0-1.268.795-2.588.919-3.26.304-10.776-9.23-13.039-11.509-5.122-5.156-18.609-11.668-23.808-21.648-.672-1.29-.794-2.995-.626-4.775-3.8.461-7.34 1.575-10.007 3.624v.006Z" fill="#FFD284"/><path fill-rule="evenodd" clip-rule="evenodd" d="M113.799 69.312c-4.929-.205-2.477-3.718-2.925-1.677-1.358 6.187-7.157 11.04-10.182 4.102-2.885-6.592-2.72-6.453-3.799-6.481-5.632-.145-13.101 2.646-18.924 5.122-2.852 1.21-4.307 2.358-5.873 4.48-3.4 4.617-9.488 18.422-11.777 23.77-1.046 2.444-1.297 3.221-.886 4.074 18.323.861 21.081 9.161 32.955 8.084 8.396-.752 26.955-8.546 33.584-1.079 1.285 1.451.659 2.925 1.028 3.947l1.083 3.04 8.55-6.619c1.433-1.111-1.241-3.177-1.826-4.216-1.468-2.632-3.869-5.982-6.275-11.063-2.63-5.522-7.697-25.19-14.733-25.484Z" fill="#fff"/><path fill-rule="evenodd" clip-rule="evenodd" d="M85.746 147.405c.32-.473.43-.968 1.215-1.056 2.19-.248 1.101-1.495 2.457-2.399 1.555-1.034.184-3.782.143-5.354-.04-1.504 2.498-3.479-3.965-5.487-4.467-1.387-13.295-3.171-17.354-6.2-2.753-2.068-8.552-8.361-8.394-11.843.077-1.703 3.173-8.405 3.615-9.399.442-.995.338-1.128-1.079-2.279-3.724-3.007-5.261-4.244-7.57-6.555-3.854 8.46-10.081 13.829-2.423 22.875 5.03 5.938 12.081 9.653 17.413 13.559 4.36 3.196 10.427 10.715 13.367 12.881a7.376 7.376 0 0 0 2.57 1.254l.005.003ZM108.774 31.057c-.989 1.292-2.472 3.557-3.459 4.715-1.866 2.19-2.276.483-4.994.547-4.588.105-7.061 6.737-4.42 9.35 1.919 1.899 3.473.985 2.018 2.397-7.543 7.298-8.1 4.421-6.843 8.412 1.235 3.909 5.492 13.598 10.35 13.547 3.432-.036 4.449-3.493 5.344-6.035.991-2.82 1.516 3.373 9.039-.212 2.066-.985 4.511-2.632 5.993-4.115 2.994-2.987 1.153-3.145 4.383-4.916 2.531-1.387 4.487-3.105 6.008-5.553.455-.733.428-.893-1.224-2.839-1.651-1.945-4.927-5.673-7.524-8.835-4.087-4.959-6.46-8.847-11.892-8.226-1.285.146-1.782.466-2.77 1.758l-.009.005Z" fill="#F7CEBF"/><path d="M78.642 309.976c-10.9-.707-20.147-3.196-29.253-7.909-13.157-6.79-24.522-16.939-28.282-30.341-6.757-24.062 10.508-36.997 17.269-58.405.776-2.461 1.881-6.743 1.881-7.302 0-1.504-5.482-6.549-1.628-25.942.66-3.329 1.08-4.827 3.364-12.089 1.718-5.452 1.782-4.66.17-6.328-8.43-8.72-10.381-25.002-8.208-38.315 1.195-7.309 3.56-12.794 7.291-16.89.84-.925.848-.94.932-1.824 1.388-14.23 4.84-31.713 8.885-44.964C60.839 27.627 82.498-.865 116.343.015c16.41.425 33.138 7.832 43.556 20.028 7.627 8.946 12.272 18.158 20.228 40.165 5.722 15.821 9.972 25.741 20.947 36.15 5.201 4.936 8.594 7.318 20.749 14.548 15.485 9.211 26.81 15.806 35.023 25.824 6.351 7.745 9.882 15.441 10.934 23.833.264 2.094.297 7.105.066 9.348-2.423 23.463-19.127 43.701-37.848 59.614v21.449c7.756 1.504 19.856 4.35 20.197 10.364.523 9.224-25.939 8.937-38.734 9.211-13.947.295-26.287.906-26.274 4.262.012 3.356 10.077 9.202 7.634 14.099-1.004 2.015-4.518 3.421-10.508 4.196-9.556 1.235-21.748 1.081-35.84-.455l-1.454-.158c-.917.169-21.104 12.736-47.06 16.543-5.046.737-7.583.919-13.323.958-2.887.019-5.581.012-5.994-.013v-.005Zm12.54-3.431c15.173-1.406 30.545-5.92 45.186-13.268 3.869-1.944 3.608-1.482.626-2.021-15.036-2.72-28.132-8.728-33.788-15.492-9.666-11.557-2.253-27.149-5.812-37.569-2.542-7.448-22.95-15.169-22.95-15.169-.537-.15-1.676 3.384-3.234 2.036-.716-.616-.248-2.329.117-3.267.55-1.415 4.551-10.123 7.506-16.338 5.153-10.837 9.659-20.706 10.853-23.782 1.881-4.837 2.597-9.158 2.856-17.325.062-1.817.05-2.842-.031-2.9-.134-.096-2.496-.549-3.882-.752-5.906-.831-10.644 2.068-17.724 4.406-4.118 1.358-3.487.634-3.6 3.264-.094 2.314-1.564 22.428-5.154 18.748-.576-.593-.55-1.049.14-3.572a60.721 60.721 0 0 0 1.547-7.815c.24-1.763.899-8.647.838-8.719-.183-.188-10.668 3.078-18.352-1.919-.783-.509-.774-.314-.76 2.043.133 22.576.25 25.99-1.995 38.932 1.285 1.647 2.784 3.307 4.563 4.67 1.455 1.115 3.958 2.651 4.314 2.651l1.122-2.839c.798-1.515 2.785-1.226 2.619.726-.274 3.195-12.764 40.197-13.704 44.404-.183.786-.82 3.729-.271 3.571 3.195-.953 7.64-1.78 10.765-1.097 1.875.408 1.727.449 2.153-.579 2.259-5.478 4.083-9.454 4.668-10.165 1.101-1.348 2.54-.519 2.162.919l-4.762 11.751c1.541 1.643 2.637 2.773 3.564 4.866 1.299 2.934 2.784 9.361 2.45 10.606-.468 1.727-4.853 3.425-10.736 4.158-2.527.318-7.356.318-9.424 0-3.755-.564-7.355-1.844-8.225-2.901-1.975-2.406.684-10.014 2.936-13.091 1.167-1.592.54-.579.637-3.196.064-1.724.521-3.743 1.696-7.493l10.134-32.104c2.543-8.114 2.569-1.639-7.44-11.501-5.535 21.972-17.323 31.078-19.721 47.275-.26 1.769-.296 6.852-.057 8.604 2.22 16.27 14.171 27.025 28.416 34.213 9.205 4.64 17.577 6.608 28.46 7.277 1.771.107 9.253-.051 11.301-.239l-.007-.007Zm80.015-15.415c10.005-.263 16.685-1.367 18.783-3.102 2.098-1.735-5.386-7.051-7.236-10.897-1.67-3.48.09-6.26 4.876-7.719 5.386-1.634 14.471-1.79 23.905-2 15.807-.355 21.777-.737 27.229-1.735 5.19-.959 8.741-2.796 8.409-4.354-.114-.523-1.171-1.666-2.162-2.337-3.347-2.256-8.93-3.904-15.003-5.162l-.156 7.638-37.357.009-5.056 3.597c-11.998 8.532-25.438 17.482-37.438 24.524-.503.295-.894.564-.866.587.213.222 9.242.829 13.828.94l8.236.009.008.002Zm-26.598-2.181c6.618-3.647 21.261-12.909 31.707-20.052 3.364-2.297 9.969-6.971 10.244-7.241l-29.257-.188c3.05 2.137 5.546 4.671 5.75 8.117.064 1.103-.07 1.395-.894 1.953-1.835 1.224-9.618 2.908-16.104 3.48-8.469.752-16.709.376-24.441-1.087-2.936-.564-4.333-.94-4.333-3.408 0-5.215 4.12-13.268 4.12-15.889l-1.121-12.347c-1.022-11.912-4.049-43.469-7.524-52.527-.657-1.72-3.335-7.28-4.86-10.094-.885-1.64-1.153-2.247-1.153-2.619.002-.219.063-.433.175-.618a1.15 1.15 0 0 1 1.08-.561c.213.017.417.094.59.222.679.453 2.331 3.384 4.786 8.459 2.211 4.587 2.872 6.49 3.839 11.06 2.371 11.194 4.731 34.119 5.873 47.56.402 4.724.837 9.157 1.004 10.185.26 1.564 9.33 1.961 12.764-.205 1.431-.902 1.848-.547 2.936.487 1.593 1.504 3.12 2.299 7.567 3.89l2.569.923 77.078.067v-83.49l-92.749.119c0 .06.138.652.31 1.315 3.469 13.347 3.039 34.787 3.566 54.682.094 3.5.431 6.233-.767 6.873-.734.385-1.309.144-1.749-.739-.441-.884-.413.15-1.112-29.326-.382-16.167-.877-22.036-2.426-28.95-2.096-9.362-8.499-27.09-13.41-37.723H107.06c-.55.092-3.907 3.442-2.149 6.754 2.294 4.324 11.057 3.888 11.057 10.127 0 2.694-1.776 4.431-4.36 5.427-3.283 1.271-9.081.795-15.83-1.289-.204-.062-.22.12-.22 2.594 0 13.627-1.957 16.979-11.829 37.956l-8.236 17.643c8.348 2.543 16.24 5.494 21.035 11.053 4.795 5.559 4.669 10.939 4.337 19.532-.417 10.783-.847 17.654 5.397 23.991 4.81 4.887 13.799 9.324 24.371 12.042 3.471.891 6.62 1.504 11.929 2.339 1.032.165.611.282 2.048-.506l-.011.009Zm35.223-34.728c-25.45-1.88-35.845-31.168-21.07-49.213 9.74-11.894 26.825-14.287 39.107-5.493 22.53 16.144 13.29 52.405-14.721 54.661a17.866 17.866 0 0 1-3.319.045h.003Zm5.368-3.181c14.665-2.295 24.84-16.717 22.035-31.833-3.086-16.645-19.985-26.083-34.96-20.491-11.619 4.337-18.807 16.315-17.279 28.798 1.86 15.215 15.535 25.842 30.201 23.526h.003Zm-7.054-5.752c-14.55-2.412-21.973-17.9-15.917-30.685 7.708-16.259 29.875-16.052 37.64-.333 6.192 12.535-.844 27.811-14.471 30.775-1.921.421-5.474.538-7.252.243Zm6.115-2.82c13.308-2.371 19.484-17.994 11.906-29.307-2.51-3.748-6.709-6.54-10.906-7.536-2.801-.668-7.115-.5-9.943.468-5.322 1.821-10.079 6.703-11.707 12.202-3.992 13.471 7.095 26.592 20.65 24.173Zm-4.306-3.461c-7.524-.972-13.048-6.69-13.03-14.561.026-11.655 12.353-17.938 21.265-12.486 10.771 6.579 8.401 22.235-2.188 26.13-1.798.661-4.645 1.09-6.056.908l.009.009Zm-6.621-53.749v-7.034h50.059v14.065h-50.059v-7.031Zm11.745 2.997c3.03-1.092 2.329-6.131-.967-5.623-4.55.699-3.287 7.16.967 5.623Zm14.296-.188c3.605-1.788 1.067-8.116-3.057-4.888-1.158.908-1.226 3.297-.125 4.35.817.782 2.219 1.021 3.182.541v-.003Zm14.498-.363c3.361-1.752-.071-7.362-3.048-4.423-2.202 2.178.536 5.743 3.048 4.423ZM52.489 277.055c1.58-.174 6.872-1.362 7.83-2.009.267-.188-.157-1.918-.203-1.974-.046-.056-.367 0-.7.103-5.525 1.734-14.947 1.798-20.873-.174-1.545-.514-1.213-.818-1.435 2.276 4.313 2.008 10.193 2.341 15.384 1.778h-.003Zm92.253-4.908c4.221-.344 6.66-.697 11.402-1.66 4.304-.874 4.131-.524 3.361-2.28-.235-.538-.367-.722-.521-.675-11.021 3.42-24.337 3.299-36.2 1.015-1.261-.242-2.312-.421-2.338-.4-.068.075-.279 2.194-.227 2.286.051.092 2.593.812 3.811 1.062 5.311 1.094 14.612 1.16 20.712.652Zm-91.875-.468c.802-.058 6.876-.709 6.672-1.438-1.227-4.512-2.657-6.94-4.975-8.459-2-1.316-7.5-.67-9.897-.025-2.085.564-4.678 3.384-6.007 6.514-.803 1.902-.9 1.665.907 2.256 4.498 1.47 8.277 1.526 13.3 1.152Zm89.75-4.083c4.526-.224 7.525-.598 11.241-1.402 3.78-.82 4.221-.705.681-2.557-4.722-2.47-10.2-3.075-15.049-6.613-3.193-2.331-.367-.824-6.423.291-2.428.453-6.436.265-8.602-.393-1.101-.334-.233-.677-2.202 4.989-1.316 3.807-1.285 3.572-.606 3.747 6.135 1.568 14.658 2.256 20.953 1.944l.007-.006Zm89.508-44.197c16.53-15.071 30.098-33.428 32.348-53.42.211-1.856.211-7.17 0-8.886-1.593-13.139-10.171-24.085-21.012-32.379-4.786-3.664-9.359-6.602-21.994-14.148-11.351-6.779-16.728-9.903-24.249-17.59-11.62-11.88-15.104-22.013-21.174-38.685-6.923-19.01-13.764-34.864-27.741-44.421-17.121-11.714-39.09-14.534-57.442-4.68-15.849 8.503-27.303 25.196-34.18 43.566-3.671 9.845-7.292 24.418-9.614 38.774-.602 3.73-1.567 10.888-1.567 11.625 0 .564 1.175-.518 3.913-.836.824-.096.787-.055 1.885-2.156.57-1.093 2.306-3.948 2.226-4.734-.081-.786 3.452-8.025 4.934-11.379 2.95-6.675 6.607-14.734 9.36-17.723 2.474-2.686 5.395-4.192 11.644-6.015 3.282-.954 4.023-.957 4.739-.025 1.075 1.412-2.237 2.382-5.372 3.435-6.917 2.325-8.752 3.678-11.484 8.444-1.744 3.06-6.952 14.475-9.318 20.425-1.393 3.515-1.563 2.756-.55 4.117 1.877 2.53 5.927 6.348 9.37 8.835 3.074 2.218 2.507 1.913 3.304.829 1.55-2.094 9.726-14.44 10.242-17.017.784-3.874-.736-12.388-1.747-15.332-.677-2.002 1.721-.049 3.433 6.822 1.212 4.862 1.469 8.905-.93 12.986l-6.14 10.507c-.061.103 3.416 2.098 4.77 2.735 3.02 1.423 5.376 2.205 7.498 2.496 4.955.679 12.765-1.25 18.205-2.759 5.48-1.521 7.717-1.705 12.079-1.762 2.081-4.523 7.769-18.586 8.749-19.841 1.315-1.683.367 3.333.277 3.67-.505 1.95-2.443 7.285-4.966 13.649-1.285 3.216-1.469 2.771.047 3.239 9.035 2.795 6.313 9.305 6.394 9.386.149.154 2.949-1.726 4.689-3.151 1.333-1.092 6.974-6.478 6.53-7.707-.074-.188-1.061-1.957-2.193-3.914-4.438-7.659-5.689-10.227-8.824-18.064-2.551-6.391-4.192-9.138-9.033-11.824-1.341-.752-.848-.671-2.031-.404-3.467.782-5.322-1.194-5.506-1.025-.138.128-.492 3.087-2.344 5.012-1.923 1.998-4.376 2.273-6.819.752-3.032-1.878-6.51-7.258-8.413-13.012-1.947-5.892-.205-3.405 5.339-8.445 2.54-2.31.343-.376-1.312-3.487-1.525-2.869-.492-7.219 2.202-9.286l.64-.497.083-1.423c.288-5.015 2.735-10.647 6.176-14.206 4.182-4.324 9.651-6.047 14.173-4.476 2.688.94 1.117 1.265 3.195.884 8.732-1.606 16.597 2.754 18.932 12.18 1.233 4.98.602 12.493-1.101 17.401-2.471 7.115.655 10.379-6.502 4.641-1.927 2.093-2.658 3.108-5.067 4.467-4.484 2.529-.298 3.76-9.727 9.037 5.139 2.346 7.561 6.707 10.029 13.095 3.258 8.436 4.269 10.078 10.241 20.699.958 1.703.994 2.177.275 3.521-1.901 3.551-6.003 7.207-10.053 10.322 2.167 2.82 8.721 9.418 11.696 11.384l.868.576 19.429.284c-5.651-3.916-12.797-9.091-17.212-14.379-1.999-2.394-2.052-2.472-2.052-3.008a1.128 1.128 0 0 1 .202-.728c.149-.21.365-.361.611-.425.734-.25 1.171.083 3.12 2.365 4.303 5.046 7.456 7.45 15.481 12.937l4.869 3.33 25.746.291 2.773-1.938c1.063-.327.197-1.557 2.456-2.694 2.018-1.019 4.698-.173 4.902 2.951l.067 1.07c1.285.401 1.258.5 1.423-.103 1.053-3.856 6.513-2.679 6.071 1.539l-.087.803c1.652.564.879.188 1.802-1.194 1.606-2.396 5.701-1.504 5.423 2.023-.097 1.243-.625 1.504 1.017 1.835.865.175.609-2.284 3.575-2.284 1.694 0 2.936 1.062 3.304 2.805.201.96-.072 1.795-.424 3.092l.504.564c4.029 4.466-.356 10.076-6.302 10.538-3.5.275-2.531-3.938-9.022-2.838-1.503.254-5.291 1.227-7.728 1.985-2.853.891-3.132.859-4.221-.536-1.618-2.085-3.465-3.684-5.72-4.713l-1.235-.564-6.917-.082c-.879 1.791-2.158 3.523-3.733 4.404-1.74.968-5.786 1.115-9.457.344-6.307-1.329-9.227-4.412-9.849-4.602h-41.11c4.255 9.343 7.627 18.93 11.409 30.678l96.431.133c.51.327-.105 53.533.468 53.046.121-.101.978-.878 1.908-1.731h-.002ZM41.743 196.705c.52-4.875.757-9.999.76-16.543 0-5.54.14-5.527-.55-2.76-2.019 8.01-3.139 16.269-.771 23.784l.569-4.474-.008-.007Zm17.189-31.394c5.456-.445 10.828-2.282 17.302-4.737 5.63-2.138 6.85-2.438 9.896-2.438 7.662 0 12.94 3.622 20.537 3.633 1.503 0 2.291-.054 2.918-.212 2.645-.662 4.9-2.692 3.241-4.912-2.066-2.771-11.092-3.28-11.092-10.768 0-4.607 3.008-4.722-.102-4.57-2.305.113-2.203-.028-2.203-3.871h-3.843c.812 1.572 1.762 3.779-.029 5.264-.883.729-.686 2.444-2.753 2.641-1.484.149-.87 2.311-3.854 2.04-1.589-.143-.917 1.152-3.56 1.038-3.186-.14-5.028-3.55-8.614-6.58-3.12-2.632-1.507-2.241-6.66-2.547-4.19-.25-3.766-.282-3.766.301 0 3.041-2.268 2.855-5.113 2.819-4.784-.073-4.122.454-4.02-8.585l.082-7.269c-3.27-3.008-5.98-5.672-8.259-9.153-4.656-7.131-.424-11.279-.424-12.383 0-.06-4.136.78-7.34 5.395-8.24 11.843-8.626 42.414 5.66 52.125 3.56 2.417 6.916 3.196 12 2.777l-.004-.008Zm27.361-19.291c.446-.284-4.22-6.444.101-2.506 1.013.919 2.591 2.327 3.423 1.974 1.382-.592-.228-1.194-1.402-3.068-.518-.829-1.599-2.773-1.599-2.874 0-.905 5.107 3.972 5.99 3.872.839-.096.019-2.019-1.202-3.506-2.076-2.528-3.325-3.581-.55-2.218 3.167 1.558 3.639 4.279 3.628 2.711-.013-2.384-5.236-7.226-10.233-9.509-4.62-2.101-9.325-2.994-12.638-5.726-2.666-2.188-6.689-7.222-7.454-9.286-.84-2.305.593-4.538 1.793-7.13-3.17-2.113-7.587-5.992-9.954-9.007-.944-1.201-.303-1.504-3.078 3.164-2.055 3.465-4.287 7.202-3.096 10.193 2.406 6.04 10.017 12.275 15.823 16.074 10.263 6.715 5.119 3.835 12.797 11.11 1.373 1.305 3.07 2.997 3.775 3.767 1.433 1.581 2.18 2.068 3.147 2.068.25.01.498-.026.735-.107l-.006.004Zm135.634-.855c2.432-.638 5.524-2.88 4.049-5.452-1.05-1.822-3.133-3.096-7.587-4.619-6.533-2.241-18.855-5.841-19.989-5.844-.804 0-2.492 1.731-3.571 2.225-.606.279-.533.365-.533.97 2.483-.073 3.192.228 3.5-.751.573-1.828 3.214-1.36 3.452.466.184 1.41-1.433 2.444-2.668 1.692-.734-.44-2.867-.177-4.405-.104v1.091l11.733.432c-.643-5.108 6.766-.94 1.571 1.316-.844.239-13.304-.346-13.304-.017 0 .679 16.38.85 19.347.85 0-3.373 2.885-2.177 3.243-1.292.479 1.188-.918 2.294-1.353 2.461-1.284.5-10.605.462-17.054-.068-2.828-.233-4.185-.519-4.185-.152 0 .712 20.555 1.468 26.464 1.65 0-2.282 2.349-2.101 3.012-1.342.743.854.271 2.256-.868 2.576-2.349.667-18.954-.651-23.326-1.087-3.979-.398-3.894-.404-2.971.088 2.076 1.098 3.903 2.878 5.495 4.832 6.588-1.91 13.331-4.465 17.395-.544.938.906 1.186.965 2.555.608l-.002.015Zm-42.147-1.155c2.49-.564 5.032-3.534 5.028-6.051 0-4.408-3.174-7.119-2.272-3.171.837 3.669.735 4.511-.779 6.034-.303.308-3.245 2.794-1.751.589 1.512-2.239 1.25-4.439.097-7.048-1.631-3.692-1.984-.634-1.349 1.348.492 1.541.817 3.444-.024 4.511-.358.455-2.114 1.779-2.218 1.67-.026-.025.121-.403.328-.833 1.27-2.632-.257-7.076-1.516-7.076-.536 0 .602 3.999.165 4.95-.288.628-1.604 1.974-2.202 2.256-.868.415-3.164-.072-4.324.017l-1.938.071 4.561 2.256c2.153.72 6.098.94 8.198.466l-.004.011Zm-115.985-4.179c.35-.955-.12-.81-1.2-.861-2.04-.097-3.265-1.387 1.321-1.214l.074-1.949c-.795-.158-3.303-.117-2.256-1.187.347-.357 1.448-.253 2.248-.253l-.095-2.049c-1.712-.019-3.362-1-.64-1.341l-3.597-2.509c-.056.212-.122 11.397-.065 11.456l4.21-.093Zm79.657-.99c27.504 0 30.674.124 30.097-.457-.073-.075-9.423-.434-14.448-.564-18.002-.446-37.937-.455-57.357-.455-.123 1.895-.935 1.656 5.9 1.555 3.206-.051 19.321-.089 35.808-.085v.006Zm-71.3-1.536c-1.203-1.246-.601-.617-2.725-.949l-3.075-.361v1.802l6.661.401-.87-.895.01.002Zm119.289-.376c0-.491-4.517-.173-4.518-.171-.883.553 4.518.663 4.518.171Zm-17.985-.438c0-.508-9.404-.6-15.73-.778l-48.339-1.279c-8.809-.233-7.708-.887-7.708 1.566l65.097.517c4.74.179 6.674.168 6.674-.041l.006.015Zm-74.025-1.354v-.894c-3.353-.061-2.486-.531-3.015 1.791h3.015v-.897Zm-5.063-.024c1.285-1.897-3.771-2.983-3.876-2.876l3.535 3.143c.08 0 .236-.113.34-.267Zm97.066-.483v-.519h-5.229c.318 1.041-.02.963 3.256.998l1.967.021v-.508l.006.008Zm33.129.178c.644-1.722-1.674-1.438-1.674-.68 0 .071 1.457 1.229 1.674.68Zm-155.47-.018-2.556-1.679c-.114 2.211-.416 1.273 2.467 1.756a.067.067 0 0 0 .034 0 .063.063 0 0 0 .031-.015.072.072 0 0 0 .021-.028.077.077 0 0 0 .007-.034h-.003Zm104.038-.692c.042-.152.048-.312.017-.466-.678-.694-61.698-1.566-71.408-1.625v.641l71.31 1.852.081-.402Zm-73.72-1.803.037-.35h-3.935c.595.645.657.739 3.04.713.787-.01.812-.017.853-.363h.005Zm92.023-.35v-.641l-7.044-.171 1.081 1.316 5.963.137v-.641Zm-16.677-.204c1.336-.491 1.615.573 2.039 0 .519-.707.569-.683-1.369-.683l-72.907-1.024c-.734 0-.841.03-.841.238 0 .209.184.245 3.214.324l30.18.4 34.575.891c4.25.188 4.232.188 5.109-.139v-.007Zm42.079-.111c.619-2.557-2.664-.437-.97.097.807.256.886.247.97-.097Zm-35.522-.147.296-.321h-1.054l.459.637s.141-.141.305-.316h-.006ZM99.426 129.5c0-2.025-.26-1.953 6.709-1.837l5.552.092c-1.483-2.936-1.237-6.111.994-8.299 3.478-3.41 9.452-2.533 12.113-4.254 3.751-2.444-.307-10.118-15.319-6.977-5.863 1.222-15.045 4.956-22.385 3.83-2.641-.405-4.137-.916-9.156-3.113-5.534-2.425-4.26-2.431-5.72-.431-1.553 2.128-1.713 1.996-3.12 1.854-2.915 4.611-3.172 3.803-.41 7.487 4.184 5.583 6.781 7.298 12.816 9.478 3.066 1.109 2.064 1.128 6.144 1.978 6.984 1.44 3.46 1.192 11.78 1.224V129.5h.002Zm110.385-.077c.12-.628-.717-2.578-1.901-.188 1.072.376 1.789.802 1.901.188Zm-70.749-1.613c-2.154-1.632-7.179-6.939-10.22-10.073-3.026.643-2.455-.718-3.239-.188-2.861 1.918-12.232.658-12.248 6.465 0 2.079 1.195 3.557 1.879 3.809l24.201.274-.367-.282-.006-.005Zm63.203-.763c-.132-1.753-2.657-.497-2.333-.166a20 20 0 0 0 2.267.69c.059.013.086-.227.066-.524Zm-95.524-54.045c1.824-.847 2.345-3.28 2.811-5.556-5.034-3.879-6.856-10.163-5.94-10.528.815-.321 3.689 7.144 9.833 10.326 1.703.888 2.677.897 4.892.047 5.014-1.92 6.846-3.701 8.538-7.184-1.371-1.044-1.169-2.008-.967-1.88l1.917.564 2.997-1.771c-2.853-1.252-3.879-.696-2.338-1.47 1.212-.607 2.476-.611 3.34 0 .784.545 1.122-.177 2.57-1.692-4.324-4.361-8.029-8.356-10.338-12.89-2.077-4.085 1.101 4.675 1.727 6.154 1 2.348 2.123 4.285-.516 2.92-4.692-2.42-8.946-7.305-10.846-12.464l-.483-1.316c-1.169 2.456-1.572 3.572-3.949 5.465-2.98 2.382-2.514 3.694-3.25 1.927-1.835-4.388-7.28-1.226-6.9 3.709.279 3.643 4.461 2.76 4.461 3.141 0 2.713-8.368 8.022-8.363 8.484.018 1.656 5.873 16.355 10.806 14.018l-.002-.004Zm10.407-7.083c-2.173-.63-2.49-2.195-2.659-4.113 1.373 1.504 1.903 2.183 4.052 2.996.707.271 1.309.555 1.333.634.134.408-1.801.752-2.726.483Zm3.559-2.393c-1.201-.261-2.067-2.267-1.468-1.936.324.188 1.339.312 1.64.216.331-.107 2.202-3.008 2.641-3.008 0 0 0 5.337-2.819 4.73l.006-.002Zm-2.731-7.279c-1.285-.42-2.768-4.105-1.164-2.598l3.647 2.256c-.754.327-1.734.592-2.483.35v-.008Zm4.258-2.256c-1.149-2.218-5.343-3.661-5.299-3.804.083-.265 1.707-.62 2.456-.542 4.236.46 3.566 5.76 2.843 4.346Zm-19.793-4.79c-1.468-.336.481-.672.481-1.043 0-.928-1.536-2.404.811-3.701.897-.495.974-.483.883-1.228-.079-.637.011-.675.462-.188.883.94.879 1.916-.016 2.835-1.366 1.4.594 3.33-2.621 3.33V49.2Zm38.372-13.5c-.435-6.638-5.905-10.44-12.553-10.607l-2.182-.052c9.36 2.047 12.645 4.985 14.368 14.386.219 1.183.395-3.299.367-3.726V35.7Zm-35.093-1.403c1.514-3.384 5.594-7.999 9.164-9.599l.959-.428c-4.547.425-7.227 1.71-9.245 6.18-.441.975-2.052 6.464-.883 3.847h.005Z" fill="#3F170D"/></g><defs><clipPath id="a"><path fill="#fff" d="M0 0h268v310H0z"/></clipPath></defs></svg>