<svg width="56" height="56" fill="none" xmlns="http://www.w3.org/2000/svg"><g clip-path="url(#a)"><path d="M40.532 15.177c-.22-5.214-4.02-11.655-11.81-11.62h-1.593c-7.79-.035-11.59 6.406-11.811 11.62-.223 5.24 1.685 11.284 5.56 14.498 1.817 1.507 4.573 2.231 7.047 2.268 2.474-.037 5.23-.761 7.047-2.268 3.875-3.214 5.783-9.258 5.56-14.498Z" fill="#3F170D"/><path d="M53.076 56c.231-6.266-3.715-8.676-3.715-8.676l-16.626-9.398h-9.471L6.639 47.323S2.693 49.734 2.924 56h50.152Z" fill="#F9C5B8"/><path d="M22.081 39.141H33.92c-2.623-1.416-1.916-6.86-1.916-6.86h-8.006s.707 5.444-1.916 6.86Z" fill="#F9C5B8"/><path d="M23.833 36.374c2.828-.323 5.596-1.271 8.084-2.672.01-.837.086-1.422.086-1.422h-8.006s.278 2.146-.164 4.094ZM41.83 20.416c-.25 1.926-1.34 3.356-2.434 3.194-1.095-.162-1.78-1.854-1.532-3.78.25-1.926 1.34-3.356 2.434-3.194 1.095.162 1.78 1.854 1.532 3.78Z" fill="#F5A997"/><path d="M39.38 22.18a.33.33 0 0 1-.32-.251c-.273-1.105-.397-2.415.752-3.748a.33.33 0 0 1 .501.431c-.998 1.158-.839 2.238-.611 3.159a.33.33 0 0 1-.322.41Z" fill="#E9837B"/><path d="M40.492 20.261a.337.337 0 0 1-.063-.006c-.53-.1-1.077 0-1.082 0a.331.331 0 0 1-.123-.65 3.988 3.988 0 0 1 1.329 0 .33.33 0 0 1-.061.656Z" fill="#E9837B"/><path d="M14.215 20.416c.25 1.926 1.34 3.356 2.434 3.194 1.095-.162 1.781-1.854 1.532-3.78-.25-1.926-1.339-3.356-2.434-3.194-1.095.162-1.78 1.854-1.532 3.78Z" fill="#F5A997"/><path d="M16.665 22.18a.33.33 0 0 1-.321-.41c.227-.92.386-2-.612-3.158a.33.33 0 0 1 .5-.431c1.15 1.333 1.026 2.643.753 3.748a.33.33 0 0 1-.32.252Z" fill="#E9837B"/><path d="M15.554 20.261a.33.33 0 0 1-.062-.655 3.978 3.978 0 0 1 1.33 0 .33.33 0 0 1-.124.65c-.009-.003-.553-.101-1.082 0a.32.32 0 0 1-.062.005Z" fill="#E9837B"/><path d="M39.113 15.568c-.196-5.494-3.568-12.282-10.482-12.244H27.218c-6.914-.038-10.286 6.75-10.482 12.244-.198 5.522 1.495 11.89 4.934 15.278 1.613 1.588 4.059 2.351 6.254 2.39 2.196-.039 4.642-.802 6.254-2.39 3.44-3.387 5.133-9.756 4.935-15.278Z" fill="#F9C5B8"/><path d="M33.246 31.566c-1.545 1.078-3.53 1.606-5.344 1.638-.073-.001-.147-.005-.221-.008-1.754-.07-3.64-.596-5.123-1.63 0 0 4.541-2.315 10.688 0ZM32.736 37.925l16.625 9.4s3.947 2.41 3.715 8.675H2.924c-.231-6.266 3.715-8.676 3.715-8.676l16.625-9.398s5.02 3.081 9.472 0Z" fill="#3F170D"/><path d="m32.736 37.925 16.625 9.4s3.947 2.41 3.715 8.675H2.924c-.231-6.266 3.715-8.676 3.715-8.676l16.625-9.398s5.02 3.081 9.472 0Z" fill="#FFD284"/><path d="M25.665 22.083c0 .673-1.2 1.218-2.68 1.218-1.481 0-2.682-.545-2.682-1.218 0-.672 1.2-1.218 2.681-1.218 1.48 0 2.68.546 2.68 1.218ZM35.547 22.083c0 .673-1.2 1.218-2.68 1.218-1.481 0-2.682-.545-2.682-1.218 0-.672 1.2-1.218 2.681-1.218 1.48 0 2.68.546 2.68 1.218Z" fill="#F6AFA8"/><path d="M25.013 15.857c-.033.314-.281.525-.555.499a5.706 5.706 0 0 0-2.925.485c-.25.113-.554-.006-.686-.293a.6.6 0 0 1 .286-.786 6.542 6.542 0 0 1 3.355-.556.6.6 0 0 1 .525.651ZM30.837 15.857c.033.314.281.525.555.499a5.705 5.705 0 0 1 2.925.485c.251.113.554-.006.686-.293a.6.6 0 0 0-.286-.786 6.541 6.541 0 0 0-3.355-.556.6.6 0 0 0-.524.651Z" fill="#3F170D"/><path d="M30.62 27.347c-.377.582-1.44 1.611-2.695 1.611s-2.318-1.029-2.695-1.61h5.39Z" fill="#fff"/><path d="M27.815 25.952a.328.328 0 0 1-.126-.025c-.71-.293-1.098-.621-1.218-1.034-.158-.545.189-1.037.556-1.556.23-.326.468-.663.584-1.015a.331.331 0 0 1 .628.207c-.146.446-.426.84-.672 1.19-.273.385-.53.75-.461.99.04.136.217.352.835.606a.33.33 0 0 1-.126.637Z" fill="#E9837B"/><path d="M23.524 20.865c.487 0 .882-.743.882-1.66 0-.917-.395-1.66-.882-1.66s-.881.743-.881 1.66c0 .917.394 1.66.881 1.66ZM32.326 20.865c.487 0 .881-.743.881-1.66 0-.917-.394-1.66-.881-1.66s-.882.743-.882 1.66c0 .917.395 1.66.882 1.66ZM41.409 17.117c-.002 0-.204 0 0 0 .926-2.108 1.8-4.052.513-6.074-.603-.946-1.19-1.28-1.388-2.454-.19-1.134.043-2.111-.422-3.14-1.5-3.316-4.985-4.788-8.373-5.316 0 0-3.397-.593-3.716.725v4.134c3.38.042 1.537 3.1 2.598 4.947 0 0 2.056 5.76 10.788 7.178Z" fill="#3F170D"/><path d="M14.682 17.117c.002 0 .204 0 0 0-.927-2.108-1.8-4.052-.513-6.074.602-.946 1.19-1.28 1.387-2.454.19-1.134-.043-2.111.423-3.14 1.5-3.316 4.984-4.788 8.372-5.316 0 0 3.398-.593 3.717.725v4.134c-3.38.042-5.881 1.074-6.942 2.92-1.176 2.047-.313 5.821-1.632 7.054 0 0-1.076 2.129-4.812 2.15Z" fill="#3F170D"/></g><defs><clipPath id="a"><path fill="#fff" d="M0 0h56v56H0z"/></clipPath></defs></svg>