<svg width="56" height="56" fill="none" xmlns="http://www.w3.org/2000/svg"><g clip-path="url(#a)"><path d="M51.33 56c.217-5.83-3.455-8.072-3.455-8.072l-15.47-8.744h-8.812L8.125 47.928S4.454 50.17 4.67 56h46.66Z" fill="#F9C5B8"/><path d="M22.493 40.315h11.014c-2.44-1.318-1.783-6.384-1.783-6.384h-7.448s.657 5.066-1.783 6.384Z" fill="#F9C5B8"/><path d="M24.123 37.74c2.631-.301 5.207-1.183 7.522-2.487.009-.778.08-1.322.08-1.322h-7.45s.26 1.996-.152 3.809ZM40.846 22.646c-.231 1.791-1.245 3.122-2.264 2.971-1.019-.15-1.657-1.725-1.425-3.517.232-1.792 1.246-3.122 2.264-2.972 1.02.151 1.657 1.726 1.425 3.518Z" fill="#F5A997"/><path d="M38.567 24.287a.308.308 0 0 1-.298-.234c-.254-1.028-.37-2.247.7-3.487a.308.308 0 0 1 .466.401c-.928 1.077-.78 2.082-.569 2.939a.307.307 0 0 1-.299.38Z" fill="#E9837B"/><path d="M39.601 22.501a.31.31 0 0 1-.058-.005c-.493-.094-1.002-.001-1.007 0a.308.308 0 0 1-.114-.605 3.707 3.707 0 0 1 1.237 0 .307.307 0 0 1-.058.61Z" fill="#E9837B"/><path d="M15.154 22.646c.232 1.791 1.245 3.122 2.264 2.971 1.019-.15 1.657-1.725 1.426-3.517-.232-1.792-1.247-3.122-2.265-2.972-1.02.151-1.657 1.726-1.425 3.518Z" fill="#F5A997"/><path d="M17.433 24.287a.307.307 0 0 1-.299-.381c.212-.857.36-1.862-.57-2.939a.308.308 0 0 1 .467-.401c1.07 1.24.954 2.459.7 3.487a.308.308 0 0 1-.298.234Z" fill="#E9837B"/><path d="M16.399 22.501a.308.308 0 0 1-.057-.61 3.71 3.71 0 0 1 1.236 0 .308.308 0 0 1-.114.605 3.13 3.13 0 0 0-1.007 0 .31.31 0 0 1-.058.005Z" fill="#E9837B"/><path d="M38.32 18.352C38.137 13.24 35 6.925 28.567 6.96h-1.315c-6.433-.035-9.57 6.28-9.753 11.392-.183 5.138 1.392 11.064 4.592 14.215 1.5 1.477 3.776 2.188 5.819 2.223 2.042-.035 4.318-.746 5.818-2.223 3.2-3.151 4.775-9.077 4.592-14.215Z" fill="#F9C5B8"/><path d="M23.312 24.593c1.378 0 2.494-.507 2.494-1.133s-1.116-1.133-2.494-1.133c-1.377 0-2.494.507-2.494 1.133s1.117 1.133 2.494 1.133ZM32.506 24.593c1.378 0 2.495-.507 2.495-1.133s-1.117-1.133-2.495-1.133c-1.377 0-2.494.507-2.494 1.133s1.117 1.133 2.494 1.133Z" fill="#F6AFA8"/><path d="M35.72 5.878c5.383 3.998 3.798 13.27 3.798 13.27-1.458.105-.598 2.7-1.575 4.358-.74-1.59-.434-5.256-.434-5.256-.144-.873-.701-1.613-1.066-2.398-.376-.807-.017.007-.376-.807-.435-.988-.663-2.886-1.066-3.887-8.204 3.468-14.138 0-14.138 0-.404 1-.631 2.9-1.067 3.887-.359.814 0 0-.375.807-.365.785-.923 1.525-1.067 2.398 0 0 .307 3.665-.433 5.256-.978-1.658-.117-4.253-1.576-4.359 0 0-1.584-9.27 3.799-13.27 0 0 2.043-1.776 6.553-1.674 0 0 4.698-.41 4.554-3.075 0 0 1.138.914.753 2.559 0 0 2.28-1.637 2.076-3.687 0 0 2.87 3.246 1.64 5.878Z" fill="#3F170D"/><path d="M24.635 21.761a.308.308 0 0 1-.308-.307c0-.601-.275-1.067-.512-1.067s-.513.466-.513 1.067a.307.307 0 1 1-.615 0c0-.943.496-1.682 1.128-1.682.632 0 1.127.739 1.127 1.682 0 .17-.137.307-.307.307ZM32.824 21.761a.307.307 0 0 1-.307-.307c0-.601-.276-1.067-.513-1.067s-.512.466-.512 1.067a.307.307 0 1 1-.616 0c0-.943.496-1.682 1.128-1.682.632 0 1.128.739 1.128 1.682 0 .17-.138.307-.308.307Z" fill="#3F170D"/><path d="m36.756 41.642 11.119 6.286S51.547 50.17 51.33 56H4.669c-.215-5.83 3.456-8.072 3.456-8.072l11.119-6.285s.796 5.417 8.756 5.28c0 0 8.322-.035 8.756-5.28Z" fill="#FFD284"/><path d="M25.2 18.404c-.03.292-.262.488-.517.463a5.31 5.31 0 0 0-2.72.452c-.235.105-.517-.006-.64-.273a.558.558 0 0 1 .267-.731 6.086 6.086 0 0 1 3.121-.518c.3.03.519.315.488.607ZM30.619 18.404c.03.292.261.488.516.463a5.311 5.311 0 0 1 2.722.452c.233.105.514-.006.638-.273a.558.558 0 0 0-.267-.731 6.086 6.086 0 0 0-3.12-.518.558.558 0 0 0-.49.607Z" fill="#3F170D"/><path d="M27.676 26.387a.307.307 0 0 1-.117-.023c-.661-.272-1.022-.578-1.133-.962-.147-.507.175-.964.517-1.448.214-.303.435-.616.543-.944a.308.308 0 0 1 .584.192c-.136.416-.395.783-.624 1.107-.254.36-.494.699-.43.921.037.127.202.329.777.565a.307.307 0 0 1-.117.592Z" fill="#E9837B"/><path d="M23.446 28.684c.606-.022 1.184-.191 1.754-.386.961-.327 2.065-.81 3.1-.547 1.206.308 2.178 1.09 3.492.932a4.603 4.603 0 0 0 1.864-.663c-.305-.144-.575-.39-.822-.6-.531-.456-1.006-.836-1.706-.98-.725-.15-1.493-.093-2.227-.058-.283.013-.59.046-.901.079v-.003h-.277c-.312-.033-.618-.066-.902-.08-.733-.034-1.501-.09-2.226.058-.7.145-1.175.524-1.706.98-.306.261-.645.576-1.043.685.45.37.983.606 1.6.583Z" fill="#3F170D"/><path d="M24.568 28.616a3.526 3.526 0 0 0 3.341 2.406 3.525 3.525 0 0 0 3.342-2.406h-6.683Z" fill="#fff"/></g><defs><clipPath id="a"><path fill="#fff" d="M0 0h56v56H0z"/></clipPath></defs></svg>