<svg width="56" height="56" fill="none" xmlns="http://www.w3.org/2000/svg"><g clip-path="url(#a)"><path d="M53.136 56c.233-6.28-3.723-8.697-3.723-8.697l-16.666-9.421h-9.495L6.587 47.303S2.631 49.72 2.864 56h50.272Z" fill="#F9C5B8"/><path d="M22.067 39.1h11.866c-2.629-1.42-1.92-6.877-1.92-6.877h-8.025s.708 5.458-1.921 6.877Z" fill="#F9C5B8"/><path d="M23.823 36.326c2.835-.324 5.61-1.274 8.104-2.678.01-.838.086-1.425.086-1.425h-8.025s.278 2.15-.165 4.103ZM41.84 20.064c-.25 1.93-1.341 3.364-2.439 3.202-1.098-.163-1.785-1.86-1.536-3.79.25-1.93 1.343-3.364 2.44-3.201 1.098.162 1.786 1.858 1.536 3.789Z" fill="#F5A997"/><path d="M39.385 21.832a.332.332 0 0 1-.321-.252c-.274-1.108-.398-2.42.754-3.757a.332.332 0 0 1 .502.433c-1 1.16-.84 2.242-.613 3.166a.331.331 0 0 1-.322.41Z" fill="#E9837B"/><path d="M40.5 19.908a.333.333 0 0 1-.063-.006c-.532-.1-1.08 0-1.086 0a.332.332 0 0 1-.123-.65 3.986 3.986 0 0 1 1.333 0 .332.332 0 0 1-.062.656Z" fill="#E9837B"/><path d="M14.16 20.064c.25 1.93 1.341 3.364 2.44 3.202 1.097-.163 1.784-1.86 1.535-3.79-.25-1.93-1.343-3.364-2.44-3.201-1.098.162-1.786 1.858-1.536 3.789Z" fill="#F5A997"/><path d="M16.615 21.832a.331.331 0 0 1-.322-.411c.228-.923.387-2.005-.613-3.165a.332.332 0 0 1 .502-.433c1.152 1.337 1.028 2.65.754 3.757a.331.331 0 0 1-.321.252Z" fill="#E9837B"/><path d="M15.5 19.908a.331.331 0 0 1-.06-.657 3.992 3.992 0 0 1 1.332 0 .332.332 0 0 1-.123.652c-.01-.002-.556-.1-1.086 0a.333.333 0 0 1-.062.005Z" fill="#E9837B"/><path d="M39.118 15.438c-.196-5.507-3.577-12.31-10.507-12.273H27.194c-6.93-.038-10.31 6.766-10.508 12.273-.198 5.536 1.5 11.92 4.947 15.315 1.617 1.592 4.068 2.357 6.27 2.396 2.2-.039 4.652-.804 6.268-2.396 3.448-3.395 5.145-9.78 4.947-15.315Z" fill="#F9C5B8"/><path d="M25.637 20.942c0 .674-1.203 1.22-2.688 1.22-1.484 0-2.687-.546-2.687-1.22 0-.675 1.203-1.222 2.687-1.222 1.485 0 2.688.547 2.688 1.222ZM35.543 20.942c0 .674-1.203 1.22-2.688 1.22-1.484 0-2.687-.546-2.687-1.22 0-.675 1.203-1.222 2.687-1.222 1.485 0 2.688.547 2.688 1.222Z" fill="#F6AFA8"/><path d="M36.318 1.998S32.648-.064 27.927.001c-4.722-.065-8.391 1.997-8.391 1.997-5.8 4.308-4.093 14.297-4.093 14.297 1.572.114.645 2.91 1.698 4.696.797-1.714.467-5.662.467-5.662.155-.941.756-1.739 1.15-2.585.404-.869.017.008.404-.869.469-1.064.714-3.11 1.149-4.188 3.142-.57 5.638-.799 7.616-.823 1.978.024 4.473.253 7.616.823.434 1.079.68 3.124 1.149 4.188.387.877 0 0 .404.87.394.845.994 1.643 1.15 2.584 0 0-.331 3.948.466 5.662 1.054-1.786.127-4.582 1.698-4.696 0 0 1.707-9.989-4.092-14.297Z" fill="#3F170D"/><path d="M24.374 19.111a.331.331 0 0 1-.331-.331c0-.648-.297-1.15-.552-1.15-.256 0-.553.503-.553 1.15a.331.331 0 0 1-.662 0c0-1.016.533-1.812 1.215-1.812.68 0 1.214.796 1.214 1.812a.33.33 0 0 1-.33.331ZM33.197 19.111a.331.331 0 0 1-.331-.331c0-.648-.297-1.15-.552-1.15-.256 0-.552.503-.552 1.15a.331.331 0 0 1-.663 0c0-1.016.533-1.812 1.214-1.812.682 0 1.216.796 1.216 1.812a.331.331 0 0 1-.332.331Z" fill="#3F170D"/><path d="m37.434 40.531 11.98 6.772S53.368 49.72 53.135 56H2.864c-.233-6.28 3.723-8.697 3.723-8.697l11.979-6.772 8.613 6.41 10.255-6.41Z" fill="#FFD284"/><path d="M24.983 15.494c-.033.315-.282.526-.556.5a5.72 5.72 0 0 0-2.932.486c-.252.113-.555-.006-.688-.294a.6.6 0 0 1 .287-.788 6.555 6.555 0 0 1 3.363-.557.6.6 0 0 1 .526.653ZM30.822 15.494c.032.315.281.526.556.5a5.72 5.72 0 0 1 2.932.486c.251.113.555-.006.688-.294a.6.6 0 0 0-.287-.788 6.557 6.557 0 0 0-3.363-.557.601.601 0 0 0-.526.653Z" fill="#3F170D"/><path d="M27.65 24.096a.33.33 0 0 1-.125-.026c-.713-.293-1.101-.622-1.221-1.036-.159-.546.189-1.039.557-1.56.231-.326.47-.664.586-1.017a.332.332 0 0 1 .63.207c-.148.448-.428.843-.674 1.192-.274.388-.532.753-.463.993.04.137.217.354.837.609a.331.331 0 0 1-.126.638Z" fill="#E9837B"/><path d="M36.995 23.124c-.325 1.17-1.035 3.249-2.651 2.825-.435-.114-.804-.458-1.136-.742-.572-.49-1.084-.9-1.838-1.055-.781-.161-1.609-.1-2.4-.062-.305.014-.634.05-.97.085v-.004H27.7c-.336-.035-.666-.07-.97-.085-.791-.038-1.619-.099-2.4.062-.754.156-1.266.565-1.838 1.055-.332.285-.701.628-1.136.742-1.616.424-2.326-1.654-2.65-2.825-.3-1.075-.55-2.627-1.864-3.008.604 4.144 2.183 10.502 4.683 12.965 1.594 1.57 3.998 2.334 6.175 2.392v.003H28c2.176-.058 4.581-.822 6.175-2.391 2.5-2.463 4.079-8.822 4.683-12.965-1.313.38-1.565 1.933-1.863 3.008Z" fill="#3F170D"/><path d="M24.302 26.496a3.798 3.798 0 0 0 3.6 2.593 3.798 3.798 0 0 0 3.6-2.593h-7.2Z" fill="#fff"/></g><defs><clipPath id="a"><path fill="#fff" d="M0 0h56v56H0z"/></clipPath></defs></svg>