<svg width="56" height="56" fill="none" xmlns="http://www.w3.org/2000/svg"><g clip-path="url(#a)"><path d="M14.188 20.649c.722 1.286.168 2.452.269 3.67.089 1.067.522 2.223 1.094 3.149 1.138 1.84 3.011 2.709 4.694 3.977 4.14 3.12 8.361 3.75 8.64-2.614.16-3.617.392-8.934-2.31-11.63-3.26-3.252-10.784-2.26-12.539 2.084" fill="#3F170D"/><path d="M41.335 20.649c-.722 1.286-.168 2.452-.269 3.67-.089 1.067-.522 2.223-1.094 3.149-1.138 1.84-3.011 2.71-4.694 3.977-4.14 3.12-8.361 3.75-8.64-2.614-.16-3.617-.392-8.934 2.31-11.63 3.26-3.252 10.784-2.26 12.539 2.084" fill="#3F170D"/><path d="M53.86 56c.24-6.462-3.83-8.947-3.83-8.947L32.884 37.36h-9.768L5.97 47.053S1.9 49.538 2.14 56h51.72Z" fill="#F9C5B8"/><path d="M21.896 38.614h12.208c-2.705-1.461-1.976-7.076-1.976-7.076h-8.256s.729 5.615-1.976 7.076Z" fill="#F9C5B8"/><path d="M23.703 35.76c2.916-.334 5.771-1.311 8.337-2.756.01-.862.088-1.466.088-1.466h-8.256s.286 2.213-.17 4.221ZM42.24 19.029c-.258 1.986-1.381 3.46-2.51 3.294-1.13-.167-1.837-1.913-1.58-3.899.257-1.986 1.38-3.46 2.51-3.294 1.13.167 1.836 1.913 1.58 3.899Z" fill="#F5A997"/><path d="M39.713 20.848a.34.34 0 0 1-.33-.26c-.282-1.139-.41-2.49.776-3.865a.34.34 0 1 1 .516.446c-1.029 1.194-.865 2.307-.63 3.256a.34.34 0 0 1-.332.423Z" fill="#E9837B"/><path d="M40.86 18.869a.351.351 0 0 1-.065-.006c-.547-.104-1.11 0-1.117 0a.342.342 0 0 1-.126-.67 4.112 4.112 0 0 1 1.37 0 .34.34 0 0 1-.063.676Z" fill="#E9837B"/><path d="M13.76 19.029c.258 1.986 1.381 3.46 2.51 3.294 1.13-.167 1.837-1.913 1.58-3.899-.257-1.986-1.38-3.46-2.51-3.294-1.129.167-1.836 1.913-1.58 3.899Z" fill="#F5A997"/><path d="M16.287 20.848a.34.34 0 0 1-.331-.423c.234-.95.398-2.062-.631-3.256a.34.34 0 1 1 .516-.446c1.186 1.376 1.058 2.726.776 3.866a.341.341 0 0 1-.33.26Z" fill="#E9837B"/><path d="M15.14 18.869a.341.341 0 0 1-.063-.676 4.109 4.109 0 0 1 1.371 0 .341.341 0 0 1-.127.67 3.466 3.466 0 0 0-1.116 0 .342.342 0 0 1-.064.006Z" fill="#E9837B"/><path d="M39.438 14.27c-.202-5.666-3.68-12.666-10.81-12.627H27.171c-7.13-.039-10.608 6.96-10.81 12.627-.204 5.695 1.542 12.263 5.089 15.756 1.663 1.637 4.185 2.425 6.45 2.464 2.263-.04 4.786-.827 6.449-2.464 3.547-3.493 5.293-10.061 5.09-15.756Z" fill="#F9C5B8"/><path d="M39.452 14.805c-.682-.042-1.01-.044-1.086 1.262 0 0-.663 8.313-3.112 9.45-1.117.112-1.72-.612-2.521-1.093-1.279-.768-2.638.27-3.838.681-.308.105-.604.16-.892.174l-.104.002-.103-.002a3.183 3.183 0 0 1-.892-.174c-1.2-.411-2.56-1.45-3.838-.681-.801.48-1.404 1.205-2.52 1.092-2.45-1.136-3.113-9.45-3.113-9.45-.077-1.305-.404-1.303-1.086-1.261-.08 5.566 1.666 11.837 5.103 15.221 1.607 1.582 4.017 2.369 6.22 2.456l.23.009c2.264-.04 4.786-.827 6.449-2.465 3.436-3.384 5.183-9.655 5.103-15.221Z" fill="#3F170D"/><path d="m32.884 37.36 17.146 9.693S54.1 49.538 53.86 56H2.14c-.24-6.462 3.83-8.947 3.83-8.947l17.146-9.693s5.176 3.178 9.768 0Z" fill="#9CAAD8"/><path d="m32.884 37.36 17.146 9.693S54.1 49.538 53.86 56H2.14c-.24-6.462 3.83-8.947 3.83-8.947l17.146-9.693s5.176 3.178 9.768 0Z" fill="#FFD284"/><path d="M22.804 22.004c1.527 0 2.765-.562 2.765-1.256 0-.693-1.238-1.256-2.765-1.256-1.527 0-2.765.563-2.765 1.256 0 .694 1.238 1.256 2.765 1.256ZM32.995 22.004c1.527 0 2.765-.562 2.765-1.256 0-.693-1.238-1.256-2.765-1.256-1.527 0-2.765.563-2.765 1.256 0 .694 1.238 1.256 2.765 1.256Z" fill="#F6AFA8"/><path d="M24.896 14.327c-.034.324-.29.541-.572.514a5.883 5.883 0 0 0-3.017.5c-.258.118-.57-.005-.707-.301a.618.618 0 0 1 .295-.811 6.744 6.744 0 0 1 3.46-.574.618.618 0 0 1 .54.672ZM30.903 14.327c.034.324.29.541.572.514a5.883 5.883 0 0 1 3.017.5c.258.118.57-.005.707-.301a.618.618 0 0 0-.295-.811 6.745 6.745 0 0 0-3.46-.574.618.618 0 0 0-.54.672Z" fill="#3F170D"/><path d="M27.786 24.738a.342.342 0 0 1-.13-.026c-.733-.302-1.132-.64-1.256-1.067-.163-.562.195-1.068.574-1.604.237-.336.482-.683.602-1.047a.341.341 0 0 1 .648.213c-.152.46-.44.868-.694 1.227-.281.398-.547.775-.475 1.021.04.141.223.364.86.626a.341.341 0 0 1-.13.657Z" fill="#E9837B"/><path d="M23.36 19.492c.503 0 .91-.767.91-1.713 0-.945-.407-1.712-.91-1.712-.501 0-.908.767-.908 1.712 0 .946.407 1.713.909 1.713ZM32.438 19.492c.502 0 .909-.767.909-1.713 0-.945-.407-1.712-.909-1.712s-.909.767-.909 1.712c0 .946.407 1.713.909 1.713Z" fill="#3F170D"/><path d="M25.472 25.871a2.56 2.56 0 0 0 4.855 0h-4.855Z" fill="#fff"/><path d="M28 .912v4.396c-3.61.045-6.278 1.142-7.41 3.105-1.256 2.176-.335 6.19-1.743 7.5-.859.8-2.109-.712-3.084-.528-2.163.012-2.056 2.783-2.055 2.815.002 0 .218 0 0 0-.99-2.24-1.922-4.308-.547-6.458.643-1.006 1.27-1.36 1.481-2.61.204-1.205-.046-2.244.451-3.338 1.602-3.526 5.322-5.091 8.94-5.653 0 0 3.626-.63 3.967.771ZM28 .912v4.396c3.61.045 6.28 1.142 7.412 3.105 1.256 2.176.335 6.19 1.742 7.5.86.8 2.11-.712 3.085-.528 2.162.012 2.055 2.783 2.054 2.815-.002 0-.218 0 0 0 .99-2.24 1.922-4.308.548-6.458-.644-1.006-1.27-1.36-1.482-2.61-.203-1.205.046-2.244-.45-3.338-1.603-3.526-5.323-5.091-8.94-5.653 0 0-3.628-.63-3.969.771Z" fill="#3F170D"/><path d="M22.095 22.391c-2.691 0-4.88-2.19-4.88-4.88s2.189-4.88 4.88-4.88c2.69 0 4.88 2.19 4.88 4.88s-2.19 4.88-4.88 4.88Zm0-8.85a3.975 3.975 0 0 0-3.971 3.97c0 2.19 1.781 3.97 3.97 3.97a3.976 3.976 0 0 0 3.972-3.97c0-2.19-1.782-3.97-3.971-3.97ZM33.707 22.391c-2.69 0-4.88-2.19-4.88-4.88s2.19-4.88 4.88-4.88c2.691 0 4.88 2.19 4.88 4.88s-2.189 4.88-4.88 4.88Zm0-8.85a3.975 3.975 0 0 0-3.97 3.97c0 2.19 1.78 3.97 3.97 3.97 2.19 0 3.971-1.78 3.971-3.97 0-2.19-1.781-3.97-3.97-3.97Z" fill="#fff"/><path d="M17.814 19.128h-1.358a.455.455 0 1 1 0-.91h1.358a.455.455 0 0 1 0 .91ZM39.343 19.128H37.94a.455.455 0 1 1 0-.91h1.404a.455.455 0 0 1 0 .91ZM26.52 18.03a.453.453 0 0 1-.35-.743c.03-.038.766-.916 1.793-.916.621 0 1.19.308 1.69.916a.455.455 0 0 1-.7.578c-.32-.388-.654-.585-.99-.585-.593 0-1.087.579-1.092.585a.452.452 0 0 1-.35.165Z" fill="#fff"/></g><defs><clipPath id="a"><path fill="#fff" d="M0 0h56v56H0z"/></clipPath></defs></svg>