<svg width="56" height="56" fill="none" xmlns="http://www.w3.org/2000/svg"><g clip-path="url(#a)"><path d="M52.359 56c.225-6.087-3.608-8.428-3.608-8.428l-16.15-9.13h-9.202l-16.15 9.13S3.416 49.913 3.641 56H52.36Z" fill="#F9C5B8"/><path d="M22.25 39.623h11.5c-2.548-1.375-1.862-6.664-1.862-6.664h-7.776s.686 5.288-1.861 6.664Z" fill="#F9C5B8"/><path d="M23.952 36.935c2.748-.314 5.437-1.235 7.853-2.596.01-.812.083-1.38.083-1.38h-7.776s.27 2.084-.16 3.976Z" fill="#F5A997"/><path d="M40.768 12.041H15.31c-.997 7.954 1.376 17.702 9.076 20.36 1.098.379 2.516.87 3.654.592 1.137.278 2.555-.213 3.654-.592 7.7-2.658 10.073-12.406 9.075-20.36Z" fill="#3F170D"/><path d="M41.413 21.176c-.242 1.87-1.301 3.26-2.365 3.102-1.064-.157-1.73-1.801-1.488-3.672.242-1.87 1.3-3.26 2.364-3.103 1.065.158 1.73 1.802 1.489 3.673Z" fill="#F5A997"/><path d="M39.033 22.89a.321.321 0 0 1-.312-.245c-.265-1.073-.385-2.346.732-3.641a.321.321 0 0 1 .486.42c-.97 1.124-.815 2.172-.594 3.067a.32.32 0 0 1-.312.398Z" fill="#E9837B"/><path d="M40.112 21.025a.327.327 0 0 1-.06-.006c-.515-.097-1.046 0-1.052 0a.322.322 0 0 1-.12-.63 3.874 3.874 0 0 1 1.292 0 .321.321 0 0 1-.06.636Z" fill="#E9837B"/><path d="M14.587 21.176c.242 1.87 1.301 3.26 2.365 3.102 1.064-.157 1.73-1.801 1.488-3.672-.242-1.87-1.301-3.26-2.365-3.103-1.063.158-1.73 1.802-1.488 3.673Z" fill="#F5A997"/><path d="M16.967 22.89a.32.32 0 0 1-.312-.398c.22-.895.375-1.944-.594-3.069a.321.321 0 1 1 .486-.419c1.117 1.295.996 2.568.731 3.641a.32.32 0 0 1-.311.244Z" fill="#E9837B"/><path d="M17.06 21.025a.322.322 0 0 1-.06-.006c-.01-.001-.538-.097-1.052 0a.321.321 0 0 1-.12-.63 3.858 3.858 0 0 1 1.291 0 .321.321 0 0 1-.06.636Z" fill="#E9837B"/><path d="M38.774 16.693c-.19-5.337-3.466-11.93-10.183-11.894H27.22c-6.717-.036-9.992 6.557-10.183 11.894-.192 5.364 1.453 11.551 4.794 14.841 1.566 1.543 3.943 2.284 6.075 2.322 2.133-.038 4.51-.78 6.075-2.322 3.341-3.29 4.986-9.477 4.794-14.84Z" fill="#F9C5B8"/><path d="M17.381 22.433s.414-.173.41-6.123c.952-2.394 3.055-1.36 5.24-1.817 2.04-.427 2.812-2.287 3.773-3.895 1.299-2.176 4.475-.734 6.108-2.331 0 2.691 1.064 4.593 3.241 6.327 2.486 1.98 1.98 4.849 2.123 7.822 1.101-.78.227-4.508 1.75-4.612 0 0 3.537-9.068-4.268-13.943-.998-4.474-7.482-5.367-9.922-1.046-7.347-3.395-9.362 5.032-9.362 5.032-2.655 2.07-1.952 8.031-.345 9.765.93 1.002.636 2.498 1.252 4.821Z" fill="#3F170D"/><path d="m32.6 38.442 16.15 9.13S52.585 49.913 52.36 56H3.64c-.225-6.087 3.608-8.428 3.608-8.428l16.15-9.13s4.876 2.994 9.201 0Z" fill="#FFD284"/><path d="M27.824 29.006c-1.493 0-2.44-.832-2.453-.844a.321.321 0 0 1 .43-.477c.073.065 1.776 1.533 4.252-.033a.321.321 0 0 1 .343.543c-.96.608-1.833.811-2.572.811Z" fill="#E9837B"/><path d="M23.105 23.978c1.439 0 2.605-.53 2.605-1.183s-1.166-1.183-2.605-1.183c-1.438 0-2.604.53-2.604 1.183s1.166 1.183 2.604 1.183ZM32.705 23.978c1.438 0 2.604-.53 2.604-1.183s-1.166-1.183-2.604-1.183c-1.438 0-2.604.53-2.604 1.183s1.166 1.183 2.604 1.183Z" fill="#F6AFA8"/><path d="M25.076 16.747c-.032.305-.273.51-.539.484a5.543 5.543 0 0 0-2.841.471c-.244.11-.538-.005-.667-.284a.582.582 0 0 1 .278-.764 6.352 6.352 0 0 1 3.26-.54c.312.03.54.328.509.633ZM30.734 16.747c.032.305.273.51.54.484a5.543 5.543 0 0 1 2.84.471c.244.11.538-.005.667-.284a.582.582 0 0 0-.278-.764 6.353 6.353 0 0 0-3.259-.54.582.582 0 0 0-.51.633Z" fill="#3F170D"/><path d="M27.798 26.553a.321.321 0 0 1-.122-.024c-.69-.284-1.067-.604-1.183-1.005-.154-.53.183-1.006.54-1.511.224-.317.455-.644.567-.986a.322.322 0 0 1 .61.2c-.142.434-.413.818-.652 1.156-.265.376-.516.73-.448.962.038.133.21.343.81.59a.321.321 0 0 1-.122.618Z" fill="#E9837B"/><path d="M23.63 21.612c.473 0 .857-.723.857-1.613 0-.891-.384-1.613-.857-1.613s-.856.722-.856 1.613c0 .89.383 1.613.856 1.613ZM32.18 21.612c.473 0 .857-.723.857-1.613 0-.891-.384-1.613-.857-1.613s-.856.722-.856 1.613c0 .89.383 1.613.856 1.613Z" fill="#3F170D"/></g><defs><clipPath id="a"><path fill="#fff" d="M0 0h56v56H0z"/></clipPath></defs></svg>